G04 #@! TF.FileFunction,Soldermask,Top*
%FSLAX46Y46*%
G04 Gerber Fmt 4.6, Leading zero omitted, Abs format (unit mm)*
G04 Created by KiCad (PCBNEW 4.0.1-stable) date 30/08/2016 2:09:59 p.m.*
%MOMM*%
G01*
G04 APERTURE LIST*
%ADD10C,0.100000*%
%ADD11R,2.127200X2.432000*%
%ADD12O,2.127200X2.432000*%
%ADD13C,3.900120*%
%ADD14O,5.401260X3.900120*%
%ADD15C,2.000200*%
%ADD16R,2.100000X2.400000*%
%ADD17R,1.700000X1.700000*%
%ADD18C,1.700000*%
%ADD19R,2.000000X2.400000*%
%ADD20R,2.400000X2.000000*%
%ADD21C,2.099260*%
%ADD22R,2.099260X2.099260*%
%ADD23R,2.400000X2.100000*%
%ADD24O,2.000000X2.000000*%
%ADD25C,1.543000*%
%ADD26R,2.432000X2.127200*%
%ADD27O,2.432000X2.127200*%
%ADD28R,2.398980X2.398980*%
%ADD29C,2.800000*%
%ADD30R,2.800000X2.800000*%
%ADD31R,2.400000X2.400000*%
%ADD32C,2.400000*%
%ADD33R,1.000000X1.950000*%
G04 APERTURE END LIST*
D10*
D11*
X41910000Y-31750000D03*
D12*
X44450000Y-31750000D03*
X46990000Y-31750000D03*
D13*
X5001260Y-75008740D03*
X5001260Y-5008880D03*
X95001080Y-5008880D03*
X95001080Y-75008740D03*
D14*
X8356600Y-34307780D03*
X8356600Y-24109680D03*
D15*
X12621260Y-29210000D03*
X12621260Y-31709360D03*
D16*
X17780000Y-50260000D03*
X17780000Y-46260000D03*
D17*
X17780000Y-11430000D03*
D18*
X17780000Y-13430000D03*
D17*
X17780000Y-17145000D03*
D18*
X17780000Y-19145000D03*
D17*
X22860000Y-7620000D03*
D18*
X22860000Y-9620000D03*
D19*
X21590000Y-61690000D03*
X21590000Y-57690000D03*
X34290000Y-46260000D03*
X34290000Y-50260000D03*
X54610000Y-20860000D03*
X54610000Y-24860000D03*
X50800000Y-14510000D03*
X50800000Y-18510000D03*
X38100000Y-60230000D03*
X38100000Y-64230000D03*
X50800000Y-55150000D03*
X50800000Y-59150000D03*
X38100000Y-20860000D03*
X38100000Y-24860000D03*
X67310000Y-53880000D03*
X67310000Y-57880000D03*
X54610000Y-58960000D03*
X54610000Y-62960000D03*
X67310000Y-14510000D03*
X67310000Y-18510000D03*
D20*
X69120000Y-25400000D03*
X73120000Y-25400000D03*
D19*
X87630000Y-14510000D03*
X87630000Y-18510000D03*
D21*
X78107540Y-40005520D03*
D22*
X78107540Y-29845520D03*
D16*
X17780000Y-53880000D03*
X17780000Y-57880000D03*
D23*
X29940000Y-43180000D03*
X25940000Y-43180000D03*
X25940000Y-62230000D03*
X29940000Y-62230000D03*
D16*
X15240000Y-7715000D03*
X15240000Y-3715000D03*
D23*
X73120000Y-21590000D03*
X69120000Y-21590000D03*
D24*
X24130000Y-48260000D03*
X24130000Y-50800000D03*
X24130000Y-53340000D03*
X24130000Y-55880000D03*
X31750000Y-55880000D03*
X31750000Y-53340000D03*
X31750000Y-50800000D03*
X31750000Y-48260000D03*
X40640000Y-16510000D03*
X40640000Y-19050000D03*
X40640000Y-21590000D03*
X40640000Y-24130000D03*
X48260000Y-24130000D03*
X48260000Y-21590000D03*
X48260000Y-19050000D03*
X48260000Y-16510000D03*
X40640000Y-55880000D03*
X40640000Y-58420000D03*
X40640000Y-60960000D03*
X40640000Y-63500000D03*
X48260000Y-63500000D03*
X48260000Y-60960000D03*
X48260000Y-58420000D03*
X48260000Y-55880000D03*
X57150000Y-55880000D03*
X57150000Y-58420000D03*
X57150000Y-60960000D03*
X57150000Y-63500000D03*
X64770000Y-63500000D03*
X64770000Y-60960000D03*
X64770000Y-58420000D03*
X64770000Y-55880000D03*
X57150000Y-16510000D03*
X57150000Y-19050000D03*
X57150000Y-21590000D03*
X57150000Y-24130000D03*
X64770000Y-24130000D03*
X64770000Y-21590000D03*
X64770000Y-19050000D03*
X64770000Y-16510000D03*
X76200000Y-16510000D03*
X76200000Y-19050000D03*
X76200000Y-21590000D03*
X76200000Y-24130000D03*
X83820000Y-24130000D03*
X83820000Y-21590000D03*
X83820000Y-19050000D03*
X83820000Y-16510000D03*
D25*
X44450000Y-39370000D03*
X53340000Y-33020000D03*
X53340000Y-38100000D03*
X53340000Y-44450000D03*
X73660000Y-43180000D03*
D19*
X74295000Y-62325000D03*
X74295000Y-58325000D03*
D11*
X66040000Y-40640000D03*
D12*
X63500000Y-40640000D03*
X60960000Y-40640000D03*
D11*
X60960000Y-31750000D03*
D12*
X63500000Y-31750000D03*
X66040000Y-31750000D03*
D26*
X74295000Y-54610000D03*
D27*
X74295000Y-52070000D03*
X74295000Y-49530000D03*
D11*
X41910000Y-46990000D03*
D12*
X44450000Y-46990000D03*
X46990000Y-46990000D03*
D10*
G36*
X26881480Y-31243880D02*
X26881480Y-28446120D01*
X30080560Y-28844900D01*
X30080560Y-30845100D01*
X26881480Y-31243880D01*
X26881480Y-31243880D01*
G37*
G36*
X34078520Y-28446120D02*
X34078520Y-31243880D01*
X30879440Y-30845100D01*
X30879440Y-28844900D01*
X34078520Y-28446120D01*
X34078520Y-28446120D01*
G37*
D28*
X25478740Y-29845000D03*
X35481260Y-29845000D03*
D10*
G36*
X59901480Y-49658880D02*
X59901480Y-46861120D01*
X63100560Y-47259900D01*
X63100560Y-49260100D01*
X59901480Y-49658880D01*
X59901480Y-49658880D01*
G37*
G36*
X67098520Y-46861120D02*
X67098520Y-49658880D01*
X63899440Y-49260100D01*
X63899440Y-47259900D01*
X67098520Y-46861120D01*
X67098520Y-46861120D01*
G37*
D28*
X58498740Y-48260000D03*
X68501260Y-48260000D03*
D10*
G36*
X34078520Y-34161120D02*
X34078520Y-36958880D01*
X30879440Y-36560100D01*
X30879440Y-34559900D01*
X34078520Y-34161120D01*
X34078520Y-34161120D01*
G37*
G36*
X26881480Y-36958880D02*
X26881480Y-34161120D01*
X30080560Y-34559900D01*
X30080560Y-36560100D01*
X26881480Y-36958880D01*
X26881480Y-36958880D01*
G37*
D28*
X35481260Y-35560000D03*
X25478740Y-35560000D03*
D14*
X8356600Y-51452780D03*
X8356600Y-41254680D03*
D15*
X12621260Y-46355000D03*
X12621260Y-48854360D03*
D14*
X8356600Y-68597780D03*
X8356600Y-58399680D03*
D15*
X12621260Y-63500000D03*
X12621260Y-65999360D03*
D14*
X91973400Y-35542220D03*
X91973400Y-45740320D03*
D15*
X87708740Y-40640000D03*
X87708740Y-38140640D03*
D29*
X11430000Y-14930000D03*
X11430000Y-18430000D03*
D30*
X11430000Y-11430000D03*
D19*
X80010000Y-62325000D03*
X80010000Y-58325000D03*
D26*
X80010000Y-54610000D03*
D27*
X80010000Y-52070000D03*
X80010000Y-49530000D03*
D25*
X79375000Y-43180000D03*
D21*
X75562460Y-29844480D03*
D22*
X75562460Y-40004480D03*
D31*
X9525000Y-4445000D03*
D32*
X12065000Y-4445000D03*
D20*
X28480000Y-10795000D03*
X32480000Y-10795000D03*
D16*
X16510000Y-24670000D03*
X16510000Y-28670000D03*
D23*
X28480000Y-5080000D03*
X32480000Y-5080000D03*
X28480000Y-7620000D03*
X32480000Y-7620000D03*
X34385000Y-18415000D03*
X30385000Y-18415000D03*
X34385000Y-23495000D03*
X30385000Y-23495000D03*
D16*
X19685000Y-24670000D03*
X19685000Y-28670000D03*
D33*
X27305000Y-18255000D03*
X26035000Y-18255000D03*
X24765000Y-18255000D03*
X23495000Y-18255000D03*
X23495000Y-23655000D03*
X24765000Y-23655000D03*
X26035000Y-23655000D03*
X27305000Y-23655000D03*
M02*
