%TF.GenerationSoftware,KiCad,Pcbnew,6.0.11-2627ca5db0~126~ubuntu20.04.1*%
%TF.CreationDate,2023-09-11T19:10:05-06:00*%
%TF.ProjectId,LaserPID,4c617365-7250-4494-942e-6b696361645f,rev?*%
%TF.SameCoordinates,Original*%
%TF.FileFunction,Drillmap*%
%TF.FilePolarity,Positive*%
%FSLAX45Y45*%
G04 Gerber Fmt 4.5, Leading zero omitted, Abs format (unit mm)*
G04 Created by KiCad (PCBNEW 6.0.11-2627ca5db0~126~ubuntu20.04.1) date 2023-09-11 19:10:05*
%MOMM*%
%LPD*%
G01*
G04 APERTURE LIST*
%ADD10C,0.150000*%
%ADD11C,0.200000*%
%ADD12C,0.040000*%
%ADD13C,0.050000*%
%ADD14C,0.075000*%
%ADD15C,0.080000*%
%ADD16C,0.089000*%
%ADD17C,0.090000*%
%ADD18C,0.100000*%
%ADD19C,0.152000*%
%ADD20C,0.201000*%
G04 APERTURE END LIST*
D10*
X74676000Y-1905000D02*
X74676000Y-13589000D01*
X74676000Y-1905000D02*
X84328000Y-1905000D01*
X74676000Y-13589000D02*
X84328000Y-13589000D01*
X84328000Y-13589000D02*
X84328000Y-1905000D01*
D11*
D12*
X77831000Y-12883200D02*
X77871000Y-12923200D01*
X77871000Y-12883200D02*
X77831000Y-12923200D01*
X78491400Y-9238300D02*
X78531400Y-9278300D01*
X78531400Y-9238300D02*
X78491400Y-9278300D01*
D13*
X78536400Y-8013700D02*
G75*
G03*
X78536400Y-8013700I-25000J0D01*
G01*
X78561800Y-10579100D02*
G75*
G03*
X78561800Y-10579100I-25000J0D01*
G01*
X78942800Y-12065000D02*
G75*
G03*
X78942800Y-12065000I-25000J0D01*
G01*
X81393900Y-9131300D02*
G75*
G03*
X81393900Y-9131300I-25000J0D01*
G01*
X82105100Y-6527800D02*
G75*
G03*
X82105100Y-6527800I-25000J0D01*
G01*
X82270200Y-9779000D02*
G75*
G03*
X82270200Y-9779000I-25000J0D01*
G01*
D14*
X76466700Y-5525100D02*
X76466700Y-5600100D01*
X76429200Y-5562600D02*
X76504200Y-5562600D01*
X77025500Y-11113100D02*
X77025500Y-11188100D01*
X76988000Y-11150600D02*
X77063000Y-11150600D01*
X77038200Y-8750900D02*
X77038200Y-8825900D01*
X77000700Y-8788400D02*
X77075700Y-8788400D01*
X77574587Y-5913331D02*
X77574587Y-5988331D01*
X77537087Y-5950831D02*
X77612087Y-5950831D01*
X77736700Y-4813900D02*
X77736700Y-4888900D01*
X77699200Y-4851400D02*
X77774200Y-4851400D01*
X77901800Y-6884000D02*
X77901800Y-6959000D01*
X77864300Y-6921500D02*
X77939300Y-6921500D01*
X77914500Y-6490300D02*
X77914500Y-6565300D01*
X77877000Y-6527800D02*
X77952000Y-6527800D01*
X78041500Y-4102700D02*
X78041500Y-4177700D01*
X78004000Y-4140200D02*
X78079000Y-4140200D01*
X78066900Y-10655900D02*
X78066900Y-10730900D01*
X78029400Y-10693400D02*
X78104400Y-10693400D01*
X78155800Y-5741000D02*
X78155800Y-5816000D01*
X78118300Y-5778500D02*
X78193300Y-5778500D01*
X78371700Y-12014800D02*
X78371700Y-12089800D01*
X78334200Y-12052300D02*
X78409200Y-12052300D01*
X78447900Y-4382100D02*
X78447900Y-4457100D01*
X78410400Y-4419600D02*
X78485400Y-4419600D01*
X78524100Y-6769700D02*
X78524100Y-6844700D01*
X78486600Y-6807200D02*
X78561600Y-6807200D01*
X78816200Y-7900000D02*
X78816200Y-7975000D01*
X78778700Y-7937500D02*
X78853700Y-7937500D01*
X80314800Y-6706200D02*
X80314800Y-6781200D01*
X80277300Y-6743700D02*
X80352300Y-6743700D01*
X80860900Y-9639900D02*
X80860900Y-9714900D01*
X80823400Y-9677400D02*
X80898400Y-9677400D01*
X81013300Y-12154500D02*
X81013300Y-12229500D01*
X80975800Y-12192000D02*
X81050800Y-12192000D01*
X81069000Y-6015500D02*
X81069000Y-6090500D01*
X81031500Y-6053000D02*
X81106500Y-6053000D01*
X81432400Y-4991700D02*
X81432400Y-5066700D01*
X81394900Y-5029200D02*
X81469900Y-5029200D01*
X81457800Y-5525100D02*
X81457800Y-5600100D01*
X81420300Y-5562600D02*
X81495300Y-5562600D01*
X81635600Y-4559900D02*
X81635600Y-4634900D01*
X81598100Y-4597400D02*
X81673100Y-4597400D01*
X81762600Y-8166700D02*
X81762600Y-8241700D01*
X81725100Y-8204200D02*
X81800100Y-8204200D01*
X82207100Y-10084400D02*
X82207100Y-10159400D01*
X82169600Y-10121900D02*
X82244600Y-10121900D01*
X83121500Y-9373200D02*
X83121500Y-9448200D01*
X83084000Y-9410700D02*
X83159000Y-9410700D01*
D15*
X77295085Y-11572584D02*
X77295085Y-11516015D01*
X77238516Y-11516015D01*
X77238516Y-11572584D01*
X77295085Y-11572584D01*
X77295085Y-11826584D02*
X77295085Y-11770015D01*
X77238516Y-11770015D01*
X77238516Y-11826584D01*
X77295085Y-11826584D01*
X77295085Y-12080584D02*
X77295085Y-12024015D01*
X77238516Y-12024015D01*
X77238516Y-12080584D01*
X77295085Y-12080584D01*
X77295085Y-12334584D02*
X77295085Y-12278015D01*
X77238516Y-12278015D01*
X77238516Y-12334584D01*
X77295085Y-12334584D01*
X77307785Y-7203784D02*
X77307785Y-7147215D01*
X77251216Y-7147215D01*
X77251216Y-7203784D01*
X77307785Y-7203784D01*
X77307785Y-7457784D02*
X77307785Y-7401215D01*
X77251216Y-7401215D01*
X77251216Y-7457784D01*
X77307785Y-7457784D01*
X77307785Y-7711784D02*
X77307785Y-7655215D01*
X77251216Y-7655215D01*
X77251216Y-7711784D01*
X77307785Y-7711784D01*
X77307785Y-7965784D02*
X77307785Y-7909215D01*
X77251216Y-7909215D01*
X77251216Y-7965784D01*
X77307785Y-7965784D01*
X77307785Y-9616785D02*
X77307785Y-9560216D01*
X77251216Y-9560216D01*
X77251216Y-9616785D01*
X77307785Y-9616785D01*
X77307785Y-9870785D02*
X77307785Y-9814216D01*
X77251216Y-9814216D01*
X77251216Y-9870785D01*
X77307785Y-9870785D01*
X77307785Y-10124785D02*
X77307785Y-10068216D01*
X77251216Y-10068216D01*
X77251216Y-10124785D01*
X77307785Y-10124785D01*
X77307785Y-10378785D02*
X77307785Y-10322216D01*
X77251216Y-10322216D01*
X77251216Y-10378785D01*
X77307785Y-10378785D01*
X78057085Y-11572584D02*
X78057085Y-11516015D01*
X78000516Y-11516015D01*
X78000516Y-11572584D01*
X78057085Y-11572584D01*
X78057085Y-11826584D02*
X78057085Y-11770015D01*
X78000516Y-11770015D01*
X78000516Y-11826584D01*
X78057085Y-11826584D01*
X78057085Y-12080584D02*
X78057085Y-12024015D01*
X78000516Y-12024015D01*
X78000516Y-12080584D01*
X78057085Y-12080584D01*
X78057085Y-12334584D02*
X78057085Y-12278015D01*
X78000516Y-12278015D01*
X78000516Y-12334584D01*
X78057085Y-12334584D01*
X78069785Y-7203784D02*
X78069785Y-7147215D01*
X78013216Y-7147215D01*
X78013216Y-7203784D01*
X78069785Y-7203784D01*
X78069785Y-7457784D02*
X78069785Y-7401215D01*
X78013216Y-7401215D01*
X78013216Y-7457784D01*
X78069785Y-7457784D01*
X78069785Y-7711784D02*
X78069785Y-7655215D01*
X78013216Y-7655215D01*
X78013216Y-7711784D01*
X78069785Y-7711784D01*
X78069785Y-7965784D02*
X78069785Y-7909215D01*
X78013216Y-7909215D01*
X78013216Y-7965784D01*
X78069785Y-7965784D01*
X78069785Y-9616785D02*
X78069785Y-9560216D01*
X78013216Y-9560216D01*
X78013216Y-9616785D01*
X78069785Y-9616785D01*
X78069785Y-9870785D02*
X78069785Y-9814216D01*
X78013216Y-9814216D01*
X78013216Y-9870785D01*
X78069785Y-9870785D01*
X78069785Y-10124785D02*
X78069785Y-10068216D01*
X78013216Y-10068216D01*
X78013216Y-10124785D01*
X78069785Y-10124785D01*
X78069785Y-10378785D02*
X78069785Y-10322216D01*
X78013216Y-10322216D01*
X78013216Y-10378785D01*
X78069785Y-10378785D01*
X78565085Y-12753684D02*
X78565085Y-12697115D01*
X78508516Y-12697115D01*
X78508516Y-12753684D01*
X78565085Y-12753684D01*
X78819085Y-12753684D02*
X78819085Y-12697115D01*
X78762516Y-12697115D01*
X78762516Y-12753684D01*
X78819085Y-12753684D01*
X79073085Y-12753684D02*
X79073085Y-12697115D01*
X79016516Y-12697115D01*
X79016516Y-12753684D01*
X79073085Y-12753684D01*
X80292285Y-8422985D02*
X80292285Y-8366415D01*
X80235716Y-8366415D01*
X80235716Y-8422985D01*
X80292285Y-8422985D01*
X80292285Y-8676985D02*
X80292285Y-8620416D01*
X80235716Y-8620416D01*
X80235716Y-8676985D01*
X80292285Y-8676985D01*
X80292285Y-8930985D02*
X80292285Y-8874416D01*
X80235716Y-8874416D01*
X80235716Y-8930985D01*
X80292285Y-8930985D01*
X80609785Y-4562185D02*
X80609785Y-4505616D01*
X80553216Y-4505616D01*
X80553216Y-4562185D01*
X80609785Y-4562185D01*
X80609785Y-4816185D02*
X80609785Y-4759616D01*
X80553216Y-4759616D01*
X80553216Y-4816185D01*
X80609785Y-4816185D01*
X80609785Y-5070185D02*
X80609785Y-5013616D01*
X80553216Y-5013616D01*
X80553216Y-5070185D01*
X80609785Y-5070185D01*
X80889185Y-8676985D02*
X80889185Y-8620416D01*
X80832616Y-8620416D01*
X80832616Y-8676985D01*
X80889185Y-8676985D01*
X80901885Y-5514685D02*
X80901885Y-5458116D01*
X80845316Y-5458116D01*
X80845316Y-5514685D01*
X80901885Y-5514685D01*
X80901885Y-5768684D02*
X80901885Y-5712115D01*
X80845316Y-5712115D01*
X80845316Y-5768684D01*
X80901885Y-5768684D01*
X80901885Y-6022684D02*
X80901885Y-5966115D01*
X80845316Y-5966115D01*
X80845316Y-6022684D01*
X80901885Y-6022684D01*
X80901885Y-6276684D02*
X80901885Y-6220115D01*
X80845316Y-6220115D01*
X80845316Y-6276684D01*
X80901885Y-6276684D01*
X81041585Y-10429585D02*
X81041585Y-10373016D01*
X80985016Y-10373016D01*
X80985016Y-10429585D01*
X81041585Y-10429585D01*
X81041585Y-10683585D02*
X81041585Y-10627016D01*
X80985016Y-10627016D01*
X80985016Y-10683585D01*
X81041585Y-10683585D01*
X81041585Y-10937585D02*
X81041585Y-10881016D01*
X80985016Y-10881016D01*
X80985016Y-10937585D01*
X81041585Y-10937585D01*
X81041585Y-11191584D02*
X81041585Y-11135016D01*
X80985016Y-11135016D01*
X80985016Y-11191584D01*
X81041585Y-11191584D01*
X81651185Y-8676985D02*
X81651185Y-8620416D01*
X81594616Y-8620416D01*
X81594616Y-8676985D01*
X81651185Y-8676985D01*
X81663885Y-5514685D02*
X81663885Y-5458116D01*
X81607316Y-5458116D01*
X81607316Y-5514685D01*
X81663885Y-5514685D01*
X81663885Y-5768684D02*
X81663885Y-5712115D01*
X81607316Y-5712115D01*
X81607316Y-5768684D01*
X81663885Y-5768684D01*
X81663885Y-6022684D02*
X81663885Y-5966115D01*
X81607316Y-5966115D01*
X81607316Y-6022684D01*
X81663885Y-6022684D01*
X81663885Y-6276684D02*
X81663885Y-6220115D01*
X81607316Y-6220115D01*
X81607316Y-6276684D01*
X81663885Y-6276684D01*
X81803585Y-10429585D02*
X81803585Y-10373016D01*
X81747016Y-10373016D01*
X81747016Y-10429585D01*
X81803585Y-10429585D01*
X81803585Y-10683585D02*
X81803585Y-10627016D01*
X81747016Y-10627016D01*
X81747016Y-10683585D01*
X81803585Y-10683585D01*
X81803585Y-10937585D02*
X81803585Y-10881016D01*
X81747016Y-10881016D01*
X81747016Y-10937585D01*
X81803585Y-10937585D01*
X81803585Y-11191584D02*
X81803585Y-11135016D01*
X81747016Y-11135016D01*
X81747016Y-11191584D01*
X81803585Y-11191584D01*
X82286185Y-8676985D02*
X82286185Y-8620416D01*
X82229616Y-8620416D01*
X82229616Y-8676985D01*
X82286185Y-8676985D01*
X82286185Y-9438985D02*
X82286185Y-9382416D01*
X82229616Y-9382416D01*
X82229616Y-9438985D01*
X82286185Y-9438985D01*
X82819585Y-8080084D02*
X82819585Y-8023515D01*
X82763016Y-8023515D01*
X82763016Y-8080084D01*
X82819585Y-8080084D01*
X82819585Y-8334084D02*
X82819585Y-8277515D01*
X82763016Y-8277515D01*
X82763016Y-8334084D01*
X82819585Y-8334084D01*
X82819585Y-8588085D02*
X82819585Y-8531516D01*
X82763016Y-8531516D01*
X82763016Y-8588085D01*
X82819585Y-8588085D01*
D16*
X75946000Y-6140500D02*
X75990500Y-6096000D01*
X75946000Y-6051500D01*
X75901500Y-6096000D01*
X75946000Y-6140500D01*
X75946000Y-6394500D02*
X75990500Y-6350000D01*
X75946000Y-6305500D01*
X75901500Y-6350000D01*
X75946000Y-6394500D01*
X75946000Y-8680500D02*
X75990500Y-8636000D01*
X75946000Y-8591500D01*
X75901500Y-8636000D01*
X75946000Y-8680500D01*
X75946000Y-8934500D02*
X75990500Y-8890000D01*
X75946000Y-8845500D01*
X75901500Y-8890000D01*
X75946000Y-8934500D01*
X75946000Y-11220500D02*
X75990500Y-11176000D01*
X75946000Y-11131500D01*
X75901500Y-11176000D01*
X75946000Y-11220500D01*
X75946000Y-11474500D02*
X75990500Y-11430000D01*
X75946000Y-11385500D01*
X75901500Y-11430000D01*
X75946000Y-11474500D01*
X83058000Y-10699800D02*
X83102500Y-10655300D01*
X83058000Y-10610800D01*
X83013500Y-10655300D01*
X83058000Y-10699800D01*
X83058000Y-10953800D02*
X83102500Y-10909300D01*
X83058000Y-10864800D01*
X83013500Y-10909300D01*
X83058000Y-10953800D01*
D17*
X77703900Y-2672800D02*
X77793900Y-2762800D01*
X77793900Y-2672800D02*
X77703900Y-2762800D01*
X77793900Y-2717800D02*
G75*
G03*
X77793900Y-2717800I-45000J0D01*
G01*
X77957900Y-2672800D02*
X78047900Y-2762800D01*
X78047900Y-2672800D02*
X77957900Y-2762800D01*
X78047900Y-2717800D02*
G75*
G03*
X78047900Y-2717800I-45000J0D01*
G01*
D18*
X77826400Y-5423700D02*
X77926400Y-5523700D01*
X77926400Y-5423700D02*
X77826400Y-5523700D01*
X77876400Y-5423700D02*
X77876400Y-5523700D01*
X77826400Y-5473700D02*
X77926400Y-5473700D01*
X80982350Y-3880650D02*
X81082350Y-3980650D01*
X81082350Y-3880650D02*
X80982350Y-3980650D01*
X81032350Y-3880650D02*
X81032350Y-3980650D01*
X80982350Y-3930650D02*
X81082350Y-3930650D01*
X76581800Y-2762297D02*
X76681800Y-2862297D01*
X76681800Y-2762297D02*
X76581800Y-2862297D01*
X76667156Y-2847653D02*
X76667156Y-2776941D01*
X76596444Y-2776941D01*
X76596444Y-2847653D01*
X76667156Y-2847653D01*
X76581800Y-3262297D02*
X76681800Y-3362297D01*
X76681800Y-3262297D02*
X76581800Y-3362297D01*
X76667156Y-3347653D02*
X76667156Y-3276941D01*
X76596444Y-3276941D01*
X76596444Y-3347653D01*
X76667156Y-3347653D01*
X76581800Y-4004768D02*
X76681800Y-4104768D01*
X76681800Y-4004768D02*
X76581800Y-4104768D01*
X76667156Y-4090123D02*
X76667156Y-4019412D01*
X76596444Y-4019412D01*
X76596444Y-4090123D01*
X76667156Y-4090123D01*
X76581800Y-4504768D02*
X76681800Y-4604768D01*
X76681800Y-4504768D02*
X76581800Y-4604768D01*
X76667156Y-4590123D02*
X76667156Y-4519412D01*
X76596444Y-4519412D01*
X76596444Y-4590123D01*
X76667156Y-4590123D01*
X77699400Y-3395168D02*
X77799400Y-3495168D01*
X77799400Y-3395168D02*
X77699400Y-3495168D01*
X77784756Y-3480523D02*
X77784756Y-3409812D01*
X77714044Y-3409812D01*
X77714044Y-3480523D01*
X77784756Y-3480523D01*
X77699400Y-3895168D02*
X77799400Y-3995168D01*
X77799400Y-3895168D02*
X77699400Y-3995168D01*
X77784756Y-3980523D02*
X77784756Y-3909812D01*
X77714044Y-3909812D01*
X77714044Y-3980523D01*
X77784756Y-3980523D01*
X79071000Y-6503200D02*
X79171000Y-6603200D01*
X79171000Y-6503200D02*
X79071000Y-6603200D01*
X79156356Y-6588556D02*
X79156356Y-6517844D01*
X79085644Y-6517844D01*
X79085644Y-6588556D01*
X79156356Y-6588556D01*
X79071000Y-7392200D02*
X79171000Y-7492200D01*
X79171000Y-7392200D02*
X79071000Y-7492200D01*
X79156356Y-7477556D02*
X79156356Y-7406844D01*
X79085644Y-7406844D01*
X79085644Y-7477556D01*
X79156356Y-7477556D01*
X79071000Y-7938300D02*
X79171000Y-8038300D01*
X79171000Y-7938300D02*
X79071000Y-8038300D01*
X79156356Y-8023656D02*
X79156356Y-7952944D01*
X79085644Y-7952944D01*
X79085644Y-8023656D01*
X79156356Y-8023656D01*
X79071000Y-8827300D02*
X79171000Y-8927300D01*
X79171000Y-8827300D02*
X79071000Y-8927300D01*
X79156356Y-8912656D02*
X79156356Y-8841944D01*
X79085644Y-8841944D01*
X79085644Y-8912656D01*
X79156356Y-8912656D01*
X79807600Y-4483900D02*
X79907600Y-4583900D01*
X79907600Y-4483900D02*
X79807600Y-4583900D01*
X79892956Y-4569256D02*
X79892956Y-4498544D01*
X79822244Y-4498544D01*
X79822244Y-4569256D01*
X79892956Y-4569256D01*
X79807600Y-5372900D02*
X79907600Y-5472900D01*
X79907600Y-5372900D02*
X79807600Y-5472900D01*
X79892956Y-5458256D02*
X79892956Y-5387544D01*
X79822244Y-5387544D01*
X79822244Y-5458256D01*
X79892956Y-5458256D01*
D19*
X74981000Y-3480000D02*
X75133000Y-3632000D01*
X75133000Y-3480000D02*
X74981000Y-3632000D01*
X75057000Y-3632000D02*
X75133000Y-3556000D01*
X75057000Y-3480000D01*
X74981000Y-3556000D01*
X75057000Y-3632000D01*
X74981000Y-3988000D02*
X75133000Y-4140000D01*
X75133000Y-3988000D02*
X74981000Y-4140000D01*
X75057000Y-4140000D02*
X75133000Y-4064000D01*
X75057000Y-3988000D01*
X74981000Y-4064000D01*
X75057000Y-4140000D01*
X74981000Y-4496000D02*
X75133000Y-4648000D01*
X75133000Y-4496000D02*
X74981000Y-4648000D01*
X75057000Y-4648000D02*
X75133000Y-4572000D01*
X75057000Y-4496000D01*
X74981000Y-4572000D01*
X75057000Y-4648000D01*
D20*
X75438000Y-5487500D02*
X75438000Y-5688500D01*
X75337500Y-5588000D02*
X75538500Y-5588000D01*
X75538500Y-5588000D02*
G75*
G03*
X75538500Y-5588000I-100500J0D01*
G01*
X75438000Y-6503500D02*
X75438000Y-6704500D01*
X75337500Y-6604000D02*
X75538500Y-6604000D01*
X75538500Y-6604000D02*
G75*
G03*
X75538500Y-6604000I-100500J0D01*
G01*
X75438000Y-8027500D02*
X75438000Y-8228500D01*
X75337500Y-8128000D02*
X75538500Y-8128000D01*
X75538500Y-8128000D02*
G75*
G03*
X75538500Y-8128000I-100500J0D01*
G01*
X75438000Y-9043500D02*
X75438000Y-9244500D01*
X75337500Y-9144000D02*
X75538500Y-9144000D01*
X75538500Y-9144000D02*
G75*
G03*
X75538500Y-9144000I-100500J0D01*
G01*
X75438000Y-10567500D02*
X75438000Y-10768500D01*
X75337500Y-10668000D02*
X75538500Y-10668000D01*
X75538500Y-10668000D02*
G75*
G03*
X75538500Y-10668000I-100500J0D01*
G01*
X75438000Y-11583500D02*
X75438000Y-11784500D01*
X75337500Y-11684000D02*
X75538500Y-11684000D01*
X75538500Y-11684000D02*
G75*
G03*
X75538500Y-11684000I-100500J0D01*
G01*
X83566000Y-10300800D02*
X83566000Y-10501800D01*
X83465500Y-10401300D02*
X83666500Y-10401300D01*
X83666500Y-10401300D02*
G75*
G03*
X83666500Y-10401300I-100500J0D01*
G01*
X83566000Y-11316800D02*
X83566000Y-11517800D01*
X83465500Y-11417300D02*
X83666500Y-11417300D01*
X83666500Y-11417300D02*
G75*
G03*
X83666500Y-11417300I-100500J0D01*
G01*
D11*
X74926119Y-13906976D02*
X74926119Y-13706976D01*
X74973738Y-13706976D01*
X75002310Y-13716500D01*
X75021357Y-13735548D01*
X75030881Y-13754595D01*
X75040405Y-13792690D01*
X75040405Y-13821262D01*
X75030881Y-13859357D01*
X75021357Y-13878405D01*
X75002310Y-13897452D01*
X74973738Y-13906976D01*
X74926119Y-13906976D01*
X75126119Y-13906976D02*
X75126119Y-13773643D01*
X75126119Y-13811738D02*
X75135643Y-13792690D01*
X75145167Y-13783167D01*
X75164214Y-13773643D01*
X75183262Y-13773643D01*
X75249929Y-13906976D02*
X75249929Y-13773643D01*
X75249929Y-13706976D02*
X75240405Y-13716500D01*
X75249929Y-13726024D01*
X75259452Y-13716500D01*
X75249929Y-13706976D01*
X75249929Y-13726024D01*
X75373738Y-13906976D02*
X75354690Y-13897452D01*
X75345167Y-13878405D01*
X75345167Y-13706976D01*
X75478500Y-13906976D02*
X75459452Y-13897452D01*
X75449929Y-13878405D01*
X75449929Y-13706976D01*
X75707071Y-13906976D02*
X75707071Y-13706976D01*
X75773738Y-13849833D01*
X75840405Y-13706976D01*
X75840405Y-13906976D01*
X76021357Y-13906976D02*
X76021357Y-13802214D01*
X76011833Y-13783167D01*
X75992786Y-13773643D01*
X75954690Y-13773643D01*
X75935643Y-13783167D01*
X76021357Y-13897452D02*
X76002310Y-13906976D01*
X75954690Y-13906976D01*
X75935643Y-13897452D01*
X75926119Y-13878405D01*
X75926119Y-13859357D01*
X75935643Y-13840309D01*
X75954690Y-13830786D01*
X76002310Y-13830786D01*
X76021357Y-13821262D01*
X76116595Y-13773643D02*
X76116595Y-13973643D01*
X76116595Y-13783167D02*
X76135643Y-13773643D01*
X76173738Y-13773643D01*
X76192786Y-13783167D01*
X76202310Y-13792690D01*
X76211833Y-13811738D01*
X76211833Y-13868881D01*
X76202310Y-13887928D01*
X76192786Y-13897452D01*
X76173738Y-13906976D01*
X76135643Y-13906976D01*
X76116595Y-13897452D01*
X76297548Y-13887928D02*
X76307071Y-13897452D01*
X76297548Y-13906976D01*
X76288024Y-13897452D01*
X76297548Y-13887928D01*
X76297548Y-13906976D01*
X76297548Y-13783167D02*
X76307071Y-13792690D01*
X76297548Y-13802214D01*
X76288024Y-13792690D01*
X76297548Y-13783167D01*
X76297548Y-13802214D01*
D12*
X74628500Y-14216500D02*
X74668500Y-14256500D01*
X74668500Y-14216500D02*
X74628500Y-14256500D01*
D11*
X74964214Y-14126976D02*
X74983262Y-14126976D01*
X75002310Y-14136500D01*
X75011833Y-14146024D01*
X75021357Y-14165071D01*
X75030881Y-14203167D01*
X75030881Y-14250786D01*
X75021357Y-14288881D01*
X75011833Y-14307928D01*
X75002310Y-14317452D01*
X74983262Y-14326976D01*
X74964214Y-14326976D01*
X74945167Y-14317452D01*
X74935643Y-14307928D01*
X74926119Y-14288881D01*
X74916595Y-14250786D01*
X74916595Y-14203167D01*
X74926119Y-14165071D01*
X74935643Y-14146024D01*
X74945167Y-14136500D01*
X74964214Y-14126976D01*
X75116595Y-14307928D02*
X75126119Y-14317452D01*
X75116595Y-14326976D01*
X75107071Y-14317452D01*
X75116595Y-14307928D01*
X75116595Y-14326976D01*
X75297548Y-14193643D02*
X75297548Y-14326976D01*
X75249929Y-14117452D02*
X75202310Y-14260309D01*
X75326119Y-14260309D01*
X75440405Y-14126976D02*
X75459452Y-14126976D01*
X75478500Y-14136500D01*
X75488024Y-14146024D01*
X75497548Y-14165071D01*
X75507071Y-14203167D01*
X75507071Y-14250786D01*
X75497548Y-14288881D01*
X75488024Y-14307928D01*
X75478500Y-14317452D01*
X75459452Y-14326976D01*
X75440405Y-14326976D01*
X75421357Y-14317452D01*
X75411833Y-14307928D01*
X75402310Y-14288881D01*
X75392786Y-14250786D01*
X75392786Y-14203167D01*
X75402310Y-14165071D01*
X75411833Y-14146024D01*
X75421357Y-14136500D01*
X75440405Y-14126976D01*
X75630881Y-14126976D02*
X75649929Y-14126976D01*
X75668976Y-14136500D01*
X75678500Y-14146024D01*
X75688024Y-14165071D01*
X75697548Y-14203167D01*
X75697548Y-14250786D01*
X75688024Y-14288881D01*
X75678500Y-14307928D01*
X75668976Y-14317452D01*
X75649929Y-14326976D01*
X75630881Y-14326976D01*
X75611833Y-14317452D01*
X75602310Y-14307928D01*
X75592786Y-14288881D01*
X75583262Y-14250786D01*
X75583262Y-14203167D01*
X75592786Y-14165071D01*
X75602310Y-14146024D01*
X75611833Y-14136500D01*
X75630881Y-14126976D01*
X75783262Y-14326976D02*
X75783262Y-14193643D01*
X75783262Y-14212690D02*
X75792786Y-14203167D01*
X75811833Y-14193643D01*
X75840405Y-14193643D01*
X75859452Y-14203167D01*
X75868976Y-14222214D01*
X75868976Y-14326976D01*
X75868976Y-14222214D02*
X75878500Y-14203167D01*
X75897548Y-14193643D01*
X75926119Y-14193643D01*
X75945167Y-14203167D01*
X75954690Y-14222214D01*
X75954690Y-14326976D01*
X76049929Y-14326976D02*
X76049929Y-14193643D01*
X76049929Y-14212690D02*
X76059452Y-14203167D01*
X76078500Y-14193643D01*
X76107071Y-14193643D01*
X76126119Y-14203167D01*
X76135643Y-14222214D01*
X76135643Y-14326976D01*
X76135643Y-14222214D02*
X76145167Y-14203167D01*
X76164214Y-14193643D01*
X76192786Y-14193643D01*
X76211833Y-14203167D01*
X76221357Y-14222214D01*
X76221357Y-14326976D01*
X76611833Y-14117452D02*
X76440405Y-14374595D01*
X76868976Y-14126976D02*
X76888024Y-14126976D01*
X76907071Y-14136500D01*
X76916595Y-14146024D01*
X76926119Y-14165071D01*
X76935643Y-14203167D01*
X76935643Y-14250786D01*
X76926119Y-14288881D01*
X76916595Y-14307928D01*
X76907071Y-14317452D01*
X76888024Y-14326976D01*
X76868976Y-14326976D01*
X76849929Y-14317452D01*
X76840405Y-14307928D01*
X76830881Y-14288881D01*
X76821357Y-14250786D01*
X76821357Y-14203167D01*
X76830881Y-14165071D01*
X76840405Y-14146024D01*
X76849929Y-14136500D01*
X76868976Y-14126976D01*
X77021357Y-14307928D02*
X77030881Y-14317452D01*
X77021357Y-14326976D01*
X77011833Y-14317452D01*
X77021357Y-14307928D01*
X77021357Y-14326976D01*
X77154690Y-14126976D02*
X77173738Y-14126976D01*
X77192786Y-14136500D01*
X77202310Y-14146024D01*
X77211833Y-14165071D01*
X77221357Y-14203167D01*
X77221357Y-14250786D01*
X77211833Y-14288881D01*
X77202310Y-14307928D01*
X77192786Y-14317452D01*
X77173738Y-14326976D01*
X77154690Y-14326976D01*
X77135643Y-14317452D01*
X77126119Y-14307928D01*
X77116595Y-14288881D01*
X77107071Y-14250786D01*
X77107071Y-14203167D01*
X77116595Y-14165071D01*
X77126119Y-14146024D01*
X77135643Y-14136500D01*
X77154690Y-14126976D01*
X77411833Y-14326976D02*
X77297548Y-14326976D01*
X77354690Y-14326976D02*
X77354690Y-14126976D01*
X77335643Y-14155548D01*
X77316595Y-14174595D01*
X77297548Y-14184119D01*
X77592786Y-14126976D02*
X77497548Y-14126976D01*
X77488024Y-14222214D01*
X77497548Y-14212690D01*
X77516595Y-14203167D01*
X77564214Y-14203167D01*
X77583262Y-14212690D01*
X77592786Y-14222214D01*
X77602310Y-14241262D01*
X77602310Y-14288881D01*
X77592786Y-14307928D01*
X77583262Y-14317452D01*
X77564214Y-14326976D01*
X77516595Y-14326976D01*
X77497548Y-14317452D01*
X77488024Y-14307928D01*
X77668976Y-14126976D02*
X77802310Y-14126976D01*
X77716595Y-14326976D01*
X77868976Y-14126976D02*
X77868976Y-14165071D01*
X77945167Y-14126976D02*
X77945167Y-14165071D01*
X78240405Y-14403167D02*
X78230881Y-14393643D01*
X78211833Y-14365071D01*
X78202310Y-14346024D01*
X78192786Y-14317452D01*
X78183262Y-14269833D01*
X78183262Y-14231738D01*
X78192786Y-14184119D01*
X78202310Y-14155548D01*
X78211833Y-14136500D01*
X78230881Y-14107928D01*
X78240405Y-14098405D01*
X78307071Y-14146024D02*
X78316595Y-14136500D01*
X78335643Y-14126976D01*
X78383262Y-14126976D01*
X78402310Y-14136500D01*
X78411833Y-14146024D01*
X78421357Y-14165071D01*
X78421357Y-14184119D01*
X78411833Y-14212690D01*
X78297548Y-14326976D01*
X78421357Y-14326976D01*
X78659452Y-14326976D02*
X78659452Y-14126976D01*
X78745167Y-14326976D02*
X78745167Y-14222214D01*
X78735643Y-14203167D01*
X78716595Y-14193643D01*
X78688024Y-14193643D01*
X78668976Y-14203167D01*
X78659452Y-14212690D01*
X78868976Y-14326976D02*
X78849929Y-14317452D01*
X78840405Y-14307928D01*
X78830881Y-14288881D01*
X78830881Y-14231738D01*
X78840405Y-14212690D01*
X78849929Y-14203167D01*
X78868976Y-14193643D01*
X78897548Y-14193643D01*
X78916595Y-14203167D01*
X78926119Y-14212690D01*
X78935643Y-14231738D01*
X78935643Y-14288881D01*
X78926119Y-14307928D01*
X78916595Y-14317452D01*
X78897548Y-14326976D01*
X78868976Y-14326976D01*
X79049929Y-14326976D02*
X79030881Y-14317452D01*
X79021357Y-14298405D01*
X79021357Y-14126976D01*
X79202310Y-14317452D02*
X79183262Y-14326976D01*
X79145167Y-14326976D01*
X79126119Y-14317452D01*
X79116595Y-14298405D01*
X79116595Y-14222214D01*
X79126119Y-14203167D01*
X79145167Y-14193643D01*
X79183262Y-14193643D01*
X79202310Y-14203167D01*
X79211833Y-14222214D01*
X79211833Y-14241262D01*
X79116595Y-14260309D01*
X79288024Y-14317452D02*
X79307071Y-14326976D01*
X79345167Y-14326976D01*
X79364214Y-14317452D01*
X79373738Y-14298405D01*
X79373738Y-14288881D01*
X79364214Y-14269833D01*
X79345167Y-14260309D01*
X79316595Y-14260309D01*
X79297548Y-14250786D01*
X79288024Y-14231738D01*
X79288024Y-14222214D01*
X79297548Y-14203167D01*
X79316595Y-14193643D01*
X79345167Y-14193643D01*
X79364214Y-14203167D01*
X79440405Y-14403167D02*
X79449929Y-14393643D01*
X79468976Y-14365071D01*
X79478500Y-14346024D01*
X79488024Y-14317452D01*
X79497548Y-14269833D01*
X79497548Y-14231738D01*
X79488024Y-14184119D01*
X79478500Y-14155548D01*
X79468976Y-14136500D01*
X79449929Y-14107928D01*
X79440405Y-14098405D01*
D13*
X74668500Y-14500500D02*
G75*
G03*
X74668500Y-14500500I-25000J0D01*
G01*
D11*
X74964214Y-14390976D02*
X74983262Y-14390976D01*
X75002310Y-14400500D01*
X75011833Y-14410024D01*
X75021357Y-14429071D01*
X75030881Y-14467167D01*
X75030881Y-14514786D01*
X75021357Y-14552881D01*
X75011833Y-14571928D01*
X75002310Y-14581452D01*
X74983262Y-14590976D01*
X74964214Y-14590976D01*
X74945167Y-14581452D01*
X74935643Y-14571928D01*
X74926119Y-14552881D01*
X74916595Y-14514786D01*
X74916595Y-14467167D01*
X74926119Y-14429071D01*
X74935643Y-14410024D01*
X74945167Y-14400500D01*
X74964214Y-14390976D01*
X75116595Y-14571928D02*
X75126119Y-14581452D01*
X75116595Y-14590976D01*
X75107071Y-14581452D01*
X75116595Y-14571928D01*
X75116595Y-14590976D01*
X75307071Y-14390976D02*
X75211833Y-14390976D01*
X75202310Y-14486214D01*
X75211833Y-14476690D01*
X75230881Y-14467167D01*
X75278500Y-14467167D01*
X75297548Y-14476690D01*
X75307071Y-14486214D01*
X75316595Y-14505262D01*
X75316595Y-14552881D01*
X75307071Y-14571928D01*
X75297548Y-14581452D01*
X75278500Y-14590976D01*
X75230881Y-14590976D01*
X75211833Y-14581452D01*
X75202310Y-14571928D01*
X75440405Y-14390976D02*
X75459452Y-14390976D01*
X75478500Y-14400500D01*
X75488024Y-14410024D01*
X75497548Y-14429071D01*
X75507071Y-14467167D01*
X75507071Y-14514786D01*
X75497548Y-14552881D01*
X75488024Y-14571928D01*
X75478500Y-14581452D01*
X75459452Y-14590976D01*
X75440405Y-14590976D01*
X75421357Y-14581452D01*
X75411833Y-14571928D01*
X75402310Y-14552881D01*
X75392786Y-14514786D01*
X75392786Y-14467167D01*
X75402310Y-14429071D01*
X75411833Y-14410024D01*
X75421357Y-14400500D01*
X75440405Y-14390976D01*
X75630881Y-14390976D02*
X75649929Y-14390976D01*
X75668976Y-14400500D01*
X75678500Y-14410024D01*
X75688024Y-14429071D01*
X75697548Y-14467167D01*
X75697548Y-14514786D01*
X75688024Y-14552881D01*
X75678500Y-14571928D01*
X75668976Y-14581452D01*
X75649929Y-14590976D01*
X75630881Y-14590976D01*
X75611833Y-14581452D01*
X75602310Y-14571928D01*
X75592786Y-14552881D01*
X75583262Y-14514786D01*
X75583262Y-14467167D01*
X75592786Y-14429071D01*
X75602310Y-14410024D01*
X75611833Y-14400500D01*
X75630881Y-14390976D01*
X75783262Y-14590976D02*
X75783262Y-14457643D01*
X75783262Y-14476690D02*
X75792786Y-14467167D01*
X75811833Y-14457643D01*
X75840405Y-14457643D01*
X75859452Y-14467167D01*
X75868976Y-14486214D01*
X75868976Y-14590976D01*
X75868976Y-14486214D02*
X75878500Y-14467167D01*
X75897548Y-14457643D01*
X75926119Y-14457643D01*
X75945167Y-14467167D01*
X75954690Y-14486214D01*
X75954690Y-14590976D01*
X76049929Y-14590976D02*
X76049929Y-14457643D01*
X76049929Y-14476690D02*
X76059452Y-14467167D01*
X76078500Y-14457643D01*
X76107071Y-14457643D01*
X76126119Y-14467167D01*
X76135643Y-14486214D01*
X76135643Y-14590976D01*
X76135643Y-14486214D02*
X76145167Y-14467167D01*
X76164214Y-14457643D01*
X76192786Y-14457643D01*
X76211833Y-14467167D01*
X76221357Y-14486214D01*
X76221357Y-14590976D01*
X76611833Y-14381452D02*
X76440405Y-14638595D01*
X76868976Y-14390976D02*
X76888024Y-14390976D01*
X76907071Y-14400500D01*
X76916595Y-14410024D01*
X76926119Y-14429071D01*
X76935643Y-14467167D01*
X76935643Y-14514786D01*
X76926119Y-14552881D01*
X76916595Y-14571928D01*
X76907071Y-14581452D01*
X76888024Y-14590976D01*
X76868976Y-14590976D01*
X76849929Y-14581452D01*
X76840405Y-14571928D01*
X76830881Y-14552881D01*
X76821357Y-14514786D01*
X76821357Y-14467167D01*
X76830881Y-14429071D01*
X76840405Y-14410024D01*
X76849929Y-14400500D01*
X76868976Y-14390976D01*
X77021357Y-14571928D02*
X77030881Y-14581452D01*
X77021357Y-14590976D01*
X77011833Y-14581452D01*
X77021357Y-14571928D01*
X77021357Y-14590976D01*
X77154690Y-14390976D02*
X77173738Y-14390976D01*
X77192786Y-14400500D01*
X77202310Y-14410024D01*
X77211833Y-14429071D01*
X77221357Y-14467167D01*
X77221357Y-14514786D01*
X77211833Y-14552881D01*
X77202310Y-14571928D01*
X77192786Y-14581452D01*
X77173738Y-14590976D01*
X77154690Y-14590976D01*
X77135643Y-14581452D01*
X77126119Y-14571928D01*
X77116595Y-14552881D01*
X77107071Y-14514786D01*
X77107071Y-14467167D01*
X77116595Y-14429071D01*
X77126119Y-14410024D01*
X77135643Y-14400500D01*
X77154690Y-14390976D01*
X77411833Y-14590976D02*
X77297548Y-14590976D01*
X77354690Y-14590976D02*
X77354690Y-14390976D01*
X77335643Y-14419548D01*
X77316595Y-14438595D01*
X77297548Y-14448119D01*
X77507071Y-14590976D02*
X77545167Y-14590976D01*
X77564214Y-14581452D01*
X77573738Y-14571928D01*
X77592786Y-14543357D01*
X77602310Y-14505262D01*
X77602310Y-14429071D01*
X77592786Y-14410024D01*
X77583262Y-14400500D01*
X77564214Y-14390976D01*
X77526119Y-14390976D01*
X77507071Y-14400500D01*
X77497548Y-14410024D01*
X77488024Y-14429071D01*
X77488024Y-14476690D01*
X77497548Y-14495738D01*
X77507071Y-14505262D01*
X77526119Y-14514786D01*
X77564214Y-14514786D01*
X77583262Y-14505262D01*
X77592786Y-14495738D01*
X77602310Y-14476690D01*
X77668976Y-14390976D02*
X77802310Y-14390976D01*
X77716595Y-14590976D01*
X77868976Y-14390976D02*
X77868976Y-14429071D01*
X77945167Y-14390976D02*
X77945167Y-14429071D01*
X78240405Y-14667167D02*
X78230881Y-14657643D01*
X78211833Y-14629071D01*
X78202310Y-14610024D01*
X78192786Y-14581452D01*
X78183262Y-14533833D01*
X78183262Y-14495738D01*
X78192786Y-14448119D01*
X78202310Y-14419548D01*
X78211833Y-14400500D01*
X78230881Y-14371928D01*
X78240405Y-14362405D01*
X78402310Y-14390976D02*
X78364214Y-14390976D01*
X78345167Y-14400500D01*
X78335643Y-14410024D01*
X78316595Y-14438595D01*
X78307071Y-14476690D01*
X78307071Y-14552881D01*
X78316595Y-14571928D01*
X78326119Y-14581452D01*
X78345167Y-14590976D01*
X78383262Y-14590976D01*
X78402310Y-14581452D01*
X78411833Y-14571928D01*
X78421357Y-14552881D01*
X78421357Y-14505262D01*
X78411833Y-14486214D01*
X78402310Y-14476690D01*
X78383262Y-14467167D01*
X78345167Y-14467167D01*
X78326119Y-14476690D01*
X78316595Y-14486214D01*
X78307071Y-14505262D01*
X78659452Y-14590976D02*
X78659452Y-14390976D01*
X78745167Y-14590976D02*
X78745167Y-14486214D01*
X78735643Y-14467167D01*
X78716595Y-14457643D01*
X78688024Y-14457643D01*
X78668976Y-14467167D01*
X78659452Y-14476690D01*
X78868976Y-14590976D02*
X78849929Y-14581452D01*
X78840405Y-14571928D01*
X78830881Y-14552881D01*
X78830881Y-14495738D01*
X78840405Y-14476690D01*
X78849929Y-14467167D01*
X78868976Y-14457643D01*
X78897548Y-14457643D01*
X78916595Y-14467167D01*
X78926119Y-14476690D01*
X78935643Y-14495738D01*
X78935643Y-14552881D01*
X78926119Y-14571928D01*
X78916595Y-14581452D01*
X78897548Y-14590976D01*
X78868976Y-14590976D01*
X79049929Y-14590976D02*
X79030881Y-14581452D01*
X79021357Y-14562405D01*
X79021357Y-14390976D01*
X79202310Y-14581452D02*
X79183262Y-14590976D01*
X79145167Y-14590976D01*
X79126119Y-14581452D01*
X79116595Y-14562405D01*
X79116595Y-14486214D01*
X79126119Y-14467167D01*
X79145167Y-14457643D01*
X79183262Y-14457643D01*
X79202310Y-14467167D01*
X79211833Y-14486214D01*
X79211833Y-14505262D01*
X79116595Y-14524309D01*
X79288024Y-14581452D02*
X79307071Y-14590976D01*
X79345167Y-14590976D01*
X79364214Y-14581452D01*
X79373738Y-14562405D01*
X79373738Y-14552881D01*
X79364214Y-14533833D01*
X79345167Y-14524309D01*
X79316595Y-14524309D01*
X79297548Y-14514786D01*
X79288024Y-14495738D01*
X79288024Y-14486214D01*
X79297548Y-14467167D01*
X79316595Y-14457643D01*
X79345167Y-14457643D01*
X79364214Y-14467167D01*
X79440405Y-14667167D02*
X79449929Y-14657643D01*
X79468976Y-14629071D01*
X79478500Y-14610024D01*
X79488024Y-14581452D01*
X79497548Y-14533833D01*
X79497548Y-14495738D01*
X79488024Y-14448119D01*
X79478500Y-14419548D01*
X79468976Y-14400500D01*
X79449929Y-14371928D01*
X79440405Y-14362405D01*
D14*
X74631000Y-14727000D02*
X74631000Y-14802000D01*
X74593500Y-14764500D02*
X74668500Y-14764500D01*
D11*
X74964214Y-14654976D02*
X74983262Y-14654976D01*
X75002310Y-14664500D01*
X75011833Y-14674024D01*
X75021357Y-14693071D01*
X75030881Y-14731167D01*
X75030881Y-14778786D01*
X75021357Y-14816881D01*
X75011833Y-14835928D01*
X75002310Y-14845452D01*
X74983262Y-14854976D01*
X74964214Y-14854976D01*
X74945167Y-14845452D01*
X74935643Y-14835928D01*
X74926119Y-14816881D01*
X74916595Y-14778786D01*
X74916595Y-14731167D01*
X74926119Y-14693071D01*
X74935643Y-14674024D01*
X74945167Y-14664500D01*
X74964214Y-14654976D01*
X75116595Y-14835928D02*
X75126119Y-14845452D01*
X75116595Y-14854976D01*
X75107071Y-14845452D01*
X75116595Y-14835928D01*
X75116595Y-14854976D01*
X75192786Y-14654976D02*
X75326119Y-14654976D01*
X75240405Y-14854976D01*
X75497548Y-14654976D02*
X75402310Y-14654976D01*
X75392786Y-14750214D01*
X75402310Y-14740690D01*
X75421357Y-14731167D01*
X75468976Y-14731167D01*
X75488024Y-14740690D01*
X75497548Y-14750214D01*
X75507071Y-14769262D01*
X75507071Y-14816881D01*
X75497548Y-14835928D01*
X75488024Y-14845452D01*
X75468976Y-14854976D01*
X75421357Y-14854976D01*
X75402310Y-14845452D01*
X75392786Y-14835928D01*
X75630881Y-14654976D02*
X75649929Y-14654976D01*
X75668976Y-14664500D01*
X75678500Y-14674024D01*
X75688024Y-14693071D01*
X75697548Y-14731167D01*
X75697548Y-14778786D01*
X75688024Y-14816881D01*
X75678500Y-14835928D01*
X75668976Y-14845452D01*
X75649929Y-14854976D01*
X75630881Y-14854976D01*
X75611833Y-14845452D01*
X75602310Y-14835928D01*
X75592786Y-14816881D01*
X75583262Y-14778786D01*
X75583262Y-14731167D01*
X75592786Y-14693071D01*
X75602310Y-14674024D01*
X75611833Y-14664500D01*
X75630881Y-14654976D01*
X75783262Y-14854976D02*
X75783262Y-14721643D01*
X75783262Y-14740690D02*
X75792786Y-14731167D01*
X75811833Y-14721643D01*
X75840405Y-14721643D01*
X75859452Y-14731167D01*
X75868976Y-14750214D01*
X75868976Y-14854976D01*
X75868976Y-14750214D02*
X75878500Y-14731167D01*
X75897548Y-14721643D01*
X75926119Y-14721643D01*
X75945167Y-14731167D01*
X75954690Y-14750214D01*
X75954690Y-14854976D01*
X76049929Y-14854976D02*
X76049929Y-14721643D01*
X76049929Y-14740690D02*
X76059452Y-14731167D01*
X76078500Y-14721643D01*
X76107071Y-14721643D01*
X76126119Y-14731167D01*
X76135643Y-14750214D01*
X76135643Y-14854976D01*
X76135643Y-14750214D02*
X76145167Y-14731167D01*
X76164214Y-14721643D01*
X76192786Y-14721643D01*
X76211833Y-14731167D01*
X76221357Y-14750214D01*
X76221357Y-14854976D01*
X76611833Y-14645452D02*
X76440405Y-14902595D01*
X76868976Y-14654976D02*
X76888024Y-14654976D01*
X76907071Y-14664500D01*
X76916595Y-14674024D01*
X76926119Y-14693071D01*
X76935643Y-14731167D01*
X76935643Y-14778786D01*
X76926119Y-14816881D01*
X76916595Y-14835928D01*
X76907071Y-14845452D01*
X76888024Y-14854976D01*
X76868976Y-14854976D01*
X76849929Y-14845452D01*
X76840405Y-14835928D01*
X76830881Y-14816881D01*
X76821357Y-14778786D01*
X76821357Y-14731167D01*
X76830881Y-14693071D01*
X76840405Y-14674024D01*
X76849929Y-14664500D01*
X76868976Y-14654976D01*
X77021357Y-14835928D02*
X77030881Y-14845452D01*
X77021357Y-14854976D01*
X77011833Y-14845452D01*
X77021357Y-14835928D01*
X77021357Y-14854976D01*
X77154690Y-14654976D02*
X77173738Y-14654976D01*
X77192786Y-14664500D01*
X77202310Y-14674024D01*
X77211833Y-14693071D01*
X77221357Y-14731167D01*
X77221357Y-14778786D01*
X77211833Y-14816881D01*
X77202310Y-14835928D01*
X77192786Y-14845452D01*
X77173738Y-14854976D01*
X77154690Y-14854976D01*
X77135643Y-14845452D01*
X77126119Y-14835928D01*
X77116595Y-14816881D01*
X77107071Y-14778786D01*
X77107071Y-14731167D01*
X77116595Y-14693071D01*
X77126119Y-14674024D01*
X77135643Y-14664500D01*
X77154690Y-14654976D01*
X77297548Y-14674024D02*
X77307071Y-14664500D01*
X77326119Y-14654976D01*
X77373738Y-14654976D01*
X77392786Y-14664500D01*
X77402310Y-14674024D01*
X77411833Y-14693071D01*
X77411833Y-14712119D01*
X77402310Y-14740690D01*
X77288024Y-14854976D01*
X77411833Y-14854976D01*
X77507071Y-14854976D02*
X77545167Y-14854976D01*
X77564214Y-14845452D01*
X77573738Y-14835928D01*
X77592786Y-14807357D01*
X77602310Y-14769262D01*
X77602310Y-14693071D01*
X77592786Y-14674024D01*
X77583262Y-14664500D01*
X77564214Y-14654976D01*
X77526119Y-14654976D01*
X77507071Y-14664500D01*
X77497548Y-14674024D01*
X77488024Y-14693071D01*
X77488024Y-14740690D01*
X77497548Y-14759738D01*
X77507071Y-14769262D01*
X77526119Y-14778786D01*
X77564214Y-14778786D01*
X77583262Y-14769262D01*
X77592786Y-14759738D01*
X77602310Y-14740690D01*
X77783262Y-14654976D02*
X77688024Y-14654976D01*
X77678500Y-14750214D01*
X77688024Y-14740690D01*
X77707071Y-14731167D01*
X77754690Y-14731167D01*
X77773738Y-14740690D01*
X77783262Y-14750214D01*
X77792786Y-14769262D01*
X77792786Y-14816881D01*
X77783262Y-14835928D01*
X77773738Y-14845452D01*
X77754690Y-14854976D01*
X77707071Y-14854976D01*
X77688024Y-14845452D01*
X77678500Y-14835928D01*
X77868976Y-14654976D02*
X77868976Y-14693071D01*
X77945167Y-14654976D02*
X77945167Y-14693071D01*
X78240405Y-14931167D02*
X78230881Y-14921643D01*
X78211833Y-14893071D01*
X78202310Y-14874024D01*
X78192786Y-14845452D01*
X78183262Y-14797833D01*
X78183262Y-14759738D01*
X78192786Y-14712119D01*
X78202310Y-14683548D01*
X78211833Y-14664500D01*
X78230881Y-14635928D01*
X78240405Y-14626405D01*
X78307071Y-14674024D02*
X78316595Y-14664500D01*
X78335643Y-14654976D01*
X78383262Y-14654976D01*
X78402310Y-14664500D01*
X78411833Y-14674024D01*
X78421357Y-14693071D01*
X78421357Y-14712119D01*
X78411833Y-14740690D01*
X78297548Y-14854976D01*
X78421357Y-14854976D01*
X78592786Y-14721643D02*
X78592786Y-14854976D01*
X78545167Y-14645452D02*
X78497548Y-14788309D01*
X78621357Y-14788309D01*
X78849929Y-14854976D02*
X78849929Y-14654976D01*
X78935643Y-14854976D02*
X78935643Y-14750214D01*
X78926119Y-14731167D01*
X78907071Y-14721643D01*
X78878500Y-14721643D01*
X78859452Y-14731167D01*
X78849929Y-14740690D01*
X79059452Y-14854976D02*
X79040405Y-14845452D01*
X79030881Y-14835928D01*
X79021357Y-14816881D01*
X79021357Y-14759738D01*
X79030881Y-14740690D01*
X79040405Y-14731167D01*
X79059452Y-14721643D01*
X79088024Y-14721643D01*
X79107071Y-14731167D01*
X79116595Y-14740690D01*
X79126119Y-14759738D01*
X79126119Y-14816881D01*
X79116595Y-14835928D01*
X79107071Y-14845452D01*
X79088024Y-14854976D01*
X79059452Y-14854976D01*
X79240405Y-14854976D02*
X79221357Y-14845452D01*
X79211833Y-14826405D01*
X79211833Y-14654976D01*
X79392786Y-14845452D02*
X79373738Y-14854976D01*
X79335643Y-14854976D01*
X79316595Y-14845452D01*
X79307071Y-14826405D01*
X79307071Y-14750214D01*
X79316595Y-14731167D01*
X79335643Y-14721643D01*
X79373738Y-14721643D01*
X79392786Y-14731167D01*
X79402310Y-14750214D01*
X79402310Y-14769262D01*
X79307071Y-14788309D01*
X79478500Y-14845452D02*
X79497548Y-14854976D01*
X79535643Y-14854976D01*
X79554690Y-14845452D01*
X79564214Y-14826405D01*
X79564214Y-14816881D01*
X79554690Y-14797833D01*
X79535643Y-14788309D01*
X79507071Y-14788309D01*
X79488024Y-14778786D01*
X79478500Y-14759738D01*
X79478500Y-14750214D01*
X79488024Y-14731167D01*
X79507071Y-14721643D01*
X79535643Y-14721643D01*
X79554690Y-14731167D01*
X79630881Y-14931167D02*
X79640405Y-14921643D01*
X79659452Y-14893071D01*
X79668976Y-14874024D01*
X79678500Y-14845452D01*
X79688024Y-14797833D01*
X79688024Y-14759738D01*
X79678500Y-14712119D01*
X79668976Y-14683548D01*
X79659452Y-14664500D01*
X79640405Y-14635928D01*
X79630881Y-14626405D01*
D15*
X74656785Y-15056784D02*
X74656785Y-15000215D01*
X74600216Y-15000215D01*
X74600216Y-15056784D01*
X74656785Y-15056784D01*
D11*
X74964214Y-14918976D02*
X74983262Y-14918976D01*
X75002310Y-14928500D01*
X75011833Y-14938024D01*
X75021357Y-14957071D01*
X75030881Y-14995167D01*
X75030881Y-15042786D01*
X75021357Y-15080881D01*
X75011833Y-15099928D01*
X75002310Y-15109452D01*
X74983262Y-15118976D01*
X74964214Y-15118976D01*
X74945167Y-15109452D01*
X74935643Y-15099928D01*
X74926119Y-15080881D01*
X74916595Y-15042786D01*
X74916595Y-14995167D01*
X74926119Y-14957071D01*
X74935643Y-14938024D01*
X74945167Y-14928500D01*
X74964214Y-14918976D01*
X75116595Y-15099928D02*
X75126119Y-15109452D01*
X75116595Y-15118976D01*
X75107071Y-15109452D01*
X75116595Y-15099928D01*
X75116595Y-15118976D01*
X75240405Y-15004690D02*
X75221357Y-14995167D01*
X75211833Y-14985643D01*
X75202310Y-14966595D01*
X75202310Y-14957071D01*
X75211833Y-14938024D01*
X75221357Y-14928500D01*
X75240405Y-14918976D01*
X75278500Y-14918976D01*
X75297548Y-14928500D01*
X75307071Y-14938024D01*
X75316595Y-14957071D01*
X75316595Y-14966595D01*
X75307071Y-14985643D01*
X75297548Y-14995167D01*
X75278500Y-15004690D01*
X75240405Y-15004690D01*
X75221357Y-15014214D01*
X75211833Y-15023738D01*
X75202310Y-15042786D01*
X75202310Y-15080881D01*
X75211833Y-15099928D01*
X75221357Y-15109452D01*
X75240405Y-15118976D01*
X75278500Y-15118976D01*
X75297548Y-15109452D01*
X75307071Y-15099928D01*
X75316595Y-15080881D01*
X75316595Y-15042786D01*
X75307071Y-15023738D01*
X75297548Y-15014214D01*
X75278500Y-15004690D01*
X75440405Y-14918976D02*
X75459452Y-14918976D01*
X75478500Y-14928500D01*
X75488024Y-14938024D01*
X75497548Y-14957071D01*
X75507071Y-14995167D01*
X75507071Y-15042786D01*
X75497548Y-15080881D01*
X75488024Y-15099928D01*
X75478500Y-15109452D01*
X75459452Y-15118976D01*
X75440405Y-15118976D01*
X75421357Y-15109452D01*
X75411833Y-15099928D01*
X75402310Y-15080881D01*
X75392786Y-15042786D01*
X75392786Y-14995167D01*
X75402310Y-14957071D01*
X75411833Y-14938024D01*
X75421357Y-14928500D01*
X75440405Y-14918976D01*
X75630881Y-14918976D02*
X75649929Y-14918976D01*
X75668976Y-14928500D01*
X75678500Y-14938024D01*
X75688024Y-14957071D01*
X75697548Y-14995167D01*
X75697548Y-15042786D01*
X75688024Y-15080881D01*
X75678500Y-15099928D01*
X75668976Y-15109452D01*
X75649929Y-15118976D01*
X75630881Y-15118976D01*
X75611833Y-15109452D01*
X75602310Y-15099928D01*
X75592786Y-15080881D01*
X75583262Y-15042786D01*
X75583262Y-14995167D01*
X75592786Y-14957071D01*
X75602310Y-14938024D01*
X75611833Y-14928500D01*
X75630881Y-14918976D01*
X75783262Y-15118976D02*
X75783262Y-14985643D01*
X75783262Y-15004690D02*
X75792786Y-14995167D01*
X75811833Y-14985643D01*
X75840405Y-14985643D01*
X75859452Y-14995167D01*
X75868976Y-15014214D01*
X75868976Y-15118976D01*
X75868976Y-15014214D02*
X75878500Y-14995167D01*
X75897548Y-14985643D01*
X75926119Y-14985643D01*
X75945167Y-14995167D01*
X75954690Y-15014214D01*
X75954690Y-15118976D01*
X76049929Y-15118976D02*
X76049929Y-14985643D01*
X76049929Y-15004690D02*
X76059452Y-14995167D01*
X76078500Y-14985643D01*
X76107071Y-14985643D01*
X76126119Y-14995167D01*
X76135643Y-15014214D01*
X76135643Y-15118976D01*
X76135643Y-15014214D02*
X76145167Y-14995167D01*
X76164214Y-14985643D01*
X76192786Y-14985643D01*
X76211833Y-14995167D01*
X76221357Y-15014214D01*
X76221357Y-15118976D01*
X76611833Y-14909452D02*
X76440405Y-15166595D01*
X76868976Y-14918976D02*
X76888024Y-14918976D01*
X76907071Y-14928500D01*
X76916595Y-14938024D01*
X76926119Y-14957071D01*
X76935643Y-14995167D01*
X76935643Y-15042786D01*
X76926119Y-15080881D01*
X76916595Y-15099928D01*
X76907071Y-15109452D01*
X76888024Y-15118976D01*
X76868976Y-15118976D01*
X76849929Y-15109452D01*
X76840405Y-15099928D01*
X76830881Y-15080881D01*
X76821357Y-15042786D01*
X76821357Y-14995167D01*
X76830881Y-14957071D01*
X76840405Y-14938024D01*
X76849929Y-14928500D01*
X76868976Y-14918976D01*
X77021357Y-15099928D02*
X77030881Y-15109452D01*
X77021357Y-15118976D01*
X77011833Y-15109452D01*
X77021357Y-15099928D01*
X77021357Y-15118976D01*
X77154690Y-14918976D02*
X77173738Y-14918976D01*
X77192786Y-14928500D01*
X77202310Y-14938024D01*
X77211833Y-14957071D01*
X77221357Y-14995167D01*
X77221357Y-15042786D01*
X77211833Y-15080881D01*
X77202310Y-15099928D01*
X77192786Y-15109452D01*
X77173738Y-15118976D01*
X77154690Y-15118976D01*
X77135643Y-15109452D01*
X77126119Y-15099928D01*
X77116595Y-15080881D01*
X77107071Y-15042786D01*
X77107071Y-14995167D01*
X77116595Y-14957071D01*
X77126119Y-14938024D01*
X77135643Y-14928500D01*
X77154690Y-14918976D01*
X77288024Y-14918976D02*
X77411833Y-14918976D01*
X77345167Y-14995167D01*
X77373738Y-14995167D01*
X77392786Y-15004690D01*
X77402310Y-15014214D01*
X77411833Y-15033262D01*
X77411833Y-15080881D01*
X77402310Y-15099928D01*
X77392786Y-15109452D01*
X77373738Y-15118976D01*
X77316595Y-15118976D01*
X77297548Y-15109452D01*
X77288024Y-15099928D01*
X77602310Y-15118976D02*
X77488024Y-15118976D01*
X77545167Y-15118976D02*
X77545167Y-14918976D01*
X77526119Y-14947548D01*
X77507071Y-14966595D01*
X77488024Y-14976119D01*
X77783262Y-14918976D02*
X77688024Y-14918976D01*
X77678500Y-15014214D01*
X77688024Y-15004690D01*
X77707071Y-14995167D01*
X77754690Y-14995167D01*
X77773738Y-15004690D01*
X77783262Y-15014214D01*
X77792786Y-15033262D01*
X77792786Y-15080881D01*
X77783262Y-15099928D01*
X77773738Y-15109452D01*
X77754690Y-15118976D01*
X77707071Y-15118976D01*
X77688024Y-15109452D01*
X77678500Y-15099928D01*
X77868976Y-14918976D02*
X77868976Y-14957071D01*
X77945167Y-14918976D02*
X77945167Y-14957071D01*
X78240405Y-15195167D02*
X78230881Y-15185643D01*
X78211833Y-15157071D01*
X78202310Y-15138024D01*
X78192786Y-15109452D01*
X78183262Y-15061833D01*
X78183262Y-15023738D01*
X78192786Y-14976119D01*
X78202310Y-14947548D01*
X78211833Y-14928500D01*
X78230881Y-14899928D01*
X78240405Y-14890405D01*
X78411833Y-14918976D02*
X78316595Y-14918976D01*
X78307071Y-15014214D01*
X78316595Y-15004690D01*
X78335643Y-14995167D01*
X78383262Y-14995167D01*
X78402310Y-15004690D01*
X78411833Y-15014214D01*
X78421357Y-15033262D01*
X78421357Y-15080881D01*
X78411833Y-15099928D01*
X78402310Y-15109452D01*
X78383262Y-15118976D01*
X78335643Y-15118976D01*
X78316595Y-15109452D01*
X78307071Y-15099928D01*
X78592786Y-14918976D02*
X78554690Y-14918976D01*
X78535643Y-14928500D01*
X78526119Y-14938024D01*
X78507071Y-14966595D01*
X78497548Y-15004690D01*
X78497548Y-15080881D01*
X78507071Y-15099928D01*
X78516595Y-15109452D01*
X78535643Y-15118976D01*
X78573738Y-15118976D01*
X78592786Y-15109452D01*
X78602310Y-15099928D01*
X78611833Y-15080881D01*
X78611833Y-15033262D01*
X78602310Y-15014214D01*
X78592786Y-15004690D01*
X78573738Y-14995167D01*
X78535643Y-14995167D01*
X78516595Y-15004690D01*
X78507071Y-15014214D01*
X78497548Y-15033262D01*
X78849929Y-15118976D02*
X78849929Y-14918976D01*
X78935643Y-15118976D02*
X78935643Y-15014214D01*
X78926119Y-14995167D01*
X78907071Y-14985643D01*
X78878500Y-14985643D01*
X78859452Y-14995167D01*
X78849929Y-15004690D01*
X79059452Y-15118976D02*
X79040405Y-15109452D01*
X79030881Y-15099928D01*
X79021357Y-15080881D01*
X79021357Y-15023738D01*
X79030881Y-15004690D01*
X79040405Y-14995167D01*
X79059452Y-14985643D01*
X79088024Y-14985643D01*
X79107071Y-14995167D01*
X79116595Y-15004690D01*
X79126119Y-15023738D01*
X79126119Y-15080881D01*
X79116595Y-15099928D01*
X79107071Y-15109452D01*
X79088024Y-15118976D01*
X79059452Y-15118976D01*
X79240405Y-15118976D02*
X79221357Y-15109452D01*
X79211833Y-15090405D01*
X79211833Y-14918976D01*
X79392786Y-15109452D02*
X79373738Y-15118976D01*
X79335643Y-15118976D01*
X79316595Y-15109452D01*
X79307071Y-15090405D01*
X79307071Y-15014214D01*
X79316595Y-14995167D01*
X79335643Y-14985643D01*
X79373738Y-14985643D01*
X79392786Y-14995167D01*
X79402310Y-15014214D01*
X79402310Y-15033262D01*
X79307071Y-15052309D01*
X79478500Y-15109452D02*
X79497548Y-15118976D01*
X79535643Y-15118976D01*
X79554690Y-15109452D01*
X79564214Y-15090405D01*
X79564214Y-15080881D01*
X79554690Y-15061833D01*
X79535643Y-15052309D01*
X79507071Y-15052309D01*
X79488024Y-15042786D01*
X79478500Y-15023738D01*
X79478500Y-15014214D01*
X79488024Y-14995167D01*
X79507071Y-14985643D01*
X79535643Y-14985643D01*
X79554690Y-14995167D01*
X79630881Y-15195167D02*
X79640405Y-15185643D01*
X79659452Y-15157071D01*
X79668976Y-15138024D01*
X79678500Y-15109452D01*
X79688024Y-15061833D01*
X79688024Y-15023738D01*
X79678500Y-14976119D01*
X79668976Y-14947548D01*
X79659452Y-14928500D01*
X79640405Y-14899928D01*
X79630881Y-14890405D01*
D16*
X74624000Y-15337000D02*
X74668500Y-15292500D01*
X74624000Y-15248000D01*
X74579500Y-15292500D01*
X74624000Y-15337000D01*
D11*
X74964214Y-15182976D02*
X74983262Y-15182976D01*
X75002310Y-15192500D01*
X75011833Y-15202024D01*
X75021357Y-15221071D01*
X75030881Y-15259167D01*
X75030881Y-15306786D01*
X75021357Y-15344881D01*
X75011833Y-15363928D01*
X75002310Y-15373452D01*
X74983262Y-15382976D01*
X74964214Y-15382976D01*
X74945167Y-15373452D01*
X74935643Y-15363928D01*
X74926119Y-15344881D01*
X74916595Y-15306786D01*
X74916595Y-15259167D01*
X74926119Y-15221071D01*
X74935643Y-15202024D01*
X74945167Y-15192500D01*
X74964214Y-15182976D01*
X75116595Y-15363928D02*
X75126119Y-15373452D01*
X75116595Y-15382976D01*
X75107071Y-15373452D01*
X75116595Y-15363928D01*
X75116595Y-15382976D01*
X75240405Y-15268690D02*
X75221357Y-15259167D01*
X75211833Y-15249643D01*
X75202310Y-15230595D01*
X75202310Y-15221071D01*
X75211833Y-15202024D01*
X75221357Y-15192500D01*
X75240405Y-15182976D01*
X75278500Y-15182976D01*
X75297548Y-15192500D01*
X75307071Y-15202024D01*
X75316595Y-15221071D01*
X75316595Y-15230595D01*
X75307071Y-15249643D01*
X75297548Y-15259167D01*
X75278500Y-15268690D01*
X75240405Y-15268690D01*
X75221357Y-15278214D01*
X75211833Y-15287738D01*
X75202310Y-15306786D01*
X75202310Y-15344881D01*
X75211833Y-15363928D01*
X75221357Y-15373452D01*
X75240405Y-15382976D01*
X75278500Y-15382976D01*
X75297548Y-15373452D01*
X75307071Y-15363928D01*
X75316595Y-15344881D01*
X75316595Y-15306786D01*
X75307071Y-15287738D01*
X75297548Y-15278214D01*
X75278500Y-15268690D01*
X75411833Y-15382976D02*
X75449929Y-15382976D01*
X75468976Y-15373452D01*
X75478500Y-15363928D01*
X75497548Y-15335357D01*
X75507071Y-15297262D01*
X75507071Y-15221071D01*
X75497548Y-15202024D01*
X75488024Y-15192500D01*
X75468976Y-15182976D01*
X75430881Y-15182976D01*
X75411833Y-15192500D01*
X75402310Y-15202024D01*
X75392786Y-15221071D01*
X75392786Y-15268690D01*
X75402310Y-15287738D01*
X75411833Y-15297262D01*
X75430881Y-15306786D01*
X75468976Y-15306786D01*
X75488024Y-15297262D01*
X75497548Y-15287738D01*
X75507071Y-15268690D01*
X75630881Y-15182976D02*
X75649929Y-15182976D01*
X75668976Y-15192500D01*
X75678500Y-15202024D01*
X75688024Y-15221071D01*
X75697548Y-15259167D01*
X75697548Y-15306786D01*
X75688024Y-15344881D01*
X75678500Y-15363928D01*
X75668976Y-15373452D01*
X75649929Y-15382976D01*
X75630881Y-15382976D01*
X75611833Y-15373452D01*
X75602310Y-15363928D01*
X75592786Y-15344881D01*
X75583262Y-15306786D01*
X75583262Y-15259167D01*
X75592786Y-15221071D01*
X75602310Y-15202024D01*
X75611833Y-15192500D01*
X75630881Y-15182976D01*
X75783262Y-15382976D02*
X75783262Y-15249643D01*
X75783262Y-15268690D02*
X75792786Y-15259167D01*
X75811833Y-15249643D01*
X75840405Y-15249643D01*
X75859452Y-15259167D01*
X75868976Y-15278214D01*
X75868976Y-15382976D01*
X75868976Y-15278214D02*
X75878500Y-15259167D01*
X75897548Y-15249643D01*
X75926119Y-15249643D01*
X75945167Y-15259167D01*
X75954690Y-15278214D01*
X75954690Y-15382976D01*
X76049929Y-15382976D02*
X76049929Y-15249643D01*
X76049929Y-15268690D02*
X76059452Y-15259167D01*
X76078500Y-15249643D01*
X76107071Y-15249643D01*
X76126119Y-15259167D01*
X76135643Y-15278214D01*
X76135643Y-15382976D01*
X76135643Y-15278214D02*
X76145167Y-15259167D01*
X76164214Y-15249643D01*
X76192786Y-15249643D01*
X76211833Y-15259167D01*
X76221357Y-15278214D01*
X76221357Y-15382976D01*
X76611833Y-15173452D02*
X76440405Y-15430595D01*
X76868976Y-15182976D02*
X76888024Y-15182976D01*
X76907071Y-15192500D01*
X76916595Y-15202024D01*
X76926119Y-15221071D01*
X76935643Y-15259167D01*
X76935643Y-15306786D01*
X76926119Y-15344881D01*
X76916595Y-15363928D01*
X76907071Y-15373452D01*
X76888024Y-15382976D01*
X76868976Y-15382976D01*
X76849929Y-15373452D01*
X76840405Y-15363928D01*
X76830881Y-15344881D01*
X76821357Y-15306786D01*
X76821357Y-15259167D01*
X76830881Y-15221071D01*
X76840405Y-15202024D01*
X76849929Y-15192500D01*
X76868976Y-15182976D01*
X77021357Y-15363928D02*
X77030881Y-15373452D01*
X77021357Y-15382976D01*
X77011833Y-15373452D01*
X77021357Y-15363928D01*
X77021357Y-15382976D01*
X77154690Y-15182976D02*
X77173738Y-15182976D01*
X77192786Y-15192500D01*
X77202310Y-15202024D01*
X77211833Y-15221071D01*
X77221357Y-15259167D01*
X77221357Y-15306786D01*
X77211833Y-15344881D01*
X77202310Y-15363928D01*
X77192786Y-15373452D01*
X77173738Y-15382976D01*
X77154690Y-15382976D01*
X77135643Y-15373452D01*
X77126119Y-15363928D01*
X77116595Y-15344881D01*
X77107071Y-15306786D01*
X77107071Y-15259167D01*
X77116595Y-15221071D01*
X77126119Y-15202024D01*
X77135643Y-15192500D01*
X77154690Y-15182976D01*
X77288024Y-15182976D02*
X77411833Y-15182976D01*
X77345167Y-15259167D01*
X77373738Y-15259167D01*
X77392786Y-15268690D01*
X77402310Y-15278214D01*
X77411833Y-15297262D01*
X77411833Y-15344881D01*
X77402310Y-15363928D01*
X77392786Y-15373452D01*
X77373738Y-15382976D01*
X77316595Y-15382976D01*
X77297548Y-15373452D01*
X77288024Y-15363928D01*
X77592786Y-15182976D02*
X77497548Y-15182976D01*
X77488024Y-15278214D01*
X77497548Y-15268690D01*
X77516595Y-15259167D01*
X77564214Y-15259167D01*
X77583262Y-15268690D01*
X77592786Y-15278214D01*
X77602310Y-15297262D01*
X77602310Y-15344881D01*
X77592786Y-15363928D01*
X77583262Y-15373452D01*
X77564214Y-15382976D01*
X77516595Y-15382976D01*
X77497548Y-15373452D01*
X77488024Y-15363928D01*
X77726119Y-15182976D02*
X77745167Y-15182976D01*
X77764214Y-15192500D01*
X77773738Y-15202024D01*
X77783262Y-15221071D01*
X77792786Y-15259167D01*
X77792786Y-15306786D01*
X77783262Y-15344881D01*
X77773738Y-15363928D01*
X77764214Y-15373452D01*
X77745167Y-15382976D01*
X77726119Y-15382976D01*
X77707071Y-15373452D01*
X77697548Y-15363928D01*
X77688024Y-15344881D01*
X77678500Y-15306786D01*
X77678500Y-15259167D01*
X77688024Y-15221071D01*
X77697548Y-15202024D01*
X77707071Y-15192500D01*
X77726119Y-15182976D01*
X77868976Y-15182976D02*
X77868976Y-15221071D01*
X77945167Y-15182976D02*
X77945167Y-15221071D01*
X78240405Y-15459167D02*
X78230881Y-15449643D01*
X78211833Y-15421071D01*
X78202310Y-15402024D01*
X78192786Y-15373452D01*
X78183262Y-15325833D01*
X78183262Y-15287738D01*
X78192786Y-15240119D01*
X78202310Y-15211548D01*
X78211833Y-15192500D01*
X78230881Y-15163928D01*
X78240405Y-15154405D01*
X78345167Y-15268690D02*
X78326119Y-15259167D01*
X78316595Y-15249643D01*
X78307071Y-15230595D01*
X78307071Y-15221071D01*
X78316595Y-15202024D01*
X78326119Y-15192500D01*
X78345167Y-15182976D01*
X78383262Y-15182976D01*
X78402310Y-15192500D01*
X78411833Y-15202024D01*
X78421357Y-15221071D01*
X78421357Y-15230595D01*
X78411833Y-15249643D01*
X78402310Y-15259167D01*
X78383262Y-15268690D01*
X78345167Y-15268690D01*
X78326119Y-15278214D01*
X78316595Y-15287738D01*
X78307071Y-15306786D01*
X78307071Y-15344881D01*
X78316595Y-15363928D01*
X78326119Y-15373452D01*
X78345167Y-15382976D01*
X78383262Y-15382976D01*
X78402310Y-15373452D01*
X78411833Y-15363928D01*
X78421357Y-15344881D01*
X78421357Y-15306786D01*
X78411833Y-15287738D01*
X78402310Y-15278214D01*
X78383262Y-15268690D01*
X78659452Y-15382976D02*
X78659452Y-15182976D01*
X78745167Y-15382976D02*
X78745167Y-15278214D01*
X78735643Y-15259167D01*
X78716595Y-15249643D01*
X78688024Y-15249643D01*
X78668976Y-15259167D01*
X78659452Y-15268690D01*
X78868976Y-15382976D02*
X78849929Y-15373452D01*
X78840405Y-15363928D01*
X78830881Y-15344881D01*
X78830881Y-15287738D01*
X78840405Y-15268690D01*
X78849929Y-15259167D01*
X78868976Y-15249643D01*
X78897548Y-15249643D01*
X78916595Y-15259167D01*
X78926119Y-15268690D01*
X78935643Y-15287738D01*
X78935643Y-15344881D01*
X78926119Y-15363928D01*
X78916595Y-15373452D01*
X78897548Y-15382976D01*
X78868976Y-15382976D01*
X79049929Y-15382976D02*
X79030881Y-15373452D01*
X79021357Y-15354405D01*
X79021357Y-15182976D01*
X79202310Y-15373452D02*
X79183262Y-15382976D01*
X79145167Y-15382976D01*
X79126119Y-15373452D01*
X79116595Y-15354405D01*
X79116595Y-15278214D01*
X79126119Y-15259167D01*
X79145167Y-15249643D01*
X79183262Y-15249643D01*
X79202310Y-15259167D01*
X79211833Y-15278214D01*
X79211833Y-15297262D01*
X79116595Y-15316309D01*
X79288024Y-15373452D02*
X79307071Y-15382976D01*
X79345167Y-15382976D01*
X79364214Y-15373452D01*
X79373738Y-15354405D01*
X79373738Y-15344881D01*
X79364214Y-15325833D01*
X79345167Y-15316309D01*
X79316595Y-15316309D01*
X79297548Y-15306786D01*
X79288024Y-15287738D01*
X79288024Y-15278214D01*
X79297548Y-15259167D01*
X79316595Y-15249643D01*
X79345167Y-15249643D01*
X79364214Y-15259167D01*
X79440405Y-15459167D02*
X79449929Y-15449643D01*
X79468976Y-15421071D01*
X79478500Y-15402024D01*
X79488024Y-15373452D01*
X79497548Y-15325833D01*
X79497548Y-15287738D01*
X79488024Y-15240119D01*
X79478500Y-15211548D01*
X79468976Y-15192500D01*
X79449929Y-15163928D01*
X79440405Y-15154405D01*
D17*
X74578500Y-15511500D02*
X74668500Y-15601500D01*
X74668500Y-15511500D02*
X74578500Y-15601500D01*
X74668500Y-15556500D02*
G75*
G03*
X74668500Y-15556500I-45000J0D01*
G01*
D11*
X74964214Y-15446976D02*
X74983262Y-15446976D01*
X75002310Y-15456500D01*
X75011833Y-15466024D01*
X75021357Y-15485071D01*
X75030881Y-15523167D01*
X75030881Y-15570786D01*
X75021357Y-15608881D01*
X75011833Y-15627928D01*
X75002310Y-15637452D01*
X74983262Y-15646976D01*
X74964214Y-15646976D01*
X74945167Y-15637452D01*
X74935643Y-15627928D01*
X74926119Y-15608881D01*
X74916595Y-15570786D01*
X74916595Y-15523167D01*
X74926119Y-15485071D01*
X74935643Y-15466024D01*
X74945167Y-15456500D01*
X74964214Y-15446976D01*
X75116595Y-15627928D02*
X75126119Y-15637452D01*
X75116595Y-15646976D01*
X75107071Y-15637452D01*
X75116595Y-15627928D01*
X75116595Y-15646976D01*
X75221357Y-15646976D02*
X75259452Y-15646976D01*
X75278500Y-15637452D01*
X75288024Y-15627928D01*
X75307071Y-15599357D01*
X75316595Y-15561262D01*
X75316595Y-15485071D01*
X75307071Y-15466024D01*
X75297548Y-15456500D01*
X75278500Y-15446976D01*
X75240405Y-15446976D01*
X75221357Y-15456500D01*
X75211833Y-15466024D01*
X75202310Y-15485071D01*
X75202310Y-15532690D01*
X75211833Y-15551738D01*
X75221357Y-15561262D01*
X75240405Y-15570786D01*
X75278500Y-15570786D01*
X75297548Y-15561262D01*
X75307071Y-15551738D01*
X75316595Y-15532690D01*
X75440405Y-15446976D02*
X75459452Y-15446976D01*
X75478500Y-15456500D01*
X75488024Y-15466024D01*
X75497548Y-15485071D01*
X75507071Y-15523167D01*
X75507071Y-15570786D01*
X75497548Y-15608881D01*
X75488024Y-15627928D01*
X75478500Y-15637452D01*
X75459452Y-15646976D01*
X75440405Y-15646976D01*
X75421357Y-15637452D01*
X75411833Y-15627928D01*
X75402310Y-15608881D01*
X75392786Y-15570786D01*
X75392786Y-15523167D01*
X75402310Y-15485071D01*
X75411833Y-15466024D01*
X75421357Y-15456500D01*
X75440405Y-15446976D01*
X75630881Y-15446976D02*
X75649929Y-15446976D01*
X75668976Y-15456500D01*
X75678500Y-15466024D01*
X75688024Y-15485071D01*
X75697548Y-15523167D01*
X75697548Y-15570786D01*
X75688024Y-15608881D01*
X75678500Y-15627928D01*
X75668976Y-15637452D01*
X75649929Y-15646976D01*
X75630881Y-15646976D01*
X75611833Y-15637452D01*
X75602310Y-15627928D01*
X75592786Y-15608881D01*
X75583262Y-15570786D01*
X75583262Y-15523167D01*
X75592786Y-15485071D01*
X75602310Y-15466024D01*
X75611833Y-15456500D01*
X75630881Y-15446976D01*
X75783262Y-15646976D02*
X75783262Y-15513643D01*
X75783262Y-15532690D02*
X75792786Y-15523167D01*
X75811833Y-15513643D01*
X75840405Y-15513643D01*
X75859452Y-15523167D01*
X75868976Y-15542214D01*
X75868976Y-15646976D01*
X75868976Y-15542214D02*
X75878500Y-15523167D01*
X75897548Y-15513643D01*
X75926119Y-15513643D01*
X75945167Y-15523167D01*
X75954690Y-15542214D01*
X75954690Y-15646976D01*
X76049929Y-15646976D02*
X76049929Y-15513643D01*
X76049929Y-15532690D02*
X76059452Y-15523167D01*
X76078500Y-15513643D01*
X76107071Y-15513643D01*
X76126119Y-15523167D01*
X76135643Y-15542214D01*
X76135643Y-15646976D01*
X76135643Y-15542214D02*
X76145167Y-15523167D01*
X76164214Y-15513643D01*
X76192786Y-15513643D01*
X76211833Y-15523167D01*
X76221357Y-15542214D01*
X76221357Y-15646976D01*
X76611833Y-15437452D02*
X76440405Y-15694595D01*
X76868976Y-15446976D02*
X76888024Y-15446976D01*
X76907071Y-15456500D01*
X76916595Y-15466024D01*
X76926119Y-15485071D01*
X76935643Y-15523167D01*
X76935643Y-15570786D01*
X76926119Y-15608881D01*
X76916595Y-15627928D01*
X76907071Y-15637452D01*
X76888024Y-15646976D01*
X76868976Y-15646976D01*
X76849929Y-15637452D01*
X76840405Y-15627928D01*
X76830881Y-15608881D01*
X76821357Y-15570786D01*
X76821357Y-15523167D01*
X76830881Y-15485071D01*
X76840405Y-15466024D01*
X76849929Y-15456500D01*
X76868976Y-15446976D01*
X77021357Y-15627928D02*
X77030881Y-15637452D01*
X77021357Y-15646976D01*
X77011833Y-15637452D01*
X77021357Y-15627928D01*
X77021357Y-15646976D01*
X77154690Y-15446976D02*
X77173738Y-15446976D01*
X77192786Y-15456500D01*
X77202310Y-15466024D01*
X77211833Y-15485071D01*
X77221357Y-15523167D01*
X77221357Y-15570786D01*
X77211833Y-15608881D01*
X77202310Y-15627928D01*
X77192786Y-15637452D01*
X77173738Y-15646976D01*
X77154690Y-15646976D01*
X77135643Y-15637452D01*
X77126119Y-15627928D01*
X77116595Y-15608881D01*
X77107071Y-15570786D01*
X77107071Y-15523167D01*
X77116595Y-15485071D01*
X77126119Y-15466024D01*
X77135643Y-15456500D01*
X77154690Y-15446976D01*
X77288024Y-15446976D02*
X77411833Y-15446976D01*
X77345167Y-15523167D01*
X77373738Y-15523167D01*
X77392786Y-15532690D01*
X77402310Y-15542214D01*
X77411833Y-15561262D01*
X77411833Y-15608881D01*
X77402310Y-15627928D01*
X77392786Y-15637452D01*
X77373738Y-15646976D01*
X77316595Y-15646976D01*
X77297548Y-15637452D01*
X77288024Y-15627928D01*
X77592786Y-15446976D02*
X77497548Y-15446976D01*
X77488024Y-15542214D01*
X77497548Y-15532690D01*
X77516595Y-15523167D01*
X77564214Y-15523167D01*
X77583262Y-15532690D01*
X77592786Y-15542214D01*
X77602310Y-15561262D01*
X77602310Y-15608881D01*
X77592786Y-15627928D01*
X77583262Y-15637452D01*
X77564214Y-15646976D01*
X77516595Y-15646976D01*
X77497548Y-15637452D01*
X77488024Y-15627928D01*
X77773738Y-15513643D02*
X77773738Y-15646976D01*
X77726119Y-15437452D02*
X77678500Y-15580309D01*
X77802310Y-15580309D01*
X77868976Y-15446976D02*
X77868976Y-15485071D01*
X77945167Y-15446976D02*
X77945167Y-15485071D01*
X78240405Y-15723167D02*
X78230881Y-15713643D01*
X78211833Y-15685071D01*
X78202310Y-15666024D01*
X78192786Y-15637452D01*
X78183262Y-15589833D01*
X78183262Y-15551738D01*
X78192786Y-15504119D01*
X78202310Y-15475548D01*
X78211833Y-15456500D01*
X78230881Y-15427928D01*
X78240405Y-15418405D01*
X78307071Y-15466024D02*
X78316595Y-15456500D01*
X78335643Y-15446976D01*
X78383262Y-15446976D01*
X78402310Y-15456500D01*
X78411833Y-15466024D01*
X78421357Y-15485071D01*
X78421357Y-15504119D01*
X78411833Y-15532690D01*
X78297548Y-15646976D01*
X78421357Y-15646976D01*
X78659452Y-15646976D02*
X78659452Y-15446976D01*
X78745167Y-15646976D02*
X78745167Y-15542214D01*
X78735643Y-15523167D01*
X78716595Y-15513643D01*
X78688024Y-15513643D01*
X78668976Y-15523167D01*
X78659452Y-15532690D01*
X78868976Y-15646976D02*
X78849929Y-15637452D01*
X78840405Y-15627928D01*
X78830881Y-15608881D01*
X78830881Y-15551738D01*
X78840405Y-15532690D01*
X78849929Y-15523167D01*
X78868976Y-15513643D01*
X78897548Y-15513643D01*
X78916595Y-15523167D01*
X78926119Y-15532690D01*
X78935643Y-15551738D01*
X78935643Y-15608881D01*
X78926119Y-15627928D01*
X78916595Y-15637452D01*
X78897548Y-15646976D01*
X78868976Y-15646976D01*
X79049929Y-15646976D02*
X79030881Y-15637452D01*
X79021357Y-15618405D01*
X79021357Y-15446976D01*
X79202310Y-15637452D02*
X79183262Y-15646976D01*
X79145167Y-15646976D01*
X79126119Y-15637452D01*
X79116595Y-15618405D01*
X79116595Y-15542214D01*
X79126119Y-15523167D01*
X79145167Y-15513643D01*
X79183262Y-15513643D01*
X79202310Y-15523167D01*
X79211833Y-15542214D01*
X79211833Y-15561262D01*
X79116595Y-15580309D01*
X79288024Y-15637452D02*
X79307071Y-15646976D01*
X79345167Y-15646976D01*
X79364214Y-15637452D01*
X79373738Y-15618405D01*
X79373738Y-15608881D01*
X79364214Y-15589833D01*
X79345167Y-15580309D01*
X79316595Y-15580309D01*
X79297548Y-15570786D01*
X79288024Y-15551738D01*
X79288024Y-15542214D01*
X79297548Y-15523167D01*
X79316595Y-15513643D01*
X79345167Y-15513643D01*
X79364214Y-15523167D01*
X79440405Y-15723167D02*
X79449929Y-15713643D01*
X79468976Y-15685071D01*
X79478500Y-15666024D01*
X79488024Y-15637452D01*
X79497548Y-15589833D01*
X79497548Y-15551738D01*
X79488024Y-15504119D01*
X79478500Y-15475548D01*
X79468976Y-15456500D01*
X79449929Y-15427928D01*
X79440405Y-15418405D01*
D18*
X74568500Y-15770500D02*
X74668500Y-15870500D01*
X74668500Y-15770500D02*
X74568500Y-15870500D01*
X74618500Y-15770500D02*
X74618500Y-15870500D01*
X74568500Y-15820500D02*
X74668500Y-15820500D01*
D11*
X75030881Y-15910976D02*
X74916595Y-15910976D01*
X74973738Y-15910976D02*
X74973738Y-15710976D01*
X74954690Y-15739548D01*
X74935643Y-15758595D01*
X74916595Y-15768119D01*
X75116595Y-15891928D02*
X75126119Y-15901452D01*
X75116595Y-15910976D01*
X75107071Y-15901452D01*
X75116595Y-15891928D01*
X75116595Y-15910976D01*
X75249929Y-15710976D02*
X75268976Y-15710976D01*
X75288024Y-15720500D01*
X75297548Y-15730024D01*
X75307071Y-15749071D01*
X75316595Y-15787167D01*
X75316595Y-15834786D01*
X75307071Y-15872881D01*
X75297548Y-15891928D01*
X75288024Y-15901452D01*
X75268976Y-15910976D01*
X75249929Y-15910976D01*
X75230881Y-15901452D01*
X75221357Y-15891928D01*
X75211833Y-15872881D01*
X75202310Y-15834786D01*
X75202310Y-15787167D01*
X75211833Y-15749071D01*
X75221357Y-15730024D01*
X75230881Y-15720500D01*
X75249929Y-15710976D01*
X75440405Y-15710976D02*
X75459452Y-15710976D01*
X75478500Y-15720500D01*
X75488024Y-15730024D01*
X75497548Y-15749071D01*
X75507071Y-15787167D01*
X75507071Y-15834786D01*
X75497548Y-15872881D01*
X75488024Y-15891928D01*
X75478500Y-15901452D01*
X75459452Y-15910976D01*
X75440405Y-15910976D01*
X75421357Y-15901452D01*
X75411833Y-15891928D01*
X75402310Y-15872881D01*
X75392786Y-15834786D01*
X75392786Y-15787167D01*
X75402310Y-15749071D01*
X75411833Y-15730024D01*
X75421357Y-15720500D01*
X75440405Y-15710976D01*
X75630881Y-15710976D02*
X75649929Y-15710976D01*
X75668976Y-15720500D01*
X75678500Y-15730024D01*
X75688024Y-15749071D01*
X75697548Y-15787167D01*
X75697548Y-15834786D01*
X75688024Y-15872881D01*
X75678500Y-15891928D01*
X75668976Y-15901452D01*
X75649929Y-15910976D01*
X75630881Y-15910976D01*
X75611833Y-15901452D01*
X75602310Y-15891928D01*
X75592786Y-15872881D01*
X75583262Y-15834786D01*
X75583262Y-15787167D01*
X75592786Y-15749071D01*
X75602310Y-15730024D01*
X75611833Y-15720500D01*
X75630881Y-15710976D01*
X75783262Y-15910976D02*
X75783262Y-15777643D01*
X75783262Y-15796690D02*
X75792786Y-15787167D01*
X75811833Y-15777643D01*
X75840405Y-15777643D01*
X75859452Y-15787167D01*
X75868976Y-15806214D01*
X75868976Y-15910976D01*
X75868976Y-15806214D02*
X75878500Y-15787167D01*
X75897548Y-15777643D01*
X75926119Y-15777643D01*
X75945167Y-15787167D01*
X75954690Y-15806214D01*
X75954690Y-15910976D01*
X76049929Y-15910976D02*
X76049929Y-15777643D01*
X76049929Y-15796690D02*
X76059452Y-15787167D01*
X76078500Y-15777643D01*
X76107071Y-15777643D01*
X76126119Y-15787167D01*
X76135643Y-15806214D01*
X76135643Y-15910976D01*
X76135643Y-15806214D02*
X76145167Y-15787167D01*
X76164214Y-15777643D01*
X76192786Y-15777643D01*
X76211833Y-15787167D01*
X76221357Y-15806214D01*
X76221357Y-15910976D01*
X76611833Y-15701452D02*
X76440405Y-15958595D01*
X76868976Y-15710976D02*
X76888024Y-15710976D01*
X76907071Y-15720500D01*
X76916595Y-15730024D01*
X76926119Y-15749071D01*
X76935643Y-15787167D01*
X76935643Y-15834786D01*
X76926119Y-15872881D01*
X76916595Y-15891928D01*
X76907071Y-15901452D01*
X76888024Y-15910976D01*
X76868976Y-15910976D01*
X76849929Y-15901452D01*
X76840405Y-15891928D01*
X76830881Y-15872881D01*
X76821357Y-15834786D01*
X76821357Y-15787167D01*
X76830881Y-15749071D01*
X76840405Y-15730024D01*
X76849929Y-15720500D01*
X76868976Y-15710976D01*
X77021357Y-15891928D02*
X77030881Y-15901452D01*
X77021357Y-15910976D01*
X77011833Y-15901452D01*
X77021357Y-15891928D01*
X77021357Y-15910976D01*
X77154690Y-15710976D02*
X77173738Y-15710976D01*
X77192786Y-15720500D01*
X77202310Y-15730024D01*
X77211833Y-15749071D01*
X77221357Y-15787167D01*
X77221357Y-15834786D01*
X77211833Y-15872881D01*
X77202310Y-15891928D01*
X77192786Y-15901452D01*
X77173738Y-15910976D01*
X77154690Y-15910976D01*
X77135643Y-15901452D01*
X77126119Y-15891928D01*
X77116595Y-15872881D01*
X77107071Y-15834786D01*
X77107071Y-15787167D01*
X77116595Y-15749071D01*
X77126119Y-15730024D01*
X77135643Y-15720500D01*
X77154690Y-15710976D01*
X77288024Y-15710976D02*
X77411833Y-15710976D01*
X77345167Y-15787167D01*
X77373738Y-15787167D01*
X77392786Y-15796690D01*
X77402310Y-15806214D01*
X77411833Y-15825262D01*
X77411833Y-15872881D01*
X77402310Y-15891928D01*
X77392786Y-15901452D01*
X77373738Y-15910976D01*
X77316595Y-15910976D01*
X77297548Y-15901452D01*
X77288024Y-15891928D01*
X77507071Y-15910976D02*
X77545167Y-15910976D01*
X77564214Y-15901452D01*
X77573738Y-15891928D01*
X77592786Y-15863357D01*
X77602310Y-15825262D01*
X77602310Y-15749071D01*
X77592786Y-15730024D01*
X77583262Y-15720500D01*
X77564214Y-15710976D01*
X77526119Y-15710976D01*
X77507071Y-15720500D01*
X77497548Y-15730024D01*
X77488024Y-15749071D01*
X77488024Y-15796690D01*
X77497548Y-15815738D01*
X77507071Y-15825262D01*
X77526119Y-15834786D01*
X77564214Y-15834786D01*
X77583262Y-15825262D01*
X77592786Y-15815738D01*
X77602310Y-15796690D01*
X77773738Y-15777643D02*
X77773738Y-15910976D01*
X77726119Y-15701452D02*
X77678500Y-15844309D01*
X77802310Y-15844309D01*
X77868976Y-15710976D02*
X77868976Y-15749071D01*
X77945167Y-15710976D02*
X77945167Y-15749071D01*
X78240405Y-15987167D02*
X78230881Y-15977643D01*
X78211833Y-15949071D01*
X78202310Y-15930024D01*
X78192786Y-15901452D01*
X78183262Y-15853833D01*
X78183262Y-15815738D01*
X78192786Y-15768119D01*
X78202310Y-15739548D01*
X78211833Y-15720500D01*
X78230881Y-15691928D01*
X78240405Y-15682405D01*
X78307071Y-15730024D02*
X78316595Y-15720500D01*
X78335643Y-15710976D01*
X78383262Y-15710976D01*
X78402310Y-15720500D01*
X78411833Y-15730024D01*
X78421357Y-15749071D01*
X78421357Y-15768119D01*
X78411833Y-15796690D01*
X78297548Y-15910976D01*
X78421357Y-15910976D01*
X78659452Y-15910976D02*
X78659452Y-15710976D01*
X78745167Y-15910976D02*
X78745167Y-15806214D01*
X78735643Y-15787167D01*
X78716595Y-15777643D01*
X78688024Y-15777643D01*
X78668976Y-15787167D01*
X78659452Y-15796690D01*
X78868976Y-15910976D02*
X78849929Y-15901452D01*
X78840405Y-15891928D01*
X78830881Y-15872881D01*
X78830881Y-15815738D01*
X78840405Y-15796690D01*
X78849929Y-15787167D01*
X78868976Y-15777643D01*
X78897548Y-15777643D01*
X78916595Y-15787167D01*
X78926119Y-15796690D01*
X78935643Y-15815738D01*
X78935643Y-15872881D01*
X78926119Y-15891928D01*
X78916595Y-15901452D01*
X78897548Y-15910976D01*
X78868976Y-15910976D01*
X79049929Y-15910976D02*
X79030881Y-15901452D01*
X79021357Y-15882405D01*
X79021357Y-15710976D01*
X79202310Y-15901452D02*
X79183262Y-15910976D01*
X79145167Y-15910976D01*
X79126119Y-15901452D01*
X79116595Y-15882405D01*
X79116595Y-15806214D01*
X79126119Y-15787167D01*
X79145167Y-15777643D01*
X79183262Y-15777643D01*
X79202310Y-15787167D01*
X79211833Y-15806214D01*
X79211833Y-15825262D01*
X79116595Y-15844309D01*
X79288024Y-15901452D02*
X79307071Y-15910976D01*
X79345167Y-15910976D01*
X79364214Y-15901452D01*
X79373738Y-15882405D01*
X79373738Y-15872881D01*
X79364214Y-15853833D01*
X79345167Y-15844309D01*
X79316595Y-15844309D01*
X79297548Y-15834786D01*
X79288024Y-15815738D01*
X79288024Y-15806214D01*
X79297548Y-15787167D01*
X79316595Y-15777643D01*
X79345167Y-15777643D01*
X79364214Y-15787167D01*
X79440405Y-15987167D02*
X79449929Y-15977643D01*
X79468976Y-15949071D01*
X79478500Y-15930024D01*
X79488024Y-15901452D01*
X79497548Y-15853833D01*
X79497548Y-15815738D01*
X79488024Y-15768119D01*
X79478500Y-15739548D01*
X79468976Y-15720500D01*
X79449929Y-15691928D01*
X79440405Y-15682405D01*
D18*
X74568500Y-16034500D02*
X74668500Y-16134500D01*
X74668500Y-16034500D02*
X74568500Y-16134500D01*
X74653856Y-16119856D02*
X74653856Y-16049144D01*
X74583144Y-16049144D01*
X74583144Y-16119856D01*
X74653856Y-16119856D01*
D11*
X75030881Y-16174976D02*
X74916595Y-16174976D01*
X74973738Y-16174976D02*
X74973738Y-15974976D01*
X74954690Y-16003548D01*
X74935643Y-16022595D01*
X74916595Y-16032119D01*
X75116595Y-16155928D02*
X75126119Y-16165452D01*
X75116595Y-16174976D01*
X75107071Y-16165452D01*
X75116595Y-16155928D01*
X75116595Y-16174976D01*
X75249929Y-15974976D02*
X75268976Y-15974976D01*
X75288024Y-15984500D01*
X75297548Y-15994024D01*
X75307071Y-16013071D01*
X75316595Y-16051167D01*
X75316595Y-16098786D01*
X75307071Y-16136881D01*
X75297548Y-16155928D01*
X75288024Y-16165452D01*
X75268976Y-16174976D01*
X75249929Y-16174976D01*
X75230881Y-16165452D01*
X75221357Y-16155928D01*
X75211833Y-16136881D01*
X75202310Y-16098786D01*
X75202310Y-16051167D01*
X75211833Y-16013071D01*
X75221357Y-15994024D01*
X75230881Y-15984500D01*
X75249929Y-15974976D01*
X75440405Y-15974976D02*
X75459452Y-15974976D01*
X75478500Y-15984500D01*
X75488024Y-15994024D01*
X75497548Y-16013071D01*
X75507071Y-16051167D01*
X75507071Y-16098786D01*
X75497548Y-16136881D01*
X75488024Y-16155928D01*
X75478500Y-16165452D01*
X75459452Y-16174976D01*
X75440405Y-16174976D01*
X75421357Y-16165452D01*
X75411833Y-16155928D01*
X75402310Y-16136881D01*
X75392786Y-16098786D01*
X75392786Y-16051167D01*
X75402310Y-16013071D01*
X75411833Y-15994024D01*
X75421357Y-15984500D01*
X75440405Y-15974976D01*
X75630881Y-15974976D02*
X75649929Y-15974976D01*
X75668976Y-15984500D01*
X75678500Y-15994024D01*
X75688024Y-16013071D01*
X75697548Y-16051167D01*
X75697548Y-16098786D01*
X75688024Y-16136881D01*
X75678500Y-16155928D01*
X75668976Y-16165452D01*
X75649929Y-16174976D01*
X75630881Y-16174976D01*
X75611833Y-16165452D01*
X75602310Y-16155928D01*
X75592786Y-16136881D01*
X75583262Y-16098786D01*
X75583262Y-16051167D01*
X75592786Y-16013071D01*
X75602310Y-15994024D01*
X75611833Y-15984500D01*
X75630881Y-15974976D01*
X75783262Y-16174976D02*
X75783262Y-16041643D01*
X75783262Y-16060690D02*
X75792786Y-16051167D01*
X75811833Y-16041643D01*
X75840405Y-16041643D01*
X75859452Y-16051167D01*
X75868976Y-16070214D01*
X75868976Y-16174976D01*
X75868976Y-16070214D02*
X75878500Y-16051167D01*
X75897548Y-16041643D01*
X75926119Y-16041643D01*
X75945167Y-16051167D01*
X75954690Y-16070214D01*
X75954690Y-16174976D01*
X76049929Y-16174976D02*
X76049929Y-16041643D01*
X76049929Y-16060690D02*
X76059452Y-16051167D01*
X76078500Y-16041643D01*
X76107071Y-16041643D01*
X76126119Y-16051167D01*
X76135643Y-16070214D01*
X76135643Y-16174976D01*
X76135643Y-16070214D02*
X76145167Y-16051167D01*
X76164214Y-16041643D01*
X76192786Y-16041643D01*
X76211833Y-16051167D01*
X76221357Y-16070214D01*
X76221357Y-16174976D01*
X76611833Y-15965452D02*
X76440405Y-16222595D01*
X76868976Y-15974976D02*
X76888024Y-15974976D01*
X76907071Y-15984500D01*
X76916595Y-15994024D01*
X76926119Y-16013071D01*
X76935643Y-16051167D01*
X76935643Y-16098786D01*
X76926119Y-16136881D01*
X76916595Y-16155928D01*
X76907071Y-16165452D01*
X76888024Y-16174976D01*
X76868976Y-16174976D01*
X76849929Y-16165452D01*
X76840405Y-16155928D01*
X76830881Y-16136881D01*
X76821357Y-16098786D01*
X76821357Y-16051167D01*
X76830881Y-16013071D01*
X76840405Y-15994024D01*
X76849929Y-15984500D01*
X76868976Y-15974976D01*
X77021357Y-16155928D02*
X77030881Y-16165452D01*
X77021357Y-16174976D01*
X77011833Y-16165452D01*
X77021357Y-16155928D01*
X77021357Y-16174976D01*
X77154690Y-15974976D02*
X77173738Y-15974976D01*
X77192786Y-15984500D01*
X77202310Y-15994024D01*
X77211833Y-16013071D01*
X77221357Y-16051167D01*
X77221357Y-16098786D01*
X77211833Y-16136881D01*
X77202310Y-16155928D01*
X77192786Y-16165452D01*
X77173738Y-16174976D01*
X77154690Y-16174976D01*
X77135643Y-16165452D01*
X77126119Y-16155928D01*
X77116595Y-16136881D01*
X77107071Y-16098786D01*
X77107071Y-16051167D01*
X77116595Y-16013071D01*
X77126119Y-15994024D01*
X77135643Y-15984500D01*
X77154690Y-15974976D01*
X77288024Y-15974976D02*
X77411833Y-15974976D01*
X77345167Y-16051167D01*
X77373738Y-16051167D01*
X77392786Y-16060690D01*
X77402310Y-16070214D01*
X77411833Y-16089262D01*
X77411833Y-16136881D01*
X77402310Y-16155928D01*
X77392786Y-16165452D01*
X77373738Y-16174976D01*
X77316595Y-16174976D01*
X77297548Y-16165452D01*
X77288024Y-16155928D01*
X77507071Y-16174976D02*
X77545167Y-16174976D01*
X77564214Y-16165452D01*
X77573738Y-16155928D01*
X77592786Y-16127357D01*
X77602310Y-16089262D01*
X77602310Y-16013071D01*
X77592786Y-15994024D01*
X77583262Y-15984500D01*
X77564214Y-15974976D01*
X77526119Y-15974976D01*
X77507071Y-15984500D01*
X77497548Y-15994024D01*
X77488024Y-16013071D01*
X77488024Y-16060690D01*
X77497548Y-16079738D01*
X77507071Y-16089262D01*
X77526119Y-16098786D01*
X77564214Y-16098786D01*
X77583262Y-16089262D01*
X77592786Y-16079738D01*
X77602310Y-16060690D01*
X77773738Y-16041643D02*
X77773738Y-16174976D01*
X77726119Y-15965452D02*
X77678500Y-16108309D01*
X77802310Y-16108309D01*
X77868976Y-15974976D02*
X77868976Y-16013071D01*
X77945167Y-15974976D02*
X77945167Y-16013071D01*
X78240405Y-16251167D02*
X78230881Y-16241643D01*
X78211833Y-16213071D01*
X78202310Y-16194024D01*
X78192786Y-16165452D01*
X78183262Y-16117833D01*
X78183262Y-16079738D01*
X78192786Y-16032119D01*
X78202310Y-16003548D01*
X78211833Y-15984500D01*
X78230881Y-15955928D01*
X78240405Y-15946405D01*
X78421357Y-16174976D02*
X78307071Y-16174976D01*
X78364214Y-16174976D02*
X78364214Y-15974976D01*
X78345167Y-16003548D01*
X78326119Y-16022595D01*
X78307071Y-16032119D01*
X78497548Y-15994024D02*
X78507071Y-15984500D01*
X78526119Y-15974976D01*
X78573738Y-15974976D01*
X78592786Y-15984500D01*
X78602310Y-15994024D01*
X78611833Y-16013071D01*
X78611833Y-16032119D01*
X78602310Y-16060690D01*
X78488024Y-16174976D01*
X78611833Y-16174976D01*
X78849929Y-16174976D02*
X78849929Y-15974976D01*
X78935643Y-16174976D02*
X78935643Y-16070214D01*
X78926119Y-16051167D01*
X78907071Y-16041643D01*
X78878500Y-16041643D01*
X78859452Y-16051167D01*
X78849929Y-16060690D01*
X79059452Y-16174976D02*
X79040405Y-16165452D01*
X79030881Y-16155928D01*
X79021357Y-16136881D01*
X79021357Y-16079738D01*
X79030881Y-16060690D01*
X79040405Y-16051167D01*
X79059452Y-16041643D01*
X79088024Y-16041643D01*
X79107071Y-16051167D01*
X79116595Y-16060690D01*
X79126119Y-16079738D01*
X79126119Y-16136881D01*
X79116595Y-16155928D01*
X79107071Y-16165452D01*
X79088024Y-16174976D01*
X79059452Y-16174976D01*
X79240405Y-16174976D02*
X79221357Y-16165452D01*
X79211833Y-16146405D01*
X79211833Y-15974976D01*
X79392786Y-16165452D02*
X79373738Y-16174976D01*
X79335643Y-16174976D01*
X79316595Y-16165452D01*
X79307071Y-16146405D01*
X79307071Y-16070214D01*
X79316595Y-16051167D01*
X79335643Y-16041643D01*
X79373738Y-16041643D01*
X79392786Y-16051167D01*
X79402310Y-16070214D01*
X79402310Y-16089262D01*
X79307071Y-16108309D01*
X79478500Y-16165452D02*
X79497548Y-16174976D01*
X79535643Y-16174976D01*
X79554690Y-16165452D01*
X79564214Y-16146405D01*
X79564214Y-16136881D01*
X79554690Y-16117833D01*
X79535643Y-16108309D01*
X79507071Y-16108309D01*
X79488024Y-16098786D01*
X79478500Y-16079738D01*
X79478500Y-16070214D01*
X79488024Y-16051167D01*
X79507071Y-16041643D01*
X79535643Y-16041643D01*
X79554690Y-16051167D01*
X79630881Y-16251167D02*
X79640405Y-16241643D01*
X79659452Y-16213071D01*
X79668976Y-16194024D01*
X79678500Y-16165452D01*
X79688024Y-16117833D01*
X79688024Y-16079738D01*
X79678500Y-16032119D01*
X79668976Y-16003548D01*
X79659452Y-15984500D01*
X79640405Y-15955928D01*
X79630881Y-15946405D01*
D19*
X74516500Y-16272500D02*
X74668500Y-16424500D01*
X74668500Y-16272500D02*
X74516500Y-16424500D01*
X74592500Y-16424500D02*
X74668500Y-16348500D01*
X74592500Y-16272500D01*
X74516500Y-16348500D01*
X74592500Y-16424500D01*
D11*
X75030881Y-16438976D02*
X74916595Y-16438976D01*
X74973738Y-16438976D02*
X74973738Y-16238976D01*
X74954690Y-16267548D01*
X74935643Y-16286595D01*
X74916595Y-16296119D01*
X75116595Y-16419928D02*
X75126119Y-16429452D01*
X75116595Y-16438976D01*
X75107071Y-16429452D01*
X75116595Y-16419928D01*
X75116595Y-16438976D01*
X75307071Y-16238976D02*
X75211833Y-16238976D01*
X75202310Y-16334214D01*
X75211833Y-16324690D01*
X75230881Y-16315167D01*
X75278500Y-16315167D01*
X75297548Y-16324690D01*
X75307071Y-16334214D01*
X75316595Y-16353262D01*
X75316595Y-16400881D01*
X75307071Y-16419928D01*
X75297548Y-16429452D01*
X75278500Y-16438976D01*
X75230881Y-16438976D01*
X75211833Y-16429452D01*
X75202310Y-16419928D01*
X75392786Y-16258024D02*
X75402310Y-16248500D01*
X75421357Y-16238976D01*
X75468976Y-16238976D01*
X75488024Y-16248500D01*
X75497548Y-16258024D01*
X75507071Y-16277071D01*
X75507071Y-16296119D01*
X75497548Y-16324690D01*
X75383262Y-16438976D01*
X75507071Y-16438976D01*
X75630881Y-16238976D02*
X75649929Y-16238976D01*
X75668976Y-16248500D01*
X75678500Y-16258024D01*
X75688024Y-16277071D01*
X75697548Y-16315167D01*
X75697548Y-16362786D01*
X75688024Y-16400881D01*
X75678500Y-16419928D01*
X75668976Y-16429452D01*
X75649929Y-16438976D01*
X75630881Y-16438976D01*
X75611833Y-16429452D01*
X75602310Y-16419928D01*
X75592786Y-16400881D01*
X75583262Y-16362786D01*
X75583262Y-16315167D01*
X75592786Y-16277071D01*
X75602310Y-16258024D01*
X75611833Y-16248500D01*
X75630881Y-16238976D01*
X75783262Y-16438976D02*
X75783262Y-16305643D01*
X75783262Y-16324690D02*
X75792786Y-16315167D01*
X75811833Y-16305643D01*
X75840405Y-16305643D01*
X75859452Y-16315167D01*
X75868976Y-16334214D01*
X75868976Y-16438976D01*
X75868976Y-16334214D02*
X75878500Y-16315167D01*
X75897548Y-16305643D01*
X75926119Y-16305643D01*
X75945167Y-16315167D01*
X75954690Y-16334214D01*
X75954690Y-16438976D01*
X76049929Y-16438976D02*
X76049929Y-16305643D01*
X76049929Y-16324690D02*
X76059452Y-16315167D01*
X76078500Y-16305643D01*
X76107071Y-16305643D01*
X76126119Y-16315167D01*
X76135643Y-16334214D01*
X76135643Y-16438976D01*
X76135643Y-16334214D02*
X76145167Y-16315167D01*
X76164214Y-16305643D01*
X76192786Y-16305643D01*
X76211833Y-16315167D01*
X76221357Y-16334214D01*
X76221357Y-16438976D01*
X76611833Y-16229452D02*
X76440405Y-16486595D01*
X76868976Y-16238976D02*
X76888024Y-16238976D01*
X76907071Y-16248500D01*
X76916595Y-16258024D01*
X76926119Y-16277071D01*
X76935643Y-16315167D01*
X76935643Y-16362786D01*
X76926119Y-16400881D01*
X76916595Y-16419928D01*
X76907071Y-16429452D01*
X76888024Y-16438976D01*
X76868976Y-16438976D01*
X76849929Y-16429452D01*
X76840405Y-16419928D01*
X76830881Y-16400881D01*
X76821357Y-16362786D01*
X76821357Y-16315167D01*
X76830881Y-16277071D01*
X76840405Y-16258024D01*
X76849929Y-16248500D01*
X76868976Y-16238976D01*
X77021357Y-16419928D02*
X77030881Y-16429452D01*
X77021357Y-16438976D01*
X77011833Y-16429452D01*
X77021357Y-16419928D01*
X77021357Y-16438976D01*
X77154690Y-16238976D02*
X77173738Y-16238976D01*
X77192786Y-16248500D01*
X77202310Y-16258024D01*
X77211833Y-16277071D01*
X77221357Y-16315167D01*
X77221357Y-16362786D01*
X77211833Y-16400881D01*
X77202310Y-16419928D01*
X77192786Y-16429452D01*
X77173738Y-16438976D01*
X77154690Y-16438976D01*
X77135643Y-16429452D01*
X77126119Y-16419928D01*
X77116595Y-16400881D01*
X77107071Y-16362786D01*
X77107071Y-16315167D01*
X77116595Y-16277071D01*
X77126119Y-16258024D01*
X77135643Y-16248500D01*
X77154690Y-16238976D01*
X77402310Y-16238976D02*
X77307071Y-16238976D01*
X77297548Y-16334214D01*
X77307071Y-16324690D01*
X77326119Y-16315167D01*
X77373738Y-16315167D01*
X77392786Y-16324690D01*
X77402310Y-16334214D01*
X77411833Y-16353262D01*
X77411833Y-16400881D01*
X77402310Y-16419928D01*
X77392786Y-16429452D01*
X77373738Y-16438976D01*
X77326119Y-16438976D01*
X77307071Y-16429452D01*
X77297548Y-16419928D01*
X77507071Y-16438976D02*
X77545167Y-16438976D01*
X77564214Y-16429452D01*
X77573738Y-16419928D01*
X77592786Y-16391357D01*
X77602310Y-16353262D01*
X77602310Y-16277071D01*
X77592786Y-16258024D01*
X77583262Y-16248500D01*
X77564214Y-16238976D01*
X77526119Y-16238976D01*
X77507071Y-16248500D01*
X77497548Y-16258024D01*
X77488024Y-16277071D01*
X77488024Y-16324690D01*
X77497548Y-16343738D01*
X77507071Y-16353262D01*
X77526119Y-16362786D01*
X77564214Y-16362786D01*
X77583262Y-16353262D01*
X77592786Y-16343738D01*
X77602310Y-16324690D01*
X77716595Y-16324690D02*
X77697548Y-16315167D01*
X77688024Y-16305643D01*
X77678500Y-16286595D01*
X77678500Y-16277071D01*
X77688024Y-16258024D01*
X77697548Y-16248500D01*
X77716595Y-16238976D01*
X77754690Y-16238976D01*
X77773738Y-16248500D01*
X77783262Y-16258024D01*
X77792786Y-16277071D01*
X77792786Y-16286595D01*
X77783262Y-16305643D01*
X77773738Y-16315167D01*
X77754690Y-16324690D01*
X77716595Y-16324690D01*
X77697548Y-16334214D01*
X77688024Y-16343738D01*
X77678500Y-16362786D01*
X77678500Y-16400881D01*
X77688024Y-16419928D01*
X77697548Y-16429452D01*
X77716595Y-16438976D01*
X77754690Y-16438976D01*
X77773738Y-16429452D01*
X77783262Y-16419928D01*
X77792786Y-16400881D01*
X77792786Y-16362786D01*
X77783262Y-16343738D01*
X77773738Y-16334214D01*
X77754690Y-16324690D01*
X77868976Y-16238976D02*
X77868976Y-16277071D01*
X77945167Y-16238976D02*
X77945167Y-16277071D01*
X78240405Y-16515167D02*
X78230881Y-16505643D01*
X78211833Y-16477071D01*
X78202310Y-16458024D01*
X78192786Y-16429452D01*
X78183262Y-16381833D01*
X78183262Y-16343738D01*
X78192786Y-16296119D01*
X78202310Y-16267548D01*
X78211833Y-16248500D01*
X78230881Y-16219928D01*
X78240405Y-16210405D01*
X78297548Y-16238976D02*
X78421357Y-16238976D01*
X78354690Y-16315167D01*
X78383262Y-16315167D01*
X78402310Y-16324690D01*
X78411833Y-16334214D01*
X78421357Y-16353262D01*
X78421357Y-16400881D01*
X78411833Y-16419928D01*
X78402310Y-16429452D01*
X78383262Y-16438976D01*
X78326119Y-16438976D01*
X78307071Y-16429452D01*
X78297548Y-16419928D01*
X78659452Y-16438976D02*
X78659452Y-16238976D01*
X78745167Y-16438976D02*
X78745167Y-16334214D01*
X78735643Y-16315167D01*
X78716595Y-16305643D01*
X78688024Y-16305643D01*
X78668976Y-16315167D01*
X78659452Y-16324690D01*
X78868976Y-16438976D02*
X78849929Y-16429452D01*
X78840405Y-16419928D01*
X78830881Y-16400881D01*
X78830881Y-16343738D01*
X78840405Y-16324690D01*
X78849929Y-16315167D01*
X78868976Y-16305643D01*
X78897548Y-16305643D01*
X78916595Y-16315167D01*
X78926119Y-16324690D01*
X78935643Y-16343738D01*
X78935643Y-16400881D01*
X78926119Y-16419928D01*
X78916595Y-16429452D01*
X78897548Y-16438976D01*
X78868976Y-16438976D01*
X79049929Y-16438976D02*
X79030881Y-16429452D01*
X79021357Y-16410405D01*
X79021357Y-16238976D01*
X79202310Y-16429452D02*
X79183262Y-16438976D01*
X79145167Y-16438976D01*
X79126119Y-16429452D01*
X79116595Y-16410405D01*
X79116595Y-16334214D01*
X79126119Y-16315167D01*
X79145167Y-16305643D01*
X79183262Y-16305643D01*
X79202310Y-16315167D01*
X79211833Y-16334214D01*
X79211833Y-16353262D01*
X79116595Y-16372309D01*
X79288024Y-16429452D02*
X79307071Y-16438976D01*
X79345167Y-16438976D01*
X79364214Y-16429452D01*
X79373738Y-16410405D01*
X79373738Y-16400881D01*
X79364214Y-16381833D01*
X79345167Y-16372309D01*
X79316595Y-16372309D01*
X79297548Y-16362786D01*
X79288024Y-16343738D01*
X79288024Y-16334214D01*
X79297548Y-16315167D01*
X79316595Y-16305643D01*
X79345167Y-16305643D01*
X79364214Y-16315167D01*
X79440405Y-16515167D02*
X79449929Y-16505643D01*
X79468976Y-16477071D01*
X79478500Y-16458024D01*
X79488024Y-16429452D01*
X79497548Y-16381833D01*
X79497548Y-16343738D01*
X79488024Y-16296119D01*
X79478500Y-16267548D01*
X79468976Y-16248500D01*
X79449929Y-16219928D01*
X79440405Y-16210405D01*
X74568500Y-16520500D02*
X74568500Y-16720500D01*
X74468500Y-16620500D02*
X74668500Y-16620500D01*
X74668500Y-16620500D02*
G75*
G03*
X74668500Y-16620500I-100000J0D01*
G01*
X74916595Y-16530024D02*
X74926119Y-16520500D01*
X74945167Y-16510976D01*
X74992786Y-16510976D01*
X75011833Y-16520500D01*
X75021357Y-16530024D01*
X75030881Y-16549071D01*
X75030881Y-16568119D01*
X75021357Y-16596690D01*
X74907071Y-16710976D01*
X75030881Y-16710976D01*
X75116595Y-16691928D02*
X75126119Y-16701452D01*
X75116595Y-16710976D01*
X75107071Y-16701452D01*
X75116595Y-16691928D01*
X75116595Y-16710976D01*
X75249929Y-16510976D02*
X75268976Y-16510976D01*
X75288024Y-16520500D01*
X75297548Y-16530024D01*
X75307071Y-16549071D01*
X75316595Y-16587167D01*
X75316595Y-16634786D01*
X75307071Y-16672881D01*
X75297548Y-16691928D01*
X75288024Y-16701452D01*
X75268976Y-16710976D01*
X75249929Y-16710976D01*
X75230881Y-16701452D01*
X75221357Y-16691928D01*
X75211833Y-16672881D01*
X75202310Y-16634786D01*
X75202310Y-16587167D01*
X75211833Y-16549071D01*
X75221357Y-16530024D01*
X75230881Y-16520500D01*
X75249929Y-16510976D01*
X75507071Y-16710976D02*
X75392786Y-16710976D01*
X75449929Y-16710976D02*
X75449929Y-16510976D01*
X75430881Y-16539548D01*
X75411833Y-16558595D01*
X75392786Y-16568119D01*
X75630881Y-16510976D02*
X75649929Y-16510976D01*
X75668976Y-16520500D01*
X75678500Y-16530024D01*
X75688024Y-16549071D01*
X75697548Y-16587167D01*
X75697548Y-16634786D01*
X75688024Y-16672881D01*
X75678500Y-16691928D01*
X75668976Y-16701452D01*
X75649929Y-16710976D01*
X75630881Y-16710976D01*
X75611833Y-16701452D01*
X75602310Y-16691928D01*
X75592786Y-16672881D01*
X75583262Y-16634786D01*
X75583262Y-16587167D01*
X75592786Y-16549071D01*
X75602310Y-16530024D01*
X75611833Y-16520500D01*
X75630881Y-16510976D01*
X75783262Y-16710976D02*
X75783262Y-16577643D01*
X75783262Y-16596690D02*
X75792786Y-16587167D01*
X75811833Y-16577643D01*
X75840405Y-16577643D01*
X75859452Y-16587167D01*
X75868976Y-16606214D01*
X75868976Y-16710976D01*
X75868976Y-16606214D02*
X75878500Y-16587167D01*
X75897548Y-16577643D01*
X75926119Y-16577643D01*
X75945167Y-16587167D01*
X75954690Y-16606214D01*
X75954690Y-16710976D01*
X76049929Y-16710976D02*
X76049929Y-16577643D01*
X76049929Y-16596690D02*
X76059452Y-16587167D01*
X76078500Y-16577643D01*
X76107071Y-16577643D01*
X76126119Y-16587167D01*
X76135643Y-16606214D01*
X76135643Y-16710976D01*
X76135643Y-16606214D02*
X76145167Y-16587167D01*
X76164214Y-16577643D01*
X76192786Y-16577643D01*
X76211833Y-16587167D01*
X76221357Y-16606214D01*
X76221357Y-16710976D01*
X76611833Y-16501452D02*
X76440405Y-16758595D01*
X76868976Y-16510976D02*
X76888024Y-16510976D01*
X76907071Y-16520500D01*
X76916595Y-16530024D01*
X76926119Y-16549071D01*
X76935643Y-16587167D01*
X76935643Y-16634786D01*
X76926119Y-16672881D01*
X76916595Y-16691928D01*
X76907071Y-16701452D01*
X76888024Y-16710976D01*
X76868976Y-16710976D01*
X76849929Y-16701452D01*
X76840405Y-16691928D01*
X76830881Y-16672881D01*
X76821357Y-16634786D01*
X76821357Y-16587167D01*
X76830881Y-16549071D01*
X76840405Y-16530024D01*
X76849929Y-16520500D01*
X76868976Y-16510976D01*
X77021357Y-16691928D02*
X77030881Y-16701452D01*
X77021357Y-16710976D01*
X77011833Y-16701452D01*
X77021357Y-16691928D01*
X77021357Y-16710976D01*
X77154690Y-16510976D02*
X77173738Y-16510976D01*
X77192786Y-16520500D01*
X77202310Y-16530024D01*
X77211833Y-16549071D01*
X77221357Y-16587167D01*
X77221357Y-16634786D01*
X77211833Y-16672881D01*
X77202310Y-16691928D01*
X77192786Y-16701452D01*
X77173738Y-16710976D01*
X77154690Y-16710976D01*
X77135643Y-16701452D01*
X77126119Y-16691928D01*
X77116595Y-16672881D01*
X77107071Y-16634786D01*
X77107071Y-16587167D01*
X77116595Y-16549071D01*
X77126119Y-16530024D01*
X77135643Y-16520500D01*
X77154690Y-16510976D01*
X77288024Y-16510976D02*
X77421357Y-16510976D01*
X77335643Y-16710976D01*
X77507071Y-16710976D02*
X77545167Y-16710976D01*
X77564214Y-16701452D01*
X77573738Y-16691928D01*
X77592786Y-16663357D01*
X77602310Y-16625262D01*
X77602310Y-16549071D01*
X77592786Y-16530024D01*
X77583262Y-16520500D01*
X77564214Y-16510976D01*
X77526119Y-16510976D01*
X77507071Y-16520500D01*
X77497548Y-16530024D01*
X77488024Y-16549071D01*
X77488024Y-16596690D01*
X77497548Y-16615738D01*
X77507071Y-16625262D01*
X77526119Y-16634786D01*
X77564214Y-16634786D01*
X77583262Y-16625262D01*
X77592786Y-16615738D01*
X77602310Y-16596690D01*
X77792786Y-16710976D02*
X77678500Y-16710976D01*
X77735643Y-16710976D02*
X77735643Y-16510976D01*
X77716595Y-16539548D01*
X77697548Y-16558595D01*
X77678500Y-16568119D01*
X77868976Y-16510976D02*
X77868976Y-16549071D01*
X77945167Y-16510976D02*
X77945167Y-16549071D01*
X78240405Y-16787167D02*
X78230881Y-16777643D01*
X78211833Y-16749071D01*
X78202310Y-16730024D01*
X78192786Y-16701452D01*
X78183262Y-16653833D01*
X78183262Y-16615738D01*
X78192786Y-16568119D01*
X78202310Y-16539548D01*
X78211833Y-16520500D01*
X78230881Y-16491928D01*
X78240405Y-16482405D01*
X78345167Y-16596690D02*
X78326119Y-16587167D01*
X78316595Y-16577643D01*
X78307071Y-16558595D01*
X78307071Y-16549071D01*
X78316595Y-16530024D01*
X78326119Y-16520500D01*
X78345167Y-16510976D01*
X78383262Y-16510976D01*
X78402310Y-16520500D01*
X78411833Y-16530024D01*
X78421357Y-16549071D01*
X78421357Y-16558595D01*
X78411833Y-16577643D01*
X78402310Y-16587167D01*
X78383262Y-16596690D01*
X78345167Y-16596690D01*
X78326119Y-16606214D01*
X78316595Y-16615738D01*
X78307071Y-16634786D01*
X78307071Y-16672881D01*
X78316595Y-16691928D01*
X78326119Y-16701452D01*
X78345167Y-16710976D01*
X78383262Y-16710976D01*
X78402310Y-16701452D01*
X78411833Y-16691928D01*
X78421357Y-16672881D01*
X78421357Y-16634786D01*
X78411833Y-16615738D01*
X78402310Y-16606214D01*
X78383262Y-16596690D01*
X78659452Y-16710976D02*
X78659452Y-16510976D01*
X78745167Y-16710976D02*
X78745167Y-16606214D01*
X78735643Y-16587167D01*
X78716595Y-16577643D01*
X78688024Y-16577643D01*
X78668976Y-16587167D01*
X78659452Y-16596690D01*
X78868976Y-16710976D02*
X78849929Y-16701452D01*
X78840405Y-16691928D01*
X78830881Y-16672881D01*
X78830881Y-16615738D01*
X78840405Y-16596690D01*
X78849929Y-16587167D01*
X78868976Y-16577643D01*
X78897548Y-16577643D01*
X78916595Y-16587167D01*
X78926119Y-16596690D01*
X78935643Y-16615738D01*
X78935643Y-16672881D01*
X78926119Y-16691928D01*
X78916595Y-16701452D01*
X78897548Y-16710976D01*
X78868976Y-16710976D01*
X79049929Y-16710976D02*
X79030881Y-16701452D01*
X79021357Y-16682405D01*
X79021357Y-16510976D01*
X79202310Y-16701452D02*
X79183262Y-16710976D01*
X79145167Y-16710976D01*
X79126119Y-16701452D01*
X79116595Y-16682405D01*
X79116595Y-16606214D01*
X79126119Y-16587167D01*
X79145167Y-16577643D01*
X79183262Y-16577643D01*
X79202310Y-16587167D01*
X79211833Y-16606214D01*
X79211833Y-16625262D01*
X79116595Y-16644309D01*
X79288024Y-16701452D02*
X79307071Y-16710976D01*
X79345167Y-16710976D01*
X79364214Y-16701452D01*
X79373738Y-16682405D01*
X79373738Y-16672881D01*
X79364214Y-16653833D01*
X79345167Y-16644309D01*
X79316595Y-16644309D01*
X79297548Y-16634786D01*
X79288024Y-16615738D01*
X79288024Y-16606214D01*
X79297548Y-16587167D01*
X79316595Y-16577643D01*
X79345167Y-16577643D01*
X79364214Y-16587167D01*
X79440405Y-16787167D02*
X79449929Y-16777643D01*
X79468976Y-16749071D01*
X79478500Y-16730024D01*
X79488024Y-16701452D01*
X79497548Y-16653833D01*
X79497548Y-16615738D01*
X79488024Y-16568119D01*
X79478500Y-16539548D01*
X79468976Y-16520500D01*
X79449929Y-16491928D01*
X79440405Y-16482405D01*
M02*
