G04 #@! TF.FileFunction,Copper,L1,Top,Signal*
%FSLAX46Y46*%
G04 Gerber Fmt 4.6, Leading zero omitted, Abs format (unit mm)*
G04 Created by KiCad (PCBNEW 4.0.1-stable) date 30/08/2016 2:09:59 p.m.*
%MOMM*%
G01*
G04 APERTURE LIST*
%ADD10C,0.100000*%
%ADD11C,0.250000*%
%ADD12R,1.727200X2.032000*%
%ADD13O,1.727200X2.032000*%
%ADD14O,5.001260X3.500120*%
%ADD15C,1.600200*%
%ADD16R,1.700000X2.000000*%
%ADD17R,1.300000X1.300000*%
%ADD18C,1.300000*%
%ADD19R,1.600000X2.000000*%
%ADD20R,2.000000X1.600000*%
%ADD21C,1.699260*%
%ADD22R,1.699260X1.699260*%
%ADD23R,2.000000X1.700000*%
%ADD24O,1.600000X1.600000*%
%ADD25C,1.143000*%
%ADD26R,2.032000X1.727200*%
%ADD27O,2.032000X1.727200*%
%ADD28R,1.998980X1.998980*%
%ADD29C,2.400000*%
%ADD30R,2.400000X2.400000*%
%ADD31R,2.000000X2.000000*%
%ADD32C,2.000000*%
%ADD33R,0.600000X1.550000*%
%ADD34C,0.600000*%
%ADD35C,1.500000*%
G04 APERTURE END LIST*
D10*
D11*
X77692857Y-76382619D02*
X77740476Y-76335000D01*
X77835714Y-76287381D01*
X78073810Y-76287381D01*
X78169048Y-76335000D01*
X78216667Y-76382619D01*
X78264286Y-76477857D01*
X78264286Y-76573095D01*
X78216667Y-76715952D01*
X77645238Y-77287381D01*
X78264286Y-77287381D01*
X78883333Y-76287381D02*
X78978572Y-76287381D01*
X79073810Y-76335000D01*
X79121429Y-76382619D01*
X79169048Y-76477857D01*
X79216667Y-76668333D01*
X79216667Y-76906429D01*
X79169048Y-77096905D01*
X79121429Y-77192143D01*
X79073810Y-77239762D01*
X78978572Y-77287381D01*
X78883333Y-77287381D01*
X78788095Y-77239762D01*
X78740476Y-77192143D01*
X78692857Y-77096905D01*
X78645238Y-76906429D01*
X78645238Y-76668333D01*
X78692857Y-76477857D01*
X78740476Y-76382619D01*
X78788095Y-76335000D01*
X78883333Y-76287381D01*
X80169048Y-77287381D02*
X79597619Y-77287381D01*
X79883333Y-77287381D02*
X79883333Y-76287381D01*
X79788095Y-76430238D01*
X79692857Y-76525476D01*
X79597619Y-76573095D01*
X81026191Y-76287381D02*
X80835714Y-76287381D01*
X80740476Y-76335000D01*
X80692857Y-76382619D01*
X80597619Y-76525476D01*
X80550000Y-76715952D01*
X80550000Y-77096905D01*
X80597619Y-77192143D01*
X80645238Y-77239762D01*
X80740476Y-77287381D01*
X80930953Y-77287381D01*
X81026191Y-77239762D01*
X81073810Y-77192143D01*
X81121429Y-77096905D01*
X81121429Y-76858810D01*
X81073810Y-76763571D01*
X81026191Y-76715952D01*
X80930953Y-76668333D01*
X80740476Y-76668333D01*
X80645238Y-76715952D01*
X80597619Y-76763571D01*
X80550000Y-76858810D01*
X81550000Y-76906429D02*
X82311905Y-76906429D01*
X82978571Y-76287381D02*
X83073810Y-76287381D01*
X83169048Y-76335000D01*
X83216667Y-76382619D01*
X83264286Y-76477857D01*
X83311905Y-76668333D01*
X83311905Y-76906429D01*
X83264286Y-77096905D01*
X83216667Y-77192143D01*
X83169048Y-77239762D01*
X83073810Y-77287381D01*
X82978571Y-77287381D01*
X82883333Y-77239762D01*
X82835714Y-77192143D01*
X82788095Y-77096905D01*
X82740476Y-76906429D01*
X82740476Y-76668333D01*
X82788095Y-76477857D01*
X82835714Y-76382619D01*
X82883333Y-76335000D01*
X82978571Y-76287381D01*
X83883333Y-76715952D02*
X83788095Y-76668333D01*
X83740476Y-76620714D01*
X83692857Y-76525476D01*
X83692857Y-76477857D01*
X83740476Y-76382619D01*
X83788095Y-76335000D01*
X83883333Y-76287381D01*
X84073810Y-76287381D01*
X84169048Y-76335000D01*
X84216667Y-76382619D01*
X84264286Y-76477857D01*
X84264286Y-76525476D01*
X84216667Y-76620714D01*
X84169048Y-76668333D01*
X84073810Y-76715952D01*
X83883333Y-76715952D01*
X83788095Y-76763571D01*
X83740476Y-76811190D01*
X83692857Y-76906429D01*
X83692857Y-77096905D01*
X83740476Y-77192143D01*
X83788095Y-77239762D01*
X83883333Y-77287381D01*
X84073810Y-77287381D01*
X84169048Y-77239762D01*
X84216667Y-77192143D01*
X84264286Y-77096905D01*
X84264286Y-76906429D01*
X84216667Y-76811190D01*
X84169048Y-76763571D01*
X84073810Y-76715952D01*
X84692857Y-76906429D02*
X85454762Y-76906429D01*
X85835714Y-76287381D02*
X86454762Y-76287381D01*
X86121428Y-76668333D01*
X86264286Y-76668333D01*
X86359524Y-76715952D01*
X86407143Y-76763571D01*
X86454762Y-76858810D01*
X86454762Y-77096905D01*
X86407143Y-77192143D01*
X86359524Y-77239762D01*
X86264286Y-77287381D01*
X85978571Y-77287381D01*
X85883333Y-77239762D01*
X85835714Y-77192143D01*
X87073809Y-76287381D02*
X87169048Y-76287381D01*
X87264286Y-76335000D01*
X87311905Y-76382619D01*
X87359524Y-76477857D01*
X87407143Y-76668333D01*
X87407143Y-76906429D01*
X87359524Y-77096905D01*
X87311905Y-77192143D01*
X87264286Y-77239762D01*
X87169048Y-77287381D01*
X87073809Y-77287381D01*
X86978571Y-77239762D01*
X86930952Y-77192143D01*
X86883333Y-77096905D01*
X86835714Y-76906429D01*
X86835714Y-76668333D01*
X86883333Y-76477857D01*
X86930952Y-76382619D01*
X86978571Y-76335000D01*
X87073809Y-76287381D01*
D12*
X41910000Y-31750000D03*
D13*
X44450000Y-31750000D03*
X46990000Y-31750000D03*
D14*
X8356600Y-34307780D03*
X8356600Y-24109680D03*
D15*
X12621260Y-29210000D03*
X12621260Y-31709360D03*
D16*
X17780000Y-50260000D03*
X17780000Y-46260000D03*
D17*
X17780000Y-11430000D03*
D18*
X17780000Y-13430000D03*
D17*
X17780000Y-17145000D03*
D18*
X17780000Y-19145000D03*
D17*
X22860000Y-7620000D03*
D18*
X22860000Y-9620000D03*
D19*
X21590000Y-61690000D03*
X21590000Y-57690000D03*
X34290000Y-46260000D03*
X34290000Y-50260000D03*
X54610000Y-20860000D03*
X54610000Y-24860000D03*
X50800000Y-14510000D03*
X50800000Y-18510000D03*
X38100000Y-60230000D03*
X38100000Y-64230000D03*
X50800000Y-55150000D03*
X50800000Y-59150000D03*
X38100000Y-20860000D03*
X38100000Y-24860000D03*
X67310000Y-53880000D03*
X67310000Y-57880000D03*
X54610000Y-58960000D03*
X54610000Y-62960000D03*
X67310000Y-14510000D03*
X67310000Y-18510000D03*
D20*
X69120000Y-25400000D03*
X73120000Y-25400000D03*
D19*
X87630000Y-14510000D03*
X87630000Y-18510000D03*
D21*
X78107540Y-40005520D03*
D22*
X78107540Y-29845520D03*
D16*
X17780000Y-53880000D03*
X17780000Y-57880000D03*
D23*
X29940000Y-43180000D03*
X25940000Y-43180000D03*
X25940000Y-62230000D03*
X29940000Y-62230000D03*
D16*
X15240000Y-7715000D03*
X15240000Y-3715000D03*
D23*
X73120000Y-21590000D03*
X69120000Y-21590000D03*
D24*
X24130000Y-48260000D03*
X24130000Y-50800000D03*
X24130000Y-53340000D03*
X24130000Y-55880000D03*
X31750000Y-55880000D03*
X31750000Y-53340000D03*
X31750000Y-50800000D03*
X31750000Y-48260000D03*
X40640000Y-16510000D03*
X40640000Y-19050000D03*
X40640000Y-21590000D03*
X40640000Y-24130000D03*
X48260000Y-24130000D03*
X48260000Y-21590000D03*
X48260000Y-19050000D03*
X48260000Y-16510000D03*
X40640000Y-55880000D03*
X40640000Y-58420000D03*
X40640000Y-60960000D03*
X40640000Y-63500000D03*
X48260000Y-63500000D03*
X48260000Y-60960000D03*
X48260000Y-58420000D03*
X48260000Y-55880000D03*
X57150000Y-55880000D03*
X57150000Y-58420000D03*
X57150000Y-60960000D03*
X57150000Y-63500000D03*
X64770000Y-63500000D03*
X64770000Y-60960000D03*
X64770000Y-58420000D03*
X64770000Y-55880000D03*
X57150000Y-16510000D03*
X57150000Y-19050000D03*
X57150000Y-21590000D03*
X57150000Y-24130000D03*
X64770000Y-24130000D03*
X64770000Y-21590000D03*
X64770000Y-19050000D03*
X64770000Y-16510000D03*
X76200000Y-16510000D03*
X76200000Y-19050000D03*
X76200000Y-21590000D03*
X76200000Y-24130000D03*
X83820000Y-24130000D03*
X83820000Y-21590000D03*
X83820000Y-19050000D03*
X83820000Y-16510000D03*
D25*
X44450000Y-39370000D03*
X53340000Y-33020000D03*
X53340000Y-38100000D03*
X53340000Y-44450000D03*
X73660000Y-43180000D03*
D19*
X74295000Y-62325000D03*
X74295000Y-58325000D03*
D12*
X66040000Y-40640000D03*
D13*
X63500000Y-40640000D03*
X60960000Y-40640000D03*
D12*
X60960000Y-31750000D03*
D13*
X63500000Y-31750000D03*
X66040000Y-31750000D03*
D26*
X74295000Y-54610000D03*
D27*
X74295000Y-52070000D03*
X74295000Y-49530000D03*
D12*
X41910000Y-46990000D03*
D13*
X44450000Y-46990000D03*
X46990000Y-46990000D03*
D10*
G36*
X27081480Y-31043880D02*
X27081480Y-28646120D01*
X29880560Y-29044900D01*
X29880560Y-30645100D01*
X27081480Y-31043880D01*
X27081480Y-31043880D01*
G37*
G36*
X33878520Y-28646120D02*
X33878520Y-31043880D01*
X31079440Y-30645100D01*
X31079440Y-29044900D01*
X33878520Y-28646120D01*
X33878520Y-28646120D01*
G37*
D28*
X25478740Y-29845000D03*
X35481260Y-29845000D03*
D10*
G36*
X60101480Y-49458880D02*
X60101480Y-47061120D01*
X62900560Y-47459900D01*
X62900560Y-49060100D01*
X60101480Y-49458880D01*
X60101480Y-49458880D01*
G37*
G36*
X66898520Y-47061120D02*
X66898520Y-49458880D01*
X64099440Y-49060100D01*
X64099440Y-47459900D01*
X66898520Y-47061120D01*
X66898520Y-47061120D01*
G37*
D28*
X58498740Y-48260000D03*
X68501260Y-48260000D03*
D10*
G36*
X33878520Y-34361120D02*
X33878520Y-36758880D01*
X31079440Y-36360100D01*
X31079440Y-34759900D01*
X33878520Y-34361120D01*
X33878520Y-34361120D01*
G37*
G36*
X27081480Y-36758880D02*
X27081480Y-34361120D01*
X29880560Y-34759900D01*
X29880560Y-36360100D01*
X27081480Y-36758880D01*
X27081480Y-36758880D01*
G37*
D28*
X35481260Y-35560000D03*
X25478740Y-35560000D03*
D14*
X8356600Y-51452780D03*
X8356600Y-41254680D03*
D15*
X12621260Y-46355000D03*
X12621260Y-48854360D03*
D14*
X8356600Y-68597780D03*
X8356600Y-58399680D03*
D15*
X12621260Y-63500000D03*
X12621260Y-65999360D03*
D14*
X91973400Y-35542220D03*
X91973400Y-45740320D03*
D15*
X87708740Y-40640000D03*
X87708740Y-38140640D03*
D29*
X11430000Y-14930000D03*
X11430000Y-18430000D03*
D30*
X11430000Y-11430000D03*
D19*
X80010000Y-62325000D03*
X80010000Y-58325000D03*
D26*
X80010000Y-54610000D03*
D27*
X80010000Y-52070000D03*
X80010000Y-49530000D03*
D25*
X79375000Y-43180000D03*
D21*
X75562460Y-29844480D03*
D22*
X75562460Y-40004480D03*
D31*
X9525000Y-4445000D03*
D32*
X12065000Y-4445000D03*
D20*
X28480000Y-10795000D03*
X32480000Y-10795000D03*
D16*
X16510000Y-24670000D03*
X16510000Y-28670000D03*
D23*
X28480000Y-5080000D03*
X32480000Y-5080000D03*
X28480000Y-7620000D03*
X32480000Y-7620000D03*
X34385000Y-18415000D03*
X30385000Y-18415000D03*
X34385000Y-23495000D03*
X30385000Y-23495000D03*
D16*
X19685000Y-24670000D03*
X19685000Y-28670000D03*
D33*
X27305000Y-18255000D03*
X26035000Y-18255000D03*
X24765000Y-18255000D03*
X23495000Y-18255000D03*
X23495000Y-23655000D03*
X24765000Y-23655000D03*
X26035000Y-23655000D03*
X27305000Y-23655000D03*
D34*
X60198000Y-74676000D03*
X55880000Y-72390000D03*
D32*
X48895000Y-52070000D03*
X53975000Y-52070000D03*
X36830000Y-40005000D03*
X32385000Y-40005000D03*
X48260000Y-12700000D03*
X36830000Y-8890000D03*
D34*
X36195000Y-20320000D03*
X31750000Y-15240000D03*
X20320000Y-31115000D03*
X26035000Y-10795000D03*
X78105000Y-62865000D03*
X76200000Y-62865000D03*
X19685000Y-62230000D03*
X71120000Y-15240000D03*
X71120000Y-25400000D03*
X52705000Y-21590000D03*
X52705000Y-15240000D03*
X89535000Y-13970000D03*
X69215000Y-54610000D03*
X52705000Y-58420000D03*
X52705000Y-55245000D03*
X36830000Y-45085000D03*
X36195000Y-59690000D03*
X31750000Y-62865000D03*
D32*
X17780000Y-33655000D03*
X17780000Y-40640000D03*
D11*
X58420000Y-72898000D02*
X59944000Y-72898000D01*
X57912000Y-72390000D02*
X57150000Y-72390000D01*
X58928000Y-74676000D02*
X60198000Y-74676000D01*
X58420000Y-72898000D02*
X58420000Y-74168000D01*
X58420000Y-74168000D02*
X58928000Y-74676000D01*
X55880000Y-72390000D02*
X57150000Y-72390000D01*
X57150000Y-72390000D02*
X57150000Y-73914000D01*
X57912000Y-72390000D02*
X58420000Y-72898000D01*
X55880000Y-72390000D02*
X55880000Y-73914000D01*
D35*
X48895000Y-52070000D02*
X53975000Y-52070000D01*
X32385000Y-40005000D02*
X36830000Y-40005000D01*
X44450000Y-8890000D02*
X48260000Y-12700000D01*
X36830000Y-8890000D02*
X44450000Y-8890000D01*
D11*
X15240000Y-7715000D02*
X15240000Y-8890000D01*
X15240000Y-8890000D02*
X17780000Y-11430000D01*
X22860000Y-7620000D02*
X23495000Y-7620000D01*
X23495000Y-7620000D02*
X26035000Y-5080000D01*
X26035000Y-5080000D02*
X28480000Y-5080000D01*
X23495000Y-18255000D02*
X23495000Y-15875000D01*
X29845000Y-5080000D02*
X28480000Y-5080000D01*
X30480000Y-5715000D02*
X29845000Y-5080000D01*
X30480000Y-13335000D02*
X30480000Y-5715000D01*
X29210000Y-14605000D02*
X30480000Y-13335000D01*
X24765000Y-14605000D02*
X29210000Y-14605000D01*
X23495000Y-15875000D02*
X24765000Y-14605000D01*
X27845000Y-4445000D02*
X28480000Y-5080000D01*
X64770000Y-58420000D02*
X66770000Y-58420000D01*
X66770000Y-58420000D02*
X67310000Y-57880000D01*
X48260000Y-19050000D02*
X50260000Y-19050000D01*
X50260000Y-19050000D02*
X50800000Y-18510000D01*
X64770000Y-19050000D02*
X66770000Y-19050000D01*
X66770000Y-19050000D02*
X67310000Y-18510000D01*
X83820000Y-19050000D02*
X87090000Y-19050000D01*
X87090000Y-19050000D02*
X87630000Y-18510000D01*
X31750000Y-50800000D02*
X33750000Y-50800000D01*
X33750000Y-50800000D02*
X34290000Y-50260000D01*
X48260000Y-58420000D02*
X50070000Y-58420000D01*
X50070000Y-58420000D02*
X50800000Y-59150000D01*
X66770000Y-58420000D02*
X67310000Y-57880000D01*
X38100000Y-20860000D02*
X36735000Y-20860000D01*
X36735000Y-20860000D02*
X36195000Y-20320000D01*
X24765000Y-18255000D02*
X24765000Y-17145000D01*
X31115000Y-15875000D02*
X31750000Y-15240000D01*
X26035000Y-15875000D02*
X31115000Y-15875000D01*
X24765000Y-17145000D02*
X26035000Y-15875000D01*
X28480000Y-7620000D02*
X28480000Y-10795000D01*
X19685000Y-28670000D02*
X19685000Y-30480000D01*
X19685000Y-30480000D02*
X20320000Y-31115000D01*
X28480000Y-10795000D02*
X26035000Y-10795000D01*
X80010000Y-62325000D02*
X78645000Y-62325000D01*
X78645000Y-62325000D02*
X78105000Y-62865000D01*
X74295000Y-62325000D02*
X75660000Y-62325000D01*
X75660000Y-62325000D02*
X76200000Y-62865000D01*
X21590000Y-61690000D02*
X20225000Y-61690000D01*
X20225000Y-61690000D02*
X19685000Y-62230000D01*
X67310000Y-14510000D02*
X70390000Y-14510000D01*
X70390000Y-14510000D02*
X71120000Y-15240000D01*
X69120000Y-25400000D02*
X71120000Y-25400000D01*
X54610000Y-20860000D02*
X53435000Y-20860000D01*
X53435000Y-20860000D02*
X52705000Y-21590000D01*
X50800000Y-14510000D02*
X51975000Y-14510000D01*
X51975000Y-14510000D02*
X52705000Y-15240000D01*
X89535000Y-13970000D02*
X88805000Y-14510000D01*
X88805000Y-14510000D02*
X87630000Y-14510000D01*
X67310000Y-53880000D02*
X68485000Y-53880000D01*
X68485000Y-53880000D02*
X69215000Y-54610000D01*
X54610000Y-58960000D02*
X53340000Y-58960000D01*
X53340000Y-58960000D02*
X53245000Y-58960000D01*
X53245000Y-58960000D02*
X52705000Y-58420000D01*
X50800000Y-55150000D02*
X52610000Y-55150000D01*
X52610000Y-55150000D02*
X52705000Y-55245000D01*
X34290000Y-46260000D02*
X35655000Y-46260000D01*
X35655000Y-46260000D02*
X36830000Y-45085000D01*
X38100000Y-60230000D02*
X36735000Y-60230000D01*
X36735000Y-60230000D02*
X36195000Y-59690000D01*
X29940000Y-62230000D02*
X31115000Y-62230000D01*
X31115000Y-62230000D02*
X31750000Y-62865000D01*
D35*
X17780000Y-33655000D02*
X17780000Y-40640000D01*
D11*
X11430000Y-18430000D02*
X10175000Y-18430000D01*
X8890000Y-17145000D02*
X8890000Y-5080000D01*
X10175000Y-18430000D02*
X8890000Y-17145000D01*
X8890000Y-5080000D02*
X9525000Y-4445000D01*
D35*
X17780000Y-19145000D02*
X20225000Y-19145000D01*
X20225000Y-19145000D02*
X20955000Y-18415000D01*
X20955000Y-18415000D02*
X20955000Y-11525000D01*
X20955000Y-11525000D02*
X22860000Y-9620000D01*
D11*
X17780000Y-19145000D02*
X17875000Y-19145000D01*
X17875000Y-19145000D02*
X20320000Y-21590000D01*
X20320000Y-21590000D02*
X25400000Y-21590000D01*
X25400000Y-21590000D02*
X26035000Y-22225000D01*
X26035000Y-22225000D02*
X26035000Y-23655000D01*
X38100000Y-24860000D02*
X39910000Y-24860000D01*
X39910000Y-24860000D02*
X40640000Y-24130000D01*
X57150000Y-24130000D02*
X55340000Y-24130000D01*
X55340000Y-24130000D02*
X54610000Y-24860000D01*
X76200000Y-24130000D02*
X74390000Y-24130000D01*
X74390000Y-24130000D02*
X73120000Y-25400000D01*
X38100000Y-64230000D02*
X39910000Y-64230000D01*
X39910000Y-64230000D02*
X40640000Y-63500000D01*
X54610000Y-62960000D02*
X56610000Y-62960000D01*
X56610000Y-62960000D02*
X57150000Y-63500000D01*
X21590000Y-57690000D02*
X21590000Y-57150000D01*
X21590000Y-57150000D02*
X22860000Y-55880000D01*
X22860000Y-55880000D02*
X24130000Y-55880000D01*
X41910000Y-27940000D02*
X41910000Y-31750000D01*
X39370000Y-32385000D02*
X40005000Y-31750000D01*
X40005000Y-31750000D02*
X41910000Y-31750000D01*
X26670000Y-32385000D02*
X39370000Y-32385000D01*
X25478740Y-29845000D02*
X25478740Y-31193740D01*
X25478740Y-31193740D02*
X26670000Y-32385000D01*
X34385000Y-18415000D02*
X34385000Y-23495000D01*
X25478740Y-29845000D02*
X25478740Y-28496260D01*
X34385000Y-24670000D02*
X34385000Y-23495000D01*
X32385000Y-26670000D02*
X34385000Y-24670000D01*
X27305000Y-26670000D02*
X32385000Y-26670000D01*
X25478740Y-28496260D02*
X27305000Y-26670000D01*
X25478740Y-29845000D02*
X28481020Y-29845000D01*
X53340000Y-33020000D02*
X53340000Y-29210000D01*
X50800000Y-24130000D02*
X48260000Y-21590000D01*
X50800000Y-26670000D02*
X50800000Y-24130000D01*
X53340000Y-29210000D02*
X50800000Y-26670000D01*
X46990000Y-21590000D02*
X48260000Y-21590000D01*
X45720000Y-22860000D02*
X46990000Y-21590000D01*
X45720000Y-24130000D02*
X45720000Y-22860000D01*
X41910000Y-27940000D02*
X45720000Y-24130000D01*
X27305000Y-18255000D02*
X27305000Y-19050000D01*
X39370000Y-19050000D02*
X40640000Y-19050000D01*
X36830000Y-16510000D02*
X39370000Y-19050000D01*
X33020000Y-16510000D02*
X36830000Y-16510000D01*
X32385000Y-17145000D02*
X33020000Y-16510000D01*
X32385000Y-19685000D02*
X32385000Y-17145000D01*
X31750000Y-20320000D02*
X32385000Y-19685000D01*
X28575000Y-20320000D02*
X31750000Y-20320000D01*
X27305000Y-19050000D02*
X28575000Y-20320000D01*
X40640000Y-19050000D02*
X40005000Y-19050000D01*
X32478980Y-29845000D02*
X35481260Y-29845000D01*
X35481260Y-29845000D02*
X38100000Y-29845000D01*
X38100000Y-29845000D02*
X42545000Y-25400000D01*
X42545000Y-25400000D02*
X42545000Y-20955000D01*
X42545000Y-20955000D02*
X40640000Y-19050000D01*
X32478980Y-35560000D02*
X35481260Y-35560000D01*
X58498740Y-48260000D02*
X58498740Y-54688740D01*
X58420000Y-58420000D02*
X57150000Y-58420000D01*
X59690000Y-57150000D02*
X58420000Y-58420000D01*
X59690000Y-55880000D02*
X59690000Y-57150000D01*
X58498740Y-54688740D02*
X59690000Y-55880000D01*
X63500000Y-40640000D02*
X58420000Y-45720000D01*
X58420000Y-45720000D02*
X58420000Y-48181260D01*
X58420000Y-48181260D02*
X58498740Y-48260000D01*
X58498740Y-48260000D02*
X61501020Y-48260000D01*
X44450000Y-31750000D02*
X44450000Y-30480000D01*
X63500000Y-38100000D02*
X63500000Y-40640000D01*
X60960000Y-35560000D02*
X63500000Y-38100000D01*
X52070000Y-35560000D02*
X60960000Y-35560000D01*
X50800000Y-34290000D02*
X52070000Y-35560000D01*
X50800000Y-31750000D02*
X50800000Y-34290000D01*
X48260000Y-29210000D02*
X50800000Y-31750000D01*
X45720000Y-29210000D02*
X48260000Y-29210000D01*
X44450000Y-30480000D02*
X45720000Y-29210000D01*
X60960000Y-31750000D02*
X60960000Y-33020000D01*
X66040000Y-38100000D02*
X66040000Y-40640000D01*
X60960000Y-33020000D02*
X66040000Y-38100000D01*
X68501260Y-48260000D02*
X68501260Y-49608740D01*
X62230000Y-58420000D02*
X64770000Y-60960000D01*
X62230000Y-54610000D02*
X62230000Y-58420000D01*
X64770000Y-52070000D02*
X62230000Y-54610000D01*
X66040000Y-52070000D02*
X64770000Y-52070000D01*
X68501260Y-49608740D02*
X66040000Y-52070000D01*
X66040000Y-40640000D02*
X66040000Y-43180000D01*
X68501260Y-45641260D02*
X68501260Y-48260000D01*
X66040000Y-43180000D02*
X68501260Y-45641260D01*
X65498980Y-48260000D02*
X68501260Y-48260000D01*
X76835000Y-29844480D02*
X76835000Y-27305000D01*
X78105000Y-23495000D02*
X76200000Y-21590000D01*
X78105000Y-26035000D02*
X78105000Y-23495000D01*
X76835000Y-27305000D02*
X78105000Y-26035000D01*
X75562460Y-29844480D02*
X76835000Y-29844480D01*
X76835000Y-29844480D02*
X78106500Y-29844480D01*
X78106500Y-29844480D02*
X78107540Y-29845520D01*
X76200000Y-21590000D02*
X73120000Y-21590000D01*
X12621260Y-46355000D02*
X17685000Y-46355000D01*
X17685000Y-46355000D02*
X17780000Y-46260000D01*
X17780000Y-57880000D02*
X17780000Y-58341260D01*
X17780000Y-58341260D02*
X12621260Y-63500000D01*
X81280000Y-21590000D02*
X81280000Y-34211260D01*
X81280000Y-34211260D02*
X87708740Y-40640000D01*
X83820000Y-21590000D02*
X81280000Y-21590000D01*
X78740000Y-19050000D02*
X76200000Y-19050000D01*
X81280000Y-21590000D02*
X78740000Y-19050000D01*
X24130000Y-50800000D02*
X26670000Y-48260000D01*
X26670000Y-48260000D02*
X26670000Y-43910000D01*
X26670000Y-43910000D02*
X25940000Y-43180000D01*
X17780000Y-50260000D02*
X19780000Y-50260000D01*
X20320000Y-50800000D02*
X24130000Y-50800000D01*
X19780000Y-50260000D02*
X20320000Y-50800000D01*
X24130000Y-53340000D02*
X25400000Y-54610000D01*
X26670000Y-55880000D02*
X26670000Y-61500000D01*
X25400000Y-54610000D02*
X26670000Y-55880000D01*
X26670000Y-61500000D02*
X25940000Y-62230000D01*
X17780000Y-53880000D02*
X19780000Y-53880000D01*
X20320000Y-53340000D02*
X24130000Y-53340000D01*
X19780000Y-53880000D02*
X20320000Y-53340000D01*
X29940000Y-43180000D02*
X29210000Y-43180000D01*
X29210000Y-43180000D02*
X25478740Y-39448740D01*
X25478740Y-39448740D02*
X25478740Y-35560000D01*
X25478740Y-35560000D02*
X28481020Y-35560000D01*
X38100000Y-43180000D02*
X41910000Y-39370000D01*
X41910000Y-39370000D02*
X44450000Y-39370000D01*
X29940000Y-43180000D02*
X38100000Y-43180000D01*
X38100000Y-43180000D02*
X41910000Y-46990000D01*
X31750000Y-53340000D02*
X30480000Y-53340000D01*
X29940000Y-52800000D02*
X29940000Y-43180000D01*
X30480000Y-53340000D02*
X29940000Y-52800000D01*
X66040000Y-31750000D02*
X66040000Y-22860000D01*
X66040000Y-22860000D02*
X64770000Y-21590000D01*
X69120000Y-21590000D02*
X64770000Y-21590000D01*
X57150000Y-19050000D02*
X59690000Y-19050000D01*
X63500000Y-30480000D02*
X63500000Y-31750000D01*
X62230000Y-29210000D02*
X63500000Y-30480000D01*
X62230000Y-21590000D02*
X62230000Y-29210000D01*
X59690000Y-19050000D02*
X62230000Y-21590000D01*
X40640000Y-58420000D02*
X41910000Y-58420000D01*
X44450000Y-49530000D02*
X44450000Y-46990000D01*
X43180000Y-50800000D02*
X44450000Y-49530000D01*
X43180000Y-57150000D02*
X43180000Y-50800000D01*
X41910000Y-58420000D02*
X43180000Y-57150000D01*
X48260000Y-60960000D02*
X46990000Y-60960000D01*
X46990000Y-49530000D02*
X46990000Y-46990000D01*
X45720000Y-50800000D02*
X46990000Y-49530000D01*
X45720000Y-59690000D02*
X45720000Y-50800000D01*
X46990000Y-60960000D02*
X45720000Y-59690000D01*
X53340000Y-38100000D02*
X46990000Y-38100000D01*
X46990000Y-44450000D02*
X46990000Y-38100000D01*
X46990000Y-38100000D02*
X46990000Y-31750000D01*
X46990000Y-46990000D02*
X46990000Y-44450000D01*
X73660000Y-43180000D02*
X76200000Y-43180000D01*
X74295000Y-52070000D02*
X76200000Y-52070000D01*
X74295000Y-58325000D02*
X75025000Y-58325000D01*
X75025000Y-58325000D02*
X76200000Y-57150000D01*
X76200000Y-57150000D02*
X76200000Y-52070000D01*
X76200000Y-52070000D02*
X76200000Y-43180000D01*
X76200000Y-43180000D02*
X76200000Y-40642020D01*
X76200000Y-40642020D02*
X75562460Y-40004480D01*
X79375000Y-43180000D02*
X77470000Y-43180000D01*
X77470000Y-52070000D02*
X80010000Y-52070000D01*
X80010000Y-58325000D02*
X79280000Y-58325000D01*
X79280000Y-58325000D02*
X77470000Y-56515000D01*
X77470000Y-56515000D02*
X77470000Y-52070000D01*
X77470000Y-52070000D02*
X77470000Y-43180000D01*
X77470000Y-43180000D02*
X77470000Y-40643060D01*
X77470000Y-40643060D02*
X78107540Y-40005520D01*
X12065000Y-4445000D02*
X14510000Y-4445000D01*
X14510000Y-4445000D02*
X15240000Y-3715000D01*
X32480000Y-7620000D02*
X32480000Y-8720000D01*
X32480000Y-8720000D02*
X32480000Y-10795000D01*
X32480000Y-5080000D02*
X32480000Y-7620000D01*
X32480000Y-10795000D02*
X32480000Y-12605000D01*
X23495000Y-25400000D02*
X23495000Y-23655000D01*
X24130000Y-26035000D02*
X23495000Y-25400000D01*
X26035000Y-26035000D02*
X24130000Y-26035000D01*
X26670000Y-25400000D02*
X26035000Y-26035000D01*
X26670000Y-21590000D02*
X26670000Y-25400000D01*
X26035000Y-20955000D02*
X26670000Y-21590000D01*
X25400000Y-20955000D02*
X26035000Y-20955000D01*
X24130000Y-19685000D02*
X25400000Y-20955000D01*
X24130000Y-16510000D02*
X24130000Y-19685000D01*
X25400000Y-15240000D02*
X24130000Y-16510000D01*
X29845000Y-15240000D02*
X25400000Y-15240000D01*
X32480000Y-12605000D02*
X29845000Y-15240000D01*
X12621260Y-29210000D02*
X15970000Y-29210000D01*
X15970000Y-29210000D02*
X16510000Y-28670000D01*
X19685000Y-24670000D02*
X19780000Y-24670000D01*
X19780000Y-24670000D02*
X22225000Y-22225000D01*
X24765000Y-22860000D02*
X24765000Y-23655000D01*
X24130000Y-22225000D02*
X24765000Y-22860000D01*
X22225000Y-22225000D02*
X24130000Y-22225000D01*
X16510000Y-24670000D02*
X19685000Y-24670000D01*
X30385000Y-18415000D02*
X29845000Y-18415000D01*
X29845000Y-18415000D02*
X27940000Y-16510000D01*
X27940000Y-16510000D02*
X26670000Y-16510000D01*
X26670000Y-16510000D02*
X26035000Y-17145000D01*
X26035000Y-17145000D02*
X26035000Y-18255000D01*
X27305000Y-23655000D02*
X30225000Y-23655000D01*
X30225000Y-23655000D02*
X30385000Y-23495000D01*
M02*
