G04 #@! TF.FileFunction,Copper,L2,Bot,Signal*
%FSLAX46Y46*%
G04 Gerber Fmt 4.6, Leading zero omitted, Abs format (unit mm)*
G04 Created by KiCad (PCBNEW 4.0.1-stable) date 30/08/2016 2:09:59 p.m.*
%MOMM*%
G01*
G04 APERTURE LIST*
%ADD10C,0.100000*%
%ADD11R,1.727200X2.032000*%
%ADD12O,1.727200X2.032000*%
%ADD13O,5.001260X3.500120*%
%ADD14C,1.600200*%
%ADD15R,1.300000X1.300000*%
%ADD16C,1.300000*%
%ADD17C,1.699260*%
%ADD18R,1.699260X1.699260*%
%ADD19O,1.600000X1.600000*%
%ADD20C,1.143000*%
%ADD21R,2.032000X1.727200*%
%ADD22O,2.032000X1.727200*%
%ADD23R,1.998980X1.998980*%
%ADD24C,2.400000*%
%ADD25R,2.400000X2.400000*%
%ADD26R,2.000000X2.000000*%
%ADD27C,2.000000*%
%ADD28C,0.600000*%
%ADD29C,1.500000*%
%ADD30C,0.250000*%
%ADD31C,0.254000*%
G04 APERTURE END LIST*
D10*
D11*
X41910000Y-31750000D03*
D12*
X44450000Y-31750000D03*
X46990000Y-31750000D03*
D13*
X8356600Y-34307780D03*
X8356600Y-24109680D03*
D14*
X12621260Y-29210000D03*
X12621260Y-31709360D03*
D15*
X17780000Y-11430000D03*
D16*
X17780000Y-13430000D03*
D15*
X17780000Y-17145000D03*
D16*
X17780000Y-19145000D03*
D15*
X22860000Y-7620000D03*
D16*
X22860000Y-9620000D03*
D17*
X78107540Y-40005520D03*
D18*
X78107540Y-29845520D03*
D19*
X24130000Y-48260000D03*
X24130000Y-50800000D03*
X24130000Y-53340000D03*
X24130000Y-55880000D03*
X31750000Y-55880000D03*
X31750000Y-53340000D03*
X31750000Y-50800000D03*
X31750000Y-48260000D03*
X40640000Y-16510000D03*
X40640000Y-19050000D03*
X40640000Y-21590000D03*
X40640000Y-24130000D03*
X48260000Y-24130000D03*
X48260000Y-21590000D03*
X48260000Y-19050000D03*
X48260000Y-16510000D03*
X40640000Y-55880000D03*
X40640000Y-58420000D03*
X40640000Y-60960000D03*
X40640000Y-63500000D03*
X48260000Y-63500000D03*
X48260000Y-60960000D03*
X48260000Y-58420000D03*
X48260000Y-55880000D03*
X57150000Y-55880000D03*
X57150000Y-58420000D03*
X57150000Y-60960000D03*
X57150000Y-63500000D03*
X64770000Y-63500000D03*
X64770000Y-60960000D03*
X64770000Y-58420000D03*
X64770000Y-55880000D03*
X57150000Y-16510000D03*
X57150000Y-19050000D03*
X57150000Y-21590000D03*
X57150000Y-24130000D03*
X64770000Y-24130000D03*
X64770000Y-21590000D03*
X64770000Y-19050000D03*
X64770000Y-16510000D03*
X76200000Y-16510000D03*
X76200000Y-19050000D03*
X76200000Y-21590000D03*
X76200000Y-24130000D03*
X83820000Y-24130000D03*
X83820000Y-21590000D03*
X83820000Y-19050000D03*
X83820000Y-16510000D03*
D20*
X44450000Y-39370000D03*
X53340000Y-33020000D03*
X53340000Y-38100000D03*
X53340000Y-44450000D03*
X73660000Y-43180000D03*
D11*
X66040000Y-40640000D03*
D12*
X63500000Y-40640000D03*
X60960000Y-40640000D03*
D11*
X60960000Y-31750000D03*
D12*
X63500000Y-31750000D03*
X66040000Y-31750000D03*
D21*
X74295000Y-54610000D03*
D22*
X74295000Y-52070000D03*
X74295000Y-49530000D03*
D11*
X41910000Y-46990000D03*
D12*
X44450000Y-46990000D03*
X46990000Y-46990000D03*
D23*
X25478740Y-29845000D03*
X35481260Y-29845000D03*
X58498740Y-48260000D03*
X68501260Y-48260000D03*
X35481260Y-35560000D03*
X25478740Y-35560000D03*
D13*
X8356600Y-51452780D03*
X8356600Y-41254680D03*
D14*
X12621260Y-46355000D03*
X12621260Y-48854360D03*
D13*
X8356600Y-68597780D03*
X8356600Y-58399680D03*
D14*
X12621260Y-63500000D03*
X12621260Y-65999360D03*
D13*
X91973400Y-35542220D03*
X91973400Y-45740320D03*
D14*
X87708740Y-40640000D03*
X87708740Y-38140640D03*
D24*
X11430000Y-14930000D03*
X11430000Y-18430000D03*
D25*
X11430000Y-11430000D03*
D21*
X80010000Y-54610000D03*
D22*
X80010000Y-52070000D03*
X80010000Y-49530000D03*
D20*
X79375000Y-43180000D03*
D17*
X75562460Y-29844480D03*
D18*
X75562460Y-40004480D03*
D26*
X9525000Y-4445000D03*
D27*
X12065000Y-4445000D03*
D28*
X60198000Y-74676000D03*
X55880000Y-72390000D03*
D27*
X48895000Y-52070000D03*
X53975000Y-52070000D03*
X36830000Y-40005000D03*
X32385000Y-40005000D03*
X48260000Y-12700000D03*
X36830000Y-8890000D03*
D28*
X36195000Y-20320000D03*
X31750000Y-15240000D03*
X20320000Y-31115000D03*
X26035000Y-10795000D03*
X78105000Y-62865000D03*
X76200000Y-62865000D03*
X19685000Y-62230000D03*
X71120000Y-15240000D03*
X71120000Y-25400000D03*
X52705000Y-21590000D03*
X52705000Y-15240000D03*
X89535000Y-13970000D03*
X69215000Y-54610000D03*
X52705000Y-58420000D03*
X52705000Y-55245000D03*
X36830000Y-45085000D03*
X36195000Y-59690000D03*
X31750000Y-62865000D03*
D27*
X17780000Y-33655000D03*
X17780000Y-40640000D03*
D29*
X53975000Y-52070000D02*
X57150000Y-52070000D01*
X45720000Y-52070000D02*
X48895000Y-52070000D01*
X63500000Y-58420000D02*
X57150000Y-52070000D01*
X63500000Y-58420000D02*
X64770000Y-58420000D01*
X30480000Y-38100000D02*
X32385000Y-40005000D01*
X39370000Y-42545000D02*
X39370000Y-52070000D01*
X36830000Y-40005000D02*
X39370000Y-42545000D01*
X17780000Y-11430000D02*
X19685000Y-11430000D01*
X30480000Y-22225000D02*
X30480000Y-38100000D01*
X19685000Y-11430000D02*
X30480000Y-22225000D01*
X30480000Y-38100000D02*
X30480000Y-38100000D01*
X22860000Y-7620000D02*
X35560000Y-7620000D01*
X35560000Y-7620000D02*
X36830000Y-8890000D01*
X17780000Y-11430000D02*
X17780000Y-10160000D01*
X20320000Y-7620000D02*
X22860000Y-7620000D01*
X17780000Y-10160000D02*
X20320000Y-7620000D01*
X11430000Y-11430000D02*
X17780000Y-11430000D01*
D30*
X74295000Y-49530000D02*
X75565000Y-49530000D01*
X64770000Y-58420000D02*
X68580000Y-58420000D01*
X68580000Y-58420000D02*
X70485000Y-56515000D01*
X70485000Y-56515000D02*
X70485000Y-52070000D01*
X70485000Y-52070000D02*
X73025000Y-49530000D01*
X73025000Y-49530000D02*
X75565000Y-49530000D01*
X75565000Y-49530000D02*
X80010000Y-49530000D01*
D29*
X83820000Y-19050000D02*
X82550000Y-19050000D01*
X48260000Y-58420000D02*
X46990000Y-58420000D01*
X45720000Y-57150000D02*
X45720000Y-52070000D01*
X46990000Y-58420000D02*
X45720000Y-57150000D01*
X31750000Y-50800000D02*
X33655000Y-50800000D01*
X38100000Y-50800000D02*
X39370000Y-52070000D01*
X33655000Y-50800000D02*
X38100000Y-50800000D01*
X39370000Y-52070000D02*
X45720000Y-52070000D01*
X82550000Y-19050000D02*
X76200000Y-12700000D01*
X64770000Y-19050000D02*
X63500000Y-19050000D01*
X60960000Y-16510000D02*
X60960000Y-12700000D01*
X63500000Y-19050000D02*
X60960000Y-16510000D01*
X48260000Y-19050000D02*
X46990000Y-19050000D01*
X44450000Y-12700000D02*
X48260000Y-12700000D01*
X44450000Y-16510000D02*
X44450000Y-12700000D01*
X46990000Y-19050000D02*
X44450000Y-16510000D01*
X48260000Y-12700000D02*
X60960000Y-12700000D01*
X60960000Y-12700000D02*
X76200000Y-12700000D01*
X22860000Y-10160000D02*
X36830000Y-24130000D01*
X21590000Y-55880000D02*
X17780000Y-52070000D01*
X17780000Y-40640000D02*
X17780000Y-52070000D01*
X17780000Y-33655000D02*
X17780000Y-19145000D01*
X22860000Y-9620000D02*
X22860000Y-10160000D01*
X36830000Y-24130000D02*
X40640000Y-24130000D01*
X11430000Y-18430000D02*
X13350000Y-18430000D01*
X13350000Y-18430000D02*
X14065000Y-19145000D01*
X14065000Y-19145000D02*
X17780000Y-19145000D01*
D30*
X76200000Y-54610000D02*
X74295000Y-54610000D01*
X57150000Y-63500000D02*
X60960000Y-63500000D01*
X73025000Y-54610000D02*
X76200000Y-54610000D01*
X76200000Y-54610000D02*
X80010000Y-54610000D01*
X71755000Y-55880000D02*
X73025000Y-54610000D01*
X71755000Y-59055000D02*
X71755000Y-55880000D01*
X66040000Y-64770000D02*
X71755000Y-59055000D01*
X62230000Y-64770000D02*
X66040000Y-64770000D01*
X60960000Y-63500000D02*
X62230000Y-64770000D01*
D29*
X57150000Y-63500000D02*
X52070000Y-68580000D01*
X52070000Y-68580000D02*
X40640000Y-68580000D01*
X40640000Y-63500000D02*
X40640000Y-68580000D01*
X24130000Y-55880000D02*
X21590000Y-55880000D01*
X40640000Y-24130000D02*
X40640000Y-27940000D01*
X57150000Y-24130000D02*
X57150000Y-27940000D01*
X40640000Y-27940000D02*
X57150000Y-27940000D01*
X72390000Y-27940000D02*
X76200000Y-24130000D01*
X57150000Y-27940000D02*
X72390000Y-27940000D01*
X29210000Y-68580000D02*
X40640000Y-68580000D01*
X21590000Y-60960000D02*
X29210000Y-68580000D01*
X21590000Y-55880000D02*
X21590000Y-60960000D01*
D30*
X35481260Y-35560000D02*
X35481260Y-29845000D01*
X68501260Y-48260000D02*
X68501260Y-48181260D01*
X68501260Y-48181260D02*
X64770000Y-44450000D01*
X64770000Y-44450000D02*
X53340000Y-44450000D01*
D31*
G36*
X98933000Y-78613000D02*
X1397000Y-78613000D01*
X1397000Y-75481076D01*
X2615787Y-75481076D01*
X2978126Y-76358003D01*
X3648468Y-77029516D01*
X4524761Y-77393385D01*
X5473596Y-77394213D01*
X6350523Y-77031874D01*
X7022036Y-76361532D01*
X7385905Y-75485239D01*
X7385908Y-75481076D01*
X92615607Y-75481076D01*
X92977946Y-76358003D01*
X93648288Y-77029516D01*
X94524581Y-77393385D01*
X95473416Y-77394213D01*
X96350343Y-77031874D01*
X97021856Y-76361532D01*
X97385725Y-75485239D01*
X97386553Y-74536404D01*
X97024214Y-73659477D01*
X96353872Y-72987964D01*
X95477579Y-72624095D01*
X94528744Y-72623267D01*
X93651817Y-72985606D01*
X92980304Y-73655948D01*
X92616435Y-74532241D01*
X92615607Y-75481076D01*
X7385908Y-75481076D01*
X7386733Y-74536404D01*
X7024394Y-73659477D01*
X6354052Y-72987964D01*
X5477759Y-72624095D01*
X4528924Y-72623267D01*
X3651997Y-72985606D01*
X2980484Y-73655948D01*
X2616615Y-74532241D01*
X2615787Y-75481076D01*
X1397000Y-75481076D01*
X1397000Y-69095793D01*
X5273544Y-69095793D01*
X5353921Y-69393170D01*
X5829735Y-70194469D01*
X6575974Y-70752687D01*
X7479030Y-70982840D01*
X8229600Y-70982840D01*
X8229600Y-68724780D01*
X8483600Y-68724780D01*
X8483600Y-70982840D01*
X9234170Y-70982840D01*
X10137226Y-70752687D01*
X10883465Y-70194469D01*
X11359279Y-69393170D01*
X11439656Y-69095793D01*
X11329855Y-68724780D01*
X8483600Y-68724780D01*
X8229600Y-68724780D01*
X5383345Y-68724780D01*
X5273544Y-69095793D01*
X1397000Y-69095793D01*
X1397000Y-68099767D01*
X5273544Y-68099767D01*
X5383345Y-68470780D01*
X8229600Y-68470780D01*
X8229600Y-66212720D01*
X8483600Y-66212720D01*
X8483600Y-68470780D01*
X11329855Y-68470780D01*
X11439656Y-68099767D01*
X11359279Y-67802390D01*
X10887079Y-67007177D01*
X11793048Y-67007177D01*
X11867195Y-67253307D01*
X12404460Y-67446424D01*
X12974730Y-67419239D01*
X13375325Y-67253307D01*
X13449472Y-67007177D01*
X12621260Y-66178965D01*
X11793048Y-67007177D01*
X10887079Y-67007177D01*
X10883465Y-67001091D01*
X10137226Y-66442873D01*
X9234170Y-66212720D01*
X8483600Y-66212720D01*
X8229600Y-66212720D01*
X7479030Y-66212720D01*
X6575974Y-66442873D01*
X5829735Y-67001091D01*
X5353921Y-67802390D01*
X5273544Y-68099767D01*
X1397000Y-68099767D01*
X1397000Y-65782560D01*
X11174196Y-65782560D01*
X11201381Y-66352830D01*
X11367313Y-66753425D01*
X11613443Y-66827572D01*
X12441655Y-65999360D01*
X12800865Y-65999360D01*
X13629077Y-66827572D01*
X13875207Y-66753425D01*
X14068324Y-66216160D01*
X14041139Y-65645890D01*
X13875207Y-65245295D01*
X13629077Y-65171148D01*
X12800865Y-65999360D01*
X12441655Y-65999360D01*
X11613443Y-65171148D01*
X11367313Y-65245295D01*
X11174196Y-65782560D01*
X1397000Y-65782560D01*
X1397000Y-63784207D01*
X11185912Y-63784207D01*
X11403932Y-64311857D01*
X11807280Y-64715909D01*
X11872771Y-64743103D01*
X11867195Y-64745413D01*
X11793048Y-64991543D01*
X12621260Y-65819755D01*
X13449472Y-64991543D01*
X13375325Y-64745413D01*
X13369881Y-64743456D01*
X13433117Y-64717328D01*
X13837169Y-64313980D01*
X14056110Y-63786711D01*
X14056608Y-63215793D01*
X13838588Y-62688143D01*
X13435240Y-62284091D01*
X12907971Y-62065150D01*
X12337053Y-62064652D01*
X11809403Y-62282672D01*
X11405351Y-62686020D01*
X11186410Y-63213289D01*
X11185912Y-63784207D01*
X1397000Y-63784207D01*
X1397000Y-58897693D01*
X5273544Y-58897693D01*
X5353921Y-59195070D01*
X5829735Y-59996369D01*
X6575974Y-60554587D01*
X7479030Y-60784740D01*
X8229600Y-60784740D01*
X8229600Y-58526680D01*
X8483600Y-58526680D01*
X8483600Y-60784740D01*
X9234170Y-60784740D01*
X10137226Y-60554587D01*
X10883465Y-59996369D01*
X11359279Y-59195070D01*
X11439656Y-58897693D01*
X11329855Y-58526680D01*
X8483600Y-58526680D01*
X8229600Y-58526680D01*
X5383345Y-58526680D01*
X5273544Y-58897693D01*
X1397000Y-58897693D01*
X1397000Y-57901667D01*
X5273544Y-57901667D01*
X5383345Y-58272680D01*
X8229600Y-58272680D01*
X8229600Y-56014620D01*
X8483600Y-56014620D01*
X8483600Y-58272680D01*
X11329855Y-58272680D01*
X11439656Y-57901667D01*
X11359279Y-57604290D01*
X10883465Y-56802991D01*
X10137226Y-56244773D01*
X9234170Y-56014620D01*
X8483600Y-56014620D01*
X8229600Y-56014620D01*
X7479030Y-56014620D01*
X6575974Y-56244773D01*
X5829735Y-56802991D01*
X5353921Y-57604290D01*
X5273544Y-57901667D01*
X1397000Y-57901667D01*
X1397000Y-51950793D01*
X5273544Y-51950793D01*
X5353921Y-52248170D01*
X5829735Y-53049469D01*
X6575974Y-53607687D01*
X7479030Y-53837840D01*
X8229600Y-53837840D01*
X8229600Y-51579780D01*
X8483600Y-51579780D01*
X8483600Y-53837840D01*
X9234170Y-53837840D01*
X10137226Y-53607687D01*
X10883465Y-53049469D01*
X11359279Y-52248170D01*
X11439656Y-51950793D01*
X11329855Y-51579780D01*
X8483600Y-51579780D01*
X8229600Y-51579780D01*
X5383345Y-51579780D01*
X5273544Y-51950793D01*
X1397000Y-51950793D01*
X1397000Y-50954767D01*
X5273544Y-50954767D01*
X5383345Y-51325780D01*
X8229600Y-51325780D01*
X8229600Y-49067720D01*
X8483600Y-49067720D01*
X8483600Y-51325780D01*
X11329855Y-51325780D01*
X11439656Y-50954767D01*
X11359279Y-50657390D01*
X10887079Y-49862177D01*
X11793048Y-49862177D01*
X11867195Y-50108307D01*
X12404460Y-50301424D01*
X12974730Y-50274239D01*
X13375325Y-50108307D01*
X13449472Y-49862177D01*
X12621260Y-49033965D01*
X11793048Y-49862177D01*
X10887079Y-49862177D01*
X10883465Y-49856091D01*
X10137226Y-49297873D01*
X9234170Y-49067720D01*
X8483600Y-49067720D01*
X8229600Y-49067720D01*
X7479030Y-49067720D01*
X6575974Y-49297873D01*
X5829735Y-49856091D01*
X5353921Y-50657390D01*
X5273544Y-50954767D01*
X1397000Y-50954767D01*
X1397000Y-48637560D01*
X11174196Y-48637560D01*
X11201381Y-49207830D01*
X11367313Y-49608425D01*
X11613443Y-49682572D01*
X12441655Y-48854360D01*
X12800865Y-48854360D01*
X13629077Y-49682572D01*
X13875207Y-49608425D01*
X14068324Y-49071160D01*
X14041139Y-48500890D01*
X13875207Y-48100295D01*
X13629077Y-48026148D01*
X12800865Y-48854360D01*
X12441655Y-48854360D01*
X11613443Y-48026148D01*
X11367313Y-48100295D01*
X11174196Y-48637560D01*
X1397000Y-48637560D01*
X1397000Y-46639207D01*
X11185912Y-46639207D01*
X11403932Y-47166857D01*
X11807280Y-47570909D01*
X11872771Y-47598103D01*
X11867195Y-47600413D01*
X11793048Y-47846543D01*
X12621260Y-48674755D01*
X13449472Y-47846543D01*
X13375325Y-47600413D01*
X13369881Y-47598456D01*
X13433117Y-47572328D01*
X13837169Y-47168980D01*
X14056110Y-46641711D01*
X14056608Y-46070793D01*
X13838588Y-45543143D01*
X13435240Y-45139091D01*
X12907971Y-44920150D01*
X12337053Y-44919652D01*
X11809403Y-45137672D01*
X11405351Y-45541020D01*
X11186410Y-46068289D01*
X11185912Y-46639207D01*
X1397000Y-46639207D01*
X1397000Y-41752693D01*
X5273544Y-41752693D01*
X5353921Y-42050070D01*
X5829735Y-42851369D01*
X6575974Y-43409587D01*
X7479030Y-43639740D01*
X8229600Y-43639740D01*
X8229600Y-41381680D01*
X8483600Y-41381680D01*
X8483600Y-43639740D01*
X9234170Y-43639740D01*
X10137226Y-43409587D01*
X10883465Y-42851369D01*
X11359279Y-42050070D01*
X11439656Y-41752693D01*
X11329855Y-41381680D01*
X8483600Y-41381680D01*
X8229600Y-41381680D01*
X5383345Y-41381680D01*
X5273544Y-41752693D01*
X1397000Y-41752693D01*
X1397000Y-40756667D01*
X5273544Y-40756667D01*
X5383345Y-41127680D01*
X8229600Y-41127680D01*
X8229600Y-38869620D01*
X8483600Y-38869620D01*
X8483600Y-41127680D01*
X11329855Y-41127680D01*
X11378356Y-40963795D01*
X16144716Y-40963795D01*
X16393106Y-41564943D01*
X16395000Y-41566840D01*
X16395000Y-52070000D01*
X16500427Y-52600017D01*
X16627937Y-52790849D01*
X16800657Y-53049343D01*
X20205000Y-56453686D01*
X20205000Y-60960000D01*
X20310427Y-61490017D01*
X20610657Y-61939343D01*
X28230657Y-69559343D01*
X28679983Y-69859573D01*
X29210000Y-69965000D01*
X52070000Y-69965000D01*
X52600017Y-69859573D01*
X53049343Y-69559343D01*
X57894990Y-64713696D01*
X58192811Y-64514698D01*
X58362995Y-64260000D01*
X60645198Y-64260000D01*
X61692599Y-65307401D01*
X61939160Y-65472148D01*
X62230000Y-65530000D01*
X66040000Y-65530000D01*
X66330839Y-65472148D01*
X66577401Y-65307401D01*
X72292402Y-59592401D01*
X72457148Y-59345839D01*
X72515000Y-59055000D01*
X72515000Y-56194802D01*
X72803106Y-55906696D01*
X72814910Y-55925041D01*
X73027110Y-56070031D01*
X73279000Y-56121040D01*
X75311000Y-56121040D01*
X75546317Y-56076762D01*
X75762441Y-55937690D01*
X75907431Y-55725490D01*
X75958440Y-55473600D01*
X75958440Y-55370000D01*
X78346560Y-55370000D01*
X78346560Y-55473600D01*
X78390838Y-55708917D01*
X78529910Y-55925041D01*
X78742110Y-56070031D01*
X78994000Y-56121040D01*
X81026000Y-56121040D01*
X81261317Y-56076762D01*
X81477441Y-55937690D01*
X81622431Y-55725490D01*
X81673440Y-55473600D01*
X81673440Y-53746400D01*
X81629162Y-53511083D01*
X81490090Y-53294959D01*
X81277890Y-53149969D01*
X81236561Y-53141600D01*
X81254415Y-53129670D01*
X81579271Y-52643489D01*
X81693345Y-52070000D01*
X81579271Y-51496511D01*
X81254415Y-51010330D01*
X80939634Y-50800000D01*
X81254415Y-50589670D01*
X81579271Y-50103489D01*
X81693345Y-49530000D01*
X81579271Y-48956511D01*
X81254415Y-48470330D01*
X80768234Y-48145474D01*
X80194745Y-48031400D01*
X79825255Y-48031400D01*
X79251766Y-48145474D01*
X78765585Y-48470330D01*
X78565352Y-48770000D01*
X75739648Y-48770000D01*
X75539415Y-48470330D01*
X75053234Y-48145474D01*
X74479745Y-48031400D01*
X74110255Y-48031400D01*
X73536766Y-48145474D01*
X73050585Y-48470330D01*
X72823581Y-48810065D01*
X72782414Y-48818254D01*
X72734160Y-48827852D01*
X72487599Y-48992599D01*
X69947599Y-51532599D01*
X69782852Y-51779161D01*
X69725000Y-52070000D01*
X69725000Y-56200198D01*
X68265198Y-57660000D01*
X65982995Y-57660000D01*
X65812811Y-57405302D01*
X65430725Y-57150000D01*
X65812811Y-56894698D01*
X66123880Y-56429151D01*
X66233113Y-55880000D01*
X66123880Y-55330849D01*
X65812811Y-54865302D01*
X65347264Y-54554233D01*
X64798113Y-54445000D01*
X64741887Y-54445000D01*
X64192736Y-54554233D01*
X63727189Y-54865302D01*
X63416120Y-55330849D01*
X63306887Y-55880000D01*
X63403279Y-56364593D01*
X58129343Y-51090657D01*
X57865744Y-50914526D01*
X57680017Y-50790427D01*
X57150000Y-50685000D01*
X54902641Y-50685000D01*
X54902363Y-50684722D01*
X54301648Y-50435284D01*
X53651205Y-50434716D01*
X53050057Y-50683106D01*
X52589722Y-51142637D01*
X52340284Y-51743352D01*
X52339716Y-52393795D01*
X52588106Y-52994943D01*
X53047637Y-53455278D01*
X53648352Y-53704716D01*
X54298795Y-53705284D01*
X54899943Y-53456894D01*
X54901840Y-53455000D01*
X56576314Y-53455000D01*
X57662706Y-54541392D01*
X57178113Y-54445000D01*
X57121887Y-54445000D01*
X56572736Y-54554233D01*
X56107189Y-54865302D01*
X55796120Y-55330849D01*
X55686887Y-55880000D01*
X55796120Y-56429151D01*
X56107189Y-56894698D01*
X56489275Y-57150000D01*
X56107189Y-57405302D01*
X55796120Y-57870849D01*
X55686887Y-58420000D01*
X55796120Y-58969151D01*
X56107189Y-59434698D01*
X56511703Y-59704986D01*
X56294866Y-59807611D01*
X55918959Y-60222577D01*
X55758096Y-60610961D01*
X55880085Y-60833000D01*
X57023000Y-60833000D01*
X57023000Y-60813000D01*
X57277000Y-60813000D01*
X57277000Y-60833000D01*
X58419915Y-60833000D01*
X58541904Y-60610961D01*
X58381041Y-60222577D01*
X58005134Y-59807611D01*
X57788297Y-59704986D01*
X58192811Y-59434698D01*
X58503880Y-58969151D01*
X58613113Y-58420000D01*
X58503880Y-57870849D01*
X58192811Y-57405302D01*
X57810725Y-57150000D01*
X58192811Y-56894698D01*
X58503880Y-56429151D01*
X58613113Y-55880000D01*
X58516721Y-55395407D01*
X62520657Y-59399343D01*
X62969983Y-59699573D01*
X63500000Y-59805000D01*
X63937165Y-59805000D01*
X63727189Y-59945302D01*
X63416120Y-60410849D01*
X63306887Y-60960000D01*
X63416120Y-61509151D01*
X63727189Y-61974698D01*
X64109275Y-62230000D01*
X63727189Y-62485302D01*
X63416120Y-62950849D01*
X63306887Y-63500000D01*
X63408332Y-64010000D01*
X62544802Y-64010000D01*
X61497401Y-62962599D01*
X61250839Y-62797852D01*
X60960000Y-62740000D01*
X58362995Y-62740000D01*
X58192811Y-62485302D01*
X57788297Y-62215014D01*
X58005134Y-62112389D01*
X58381041Y-61697423D01*
X58541904Y-61309039D01*
X58419915Y-61087000D01*
X57277000Y-61087000D01*
X57277000Y-61107000D01*
X57023000Y-61107000D01*
X57023000Y-61087000D01*
X55880085Y-61087000D01*
X55758096Y-61309039D01*
X55918959Y-61697423D01*
X56294866Y-62112389D01*
X56511703Y-62215014D01*
X56107189Y-62485302D01*
X55908191Y-62783123D01*
X51496314Y-67195000D01*
X42025000Y-67195000D01*
X42025000Y-63892700D01*
X42103113Y-63500000D01*
X41993880Y-62950849D01*
X41682811Y-62485302D01*
X41278297Y-62215014D01*
X41495134Y-62112389D01*
X41871041Y-61697423D01*
X42031904Y-61309039D01*
X41909915Y-61087000D01*
X40767000Y-61087000D01*
X40767000Y-61107000D01*
X40513000Y-61107000D01*
X40513000Y-61087000D01*
X39370085Y-61087000D01*
X39248096Y-61309039D01*
X39408959Y-61697423D01*
X39784866Y-62112389D01*
X40001703Y-62215014D01*
X39597189Y-62485302D01*
X39286120Y-62950849D01*
X39176887Y-63500000D01*
X39255000Y-63892700D01*
X39255000Y-67195000D01*
X29783686Y-67195000D01*
X22975000Y-60386314D01*
X22975000Y-57265000D01*
X23850520Y-57265000D01*
X24101887Y-57315000D01*
X24158113Y-57315000D01*
X24707264Y-57205767D01*
X25172811Y-56894698D01*
X25483880Y-56429151D01*
X25593113Y-55880000D01*
X25483880Y-55330849D01*
X25172811Y-54865302D01*
X24790725Y-54610000D01*
X25172811Y-54354698D01*
X25483880Y-53889151D01*
X25593113Y-53340000D01*
X25483880Y-52790849D01*
X25172811Y-52325302D01*
X24790725Y-52070000D01*
X25172811Y-51814698D01*
X25483880Y-51349151D01*
X25593113Y-50800000D01*
X25483880Y-50250849D01*
X25172811Y-49785302D01*
X24790725Y-49530000D01*
X25172811Y-49274698D01*
X25483880Y-48809151D01*
X25593113Y-48260000D01*
X30286887Y-48260000D01*
X30396120Y-48809151D01*
X30707189Y-49274698D01*
X31089275Y-49530000D01*
X30707189Y-49785302D01*
X30396120Y-50250849D01*
X30286887Y-50800000D01*
X30396120Y-51349151D01*
X30707189Y-51814698D01*
X31089275Y-52070000D01*
X30707189Y-52325302D01*
X30396120Y-52790849D01*
X30286887Y-53340000D01*
X30396120Y-53889151D01*
X30707189Y-54354698D01*
X31089275Y-54610000D01*
X30707189Y-54865302D01*
X30396120Y-55330849D01*
X30286887Y-55880000D01*
X30396120Y-56429151D01*
X30707189Y-56894698D01*
X31172736Y-57205767D01*
X31721887Y-57315000D01*
X31778113Y-57315000D01*
X32327264Y-57205767D01*
X32792811Y-56894698D01*
X33103880Y-56429151D01*
X33213113Y-55880000D01*
X39176887Y-55880000D01*
X39286120Y-56429151D01*
X39597189Y-56894698D01*
X39979275Y-57150000D01*
X39597189Y-57405302D01*
X39286120Y-57870849D01*
X39176887Y-58420000D01*
X39286120Y-58969151D01*
X39597189Y-59434698D01*
X40001703Y-59704986D01*
X39784866Y-59807611D01*
X39408959Y-60222577D01*
X39248096Y-60610961D01*
X39370085Y-60833000D01*
X40513000Y-60833000D01*
X40513000Y-60813000D01*
X40767000Y-60813000D01*
X40767000Y-60833000D01*
X41909915Y-60833000D01*
X42031904Y-60610961D01*
X41871041Y-60222577D01*
X41495134Y-59807611D01*
X41278297Y-59704986D01*
X41682811Y-59434698D01*
X41993880Y-58969151D01*
X42103113Y-58420000D01*
X41993880Y-57870849D01*
X41682811Y-57405302D01*
X41300725Y-57150000D01*
X41682811Y-56894698D01*
X41993880Y-56429151D01*
X42103113Y-55880000D01*
X41993880Y-55330849D01*
X41682811Y-54865302D01*
X41217264Y-54554233D01*
X40668113Y-54445000D01*
X40611887Y-54445000D01*
X40062736Y-54554233D01*
X39597189Y-54865302D01*
X39286120Y-55330849D01*
X39176887Y-55880000D01*
X33213113Y-55880000D01*
X33103880Y-55330849D01*
X32792811Y-54865302D01*
X32410725Y-54610000D01*
X32792811Y-54354698D01*
X33103880Y-53889151D01*
X33213113Y-53340000D01*
X33103880Y-52790849D01*
X32792811Y-52325302D01*
X32582835Y-52185000D01*
X37526314Y-52185000D01*
X38390657Y-53049343D01*
X38839983Y-53349573D01*
X39370000Y-53455000D01*
X44335000Y-53455000D01*
X44335000Y-57150000D01*
X44440427Y-57680017D01*
X44588529Y-57901667D01*
X44740657Y-58129343D01*
X46010657Y-59399343D01*
X46459983Y-59699573D01*
X46990000Y-59805000D01*
X47427165Y-59805000D01*
X47217189Y-59945302D01*
X46906120Y-60410849D01*
X46796887Y-60960000D01*
X46906120Y-61509151D01*
X47217189Y-61974698D01*
X47599275Y-62230000D01*
X47217189Y-62485302D01*
X46906120Y-62950849D01*
X46796887Y-63500000D01*
X46906120Y-64049151D01*
X47217189Y-64514698D01*
X47682736Y-64825767D01*
X48231887Y-64935000D01*
X48288113Y-64935000D01*
X48837264Y-64825767D01*
X49302811Y-64514698D01*
X49613880Y-64049151D01*
X49723113Y-63500000D01*
X49613880Y-62950849D01*
X49302811Y-62485302D01*
X48920725Y-62230000D01*
X49302811Y-61974698D01*
X49613880Y-61509151D01*
X49723113Y-60960000D01*
X49613880Y-60410849D01*
X49302811Y-59945302D01*
X48920725Y-59690000D01*
X49302811Y-59434698D01*
X49613880Y-58969151D01*
X49723113Y-58420000D01*
X49613880Y-57870849D01*
X49302811Y-57405302D01*
X48920725Y-57150000D01*
X49302811Y-56894698D01*
X49613880Y-56429151D01*
X49723113Y-55880000D01*
X49613880Y-55330849D01*
X49302811Y-54865302D01*
X48837264Y-54554233D01*
X48288113Y-54445000D01*
X48231887Y-54445000D01*
X47682736Y-54554233D01*
X47217189Y-54865302D01*
X47105000Y-55033204D01*
X47105000Y-53455000D01*
X47967359Y-53455000D01*
X47967637Y-53455278D01*
X48568352Y-53704716D01*
X49218795Y-53705284D01*
X49819943Y-53456894D01*
X50280278Y-52997363D01*
X50529716Y-52396648D01*
X50530284Y-51746205D01*
X50281894Y-51145057D01*
X49822363Y-50684722D01*
X49221648Y-50435284D01*
X48571205Y-50434716D01*
X47970057Y-50683106D01*
X47968160Y-50685000D01*
X40755000Y-50685000D01*
X40755000Y-48575435D01*
X40794510Y-48602431D01*
X41046400Y-48653440D01*
X42773600Y-48653440D01*
X43008917Y-48609162D01*
X43225041Y-48470090D01*
X43370031Y-48257890D01*
X43378400Y-48216561D01*
X43390330Y-48234415D01*
X43876511Y-48559271D01*
X44450000Y-48673345D01*
X45023489Y-48559271D01*
X45509670Y-48234415D01*
X45720000Y-47919634D01*
X45930330Y-48234415D01*
X46416511Y-48559271D01*
X46990000Y-48673345D01*
X47563489Y-48559271D01*
X48049670Y-48234415D01*
X48374526Y-47748234D01*
X48471540Y-47260510D01*
X56851810Y-47260510D01*
X56851810Y-49259490D01*
X56896088Y-49494807D01*
X57035160Y-49710931D01*
X57247360Y-49855921D01*
X57499250Y-49906930D01*
X59498230Y-49906930D01*
X59733547Y-49862652D01*
X59949671Y-49723580D01*
X60094661Y-49511380D01*
X60145670Y-49259490D01*
X60145670Y-47260510D01*
X60101392Y-47025193D01*
X59962320Y-46809069D01*
X59750120Y-46664079D01*
X59498230Y-46613070D01*
X57499250Y-46613070D01*
X57263933Y-46657348D01*
X57047809Y-46796420D01*
X56902819Y-47008620D01*
X56851810Y-47260510D01*
X48471540Y-47260510D01*
X48488600Y-47174745D01*
X48488600Y-46805255D01*
X48374526Y-46231766D01*
X48049670Y-45745585D01*
X47563489Y-45420729D01*
X46990000Y-45306655D01*
X46416511Y-45420729D01*
X45930330Y-45745585D01*
X45720000Y-46060366D01*
X45509670Y-45745585D01*
X45023489Y-45420729D01*
X44450000Y-45306655D01*
X43876511Y-45420729D01*
X43390330Y-45745585D01*
X43380757Y-45759913D01*
X43376762Y-45738683D01*
X43237690Y-45522559D01*
X43025490Y-45377569D01*
X42773600Y-45326560D01*
X41046400Y-45326560D01*
X40811083Y-45370838D01*
X40755000Y-45406926D01*
X40755000Y-44688935D01*
X52133291Y-44688935D01*
X52316582Y-45132535D01*
X52655680Y-45472225D01*
X53098959Y-45656290D01*
X53578935Y-45656709D01*
X54022535Y-45473418D01*
X54286413Y-45210000D01*
X64455198Y-45210000D01*
X66854330Y-47609133D01*
X66854330Y-49259490D01*
X66898608Y-49494807D01*
X67037680Y-49710931D01*
X67249880Y-49855921D01*
X67501770Y-49906930D01*
X69500750Y-49906930D01*
X69736067Y-49862652D01*
X69952191Y-49723580D01*
X70097181Y-49511380D01*
X70148190Y-49259490D01*
X70148190Y-47260510D01*
X70103912Y-47025193D01*
X69964840Y-46809069D01*
X69752640Y-46664079D01*
X69500750Y-46613070D01*
X68007873Y-46613070D01*
X67633136Y-46238333D01*
X88890344Y-46238333D01*
X88970721Y-46535710D01*
X89446535Y-47337009D01*
X90192774Y-47895227D01*
X91095830Y-48125380D01*
X91846400Y-48125380D01*
X91846400Y-45867320D01*
X92100400Y-45867320D01*
X92100400Y-48125380D01*
X92850970Y-48125380D01*
X93754026Y-47895227D01*
X94500265Y-47337009D01*
X94976079Y-46535710D01*
X95056456Y-46238333D01*
X94946655Y-45867320D01*
X92100400Y-45867320D01*
X91846400Y-45867320D01*
X89000145Y-45867320D01*
X88890344Y-46238333D01*
X67633136Y-46238333D01*
X66637110Y-45242307D01*
X88890344Y-45242307D01*
X89000145Y-45613320D01*
X91846400Y-45613320D01*
X91846400Y-43355260D01*
X92100400Y-43355260D01*
X92100400Y-45613320D01*
X94946655Y-45613320D01*
X95056456Y-45242307D01*
X94976079Y-44944930D01*
X94500265Y-44143631D01*
X93754026Y-43585413D01*
X92850970Y-43355260D01*
X92100400Y-43355260D01*
X91846400Y-43355260D01*
X91095830Y-43355260D01*
X90192774Y-43585413D01*
X89446535Y-44143631D01*
X88970721Y-44944930D01*
X88890344Y-45242307D01*
X66637110Y-45242307D01*
X65307401Y-43912599D01*
X65060839Y-43747852D01*
X64770000Y-43690000D01*
X54286088Y-43690000D01*
X54024320Y-43427775D01*
X54003031Y-43418935D01*
X72453291Y-43418935D01*
X72636582Y-43862535D01*
X72975680Y-44202225D01*
X73418959Y-44386290D01*
X73898935Y-44386709D01*
X74342535Y-44203418D01*
X74682225Y-43864320D01*
X74866290Y-43421041D01*
X74866291Y-43418935D01*
X78168291Y-43418935D01*
X78351582Y-43862535D01*
X78690680Y-44202225D01*
X79133959Y-44386290D01*
X79613935Y-44386709D01*
X80057535Y-44203418D01*
X80397225Y-43864320D01*
X80581290Y-43421041D01*
X80581709Y-42941065D01*
X80398418Y-42497465D01*
X80059320Y-42157775D01*
X79616041Y-41973710D01*
X79136065Y-41973291D01*
X78692465Y-42156582D01*
X78352775Y-42495680D01*
X78168710Y-42938959D01*
X78168291Y-43418935D01*
X74866291Y-43418935D01*
X74866709Y-42941065D01*
X74683418Y-42497465D01*
X74344320Y-42157775D01*
X73901041Y-41973710D01*
X73421065Y-41973291D01*
X72977465Y-42156582D01*
X72637775Y-42495680D01*
X72453710Y-42938959D01*
X72453291Y-43418935D01*
X54003031Y-43418935D01*
X53581041Y-43243710D01*
X53101065Y-43243291D01*
X52657465Y-43426582D01*
X52317775Y-43765680D01*
X52133710Y-44208959D01*
X52133291Y-44688935D01*
X40755000Y-44688935D01*
X40755000Y-42545000D01*
X40649573Y-42014983D01*
X40349343Y-41565657D01*
X38465284Y-39681598D01*
X38465284Y-39681205D01*
X38435423Y-39608935D01*
X43243291Y-39608935D01*
X43426582Y-40052535D01*
X43765680Y-40392225D01*
X44208959Y-40576290D01*
X44688935Y-40576709D01*
X44982877Y-40455255D01*
X59461400Y-40455255D01*
X59461400Y-40824745D01*
X59575474Y-41398234D01*
X59900330Y-41884415D01*
X60386511Y-42209271D01*
X60960000Y-42323345D01*
X61533489Y-42209271D01*
X62019670Y-41884415D01*
X62230000Y-41569634D01*
X62440330Y-41884415D01*
X62926511Y-42209271D01*
X63500000Y-42323345D01*
X64073489Y-42209271D01*
X64559670Y-41884415D01*
X64569243Y-41870087D01*
X64573238Y-41891317D01*
X64712310Y-42107441D01*
X64924510Y-42252431D01*
X65176400Y-42303440D01*
X66903600Y-42303440D01*
X67138917Y-42259162D01*
X67355041Y-42120090D01*
X67500031Y-41907890D01*
X67551040Y-41656000D01*
X67551040Y-39624000D01*
X67506762Y-39388683D01*
X67367690Y-39172559D01*
X67341773Y-39154850D01*
X74065390Y-39154850D01*
X74065390Y-40854110D01*
X74109668Y-41089427D01*
X74248740Y-41305551D01*
X74460940Y-41450541D01*
X74712830Y-41501550D01*
X76412090Y-41501550D01*
X76647407Y-41457272D01*
X76863531Y-41318200D01*
X77008521Y-41106000D01*
X77025356Y-41022865D01*
X77265466Y-41263394D01*
X77810933Y-41489892D01*
X78401556Y-41490408D01*
X78947417Y-41264862D01*
X79288667Y-40924207D01*
X86273392Y-40924207D01*
X86491412Y-41451857D01*
X86894760Y-41855909D01*
X87422029Y-42074850D01*
X87992947Y-42075348D01*
X88520597Y-41857328D01*
X88924649Y-41453980D01*
X89143590Y-40926711D01*
X89144088Y-40355793D01*
X88926068Y-39828143D01*
X88522720Y-39424091D01*
X88457229Y-39396897D01*
X88462805Y-39394587D01*
X88536952Y-39148457D01*
X87708740Y-38320245D01*
X86880528Y-39148457D01*
X86954675Y-39394587D01*
X86960119Y-39396544D01*
X86896883Y-39422672D01*
X86492831Y-39826020D01*
X86273890Y-40353289D01*
X86273392Y-40924207D01*
X79288667Y-40924207D01*
X79365414Y-40847594D01*
X79591912Y-40302127D01*
X79592428Y-39711504D01*
X79366882Y-39165643D01*
X78949614Y-38747646D01*
X78404147Y-38521148D01*
X77813524Y-38520632D01*
X77267663Y-38746178D01*
X77027705Y-38985717D01*
X77015252Y-38919533D01*
X76876180Y-38703409D01*
X76663980Y-38558419D01*
X76412090Y-38507410D01*
X74712830Y-38507410D01*
X74477513Y-38551688D01*
X74261389Y-38690760D01*
X74116399Y-38902960D01*
X74065390Y-39154850D01*
X67341773Y-39154850D01*
X67155490Y-39027569D01*
X66903600Y-38976560D01*
X65176400Y-38976560D01*
X64941083Y-39020838D01*
X64724959Y-39159910D01*
X64579969Y-39372110D01*
X64571600Y-39413439D01*
X64559670Y-39395585D01*
X64073489Y-39070729D01*
X63500000Y-38956655D01*
X62926511Y-39070729D01*
X62440330Y-39395585D01*
X62230000Y-39710366D01*
X62019670Y-39395585D01*
X61533489Y-39070729D01*
X60960000Y-38956655D01*
X60386511Y-39070729D01*
X59900330Y-39395585D01*
X59575474Y-39881766D01*
X59461400Y-40455255D01*
X44982877Y-40455255D01*
X45132535Y-40393418D01*
X45472225Y-40054320D01*
X45656290Y-39611041D01*
X45656709Y-39131065D01*
X45473418Y-38687465D01*
X45134320Y-38347775D01*
X45113031Y-38338935D01*
X52133291Y-38338935D01*
X52316582Y-38782535D01*
X52655680Y-39122225D01*
X53098959Y-39306290D01*
X53578935Y-39306709D01*
X54022535Y-39123418D01*
X54362225Y-38784320D01*
X54546290Y-38341041D01*
X54546654Y-37923840D01*
X86261676Y-37923840D01*
X86288861Y-38494110D01*
X86454793Y-38894705D01*
X86700923Y-38968852D01*
X87529135Y-38140640D01*
X87888345Y-38140640D01*
X88716557Y-38968852D01*
X88962687Y-38894705D01*
X89155804Y-38357440D01*
X89128619Y-37787170D01*
X88962687Y-37386575D01*
X88716557Y-37312428D01*
X87888345Y-38140640D01*
X87529135Y-38140640D01*
X86700923Y-37312428D01*
X86454793Y-37386575D01*
X86261676Y-37923840D01*
X54546654Y-37923840D01*
X54546709Y-37861065D01*
X54363418Y-37417465D01*
X54079273Y-37132823D01*
X86880528Y-37132823D01*
X87708740Y-37961035D01*
X88536952Y-37132823D01*
X88462805Y-36886693D01*
X87925540Y-36693576D01*
X87355270Y-36720761D01*
X86954675Y-36886693D01*
X86880528Y-37132823D01*
X54079273Y-37132823D01*
X54024320Y-37077775D01*
X53581041Y-36893710D01*
X53101065Y-36893291D01*
X52657465Y-37076582D01*
X52317775Y-37415680D01*
X52133710Y-37858959D01*
X52133291Y-38338935D01*
X45113031Y-38338935D01*
X44691041Y-38163710D01*
X44211065Y-38163291D01*
X43767465Y-38346582D01*
X43427775Y-38685680D01*
X43243710Y-39128959D01*
X43243291Y-39608935D01*
X38435423Y-39608935D01*
X38216894Y-39080057D01*
X37757363Y-38619722D01*
X37156648Y-38370284D01*
X36506205Y-38369716D01*
X35905057Y-38618106D01*
X35444722Y-39077637D01*
X35195284Y-39678352D01*
X35194716Y-40328795D01*
X35443106Y-40929943D01*
X35902637Y-41390278D01*
X36503352Y-41639716D01*
X36506032Y-41639718D01*
X37985000Y-43118686D01*
X37985000Y-49415000D01*
X32582835Y-49415000D01*
X32792811Y-49274698D01*
X33103880Y-48809151D01*
X33213113Y-48260000D01*
X33103880Y-47710849D01*
X32792811Y-47245302D01*
X32327264Y-46934233D01*
X31778113Y-46825000D01*
X31721887Y-46825000D01*
X31172736Y-46934233D01*
X30707189Y-47245302D01*
X30396120Y-47710849D01*
X30286887Y-48260000D01*
X25593113Y-48260000D01*
X25483880Y-47710849D01*
X25172811Y-47245302D01*
X24707264Y-46934233D01*
X24158113Y-46825000D01*
X24101887Y-46825000D01*
X23552736Y-46934233D01*
X23087189Y-47245302D01*
X22776120Y-47710849D01*
X22666887Y-48260000D01*
X22776120Y-48809151D01*
X23087189Y-49274698D01*
X23469275Y-49530000D01*
X23087189Y-49785302D01*
X22776120Y-50250849D01*
X22666887Y-50800000D01*
X22776120Y-51349151D01*
X23087189Y-51814698D01*
X23469275Y-52070000D01*
X23087189Y-52325302D01*
X22776120Y-52790849D01*
X22666887Y-53340000D01*
X22776120Y-53889151D01*
X23087189Y-54354698D01*
X23297165Y-54495000D01*
X22163686Y-54495000D01*
X19165000Y-51496314D01*
X19165000Y-41567641D01*
X19165278Y-41567363D01*
X19414716Y-40966648D01*
X19415284Y-40316205D01*
X19166894Y-39715057D01*
X18707363Y-39254722D01*
X18106648Y-39005284D01*
X17456205Y-39004716D01*
X16855057Y-39253106D01*
X16394722Y-39712637D01*
X16145284Y-40313352D01*
X16144716Y-40963795D01*
X11378356Y-40963795D01*
X11439656Y-40756667D01*
X11359279Y-40459290D01*
X10883465Y-39657991D01*
X10137226Y-39099773D01*
X9234170Y-38869620D01*
X8483600Y-38869620D01*
X8229600Y-38869620D01*
X7479030Y-38869620D01*
X6575974Y-39099773D01*
X5829735Y-39657991D01*
X5353921Y-40459290D01*
X5273544Y-40756667D01*
X1397000Y-40756667D01*
X1397000Y-34805793D01*
X5273544Y-34805793D01*
X5353921Y-35103170D01*
X5829735Y-35904469D01*
X6575974Y-36462687D01*
X7479030Y-36692840D01*
X8229600Y-36692840D01*
X8229600Y-34434780D01*
X8483600Y-34434780D01*
X8483600Y-36692840D01*
X9234170Y-36692840D01*
X10137226Y-36462687D01*
X10883465Y-35904469D01*
X11359279Y-35103170D01*
X11439656Y-34805793D01*
X11329855Y-34434780D01*
X8483600Y-34434780D01*
X8229600Y-34434780D01*
X5383345Y-34434780D01*
X5273544Y-34805793D01*
X1397000Y-34805793D01*
X1397000Y-33809767D01*
X5273544Y-33809767D01*
X5383345Y-34180780D01*
X8229600Y-34180780D01*
X8229600Y-31922720D01*
X8483600Y-31922720D01*
X8483600Y-34180780D01*
X11329855Y-34180780D01*
X11439656Y-33809767D01*
X11359279Y-33512390D01*
X10887079Y-32717177D01*
X11793048Y-32717177D01*
X11867195Y-32963307D01*
X12404460Y-33156424D01*
X12974730Y-33129239D01*
X13375325Y-32963307D01*
X13449472Y-32717177D01*
X12621260Y-31888965D01*
X11793048Y-32717177D01*
X10887079Y-32717177D01*
X10883465Y-32711091D01*
X10137226Y-32152873D01*
X9234170Y-31922720D01*
X8483600Y-31922720D01*
X8229600Y-31922720D01*
X7479030Y-31922720D01*
X6575974Y-32152873D01*
X5829735Y-32711091D01*
X5353921Y-33512390D01*
X5273544Y-33809767D01*
X1397000Y-33809767D01*
X1397000Y-31492560D01*
X11174196Y-31492560D01*
X11201381Y-32062830D01*
X11367313Y-32463425D01*
X11613443Y-32537572D01*
X12441655Y-31709360D01*
X12800865Y-31709360D01*
X13629077Y-32537572D01*
X13875207Y-32463425D01*
X14068324Y-31926160D01*
X14041139Y-31355890D01*
X13875207Y-30955295D01*
X13629077Y-30881148D01*
X12800865Y-31709360D01*
X12441655Y-31709360D01*
X11613443Y-30881148D01*
X11367313Y-30955295D01*
X11174196Y-31492560D01*
X1397000Y-31492560D01*
X1397000Y-29494207D01*
X11185912Y-29494207D01*
X11403932Y-30021857D01*
X11807280Y-30425909D01*
X11872771Y-30453103D01*
X11867195Y-30455413D01*
X11793048Y-30701543D01*
X12621260Y-31529755D01*
X13449472Y-30701543D01*
X13375325Y-30455413D01*
X13369881Y-30453456D01*
X13433117Y-30427328D01*
X13837169Y-30023980D01*
X14056110Y-29496711D01*
X14056608Y-28925793D01*
X13838588Y-28398143D01*
X13435240Y-27994091D01*
X12907971Y-27775150D01*
X12337053Y-27774652D01*
X11809403Y-27992672D01*
X11405351Y-28396020D01*
X11186410Y-28923289D01*
X11185912Y-29494207D01*
X1397000Y-29494207D01*
X1397000Y-24607693D01*
X5273544Y-24607693D01*
X5353921Y-24905070D01*
X5829735Y-25706369D01*
X6575974Y-26264587D01*
X7479030Y-26494740D01*
X8229600Y-26494740D01*
X8229600Y-24236680D01*
X8483600Y-24236680D01*
X8483600Y-26494740D01*
X9234170Y-26494740D01*
X10137226Y-26264587D01*
X10883465Y-25706369D01*
X11359279Y-24905070D01*
X11439656Y-24607693D01*
X11329855Y-24236680D01*
X8483600Y-24236680D01*
X8229600Y-24236680D01*
X5383345Y-24236680D01*
X5273544Y-24607693D01*
X1397000Y-24607693D01*
X1397000Y-23611667D01*
X5273544Y-23611667D01*
X5383345Y-23982680D01*
X8229600Y-23982680D01*
X8229600Y-21724620D01*
X8483600Y-21724620D01*
X8483600Y-23982680D01*
X11329855Y-23982680D01*
X11439656Y-23611667D01*
X11359279Y-23314290D01*
X10883465Y-22512991D01*
X10137226Y-21954773D01*
X9234170Y-21724620D01*
X8483600Y-21724620D01*
X8229600Y-21724620D01*
X7479030Y-21724620D01*
X6575974Y-21954773D01*
X5829735Y-22512991D01*
X5353921Y-23314290D01*
X5273544Y-23611667D01*
X1397000Y-23611667D01*
X1397000Y-18793403D01*
X9594682Y-18793403D01*
X9873455Y-19468086D01*
X10389199Y-19984730D01*
X11063395Y-20264681D01*
X11793403Y-20265318D01*
X12468086Y-19986545D01*
X12639930Y-19815000D01*
X12776314Y-19815000D01*
X13085657Y-20124343D01*
X13534984Y-20424574D01*
X14065000Y-20530000D01*
X16395000Y-20530000D01*
X16395000Y-32727359D01*
X16394722Y-32727637D01*
X16145284Y-33328352D01*
X16144716Y-33978795D01*
X16393106Y-34579943D01*
X16852637Y-35040278D01*
X17453352Y-35289716D01*
X18103795Y-35290284D01*
X18704943Y-35041894D01*
X19165278Y-34582363D01*
X19174352Y-34560510D01*
X23831810Y-34560510D01*
X23831810Y-36559490D01*
X23876088Y-36794807D01*
X24015160Y-37010931D01*
X24227360Y-37155921D01*
X24479250Y-37206930D01*
X26478230Y-37206930D01*
X26713547Y-37162652D01*
X26929671Y-37023580D01*
X27074661Y-36811380D01*
X27125670Y-36559490D01*
X27125670Y-34560510D01*
X27081392Y-34325193D01*
X26942320Y-34109069D01*
X26730120Y-33964079D01*
X26478230Y-33913070D01*
X24479250Y-33913070D01*
X24243933Y-33957348D01*
X24027809Y-34096420D01*
X23882819Y-34308620D01*
X23831810Y-34560510D01*
X19174352Y-34560510D01*
X19414716Y-33981648D01*
X19415284Y-33331205D01*
X19166894Y-32730057D01*
X19165000Y-32728160D01*
X19165000Y-28845510D01*
X23831810Y-28845510D01*
X23831810Y-30844490D01*
X23876088Y-31079807D01*
X24015160Y-31295931D01*
X24227360Y-31440921D01*
X24479250Y-31491930D01*
X26478230Y-31491930D01*
X26713547Y-31447652D01*
X26929671Y-31308580D01*
X27074661Y-31096380D01*
X27125670Y-30844490D01*
X27125670Y-28845510D01*
X27081392Y-28610193D01*
X26942320Y-28394069D01*
X26730120Y-28249079D01*
X26478230Y-28198070D01*
X24479250Y-28198070D01*
X24243933Y-28242348D01*
X24027809Y-28381420D01*
X23882819Y-28593620D01*
X23831810Y-28845510D01*
X19165000Y-28845510D01*
X19165000Y-19145000D01*
X19059573Y-18614983D01*
X18838661Y-18284365D01*
X18968327Y-18154698D01*
X19065000Y-17921309D01*
X19065000Y-17430750D01*
X18906250Y-17272000D01*
X17907000Y-17272000D01*
X17907000Y-17292000D01*
X17653000Y-17292000D01*
X17653000Y-17272000D01*
X16653750Y-17272000D01*
X16495000Y-17430750D01*
X16495000Y-17760000D01*
X14638686Y-17760000D01*
X14329343Y-17450657D01*
X14241428Y-17391914D01*
X13880017Y-17150427D01*
X13350000Y-17045000D01*
X12640235Y-17045000D01*
X12470801Y-16875270D01*
X12013043Y-16685192D01*
X12424435Y-16514788D01*
X12486983Y-16368691D01*
X16495000Y-16368691D01*
X16495000Y-16859250D01*
X16653750Y-17018000D01*
X17653000Y-17018000D01*
X17653000Y-16018750D01*
X17907000Y-16018750D01*
X17907000Y-17018000D01*
X18906250Y-17018000D01*
X19065000Y-16859250D01*
X19065000Y-16368691D01*
X18968327Y-16135302D01*
X18789699Y-15956673D01*
X18556310Y-15860000D01*
X18065750Y-15860000D01*
X17907000Y-16018750D01*
X17653000Y-16018750D01*
X17494250Y-15860000D01*
X17003690Y-15860000D01*
X16770301Y-15956673D01*
X16591673Y-16135302D01*
X16495000Y-16368691D01*
X12486983Y-16368691D01*
X12547570Y-16227175D01*
X11430000Y-15109605D01*
X10312430Y-16227175D01*
X10435565Y-16514788D01*
X10864458Y-16678204D01*
X10391914Y-16873455D01*
X9875270Y-17389199D01*
X9595319Y-18063395D01*
X9594682Y-18793403D01*
X1397000Y-18793403D01*
X1397000Y-14617734D01*
X9585293Y-14617734D01*
X9606214Y-15347443D01*
X9845212Y-15924435D01*
X10132825Y-16047570D01*
X11250395Y-14930000D01*
X11609605Y-14930000D01*
X12727175Y-16047570D01*
X13014788Y-15924435D01*
X13274707Y-15242266D01*
X13253786Y-14512557D01*
X13177761Y-14329016D01*
X17060590Y-14329016D01*
X17116271Y-14559611D01*
X17599078Y-14727622D01*
X18109428Y-14698083D01*
X18443729Y-14559611D01*
X18499410Y-14329016D01*
X17780000Y-13609605D01*
X17060590Y-14329016D01*
X13177761Y-14329016D01*
X13014788Y-13935565D01*
X12727175Y-13812430D01*
X11609605Y-14930000D01*
X11250395Y-14930000D01*
X10132825Y-13812430D01*
X9845212Y-13935565D01*
X9585293Y-14617734D01*
X1397000Y-14617734D01*
X1397000Y-10230000D01*
X9582560Y-10230000D01*
X9582560Y-12630000D01*
X9626838Y-12865317D01*
X9765910Y-13081441D01*
X9978110Y-13226431D01*
X10230000Y-13277440D01*
X10599181Y-13277440D01*
X10435565Y-13345212D01*
X10312430Y-13632825D01*
X11430000Y-14750395D01*
X12547570Y-13632825D01*
X12424435Y-13345212D01*
X12246564Y-13277440D01*
X12630000Y-13277440D01*
X12865317Y-13233162D01*
X13081441Y-13094090D01*
X13226431Y-12881890D01*
X13239977Y-12815000D01*
X16633432Y-12815000D01*
X16482378Y-13249078D01*
X16511917Y-13759428D01*
X16650389Y-14093729D01*
X16880984Y-14149410D01*
X17600395Y-13430000D01*
X17586252Y-13415858D01*
X17765858Y-13236252D01*
X17780000Y-13250395D01*
X17794142Y-13236252D01*
X17973748Y-13415858D01*
X17959605Y-13430000D01*
X18679016Y-14149410D01*
X18909611Y-14093729D01*
X19077622Y-13610922D01*
X19048083Y-13100572D01*
X18929795Y-12815000D01*
X19111314Y-12815000D01*
X29095000Y-22798686D01*
X29095000Y-38100000D01*
X29200427Y-38630017D01*
X29418680Y-38956655D01*
X29500657Y-39079343D01*
X30749716Y-40328402D01*
X30749716Y-40328795D01*
X30998106Y-40929943D01*
X31457637Y-41390278D01*
X32058352Y-41639716D01*
X32708795Y-41640284D01*
X33309943Y-41391894D01*
X33770278Y-40932363D01*
X34019716Y-40331648D01*
X34020284Y-39681205D01*
X33771894Y-39080057D01*
X33312363Y-38619722D01*
X32711648Y-38370284D01*
X32708968Y-38370282D01*
X31865000Y-37526314D01*
X31865000Y-28845510D01*
X33834330Y-28845510D01*
X33834330Y-30844490D01*
X33878608Y-31079807D01*
X34017680Y-31295931D01*
X34229880Y-31440921D01*
X34481770Y-31491930D01*
X34721260Y-31491930D01*
X34721260Y-33913070D01*
X34481770Y-33913070D01*
X34246453Y-33957348D01*
X34030329Y-34096420D01*
X33885339Y-34308620D01*
X33834330Y-34560510D01*
X33834330Y-36559490D01*
X33878608Y-36794807D01*
X34017680Y-37010931D01*
X34229880Y-37155921D01*
X34481770Y-37206930D01*
X36480750Y-37206930D01*
X36716067Y-37162652D01*
X36932191Y-37023580D01*
X37077181Y-36811380D01*
X37128190Y-36559490D01*
X37128190Y-36040233D01*
X88890344Y-36040233D01*
X88970721Y-36337610D01*
X89446535Y-37138909D01*
X90192774Y-37697127D01*
X91095830Y-37927280D01*
X91846400Y-37927280D01*
X91846400Y-35669220D01*
X92100400Y-35669220D01*
X92100400Y-37927280D01*
X92850970Y-37927280D01*
X93754026Y-37697127D01*
X94500265Y-37138909D01*
X94976079Y-36337610D01*
X95056456Y-36040233D01*
X94946655Y-35669220D01*
X92100400Y-35669220D01*
X91846400Y-35669220D01*
X89000145Y-35669220D01*
X88890344Y-36040233D01*
X37128190Y-36040233D01*
X37128190Y-35044207D01*
X88890344Y-35044207D01*
X89000145Y-35415220D01*
X91846400Y-35415220D01*
X91846400Y-33157160D01*
X92100400Y-33157160D01*
X92100400Y-35415220D01*
X94946655Y-35415220D01*
X95056456Y-35044207D01*
X94976079Y-34746830D01*
X94500265Y-33945531D01*
X93754026Y-33387313D01*
X92850970Y-33157160D01*
X92100400Y-33157160D01*
X91846400Y-33157160D01*
X91095830Y-33157160D01*
X90192774Y-33387313D01*
X89446535Y-33945531D01*
X88970721Y-34746830D01*
X88890344Y-35044207D01*
X37128190Y-35044207D01*
X37128190Y-34560510D01*
X37083912Y-34325193D01*
X36944840Y-34109069D01*
X36732640Y-33964079D01*
X36480750Y-33913070D01*
X36241260Y-33913070D01*
X36241260Y-31491930D01*
X36480750Y-31491930D01*
X36716067Y-31447652D01*
X36932191Y-31308580D01*
X37077181Y-31096380D01*
X37128190Y-30844490D01*
X37128190Y-30734000D01*
X40398960Y-30734000D01*
X40398960Y-32766000D01*
X40443238Y-33001317D01*
X40582310Y-33217441D01*
X40794510Y-33362431D01*
X41046400Y-33413440D01*
X42773600Y-33413440D01*
X43008917Y-33369162D01*
X43225041Y-33230090D01*
X43370031Y-33017890D01*
X43378400Y-32976561D01*
X43390330Y-32994415D01*
X43876511Y-33319271D01*
X44450000Y-33433345D01*
X45023489Y-33319271D01*
X45509670Y-32994415D01*
X45720000Y-32679634D01*
X45930330Y-32994415D01*
X46416511Y-33319271D01*
X46990000Y-33433345D01*
X47563489Y-33319271D01*
X47653788Y-33258935D01*
X52133291Y-33258935D01*
X52316582Y-33702535D01*
X52655680Y-34042225D01*
X53098959Y-34226290D01*
X53578935Y-34226709D01*
X54022535Y-34043418D01*
X54362225Y-33704320D01*
X54546290Y-33261041D01*
X54546709Y-32781065D01*
X54363418Y-32337465D01*
X54024320Y-31997775D01*
X53581041Y-31813710D01*
X53101065Y-31813291D01*
X52657465Y-31996582D01*
X52317775Y-32335680D01*
X52133710Y-32778959D01*
X52133291Y-33258935D01*
X47653788Y-33258935D01*
X48049670Y-32994415D01*
X48374526Y-32508234D01*
X48488600Y-31934745D01*
X48488600Y-31565255D01*
X48374526Y-30991766D01*
X48202293Y-30734000D01*
X59448960Y-30734000D01*
X59448960Y-32766000D01*
X59493238Y-33001317D01*
X59632310Y-33217441D01*
X59844510Y-33362431D01*
X60096400Y-33413440D01*
X61823600Y-33413440D01*
X62058917Y-33369162D01*
X62275041Y-33230090D01*
X62420031Y-33017890D01*
X62428400Y-32976561D01*
X62440330Y-32994415D01*
X62926511Y-33319271D01*
X63500000Y-33433345D01*
X64073489Y-33319271D01*
X64559670Y-32994415D01*
X64770000Y-32679634D01*
X64980330Y-32994415D01*
X65466511Y-33319271D01*
X66040000Y-33433345D01*
X66613489Y-33319271D01*
X67099670Y-32994415D01*
X67424526Y-32508234D01*
X67538600Y-31934745D01*
X67538600Y-31565255D01*
X67424526Y-30991766D01*
X67099670Y-30505585D01*
X66613489Y-30180729D01*
X66401170Y-30138496D01*
X74077572Y-30138496D01*
X74303118Y-30684357D01*
X74720386Y-31102354D01*
X75265853Y-31328852D01*
X75856476Y-31329368D01*
X76402337Y-31103822D01*
X76642295Y-30864283D01*
X76654748Y-30930467D01*
X76793820Y-31146591D01*
X77006020Y-31291581D01*
X77257910Y-31342590D01*
X78957170Y-31342590D01*
X79192487Y-31298312D01*
X79408611Y-31159240D01*
X79553601Y-30947040D01*
X79604610Y-30695150D01*
X79604610Y-28995890D01*
X79560332Y-28760573D01*
X79421260Y-28544449D01*
X79209060Y-28399459D01*
X78957170Y-28348450D01*
X77257910Y-28348450D01*
X77022593Y-28392728D01*
X76806469Y-28531800D01*
X76661479Y-28744000D01*
X76644644Y-28827135D01*
X76404534Y-28586606D01*
X75859067Y-28360108D01*
X75268444Y-28359592D01*
X74722583Y-28585138D01*
X74304586Y-29002406D01*
X74078088Y-29547873D01*
X74077572Y-30138496D01*
X66401170Y-30138496D01*
X66040000Y-30066655D01*
X65466511Y-30180729D01*
X64980330Y-30505585D01*
X64770000Y-30820366D01*
X64559670Y-30505585D01*
X64073489Y-30180729D01*
X63500000Y-30066655D01*
X62926511Y-30180729D01*
X62440330Y-30505585D01*
X62430757Y-30519913D01*
X62426762Y-30498683D01*
X62287690Y-30282559D01*
X62075490Y-30137569D01*
X61823600Y-30086560D01*
X60096400Y-30086560D01*
X59861083Y-30130838D01*
X59644959Y-30269910D01*
X59499969Y-30482110D01*
X59448960Y-30734000D01*
X48202293Y-30734000D01*
X48049670Y-30505585D01*
X47563489Y-30180729D01*
X46990000Y-30066655D01*
X46416511Y-30180729D01*
X45930330Y-30505585D01*
X45720000Y-30820366D01*
X45509670Y-30505585D01*
X45023489Y-30180729D01*
X44450000Y-30066655D01*
X43876511Y-30180729D01*
X43390330Y-30505585D01*
X43380757Y-30519913D01*
X43376762Y-30498683D01*
X43237690Y-30282559D01*
X43025490Y-30137569D01*
X42773600Y-30086560D01*
X41046400Y-30086560D01*
X40811083Y-30130838D01*
X40594959Y-30269910D01*
X40449969Y-30482110D01*
X40398960Y-30734000D01*
X37128190Y-30734000D01*
X37128190Y-28845510D01*
X37083912Y-28610193D01*
X36944840Y-28394069D01*
X36732640Y-28249079D01*
X36480750Y-28198070D01*
X34481770Y-28198070D01*
X34246453Y-28242348D01*
X34030329Y-28381420D01*
X33885339Y-28593620D01*
X33834330Y-28845510D01*
X31865000Y-28845510D01*
X31865000Y-22225000D01*
X31759573Y-21694983D01*
X31459343Y-21245657D01*
X20664343Y-10450657D01*
X20215017Y-10150427D01*
X19825699Y-10072987D01*
X20893686Y-9005000D01*
X21637211Y-9005000D01*
X21580427Y-9089983D01*
X21475000Y-9620000D01*
X21475000Y-10160000D01*
X21580427Y-10690017D01*
X21723925Y-10904777D01*
X21880657Y-11139343D01*
X35850657Y-25109343D01*
X36299983Y-25409573D01*
X36830000Y-25515000D01*
X39255000Y-25515000D01*
X39255000Y-27940000D01*
X39360427Y-28470017D01*
X39660657Y-28919343D01*
X40109983Y-29219573D01*
X40640000Y-29325000D01*
X72390000Y-29325000D01*
X72920017Y-29219573D01*
X73369343Y-28919343D01*
X76944990Y-25343696D01*
X77242811Y-25144698D01*
X77553880Y-24679151D01*
X77663113Y-24130000D01*
X77553880Y-23580849D01*
X77242811Y-23115302D01*
X76860725Y-22860000D01*
X77242811Y-22604698D01*
X77553880Y-22139151D01*
X77663113Y-21590000D01*
X77553880Y-21040849D01*
X77242811Y-20575302D01*
X76860725Y-20320000D01*
X77242811Y-20064698D01*
X77553880Y-19599151D01*
X77663113Y-19050000D01*
X77553880Y-18500849D01*
X77242811Y-18035302D01*
X76860725Y-17780000D01*
X77242811Y-17524698D01*
X77553880Y-17059151D01*
X77663113Y-16510000D01*
X77566721Y-16025407D01*
X81570657Y-20029343D01*
X82019983Y-20329573D01*
X82550000Y-20435000D01*
X82987165Y-20435000D01*
X82777189Y-20575302D01*
X82466120Y-21040849D01*
X82356887Y-21590000D01*
X82466120Y-22139151D01*
X82777189Y-22604698D01*
X83159275Y-22860000D01*
X82777189Y-23115302D01*
X82466120Y-23580849D01*
X82356887Y-24130000D01*
X82466120Y-24679151D01*
X82777189Y-25144698D01*
X83242736Y-25455767D01*
X83791887Y-25565000D01*
X83848113Y-25565000D01*
X84397264Y-25455767D01*
X84862811Y-25144698D01*
X85173880Y-24679151D01*
X85283113Y-24130000D01*
X85173880Y-23580849D01*
X84862811Y-23115302D01*
X84480725Y-22860000D01*
X84862811Y-22604698D01*
X85173880Y-22139151D01*
X85283113Y-21590000D01*
X85173880Y-21040849D01*
X84862811Y-20575302D01*
X84480725Y-20320000D01*
X84862811Y-20064698D01*
X85173880Y-19599151D01*
X85283113Y-19050000D01*
X85173880Y-18500849D01*
X84862811Y-18035302D01*
X84480725Y-17780000D01*
X84862811Y-17524698D01*
X85173880Y-17059151D01*
X85283113Y-16510000D01*
X85173880Y-15960849D01*
X84862811Y-15495302D01*
X84397264Y-15184233D01*
X83848113Y-15075000D01*
X83791887Y-15075000D01*
X83242736Y-15184233D01*
X82777189Y-15495302D01*
X82466120Y-15960849D01*
X82356887Y-16510000D01*
X82453279Y-16994593D01*
X77179343Y-11720657D01*
X76730017Y-11420427D01*
X76200000Y-11315000D01*
X49187641Y-11315000D01*
X49187363Y-11314722D01*
X48586648Y-11065284D01*
X47936205Y-11064716D01*
X47335057Y-11313106D01*
X47333160Y-11315000D01*
X44450000Y-11315000D01*
X43919983Y-11420427D01*
X43470657Y-11720657D01*
X43170427Y-12169983D01*
X43065000Y-12700000D01*
X43065000Y-16510000D01*
X43170427Y-17040017D01*
X43444808Y-17450657D01*
X43470657Y-17489343D01*
X46010657Y-20029343D01*
X46459983Y-20329573D01*
X46990000Y-20435000D01*
X47427165Y-20435000D01*
X47217189Y-20575302D01*
X46906120Y-21040849D01*
X46796887Y-21590000D01*
X46906120Y-22139151D01*
X47217189Y-22604698D01*
X47599275Y-22860000D01*
X47217189Y-23115302D01*
X46906120Y-23580849D01*
X46796887Y-24130000D01*
X46906120Y-24679151D01*
X47217189Y-25144698D01*
X47682736Y-25455767D01*
X48231887Y-25565000D01*
X48288113Y-25565000D01*
X48837264Y-25455767D01*
X49302811Y-25144698D01*
X49613880Y-24679151D01*
X49723113Y-24130000D01*
X49613880Y-23580849D01*
X49302811Y-23115302D01*
X48920725Y-22860000D01*
X49302811Y-22604698D01*
X49613880Y-22139151D01*
X49723113Y-21590000D01*
X49613880Y-21040849D01*
X49302811Y-20575302D01*
X48920725Y-20320000D01*
X49302811Y-20064698D01*
X49613880Y-19599151D01*
X49723113Y-19050000D01*
X49613880Y-18500849D01*
X49302811Y-18035302D01*
X48920725Y-17780000D01*
X49302811Y-17524698D01*
X49613880Y-17059151D01*
X49723113Y-16510000D01*
X55686887Y-16510000D01*
X55796120Y-17059151D01*
X56107189Y-17524698D01*
X56489275Y-17780000D01*
X56107189Y-18035302D01*
X55796120Y-18500849D01*
X55686887Y-19050000D01*
X55796120Y-19599151D01*
X56107189Y-20064698D01*
X56511703Y-20334986D01*
X56294866Y-20437611D01*
X55918959Y-20852577D01*
X55758096Y-21240961D01*
X55880085Y-21463000D01*
X57023000Y-21463000D01*
X57023000Y-21443000D01*
X57277000Y-21443000D01*
X57277000Y-21463000D01*
X58419915Y-21463000D01*
X58541904Y-21240961D01*
X58381041Y-20852577D01*
X58005134Y-20437611D01*
X57788297Y-20334986D01*
X58192811Y-20064698D01*
X58503880Y-19599151D01*
X58613113Y-19050000D01*
X58503880Y-18500849D01*
X58192811Y-18035302D01*
X57810725Y-17780000D01*
X58192811Y-17524698D01*
X58503880Y-17059151D01*
X58613113Y-16510000D01*
X58503880Y-15960849D01*
X58192811Y-15495302D01*
X57727264Y-15184233D01*
X57178113Y-15075000D01*
X57121887Y-15075000D01*
X56572736Y-15184233D01*
X56107189Y-15495302D01*
X55796120Y-15960849D01*
X55686887Y-16510000D01*
X49723113Y-16510000D01*
X49613880Y-15960849D01*
X49302811Y-15495302D01*
X48837264Y-15184233D01*
X48288113Y-15075000D01*
X48231887Y-15075000D01*
X47682736Y-15184233D01*
X47217189Y-15495302D01*
X46906120Y-15960849D01*
X46796887Y-16510000D01*
X46893279Y-16994593D01*
X45835000Y-15936314D01*
X45835000Y-14085000D01*
X47332359Y-14085000D01*
X47332637Y-14085278D01*
X47933352Y-14334716D01*
X48583795Y-14335284D01*
X49184943Y-14086894D01*
X49186840Y-14085000D01*
X59575000Y-14085000D01*
X59575000Y-16510000D01*
X59680427Y-17040017D01*
X59954808Y-17450657D01*
X59980657Y-17489343D01*
X62520657Y-20029343D01*
X62969983Y-20329573D01*
X63500000Y-20435000D01*
X63937165Y-20435000D01*
X63727189Y-20575302D01*
X63416120Y-21040849D01*
X63306887Y-21590000D01*
X63416120Y-22139151D01*
X63727189Y-22604698D01*
X64109275Y-22860000D01*
X63727189Y-23115302D01*
X63416120Y-23580849D01*
X63306887Y-24130000D01*
X63416120Y-24679151D01*
X63727189Y-25144698D01*
X64192736Y-25455767D01*
X64741887Y-25565000D01*
X64798113Y-25565000D01*
X65347264Y-25455767D01*
X65812811Y-25144698D01*
X66123880Y-24679151D01*
X66233113Y-24130000D01*
X66123880Y-23580849D01*
X65812811Y-23115302D01*
X65430725Y-22860000D01*
X65812811Y-22604698D01*
X66123880Y-22139151D01*
X66233113Y-21590000D01*
X66123880Y-21040849D01*
X65812811Y-20575302D01*
X65430725Y-20320000D01*
X65812811Y-20064698D01*
X66123880Y-19599151D01*
X66233113Y-19050000D01*
X66123880Y-18500849D01*
X65812811Y-18035302D01*
X65430725Y-17780000D01*
X65812811Y-17524698D01*
X66123880Y-17059151D01*
X66233113Y-16510000D01*
X66123880Y-15960849D01*
X65812811Y-15495302D01*
X65347264Y-15184233D01*
X64798113Y-15075000D01*
X64741887Y-15075000D01*
X64192736Y-15184233D01*
X63727189Y-15495302D01*
X63416120Y-15960849D01*
X63306887Y-16510000D01*
X63403279Y-16994593D01*
X62345000Y-15936314D01*
X62345000Y-14085000D01*
X75626314Y-14085000D01*
X76712706Y-15171392D01*
X76228113Y-15075000D01*
X76171887Y-15075000D01*
X75622736Y-15184233D01*
X75157189Y-15495302D01*
X74846120Y-15960849D01*
X74736887Y-16510000D01*
X74846120Y-17059151D01*
X75157189Y-17524698D01*
X75539275Y-17780000D01*
X75157189Y-18035302D01*
X74846120Y-18500849D01*
X74736887Y-19050000D01*
X74846120Y-19599151D01*
X75157189Y-20064698D01*
X75539275Y-20320000D01*
X75157189Y-20575302D01*
X74846120Y-21040849D01*
X74736887Y-21590000D01*
X74846120Y-22139151D01*
X75157189Y-22604698D01*
X75539275Y-22860000D01*
X75157189Y-23115302D01*
X74958191Y-23413123D01*
X71816314Y-26555000D01*
X58535000Y-26555000D01*
X58535000Y-24522700D01*
X58613113Y-24130000D01*
X58503880Y-23580849D01*
X58192811Y-23115302D01*
X57788297Y-22845014D01*
X58005134Y-22742389D01*
X58381041Y-22327423D01*
X58541904Y-21939039D01*
X58419915Y-21717000D01*
X57277000Y-21717000D01*
X57277000Y-21737000D01*
X57023000Y-21737000D01*
X57023000Y-21717000D01*
X55880085Y-21717000D01*
X55758096Y-21939039D01*
X55918959Y-22327423D01*
X56294866Y-22742389D01*
X56511703Y-22845014D01*
X56107189Y-23115302D01*
X55796120Y-23580849D01*
X55686887Y-24130000D01*
X55765000Y-24522700D01*
X55765000Y-26555000D01*
X42025000Y-26555000D01*
X42025000Y-24522700D01*
X42103113Y-24130000D01*
X41993880Y-23580849D01*
X41682811Y-23115302D01*
X41278297Y-22845014D01*
X41495134Y-22742389D01*
X41871041Y-22327423D01*
X42031904Y-21939039D01*
X41909915Y-21717000D01*
X40767000Y-21717000D01*
X40767000Y-21737000D01*
X40513000Y-21737000D01*
X40513000Y-21717000D01*
X39370085Y-21717000D01*
X39248096Y-21939039D01*
X39408959Y-22327423D01*
X39784866Y-22742389D01*
X39790383Y-22745000D01*
X37403686Y-22745000D01*
X31168686Y-16510000D01*
X39176887Y-16510000D01*
X39286120Y-17059151D01*
X39597189Y-17524698D01*
X39979275Y-17780000D01*
X39597189Y-18035302D01*
X39286120Y-18500849D01*
X39176887Y-19050000D01*
X39286120Y-19599151D01*
X39597189Y-20064698D01*
X40001703Y-20334986D01*
X39784866Y-20437611D01*
X39408959Y-20852577D01*
X39248096Y-21240961D01*
X39370085Y-21463000D01*
X40513000Y-21463000D01*
X40513000Y-21443000D01*
X40767000Y-21443000D01*
X40767000Y-21463000D01*
X41909915Y-21463000D01*
X42031904Y-21240961D01*
X41871041Y-20852577D01*
X41495134Y-20437611D01*
X41278297Y-20334986D01*
X41682811Y-20064698D01*
X41993880Y-19599151D01*
X42103113Y-19050000D01*
X41993880Y-18500849D01*
X41682811Y-18035302D01*
X41300725Y-17780000D01*
X41682811Y-17524698D01*
X41993880Y-17059151D01*
X42103113Y-16510000D01*
X41993880Y-15960849D01*
X41682811Y-15495302D01*
X41217264Y-15184233D01*
X40668113Y-15075000D01*
X40611887Y-15075000D01*
X40062736Y-15184233D01*
X39597189Y-15495302D01*
X39286120Y-15960849D01*
X39176887Y-16510000D01*
X31168686Y-16510000D01*
X24236636Y-9577950D01*
X24139573Y-9089983D01*
X24082789Y-9005000D01*
X34986314Y-9005000D01*
X35194716Y-9213402D01*
X35194716Y-9213795D01*
X35443106Y-9814943D01*
X35902637Y-10275278D01*
X36503352Y-10524716D01*
X37153795Y-10525284D01*
X37754943Y-10276894D01*
X38215278Y-9817363D01*
X38464716Y-9216648D01*
X38465284Y-8566205D01*
X38216894Y-7965057D01*
X37757363Y-7504722D01*
X37156648Y-7255284D01*
X37153968Y-7255282D01*
X36539343Y-6640657D01*
X36356610Y-6518559D01*
X36090017Y-6340427D01*
X35560000Y-6235000D01*
X20320000Y-6235000D01*
X19789983Y-6340427D01*
X19523390Y-6518559D01*
X19340657Y-6640657D01*
X16800657Y-9180657D01*
X16500427Y-9629983D01*
X16417875Y-10045000D01*
X13242630Y-10045000D01*
X13233162Y-9994683D01*
X13094090Y-9778559D01*
X12881890Y-9633569D01*
X12630000Y-9582560D01*
X10230000Y-9582560D01*
X9994683Y-9626838D01*
X9778559Y-9765910D01*
X9633569Y-9978110D01*
X9582560Y-10230000D01*
X1397000Y-10230000D01*
X1397000Y-5481216D01*
X2615787Y-5481216D01*
X2978126Y-6358143D01*
X3648468Y-7029656D01*
X4524761Y-7393525D01*
X5473596Y-7394353D01*
X6350523Y-7032014D01*
X7022036Y-6361672D01*
X7385905Y-5485379D01*
X7386733Y-4536544D01*
X7024394Y-3659617D01*
X6810152Y-3445000D01*
X7877560Y-3445000D01*
X7877560Y-5445000D01*
X7921838Y-5680317D01*
X8060910Y-5896441D01*
X8273110Y-6041431D01*
X8525000Y-6092440D01*
X10525000Y-6092440D01*
X10760317Y-6048162D01*
X10976441Y-5909090D01*
X11073910Y-5766439D01*
X11137637Y-5830278D01*
X11738352Y-6079716D01*
X12388795Y-6080284D01*
X12989943Y-5831894D01*
X13341234Y-5481216D01*
X92615607Y-5481216D01*
X92977946Y-6358143D01*
X93648288Y-7029656D01*
X94524581Y-7393525D01*
X95473416Y-7394353D01*
X96350343Y-7032014D01*
X97021856Y-6361672D01*
X97385725Y-5485379D01*
X97386553Y-4536544D01*
X97024214Y-3659617D01*
X96353872Y-2988104D01*
X95477579Y-2624235D01*
X94528744Y-2623407D01*
X93651817Y-2985746D01*
X92980304Y-3656088D01*
X92616435Y-4532381D01*
X92615607Y-5481216D01*
X13341234Y-5481216D01*
X13450278Y-5372363D01*
X13699716Y-4771648D01*
X13700284Y-4121205D01*
X13451894Y-3520057D01*
X12992363Y-3059722D01*
X12391648Y-2810284D01*
X11741205Y-2809716D01*
X11140057Y-3058106D01*
X11073426Y-3124621D01*
X10989090Y-2993559D01*
X10776890Y-2848569D01*
X10525000Y-2797560D01*
X8525000Y-2797560D01*
X8289683Y-2841838D01*
X8073559Y-2980910D01*
X7928569Y-3193110D01*
X7877560Y-3445000D01*
X6810152Y-3445000D01*
X6354052Y-2988104D01*
X5477759Y-2624235D01*
X4528924Y-2623407D01*
X3651997Y-2985746D01*
X2980484Y-3656088D01*
X2616615Y-4532381D01*
X2615787Y-5481216D01*
X1397000Y-5481216D01*
X1397000Y-1397000D01*
X98933000Y-1397000D01*
X98933000Y-78613000D01*
X98933000Y-78613000D01*
G37*
X98933000Y-78613000D02*
X1397000Y-78613000D01*
X1397000Y-75481076D01*
X2615787Y-75481076D01*
X2978126Y-76358003D01*
X3648468Y-77029516D01*
X4524761Y-77393385D01*
X5473596Y-77394213D01*
X6350523Y-77031874D01*
X7022036Y-76361532D01*
X7385905Y-75485239D01*
X7385908Y-75481076D01*
X92615607Y-75481076D01*
X92977946Y-76358003D01*
X93648288Y-77029516D01*
X94524581Y-77393385D01*
X95473416Y-77394213D01*
X96350343Y-77031874D01*
X97021856Y-76361532D01*
X97385725Y-75485239D01*
X97386553Y-74536404D01*
X97024214Y-73659477D01*
X96353872Y-72987964D01*
X95477579Y-72624095D01*
X94528744Y-72623267D01*
X93651817Y-72985606D01*
X92980304Y-73655948D01*
X92616435Y-74532241D01*
X92615607Y-75481076D01*
X7385908Y-75481076D01*
X7386733Y-74536404D01*
X7024394Y-73659477D01*
X6354052Y-72987964D01*
X5477759Y-72624095D01*
X4528924Y-72623267D01*
X3651997Y-72985606D01*
X2980484Y-73655948D01*
X2616615Y-74532241D01*
X2615787Y-75481076D01*
X1397000Y-75481076D01*
X1397000Y-69095793D01*
X5273544Y-69095793D01*
X5353921Y-69393170D01*
X5829735Y-70194469D01*
X6575974Y-70752687D01*
X7479030Y-70982840D01*
X8229600Y-70982840D01*
X8229600Y-68724780D01*
X8483600Y-68724780D01*
X8483600Y-70982840D01*
X9234170Y-70982840D01*
X10137226Y-70752687D01*
X10883465Y-70194469D01*
X11359279Y-69393170D01*
X11439656Y-69095793D01*
X11329855Y-68724780D01*
X8483600Y-68724780D01*
X8229600Y-68724780D01*
X5383345Y-68724780D01*
X5273544Y-69095793D01*
X1397000Y-69095793D01*
X1397000Y-68099767D01*
X5273544Y-68099767D01*
X5383345Y-68470780D01*
X8229600Y-68470780D01*
X8229600Y-66212720D01*
X8483600Y-66212720D01*
X8483600Y-68470780D01*
X11329855Y-68470780D01*
X11439656Y-68099767D01*
X11359279Y-67802390D01*
X10887079Y-67007177D01*
X11793048Y-67007177D01*
X11867195Y-67253307D01*
X12404460Y-67446424D01*
X12974730Y-67419239D01*
X13375325Y-67253307D01*
X13449472Y-67007177D01*
X12621260Y-66178965D01*
X11793048Y-67007177D01*
X10887079Y-67007177D01*
X10883465Y-67001091D01*
X10137226Y-66442873D01*
X9234170Y-66212720D01*
X8483600Y-66212720D01*
X8229600Y-66212720D01*
X7479030Y-66212720D01*
X6575974Y-66442873D01*
X5829735Y-67001091D01*
X5353921Y-67802390D01*
X5273544Y-68099767D01*
X1397000Y-68099767D01*
X1397000Y-65782560D01*
X11174196Y-65782560D01*
X11201381Y-66352830D01*
X11367313Y-66753425D01*
X11613443Y-66827572D01*
X12441655Y-65999360D01*
X12800865Y-65999360D01*
X13629077Y-66827572D01*
X13875207Y-66753425D01*
X14068324Y-66216160D01*
X14041139Y-65645890D01*
X13875207Y-65245295D01*
X13629077Y-65171148D01*
X12800865Y-65999360D01*
X12441655Y-65999360D01*
X11613443Y-65171148D01*
X11367313Y-65245295D01*
X11174196Y-65782560D01*
X1397000Y-65782560D01*
X1397000Y-63784207D01*
X11185912Y-63784207D01*
X11403932Y-64311857D01*
X11807280Y-64715909D01*
X11872771Y-64743103D01*
X11867195Y-64745413D01*
X11793048Y-64991543D01*
X12621260Y-65819755D01*
X13449472Y-64991543D01*
X13375325Y-64745413D01*
X13369881Y-64743456D01*
X13433117Y-64717328D01*
X13837169Y-64313980D01*
X14056110Y-63786711D01*
X14056608Y-63215793D01*
X13838588Y-62688143D01*
X13435240Y-62284091D01*
X12907971Y-62065150D01*
X12337053Y-62064652D01*
X11809403Y-62282672D01*
X11405351Y-62686020D01*
X11186410Y-63213289D01*
X11185912Y-63784207D01*
X1397000Y-63784207D01*
X1397000Y-58897693D01*
X5273544Y-58897693D01*
X5353921Y-59195070D01*
X5829735Y-59996369D01*
X6575974Y-60554587D01*
X7479030Y-60784740D01*
X8229600Y-60784740D01*
X8229600Y-58526680D01*
X8483600Y-58526680D01*
X8483600Y-60784740D01*
X9234170Y-60784740D01*
X10137226Y-60554587D01*
X10883465Y-59996369D01*
X11359279Y-59195070D01*
X11439656Y-58897693D01*
X11329855Y-58526680D01*
X8483600Y-58526680D01*
X8229600Y-58526680D01*
X5383345Y-58526680D01*
X5273544Y-58897693D01*
X1397000Y-58897693D01*
X1397000Y-57901667D01*
X5273544Y-57901667D01*
X5383345Y-58272680D01*
X8229600Y-58272680D01*
X8229600Y-56014620D01*
X8483600Y-56014620D01*
X8483600Y-58272680D01*
X11329855Y-58272680D01*
X11439656Y-57901667D01*
X11359279Y-57604290D01*
X10883465Y-56802991D01*
X10137226Y-56244773D01*
X9234170Y-56014620D01*
X8483600Y-56014620D01*
X8229600Y-56014620D01*
X7479030Y-56014620D01*
X6575974Y-56244773D01*
X5829735Y-56802991D01*
X5353921Y-57604290D01*
X5273544Y-57901667D01*
X1397000Y-57901667D01*
X1397000Y-51950793D01*
X5273544Y-51950793D01*
X5353921Y-52248170D01*
X5829735Y-53049469D01*
X6575974Y-53607687D01*
X7479030Y-53837840D01*
X8229600Y-53837840D01*
X8229600Y-51579780D01*
X8483600Y-51579780D01*
X8483600Y-53837840D01*
X9234170Y-53837840D01*
X10137226Y-53607687D01*
X10883465Y-53049469D01*
X11359279Y-52248170D01*
X11439656Y-51950793D01*
X11329855Y-51579780D01*
X8483600Y-51579780D01*
X8229600Y-51579780D01*
X5383345Y-51579780D01*
X5273544Y-51950793D01*
X1397000Y-51950793D01*
X1397000Y-50954767D01*
X5273544Y-50954767D01*
X5383345Y-51325780D01*
X8229600Y-51325780D01*
X8229600Y-49067720D01*
X8483600Y-49067720D01*
X8483600Y-51325780D01*
X11329855Y-51325780D01*
X11439656Y-50954767D01*
X11359279Y-50657390D01*
X10887079Y-49862177D01*
X11793048Y-49862177D01*
X11867195Y-50108307D01*
X12404460Y-50301424D01*
X12974730Y-50274239D01*
X13375325Y-50108307D01*
X13449472Y-49862177D01*
X12621260Y-49033965D01*
X11793048Y-49862177D01*
X10887079Y-49862177D01*
X10883465Y-49856091D01*
X10137226Y-49297873D01*
X9234170Y-49067720D01*
X8483600Y-49067720D01*
X8229600Y-49067720D01*
X7479030Y-49067720D01*
X6575974Y-49297873D01*
X5829735Y-49856091D01*
X5353921Y-50657390D01*
X5273544Y-50954767D01*
X1397000Y-50954767D01*
X1397000Y-48637560D01*
X11174196Y-48637560D01*
X11201381Y-49207830D01*
X11367313Y-49608425D01*
X11613443Y-49682572D01*
X12441655Y-48854360D01*
X12800865Y-48854360D01*
X13629077Y-49682572D01*
X13875207Y-49608425D01*
X14068324Y-49071160D01*
X14041139Y-48500890D01*
X13875207Y-48100295D01*
X13629077Y-48026148D01*
X12800865Y-48854360D01*
X12441655Y-48854360D01*
X11613443Y-48026148D01*
X11367313Y-48100295D01*
X11174196Y-48637560D01*
X1397000Y-48637560D01*
X1397000Y-46639207D01*
X11185912Y-46639207D01*
X11403932Y-47166857D01*
X11807280Y-47570909D01*
X11872771Y-47598103D01*
X11867195Y-47600413D01*
X11793048Y-47846543D01*
X12621260Y-48674755D01*
X13449472Y-47846543D01*
X13375325Y-47600413D01*
X13369881Y-47598456D01*
X13433117Y-47572328D01*
X13837169Y-47168980D01*
X14056110Y-46641711D01*
X14056608Y-46070793D01*
X13838588Y-45543143D01*
X13435240Y-45139091D01*
X12907971Y-44920150D01*
X12337053Y-44919652D01*
X11809403Y-45137672D01*
X11405351Y-45541020D01*
X11186410Y-46068289D01*
X11185912Y-46639207D01*
X1397000Y-46639207D01*
X1397000Y-41752693D01*
X5273544Y-41752693D01*
X5353921Y-42050070D01*
X5829735Y-42851369D01*
X6575974Y-43409587D01*
X7479030Y-43639740D01*
X8229600Y-43639740D01*
X8229600Y-41381680D01*
X8483600Y-41381680D01*
X8483600Y-43639740D01*
X9234170Y-43639740D01*
X10137226Y-43409587D01*
X10883465Y-42851369D01*
X11359279Y-42050070D01*
X11439656Y-41752693D01*
X11329855Y-41381680D01*
X8483600Y-41381680D01*
X8229600Y-41381680D01*
X5383345Y-41381680D01*
X5273544Y-41752693D01*
X1397000Y-41752693D01*
X1397000Y-40756667D01*
X5273544Y-40756667D01*
X5383345Y-41127680D01*
X8229600Y-41127680D01*
X8229600Y-38869620D01*
X8483600Y-38869620D01*
X8483600Y-41127680D01*
X11329855Y-41127680D01*
X11378356Y-40963795D01*
X16144716Y-40963795D01*
X16393106Y-41564943D01*
X16395000Y-41566840D01*
X16395000Y-52070000D01*
X16500427Y-52600017D01*
X16627937Y-52790849D01*
X16800657Y-53049343D01*
X20205000Y-56453686D01*
X20205000Y-60960000D01*
X20310427Y-61490017D01*
X20610657Y-61939343D01*
X28230657Y-69559343D01*
X28679983Y-69859573D01*
X29210000Y-69965000D01*
X52070000Y-69965000D01*
X52600017Y-69859573D01*
X53049343Y-69559343D01*
X57894990Y-64713696D01*
X58192811Y-64514698D01*
X58362995Y-64260000D01*
X60645198Y-64260000D01*
X61692599Y-65307401D01*
X61939160Y-65472148D01*
X62230000Y-65530000D01*
X66040000Y-65530000D01*
X66330839Y-65472148D01*
X66577401Y-65307401D01*
X72292402Y-59592401D01*
X72457148Y-59345839D01*
X72515000Y-59055000D01*
X72515000Y-56194802D01*
X72803106Y-55906696D01*
X72814910Y-55925041D01*
X73027110Y-56070031D01*
X73279000Y-56121040D01*
X75311000Y-56121040D01*
X75546317Y-56076762D01*
X75762441Y-55937690D01*
X75907431Y-55725490D01*
X75958440Y-55473600D01*
X75958440Y-55370000D01*
X78346560Y-55370000D01*
X78346560Y-55473600D01*
X78390838Y-55708917D01*
X78529910Y-55925041D01*
X78742110Y-56070031D01*
X78994000Y-56121040D01*
X81026000Y-56121040D01*
X81261317Y-56076762D01*
X81477441Y-55937690D01*
X81622431Y-55725490D01*
X81673440Y-55473600D01*
X81673440Y-53746400D01*
X81629162Y-53511083D01*
X81490090Y-53294959D01*
X81277890Y-53149969D01*
X81236561Y-53141600D01*
X81254415Y-53129670D01*
X81579271Y-52643489D01*
X81693345Y-52070000D01*
X81579271Y-51496511D01*
X81254415Y-51010330D01*
X80939634Y-50800000D01*
X81254415Y-50589670D01*
X81579271Y-50103489D01*
X81693345Y-49530000D01*
X81579271Y-48956511D01*
X81254415Y-48470330D01*
X80768234Y-48145474D01*
X80194745Y-48031400D01*
X79825255Y-48031400D01*
X79251766Y-48145474D01*
X78765585Y-48470330D01*
X78565352Y-48770000D01*
X75739648Y-48770000D01*
X75539415Y-48470330D01*
X75053234Y-48145474D01*
X74479745Y-48031400D01*
X74110255Y-48031400D01*
X73536766Y-48145474D01*
X73050585Y-48470330D01*
X72823581Y-48810065D01*
X72782414Y-48818254D01*
X72734160Y-48827852D01*
X72487599Y-48992599D01*
X69947599Y-51532599D01*
X69782852Y-51779161D01*
X69725000Y-52070000D01*
X69725000Y-56200198D01*
X68265198Y-57660000D01*
X65982995Y-57660000D01*
X65812811Y-57405302D01*
X65430725Y-57150000D01*
X65812811Y-56894698D01*
X66123880Y-56429151D01*
X66233113Y-55880000D01*
X66123880Y-55330849D01*
X65812811Y-54865302D01*
X65347264Y-54554233D01*
X64798113Y-54445000D01*
X64741887Y-54445000D01*
X64192736Y-54554233D01*
X63727189Y-54865302D01*
X63416120Y-55330849D01*
X63306887Y-55880000D01*
X63403279Y-56364593D01*
X58129343Y-51090657D01*
X57865744Y-50914526D01*
X57680017Y-50790427D01*
X57150000Y-50685000D01*
X54902641Y-50685000D01*
X54902363Y-50684722D01*
X54301648Y-50435284D01*
X53651205Y-50434716D01*
X53050057Y-50683106D01*
X52589722Y-51142637D01*
X52340284Y-51743352D01*
X52339716Y-52393795D01*
X52588106Y-52994943D01*
X53047637Y-53455278D01*
X53648352Y-53704716D01*
X54298795Y-53705284D01*
X54899943Y-53456894D01*
X54901840Y-53455000D01*
X56576314Y-53455000D01*
X57662706Y-54541392D01*
X57178113Y-54445000D01*
X57121887Y-54445000D01*
X56572736Y-54554233D01*
X56107189Y-54865302D01*
X55796120Y-55330849D01*
X55686887Y-55880000D01*
X55796120Y-56429151D01*
X56107189Y-56894698D01*
X56489275Y-57150000D01*
X56107189Y-57405302D01*
X55796120Y-57870849D01*
X55686887Y-58420000D01*
X55796120Y-58969151D01*
X56107189Y-59434698D01*
X56511703Y-59704986D01*
X56294866Y-59807611D01*
X55918959Y-60222577D01*
X55758096Y-60610961D01*
X55880085Y-60833000D01*
X57023000Y-60833000D01*
X57023000Y-60813000D01*
X57277000Y-60813000D01*
X57277000Y-60833000D01*
X58419915Y-60833000D01*
X58541904Y-60610961D01*
X58381041Y-60222577D01*
X58005134Y-59807611D01*
X57788297Y-59704986D01*
X58192811Y-59434698D01*
X58503880Y-58969151D01*
X58613113Y-58420000D01*
X58503880Y-57870849D01*
X58192811Y-57405302D01*
X57810725Y-57150000D01*
X58192811Y-56894698D01*
X58503880Y-56429151D01*
X58613113Y-55880000D01*
X58516721Y-55395407D01*
X62520657Y-59399343D01*
X62969983Y-59699573D01*
X63500000Y-59805000D01*
X63937165Y-59805000D01*
X63727189Y-59945302D01*
X63416120Y-60410849D01*
X63306887Y-60960000D01*
X63416120Y-61509151D01*
X63727189Y-61974698D01*
X64109275Y-62230000D01*
X63727189Y-62485302D01*
X63416120Y-62950849D01*
X63306887Y-63500000D01*
X63408332Y-64010000D01*
X62544802Y-64010000D01*
X61497401Y-62962599D01*
X61250839Y-62797852D01*
X60960000Y-62740000D01*
X58362995Y-62740000D01*
X58192811Y-62485302D01*
X57788297Y-62215014D01*
X58005134Y-62112389D01*
X58381041Y-61697423D01*
X58541904Y-61309039D01*
X58419915Y-61087000D01*
X57277000Y-61087000D01*
X57277000Y-61107000D01*
X57023000Y-61107000D01*
X57023000Y-61087000D01*
X55880085Y-61087000D01*
X55758096Y-61309039D01*
X55918959Y-61697423D01*
X56294866Y-62112389D01*
X56511703Y-62215014D01*
X56107189Y-62485302D01*
X55908191Y-62783123D01*
X51496314Y-67195000D01*
X42025000Y-67195000D01*
X42025000Y-63892700D01*
X42103113Y-63500000D01*
X41993880Y-62950849D01*
X41682811Y-62485302D01*
X41278297Y-62215014D01*
X41495134Y-62112389D01*
X41871041Y-61697423D01*
X42031904Y-61309039D01*
X41909915Y-61087000D01*
X40767000Y-61087000D01*
X40767000Y-61107000D01*
X40513000Y-61107000D01*
X40513000Y-61087000D01*
X39370085Y-61087000D01*
X39248096Y-61309039D01*
X39408959Y-61697423D01*
X39784866Y-62112389D01*
X40001703Y-62215014D01*
X39597189Y-62485302D01*
X39286120Y-62950849D01*
X39176887Y-63500000D01*
X39255000Y-63892700D01*
X39255000Y-67195000D01*
X29783686Y-67195000D01*
X22975000Y-60386314D01*
X22975000Y-57265000D01*
X23850520Y-57265000D01*
X24101887Y-57315000D01*
X24158113Y-57315000D01*
X24707264Y-57205767D01*
X25172811Y-56894698D01*
X25483880Y-56429151D01*
X25593113Y-55880000D01*
X25483880Y-55330849D01*
X25172811Y-54865302D01*
X24790725Y-54610000D01*
X25172811Y-54354698D01*
X25483880Y-53889151D01*
X25593113Y-53340000D01*
X25483880Y-52790849D01*
X25172811Y-52325302D01*
X24790725Y-52070000D01*
X25172811Y-51814698D01*
X25483880Y-51349151D01*
X25593113Y-50800000D01*
X25483880Y-50250849D01*
X25172811Y-49785302D01*
X24790725Y-49530000D01*
X25172811Y-49274698D01*
X25483880Y-48809151D01*
X25593113Y-48260000D01*
X30286887Y-48260000D01*
X30396120Y-48809151D01*
X30707189Y-49274698D01*
X31089275Y-49530000D01*
X30707189Y-49785302D01*
X30396120Y-50250849D01*
X30286887Y-50800000D01*
X30396120Y-51349151D01*
X30707189Y-51814698D01*
X31089275Y-52070000D01*
X30707189Y-52325302D01*
X30396120Y-52790849D01*
X30286887Y-53340000D01*
X30396120Y-53889151D01*
X30707189Y-54354698D01*
X31089275Y-54610000D01*
X30707189Y-54865302D01*
X30396120Y-55330849D01*
X30286887Y-55880000D01*
X30396120Y-56429151D01*
X30707189Y-56894698D01*
X31172736Y-57205767D01*
X31721887Y-57315000D01*
X31778113Y-57315000D01*
X32327264Y-57205767D01*
X32792811Y-56894698D01*
X33103880Y-56429151D01*
X33213113Y-55880000D01*
X39176887Y-55880000D01*
X39286120Y-56429151D01*
X39597189Y-56894698D01*
X39979275Y-57150000D01*
X39597189Y-57405302D01*
X39286120Y-57870849D01*
X39176887Y-58420000D01*
X39286120Y-58969151D01*
X39597189Y-59434698D01*
X40001703Y-59704986D01*
X39784866Y-59807611D01*
X39408959Y-60222577D01*
X39248096Y-60610961D01*
X39370085Y-60833000D01*
X40513000Y-60833000D01*
X40513000Y-60813000D01*
X40767000Y-60813000D01*
X40767000Y-60833000D01*
X41909915Y-60833000D01*
X42031904Y-60610961D01*
X41871041Y-60222577D01*
X41495134Y-59807611D01*
X41278297Y-59704986D01*
X41682811Y-59434698D01*
X41993880Y-58969151D01*
X42103113Y-58420000D01*
X41993880Y-57870849D01*
X41682811Y-57405302D01*
X41300725Y-57150000D01*
X41682811Y-56894698D01*
X41993880Y-56429151D01*
X42103113Y-55880000D01*
X41993880Y-55330849D01*
X41682811Y-54865302D01*
X41217264Y-54554233D01*
X40668113Y-54445000D01*
X40611887Y-54445000D01*
X40062736Y-54554233D01*
X39597189Y-54865302D01*
X39286120Y-55330849D01*
X39176887Y-55880000D01*
X33213113Y-55880000D01*
X33103880Y-55330849D01*
X32792811Y-54865302D01*
X32410725Y-54610000D01*
X32792811Y-54354698D01*
X33103880Y-53889151D01*
X33213113Y-53340000D01*
X33103880Y-52790849D01*
X32792811Y-52325302D01*
X32582835Y-52185000D01*
X37526314Y-52185000D01*
X38390657Y-53049343D01*
X38839983Y-53349573D01*
X39370000Y-53455000D01*
X44335000Y-53455000D01*
X44335000Y-57150000D01*
X44440427Y-57680017D01*
X44588529Y-57901667D01*
X44740657Y-58129343D01*
X46010657Y-59399343D01*
X46459983Y-59699573D01*
X46990000Y-59805000D01*
X47427165Y-59805000D01*
X47217189Y-59945302D01*
X46906120Y-60410849D01*
X46796887Y-60960000D01*
X46906120Y-61509151D01*
X47217189Y-61974698D01*
X47599275Y-62230000D01*
X47217189Y-62485302D01*
X46906120Y-62950849D01*
X46796887Y-63500000D01*
X46906120Y-64049151D01*
X47217189Y-64514698D01*
X47682736Y-64825767D01*
X48231887Y-64935000D01*
X48288113Y-64935000D01*
X48837264Y-64825767D01*
X49302811Y-64514698D01*
X49613880Y-64049151D01*
X49723113Y-63500000D01*
X49613880Y-62950849D01*
X49302811Y-62485302D01*
X48920725Y-62230000D01*
X49302811Y-61974698D01*
X49613880Y-61509151D01*
X49723113Y-60960000D01*
X49613880Y-60410849D01*
X49302811Y-59945302D01*
X48920725Y-59690000D01*
X49302811Y-59434698D01*
X49613880Y-58969151D01*
X49723113Y-58420000D01*
X49613880Y-57870849D01*
X49302811Y-57405302D01*
X48920725Y-57150000D01*
X49302811Y-56894698D01*
X49613880Y-56429151D01*
X49723113Y-55880000D01*
X49613880Y-55330849D01*
X49302811Y-54865302D01*
X48837264Y-54554233D01*
X48288113Y-54445000D01*
X48231887Y-54445000D01*
X47682736Y-54554233D01*
X47217189Y-54865302D01*
X47105000Y-55033204D01*
X47105000Y-53455000D01*
X47967359Y-53455000D01*
X47967637Y-53455278D01*
X48568352Y-53704716D01*
X49218795Y-53705284D01*
X49819943Y-53456894D01*
X50280278Y-52997363D01*
X50529716Y-52396648D01*
X50530284Y-51746205D01*
X50281894Y-51145057D01*
X49822363Y-50684722D01*
X49221648Y-50435284D01*
X48571205Y-50434716D01*
X47970057Y-50683106D01*
X47968160Y-50685000D01*
X40755000Y-50685000D01*
X40755000Y-48575435D01*
X40794510Y-48602431D01*
X41046400Y-48653440D01*
X42773600Y-48653440D01*
X43008917Y-48609162D01*
X43225041Y-48470090D01*
X43370031Y-48257890D01*
X43378400Y-48216561D01*
X43390330Y-48234415D01*
X43876511Y-48559271D01*
X44450000Y-48673345D01*
X45023489Y-48559271D01*
X45509670Y-48234415D01*
X45720000Y-47919634D01*
X45930330Y-48234415D01*
X46416511Y-48559271D01*
X46990000Y-48673345D01*
X47563489Y-48559271D01*
X48049670Y-48234415D01*
X48374526Y-47748234D01*
X48471540Y-47260510D01*
X56851810Y-47260510D01*
X56851810Y-49259490D01*
X56896088Y-49494807D01*
X57035160Y-49710931D01*
X57247360Y-49855921D01*
X57499250Y-49906930D01*
X59498230Y-49906930D01*
X59733547Y-49862652D01*
X59949671Y-49723580D01*
X60094661Y-49511380D01*
X60145670Y-49259490D01*
X60145670Y-47260510D01*
X60101392Y-47025193D01*
X59962320Y-46809069D01*
X59750120Y-46664079D01*
X59498230Y-46613070D01*
X57499250Y-46613070D01*
X57263933Y-46657348D01*
X57047809Y-46796420D01*
X56902819Y-47008620D01*
X56851810Y-47260510D01*
X48471540Y-47260510D01*
X48488600Y-47174745D01*
X48488600Y-46805255D01*
X48374526Y-46231766D01*
X48049670Y-45745585D01*
X47563489Y-45420729D01*
X46990000Y-45306655D01*
X46416511Y-45420729D01*
X45930330Y-45745585D01*
X45720000Y-46060366D01*
X45509670Y-45745585D01*
X45023489Y-45420729D01*
X44450000Y-45306655D01*
X43876511Y-45420729D01*
X43390330Y-45745585D01*
X43380757Y-45759913D01*
X43376762Y-45738683D01*
X43237690Y-45522559D01*
X43025490Y-45377569D01*
X42773600Y-45326560D01*
X41046400Y-45326560D01*
X40811083Y-45370838D01*
X40755000Y-45406926D01*
X40755000Y-44688935D01*
X52133291Y-44688935D01*
X52316582Y-45132535D01*
X52655680Y-45472225D01*
X53098959Y-45656290D01*
X53578935Y-45656709D01*
X54022535Y-45473418D01*
X54286413Y-45210000D01*
X64455198Y-45210000D01*
X66854330Y-47609133D01*
X66854330Y-49259490D01*
X66898608Y-49494807D01*
X67037680Y-49710931D01*
X67249880Y-49855921D01*
X67501770Y-49906930D01*
X69500750Y-49906930D01*
X69736067Y-49862652D01*
X69952191Y-49723580D01*
X70097181Y-49511380D01*
X70148190Y-49259490D01*
X70148190Y-47260510D01*
X70103912Y-47025193D01*
X69964840Y-46809069D01*
X69752640Y-46664079D01*
X69500750Y-46613070D01*
X68007873Y-46613070D01*
X67633136Y-46238333D01*
X88890344Y-46238333D01*
X88970721Y-46535710D01*
X89446535Y-47337009D01*
X90192774Y-47895227D01*
X91095830Y-48125380D01*
X91846400Y-48125380D01*
X91846400Y-45867320D01*
X92100400Y-45867320D01*
X92100400Y-48125380D01*
X92850970Y-48125380D01*
X93754026Y-47895227D01*
X94500265Y-47337009D01*
X94976079Y-46535710D01*
X95056456Y-46238333D01*
X94946655Y-45867320D01*
X92100400Y-45867320D01*
X91846400Y-45867320D01*
X89000145Y-45867320D01*
X88890344Y-46238333D01*
X67633136Y-46238333D01*
X66637110Y-45242307D01*
X88890344Y-45242307D01*
X89000145Y-45613320D01*
X91846400Y-45613320D01*
X91846400Y-43355260D01*
X92100400Y-43355260D01*
X92100400Y-45613320D01*
X94946655Y-45613320D01*
X95056456Y-45242307D01*
X94976079Y-44944930D01*
X94500265Y-44143631D01*
X93754026Y-43585413D01*
X92850970Y-43355260D01*
X92100400Y-43355260D01*
X91846400Y-43355260D01*
X91095830Y-43355260D01*
X90192774Y-43585413D01*
X89446535Y-44143631D01*
X88970721Y-44944930D01*
X88890344Y-45242307D01*
X66637110Y-45242307D01*
X65307401Y-43912599D01*
X65060839Y-43747852D01*
X64770000Y-43690000D01*
X54286088Y-43690000D01*
X54024320Y-43427775D01*
X54003031Y-43418935D01*
X72453291Y-43418935D01*
X72636582Y-43862535D01*
X72975680Y-44202225D01*
X73418959Y-44386290D01*
X73898935Y-44386709D01*
X74342535Y-44203418D01*
X74682225Y-43864320D01*
X74866290Y-43421041D01*
X74866291Y-43418935D01*
X78168291Y-43418935D01*
X78351582Y-43862535D01*
X78690680Y-44202225D01*
X79133959Y-44386290D01*
X79613935Y-44386709D01*
X80057535Y-44203418D01*
X80397225Y-43864320D01*
X80581290Y-43421041D01*
X80581709Y-42941065D01*
X80398418Y-42497465D01*
X80059320Y-42157775D01*
X79616041Y-41973710D01*
X79136065Y-41973291D01*
X78692465Y-42156582D01*
X78352775Y-42495680D01*
X78168710Y-42938959D01*
X78168291Y-43418935D01*
X74866291Y-43418935D01*
X74866709Y-42941065D01*
X74683418Y-42497465D01*
X74344320Y-42157775D01*
X73901041Y-41973710D01*
X73421065Y-41973291D01*
X72977465Y-42156582D01*
X72637775Y-42495680D01*
X72453710Y-42938959D01*
X72453291Y-43418935D01*
X54003031Y-43418935D01*
X53581041Y-43243710D01*
X53101065Y-43243291D01*
X52657465Y-43426582D01*
X52317775Y-43765680D01*
X52133710Y-44208959D01*
X52133291Y-44688935D01*
X40755000Y-44688935D01*
X40755000Y-42545000D01*
X40649573Y-42014983D01*
X40349343Y-41565657D01*
X38465284Y-39681598D01*
X38465284Y-39681205D01*
X38435423Y-39608935D01*
X43243291Y-39608935D01*
X43426582Y-40052535D01*
X43765680Y-40392225D01*
X44208959Y-40576290D01*
X44688935Y-40576709D01*
X44982877Y-40455255D01*
X59461400Y-40455255D01*
X59461400Y-40824745D01*
X59575474Y-41398234D01*
X59900330Y-41884415D01*
X60386511Y-42209271D01*
X60960000Y-42323345D01*
X61533489Y-42209271D01*
X62019670Y-41884415D01*
X62230000Y-41569634D01*
X62440330Y-41884415D01*
X62926511Y-42209271D01*
X63500000Y-42323345D01*
X64073489Y-42209271D01*
X64559670Y-41884415D01*
X64569243Y-41870087D01*
X64573238Y-41891317D01*
X64712310Y-42107441D01*
X64924510Y-42252431D01*
X65176400Y-42303440D01*
X66903600Y-42303440D01*
X67138917Y-42259162D01*
X67355041Y-42120090D01*
X67500031Y-41907890D01*
X67551040Y-41656000D01*
X67551040Y-39624000D01*
X67506762Y-39388683D01*
X67367690Y-39172559D01*
X67341773Y-39154850D01*
X74065390Y-39154850D01*
X74065390Y-40854110D01*
X74109668Y-41089427D01*
X74248740Y-41305551D01*
X74460940Y-41450541D01*
X74712830Y-41501550D01*
X76412090Y-41501550D01*
X76647407Y-41457272D01*
X76863531Y-41318200D01*
X77008521Y-41106000D01*
X77025356Y-41022865D01*
X77265466Y-41263394D01*
X77810933Y-41489892D01*
X78401556Y-41490408D01*
X78947417Y-41264862D01*
X79288667Y-40924207D01*
X86273392Y-40924207D01*
X86491412Y-41451857D01*
X86894760Y-41855909D01*
X87422029Y-42074850D01*
X87992947Y-42075348D01*
X88520597Y-41857328D01*
X88924649Y-41453980D01*
X89143590Y-40926711D01*
X89144088Y-40355793D01*
X88926068Y-39828143D01*
X88522720Y-39424091D01*
X88457229Y-39396897D01*
X88462805Y-39394587D01*
X88536952Y-39148457D01*
X87708740Y-38320245D01*
X86880528Y-39148457D01*
X86954675Y-39394587D01*
X86960119Y-39396544D01*
X86896883Y-39422672D01*
X86492831Y-39826020D01*
X86273890Y-40353289D01*
X86273392Y-40924207D01*
X79288667Y-40924207D01*
X79365414Y-40847594D01*
X79591912Y-40302127D01*
X79592428Y-39711504D01*
X79366882Y-39165643D01*
X78949614Y-38747646D01*
X78404147Y-38521148D01*
X77813524Y-38520632D01*
X77267663Y-38746178D01*
X77027705Y-38985717D01*
X77015252Y-38919533D01*
X76876180Y-38703409D01*
X76663980Y-38558419D01*
X76412090Y-38507410D01*
X74712830Y-38507410D01*
X74477513Y-38551688D01*
X74261389Y-38690760D01*
X74116399Y-38902960D01*
X74065390Y-39154850D01*
X67341773Y-39154850D01*
X67155490Y-39027569D01*
X66903600Y-38976560D01*
X65176400Y-38976560D01*
X64941083Y-39020838D01*
X64724959Y-39159910D01*
X64579969Y-39372110D01*
X64571600Y-39413439D01*
X64559670Y-39395585D01*
X64073489Y-39070729D01*
X63500000Y-38956655D01*
X62926511Y-39070729D01*
X62440330Y-39395585D01*
X62230000Y-39710366D01*
X62019670Y-39395585D01*
X61533489Y-39070729D01*
X60960000Y-38956655D01*
X60386511Y-39070729D01*
X59900330Y-39395585D01*
X59575474Y-39881766D01*
X59461400Y-40455255D01*
X44982877Y-40455255D01*
X45132535Y-40393418D01*
X45472225Y-40054320D01*
X45656290Y-39611041D01*
X45656709Y-39131065D01*
X45473418Y-38687465D01*
X45134320Y-38347775D01*
X45113031Y-38338935D01*
X52133291Y-38338935D01*
X52316582Y-38782535D01*
X52655680Y-39122225D01*
X53098959Y-39306290D01*
X53578935Y-39306709D01*
X54022535Y-39123418D01*
X54362225Y-38784320D01*
X54546290Y-38341041D01*
X54546654Y-37923840D01*
X86261676Y-37923840D01*
X86288861Y-38494110D01*
X86454793Y-38894705D01*
X86700923Y-38968852D01*
X87529135Y-38140640D01*
X87888345Y-38140640D01*
X88716557Y-38968852D01*
X88962687Y-38894705D01*
X89155804Y-38357440D01*
X89128619Y-37787170D01*
X88962687Y-37386575D01*
X88716557Y-37312428D01*
X87888345Y-38140640D01*
X87529135Y-38140640D01*
X86700923Y-37312428D01*
X86454793Y-37386575D01*
X86261676Y-37923840D01*
X54546654Y-37923840D01*
X54546709Y-37861065D01*
X54363418Y-37417465D01*
X54079273Y-37132823D01*
X86880528Y-37132823D01*
X87708740Y-37961035D01*
X88536952Y-37132823D01*
X88462805Y-36886693D01*
X87925540Y-36693576D01*
X87355270Y-36720761D01*
X86954675Y-36886693D01*
X86880528Y-37132823D01*
X54079273Y-37132823D01*
X54024320Y-37077775D01*
X53581041Y-36893710D01*
X53101065Y-36893291D01*
X52657465Y-37076582D01*
X52317775Y-37415680D01*
X52133710Y-37858959D01*
X52133291Y-38338935D01*
X45113031Y-38338935D01*
X44691041Y-38163710D01*
X44211065Y-38163291D01*
X43767465Y-38346582D01*
X43427775Y-38685680D01*
X43243710Y-39128959D01*
X43243291Y-39608935D01*
X38435423Y-39608935D01*
X38216894Y-39080057D01*
X37757363Y-38619722D01*
X37156648Y-38370284D01*
X36506205Y-38369716D01*
X35905057Y-38618106D01*
X35444722Y-39077637D01*
X35195284Y-39678352D01*
X35194716Y-40328795D01*
X35443106Y-40929943D01*
X35902637Y-41390278D01*
X36503352Y-41639716D01*
X36506032Y-41639718D01*
X37985000Y-43118686D01*
X37985000Y-49415000D01*
X32582835Y-49415000D01*
X32792811Y-49274698D01*
X33103880Y-48809151D01*
X33213113Y-48260000D01*
X33103880Y-47710849D01*
X32792811Y-47245302D01*
X32327264Y-46934233D01*
X31778113Y-46825000D01*
X31721887Y-46825000D01*
X31172736Y-46934233D01*
X30707189Y-47245302D01*
X30396120Y-47710849D01*
X30286887Y-48260000D01*
X25593113Y-48260000D01*
X25483880Y-47710849D01*
X25172811Y-47245302D01*
X24707264Y-46934233D01*
X24158113Y-46825000D01*
X24101887Y-46825000D01*
X23552736Y-46934233D01*
X23087189Y-47245302D01*
X22776120Y-47710849D01*
X22666887Y-48260000D01*
X22776120Y-48809151D01*
X23087189Y-49274698D01*
X23469275Y-49530000D01*
X23087189Y-49785302D01*
X22776120Y-50250849D01*
X22666887Y-50800000D01*
X22776120Y-51349151D01*
X23087189Y-51814698D01*
X23469275Y-52070000D01*
X23087189Y-52325302D01*
X22776120Y-52790849D01*
X22666887Y-53340000D01*
X22776120Y-53889151D01*
X23087189Y-54354698D01*
X23297165Y-54495000D01*
X22163686Y-54495000D01*
X19165000Y-51496314D01*
X19165000Y-41567641D01*
X19165278Y-41567363D01*
X19414716Y-40966648D01*
X19415284Y-40316205D01*
X19166894Y-39715057D01*
X18707363Y-39254722D01*
X18106648Y-39005284D01*
X17456205Y-39004716D01*
X16855057Y-39253106D01*
X16394722Y-39712637D01*
X16145284Y-40313352D01*
X16144716Y-40963795D01*
X11378356Y-40963795D01*
X11439656Y-40756667D01*
X11359279Y-40459290D01*
X10883465Y-39657991D01*
X10137226Y-39099773D01*
X9234170Y-38869620D01*
X8483600Y-38869620D01*
X8229600Y-38869620D01*
X7479030Y-38869620D01*
X6575974Y-39099773D01*
X5829735Y-39657991D01*
X5353921Y-40459290D01*
X5273544Y-40756667D01*
X1397000Y-40756667D01*
X1397000Y-34805793D01*
X5273544Y-34805793D01*
X5353921Y-35103170D01*
X5829735Y-35904469D01*
X6575974Y-36462687D01*
X7479030Y-36692840D01*
X8229600Y-36692840D01*
X8229600Y-34434780D01*
X8483600Y-34434780D01*
X8483600Y-36692840D01*
X9234170Y-36692840D01*
X10137226Y-36462687D01*
X10883465Y-35904469D01*
X11359279Y-35103170D01*
X11439656Y-34805793D01*
X11329855Y-34434780D01*
X8483600Y-34434780D01*
X8229600Y-34434780D01*
X5383345Y-34434780D01*
X5273544Y-34805793D01*
X1397000Y-34805793D01*
X1397000Y-33809767D01*
X5273544Y-33809767D01*
X5383345Y-34180780D01*
X8229600Y-34180780D01*
X8229600Y-31922720D01*
X8483600Y-31922720D01*
X8483600Y-34180780D01*
X11329855Y-34180780D01*
X11439656Y-33809767D01*
X11359279Y-33512390D01*
X10887079Y-32717177D01*
X11793048Y-32717177D01*
X11867195Y-32963307D01*
X12404460Y-33156424D01*
X12974730Y-33129239D01*
X13375325Y-32963307D01*
X13449472Y-32717177D01*
X12621260Y-31888965D01*
X11793048Y-32717177D01*
X10887079Y-32717177D01*
X10883465Y-32711091D01*
X10137226Y-32152873D01*
X9234170Y-31922720D01*
X8483600Y-31922720D01*
X8229600Y-31922720D01*
X7479030Y-31922720D01*
X6575974Y-32152873D01*
X5829735Y-32711091D01*
X5353921Y-33512390D01*
X5273544Y-33809767D01*
X1397000Y-33809767D01*
X1397000Y-31492560D01*
X11174196Y-31492560D01*
X11201381Y-32062830D01*
X11367313Y-32463425D01*
X11613443Y-32537572D01*
X12441655Y-31709360D01*
X12800865Y-31709360D01*
X13629077Y-32537572D01*
X13875207Y-32463425D01*
X14068324Y-31926160D01*
X14041139Y-31355890D01*
X13875207Y-30955295D01*
X13629077Y-30881148D01*
X12800865Y-31709360D01*
X12441655Y-31709360D01*
X11613443Y-30881148D01*
X11367313Y-30955295D01*
X11174196Y-31492560D01*
X1397000Y-31492560D01*
X1397000Y-29494207D01*
X11185912Y-29494207D01*
X11403932Y-30021857D01*
X11807280Y-30425909D01*
X11872771Y-30453103D01*
X11867195Y-30455413D01*
X11793048Y-30701543D01*
X12621260Y-31529755D01*
X13449472Y-30701543D01*
X13375325Y-30455413D01*
X13369881Y-30453456D01*
X13433117Y-30427328D01*
X13837169Y-30023980D01*
X14056110Y-29496711D01*
X14056608Y-28925793D01*
X13838588Y-28398143D01*
X13435240Y-27994091D01*
X12907971Y-27775150D01*
X12337053Y-27774652D01*
X11809403Y-27992672D01*
X11405351Y-28396020D01*
X11186410Y-28923289D01*
X11185912Y-29494207D01*
X1397000Y-29494207D01*
X1397000Y-24607693D01*
X5273544Y-24607693D01*
X5353921Y-24905070D01*
X5829735Y-25706369D01*
X6575974Y-26264587D01*
X7479030Y-26494740D01*
X8229600Y-26494740D01*
X8229600Y-24236680D01*
X8483600Y-24236680D01*
X8483600Y-26494740D01*
X9234170Y-26494740D01*
X10137226Y-26264587D01*
X10883465Y-25706369D01*
X11359279Y-24905070D01*
X11439656Y-24607693D01*
X11329855Y-24236680D01*
X8483600Y-24236680D01*
X8229600Y-24236680D01*
X5383345Y-24236680D01*
X5273544Y-24607693D01*
X1397000Y-24607693D01*
X1397000Y-23611667D01*
X5273544Y-23611667D01*
X5383345Y-23982680D01*
X8229600Y-23982680D01*
X8229600Y-21724620D01*
X8483600Y-21724620D01*
X8483600Y-23982680D01*
X11329855Y-23982680D01*
X11439656Y-23611667D01*
X11359279Y-23314290D01*
X10883465Y-22512991D01*
X10137226Y-21954773D01*
X9234170Y-21724620D01*
X8483600Y-21724620D01*
X8229600Y-21724620D01*
X7479030Y-21724620D01*
X6575974Y-21954773D01*
X5829735Y-22512991D01*
X5353921Y-23314290D01*
X5273544Y-23611667D01*
X1397000Y-23611667D01*
X1397000Y-18793403D01*
X9594682Y-18793403D01*
X9873455Y-19468086D01*
X10389199Y-19984730D01*
X11063395Y-20264681D01*
X11793403Y-20265318D01*
X12468086Y-19986545D01*
X12639930Y-19815000D01*
X12776314Y-19815000D01*
X13085657Y-20124343D01*
X13534984Y-20424574D01*
X14065000Y-20530000D01*
X16395000Y-20530000D01*
X16395000Y-32727359D01*
X16394722Y-32727637D01*
X16145284Y-33328352D01*
X16144716Y-33978795D01*
X16393106Y-34579943D01*
X16852637Y-35040278D01*
X17453352Y-35289716D01*
X18103795Y-35290284D01*
X18704943Y-35041894D01*
X19165278Y-34582363D01*
X19174352Y-34560510D01*
X23831810Y-34560510D01*
X23831810Y-36559490D01*
X23876088Y-36794807D01*
X24015160Y-37010931D01*
X24227360Y-37155921D01*
X24479250Y-37206930D01*
X26478230Y-37206930D01*
X26713547Y-37162652D01*
X26929671Y-37023580D01*
X27074661Y-36811380D01*
X27125670Y-36559490D01*
X27125670Y-34560510D01*
X27081392Y-34325193D01*
X26942320Y-34109069D01*
X26730120Y-33964079D01*
X26478230Y-33913070D01*
X24479250Y-33913070D01*
X24243933Y-33957348D01*
X24027809Y-34096420D01*
X23882819Y-34308620D01*
X23831810Y-34560510D01*
X19174352Y-34560510D01*
X19414716Y-33981648D01*
X19415284Y-33331205D01*
X19166894Y-32730057D01*
X19165000Y-32728160D01*
X19165000Y-28845510D01*
X23831810Y-28845510D01*
X23831810Y-30844490D01*
X23876088Y-31079807D01*
X24015160Y-31295931D01*
X24227360Y-31440921D01*
X24479250Y-31491930D01*
X26478230Y-31491930D01*
X26713547Y-31447652D01*
X26929671Y-31308580D01*
X27074661Y-31096380D01*
X27125670Y-30844490D01*
X27125670Y-28845510D01*
X27081392Y-28610193D01*
X26942320Y-28394069D01*
X26730120Y-28249079D01*
X26478230Y-28198070D01*
X24479250Y-28198070D01*
X24243933Y-28242348D01*
X24027809Y-28381420D01*
X23882819Y-28593620D01*
X23831810Y-28845510D01*
X19165000Y-28845510D01*
X19165000Y-19145000D01*
X19059573Y-18614983D01*
X18838661Y-18284365D01*
X18968327Y-18154698D01*
X19065000Y-17921309D01*
X19065000Y-17430750D01*
X18906250Y-17272000D01*
X17907000Y-17272000D01*
X17907000Y-17292000D01*
X17653000Y-17292000D01*
X17653000Y-17272000D01*
X16653750Y-17272000D01*
X16495000Y-17430750D01*
X16495000Y-17760000D01*
X14638686Y-17760000D01*
X14329343Y-17450657D01*
X14241428Y-17391914D01*
X13880017Y-17150427D01*
X13350000Y-17045000D01*
X12640235Y-17045000D01*
X12470801Y-16875270D01*
X12013043Y-16685192D01*
X12424435Y-16514788D01*
X12486983Y-16368691D01*
X16495000Y-16368691D01*
X16495000Y-16859250D01*
X16653750Y-17018000D01*
X17653000Y-17018000D01*
X17653000Y-16018750D01*
X17907000Y-16018750D01*
X17907000Y-17018000D01*
X18906250Y-17018000D01*
X19065000Y-16859250D01*
X19065000Y-16368691D01*
X18968327Y-16135302D01*
X18789699Y-15956673D01*
X18556310Y-15860000D01*
X18065750Y-15860000D01*
X17907000Y-16018750D01*
X17653000Y-16018750D01*
X17494250Y-15860000D01*
X17003690Y-15860000D01*
X16770301Y-15956673D01*
X16591673Y-16135302D01*
X16495000Y-16368691D01*
X12486983Y-16368691D01*
X12547570Y-16227175D01*
X11430000Y-15109605D01*
X10312430Y-16227175D01*
X10435565Y-16514788D01*
X10864458Y-16678204D01*
X10391914Y-16873455D01*
X9875270Y-17389199D01*
X9595319Y-18063395D01*
X9594682Y-18793403D01*
X1397000Y-18793403D01*
X1397000Y-14617734D01*
X9585293Y-14617734D01*
X9606214Y-15347443D01*
X9845212Y-15924435D01*
X10132825Y-16047570D01*
X11250395Y-14930000D01*
X11609605Y-14930000D01*
X12727175Y-16047570D01*
X13014788Y-15924435D01*
X13274707Y-15242266D01*
X13253786Y-14512557D01*
X13177761Y-14329016D01*
X17060590Y-14329016D01*
X17116271Y-14559611D01*
X17599078Y-14727622D01*
X18109428Y-14698083D01*
X18443729Y-14559611D01*
X18499410Y-14329016D01*
X17780000Y-13609605D01*
X17060590Y-14329016D01*
X13177761Y-14329016D01*
X13014788Y-13935565D01*
X12727175Y-13812430D01*
X11609605Y-14930000D01*
X11250395Y-14930000D01*
X10132825Y-13812430D01*
X9845212Y-13935565D01*
X9585293Y-14617734D01*
X1397000Y-14617734D01*
X1397000Y-10230000D01*
X9582560Y-10230000D01*
X9582560Y-12630000D01*
X9626838Y-12865317D01*
X9765910Y-13081441D01*
X9978110Y-13226431D01*
X10230000Y-13277440D01*
X10599181Y-13277440D01*
X10435565Y-13345212D01*
X10312430Y-13632825D01*
X11430000Y-14750395D01*
X12547570Y-13632825D01*
X12424435Y-13345212D01*
X12246564Y-13277440D01*
X12630000Y-13277440D01*
X12865317Y-13233162D01*
X13081441Y-13094090D01*
X13226431Y-12881890D01*
X13239977Y-12815000D01*
X16633432Y-12815000D01*
X16482378Y-13249078D01*
X16511917Y-13759428D01*
X16650389Y-14093729D01*
X16880984Y-14149410D01*
X17600395Y-13430000D01*
X17586252Y-13415858D01*
X17765858Y-13236252D01*
X17780000Y-13250395D01*
X17794142Y-13236252D01*
X17973748Y-13415858D01*
X17959605Y-13430000D01*
X18679016Y-14149410D01*
X18909611Y-14093729D01*
X19077622Y-13610922D01*
X19048083Y-13100572D01*
X18929795Y-12815000D01*
X19111314Y-12815000D01*
X29095000Y-22798686D01*
X29095000Y-38100000D01*
X29200427Y-38630017D01*
X29418680Y-38956655D01*
X29500657Y-39079343D01*
X30749716Y-40328402D01*
X30749716Y-40328795D01*
X30998106Y-40929943D01*
X31457637Y-41390278D01*
X32058352Y-41639716D01*
X32708795Y-41640284D01*
X33309943Y-41391894D01*
X33770278Y-40932363D01*
X34019716Y-40331648D01*
X34020284Y-39681205D01*
X33771894Y-39080057D01*
X33312363Y-38619722D01*
X32711648Y-38370284D01*
X32708968Y-38370282D01*
X31865000Y-37526314D01*
X31865000Y-28845510D01*
X33834330Y-28845510D01*
X33834330Y-30844490D01*
X33878608Y-31079807D01*
X34017680Y-31295931D01*
X34229880Y-31440921D01*
X34481770Y-31491930D01*
X34721260Y-31491930D01*
X34721260Y-33913070D01*
X34481770Y-33913070D01*
X34246453Y-33957348D01*
X34030329Y-34096420D01*
X33885339Y-34308620D01*
X33834330Y-34560510D01*
X33834330Y-36559490D01*
X33878608Y-36794807D01*
X34017680Y-37010931D01*
X34229880Y-37155921D01*
X34481770Y-37206930D01*
X36480750Y-37206930D01*
X36716067Y-37162652D01*
X36932191Y-37023580D01*
X37077181Y-36811380D01*
X37128190Y-36559490D01*
X37128190Y-36040233D01*
X88890344Y-36040233D01*
X88970721Y-36337610D01*
X89446535Y-37138909D01*
X90192774Y-37697127D01*
X91095830Y-37927280D01*
X91846400Y-37927280D01*
X91846400Y-35669220D01*
X92100400Y-35669220D01*
X92100400Y-37927280D01*
X92850970Y-37927280D01*
X93754026Y-37697127D01*
X94500265Y-37138909D01*
X94976079Y-36337610D01*
X95056456Y-36040233D01*
X94946655Y-35669220D01*
X92100400Y-35669220D01*
X91846400Y-35669220D01*
X89000145Y-35669220D01*
X88890344Y-36040233D01*
X37128190Y-36040233D01*
X37128190Y-35044207D01*
X88890344Y-35044207D01*
X89000145Y-35415220D01*
X91846400Y-35415220D01*
X91846400Y-33157160D01*
X92100400Y-33157160D01*
X92100400Y-35415220D01*
X94946655Y-35415220D01*
X95056456Y-35044207D01*
X94976079Y-34746830D01*
X94500265Y-33945531D01*
X93754026Y-33387313D01*
X92850970Y-33157160D01*
X92100400Y-33157160D01*
X91846400Y-33157160D01*
X91095830Y-33157160D01*
X90192774Y-33387313D01*
X89446535Y-33945531D01*
X88970721Y-34746830D01*
X88890344Y-35044207D01*
X37128190Y-35044207D01*
X37128190Y-34560510D01*
X37083912Y-34325193D01*
X36944840Y-34109069D01*
X36732640Y-33964079D01*
X36480750Y-33913070D01*
X36241260Y-33913070D01*
X36241260Y-31491930D01*
X36480750Y-31491930D01*
X36716067Y-31447652D01*
X36932191Y-31308580D01*
X37077181Y-31096380D01*
X37128190Y-30844490D01*
X37128190Y-30734000D01*
X40398960Y-30734000D01*
X40398960Y-32766000D01*
X40443238Y-33001317D01*
X40582310Y-33217441D01*
X40794510Y-33362431D01*
X41046400Y-33413440D01*
X42773600Y-33413440D01*
X43008917Y-33369162D01*
X43225041Y-33230090D01*
X43370031Y-33017890D01*
X43378400Y-32976561D01*
X43390330Y-32994415D01*
X43876511Y-33319271D01*
X44450000Y-33433345D01*
X45023489Y-33319271D01*
X45509670Y-32994415D01*
X45720000Y-32679634D01*
X45930330Y-32994415D01*
X46416511Y-33319271D01*
X46990000Y-33433345D01*
X47563489Y-33319271D01*
X47653788Y-33258935D01*
X52133291Y-33258935D01*
X52316582Y-33702535D01*
X52655680Y-34042225D01*
X53098959Y-34226290D01*
X53578935Y-34226709D01*
X54022535Y-34043418D01*
X54362225Y-33704320D01*
X54546290Y-33261041D01*
X54546709Y-32781065D01*
X54363418Y-32337465D01*
X54024320Y-31997775D01*
X53581041Y-31813710D01*
X53101065Y-31813291D01*
X52657465Y-31996582D01*
X52317775Y-32335680D01*
X52133710Y-32778959D01*
X52133291Y-33258935D01*
X47653788Y-33258935D01*
X48049670Y-32994415D01*
X48374526Y-32508234D01*
X48488600Y-31934745D01*
X48488600Y-31565255D01*
X48374526Y-30991766D01*
X48202293Y-30734000D01*
X59448960Y-30734000D01*
X59448960Y-32766000D01*
X59493238Y-33001317D01*
X59632310Y-33217441D01*
X59844510Y-33362431D01*
X60096400Y-33413440D01*
X61823600Y-33413440D01*
X62058917Y-33369162D01*
X62275041Y-33230090D01*
X62420031Y-33017890D01*
X62428400Y-32976561D01*
X62440330Y-32994415D01*
X62926511Y-33319271D01*
X63500000Y-33433345D01*
X64073489Y-33319271D01*
X64559670Y-32994415D01*
X64770000Y-32679634D01*
X64980330Y-32994415D01*
X65466511Y-33319271D01*
X66040000Y-33433345D01*
X66613489Y-33319271D01*
X67099670Y-32994415D01*
X67424526Y-32508234D01*
X67538600Y-31934745D01*
X67538600Y-31565255D01*
X67424526Y-30991766D01*
X67099670Y-30505585D01*
X66613489Y-30180729D01*
X66401170Y-30138496D01*
X74077572Y-30138496D01*
X74303118Y-30684357D01*
X74720386Y-31102354D01*
X75265853Y-31328852D01*
X75856476Y-31329368D01*
X76402337Y-31103822D01*
X76642295Y-30864283D01*
X76654748Y-30930467D01*
X76793820Y-31146591D01*
X77006020Y-31291581D01*
X77257910Y-31342590D01*
X78957170Y-31342590D01*
X79192487Y-31298312D01*
X79408611Y-31159240D01*
X79553601Y-30947040D01*
X79604610Y-30695150D01*
X79604610Y-28995890D01*
X79560332Y-28760573D01*
X79421260Y-28544449D01*
X79209060Y-28399459D01*
X78957170Y-28348450D01*
X77257910Y-28348450D01*
X77022593Y-28392728D01*
X76806469Y-28531800D01*
X76661479Y-28744000D01*
X76644644Y-28827135D01*
X76404534Y-28586606D01*
X75859067Y-28360108D01*
X75268444Y-28359592D01*
X74722583Y-28585138D01*
X74304586Y-29002406D01*
X74078088Y-29547873D01*
X74077572Y-30138496D01*
X66401170Y-30138496D01*
X66040000Y-30066655D01*
X65466511Y-30180729D01*
X64980330Y-30505585D01*
X64770000Y-30820366D01*
X64559670Y-30505585D01*
X64073489Y-30180729D01*
X63500000Y-30066655D01*
X62926511Y-30180729D01*
X62440330Y-30505585D01*
X62430757Y-30519913D01*
X62426762Y-30498683D01*
X62287690Y-30282559D01*
X62075490Y-30137569D01*
X61823600Y-30086560D01*
X60096400Y-30086560D01*
X59861083Y-30130838D01*
X59644959Y-30269910D01*
X59499969Y-30482110D01*
X59448960Y-30734000D01*
X48202293Y-30734000D01*
X48049670Y-30505585D01*
X47563489Y-30180729D01*
X46990000Y-30066655D01*
X46416511Y-30180729D01*
X45930330Y-30505585D01*
X45720000Y-30820366D01*
X45509670Y-30505585D01*
X45023489Y-30180729D01*
X44450000Y-30066655D01*
X43876511Y-30180729D01*
X43390330Y-30505585D01*
X43380757Y-30519913D01*
X43376762Y-30498683D01*
X43237690Y-30282559D01*
X43025490Y-30137569D01*
X42773600Y-30086560D01*
X41046400Y-30086560D01*
X40811083Y-30130838D01*
X40594959Y-30269910D01*
X40449969Y-30482110D01*
X40398960Y-30734000D01*
X37128190Y-30734000D01*
X37128190Y-28845510D01*
X37083912Y-28610193D01*
X36944840Y-28394069D01*
X36732640Y-28249079D01*
X36480750Y-28198070D01*
X34481770Y-28198070D01*
X34246453Y-28242348D01*
X34030329Y-28381420D01*
X33885339Y-28593620D01*
X33834330Y-28845510D01*
X31865000Y-28845510D01*
X31865000Y-22225000D01*
X31759573Y-21694983D01*
X31459343Y-21245657D01*
X20664343Y-10450657D01*
X20215017Y-10150427D01*
X19825699Y-10072987D01*
X20893686Y-9005000D01*
X21637211Y-9005000D01*
X21580427Y-9089983D01*
X21475000Y-9620000D01*
X21475000Y-10160000D01*
X21580427Y-10690017D01*
X21723925Y-10904777D01*
X21880657Y-11139343D01*
X35850657Y-25109343D01*
X36299983Y-25409573D01*
X36830000Y-25515000D01*
X39255000Y-25515000D01*
X39255000Y-27940000D01*
X39360427Y-28470017D01*
X39660657Y-28919343D01*
X40109983Y-29219573D01*
X40640000Y-29325000D01*
X72390000Y-29325000D01*
X72920017Y-29219573D01*
X73369343Y-28919343D01*
X76944990Y-25343696D01*
X77242811Y-25144698D01*
X77553880Y-24679151D01*
X77663113Y-24130000D01*
X77553880Y-23580849D01*
X77242811Y-23115302D01*
X76860725Y-22860000D01*
X77242811Y-22604698D01*
X77553880Y-22139151D01*
X77663113Y-21590000D01*
X77553880Y-21040849D01*
X77242811Y-20575302D01*
X76860725Y-20320000D01*
X77242811Y-20064698D01*
X77553880Y-19599151D01*
X77663113Y-19050000D01*
X77553880Y-18500849D01*
X77242811Y-18035302D01*
X76860725Y-17780000D01*
X77242811Y-17524698D01*
X77553880Y-17059151D01*
X77663113Y-16510000D01*
X77566721Y-16025407D01*
X81570657Y-20029343D01*
X82019983Y-20329573D01*
X82550000Y-20435000D01*
X82987165Y-20435000D01*
X82777189Y-20575302D01*
X82466120Y-21040849D01*
X82356887Y-21590000D01*
X82466120Y-22139151D01*
X82777189Y-22604698D01*
X83159275Y-22860000D01*
X82777189Y-23115302D01*
X82466120Y-23580849D01*
X82356887Y-24130000D01*
X82466120Y-24679151D01*
X82777189Y-25144698D01*
X83242736Y-25455767D01*
X83791887Y-25565000D01*
X83848113Y-25565000D01*
X84397264Y-25455767D01*
X84862811Y-25144698D01*
X85173880Y-24679151D01*
X85283113Y-24130000D01*
X85173880Y-23580849D01*
X84862811Y-23115302D01*
X84480725Y-22860000D01*
X84862811Y-22604698D01*
X85173880Y-22139151D01*
X85283113Y-21590000D01*
X85173880Y-21040849D01*
X84862811Y-20575302D01*
X84480725Y-20320000D01*
X84862811Y-20064698D01*
X85173880Y-19599151D01*
X85283113Y-19050000D01*
X85173880Y-18500849D01*
X84862811Y-18035302D01*
X84480725Y-17780000D01*
X84862811Y-17524698D01*
X85173880Y-17059151D01*
X85283113Y-16510000D01*
X85173880Y-15960849D01*
X84862811Y-15495302D01*
X84397264Y-15184233D01*
X83848113Y-15075000D01*
X83791887Y-15075000D01*
X83242736Y-15184233D01*
X82777189Y-15495302D01*
X82466120Y-15960849D01*
X82356887Y-16510000D01*
X82453279Y-16994593D01*
X77179343Y-11720657D01*
X76730017Y-11420427D01*
X76200000Y-11315000D01*
X49187641Y-11315000D01*
X49187363Y-11314722D01*
X48586648Y-11065284D01*
X47936205Y-11064716D01*
X47335057Y-11313106D01*
X47333160Y-11315000D01*
X44450000Y-11315000D01*
X43919983Y-11420427D01*
X43470657Y-11720657D01*
X43170427Y-12169983D01*
X43065000Y-12700000D01*
X43065000Y-16510000D01*
X43170427Y-17040017D01*
X43444808Y-17450657D01*
X43470657Y-17489343D01*
X46010657Y-20029343D01*
X46459983Y-20329573D01*
X46990000Y-20435000D01*
X47427165Y-20435000D01*
X47217189Y-20575302D01*
X46906120Y-21040849D01*
X46796887Y-21590000D01*
X46906120Y-22139151D01*
X47217189Y-22604698D01*
X47599275Y-22860000D01*
X47217189Y-23115302D01*
X46906120Y-23580849D01*
X46796887Y-24130000D01*
X46906120Y-24679151D01*
X47217189Y-25144698D01*
X47682736Y-25455767D01*
X48231887Y-25565000D01*
X48288113Y-25565000D01*
X48837264Y-25455767D01*
X49302811Y-25144698D01*
X49613880Y-24679151D01*
X49723113Y-24130000D01*
X49613880Y-23580849D01*
X49302811Y-23115302D01*
X48920725Y-22860000D01*
X49302811Y-22604698D01*
X49613880Y-22139151D01*
X49723113Y-21590000D01*
X49613880Y-21040849D01*
X49302811Y-20575302D01*
X48920725Y-20320000D01*
X49302811Y-20064698D01*
X49613880Y-19599151D01*
X49723113Y-19050000D01*
X49613880Y-18500849D01*
X49302811Y-18035302D01*
X48920725Y-17780000D01*
X49302811Y-17524698D01*
X49613880Y-17059151D01*
X49723113Y-16510000D01*
X55686887Y-16510000D01*
X55796120Y-17059151D01*
X56107189Y-17524698D01*
X56489275Y-17780000D01*
X56107189Y-18035302D01*
X55796120Y-18500849D01*
X55686887Y-19050000D01*
X55796120Y-19599151D01*
X56107189Y-20064698D01*
X56511703Y-20334986D01*
X56294866Y-20437611D01*
X55918959Y-20852577D01*
X55758096Y-21240961D01*
X55880085Y-21463000D01*
X57023000Y-21463000D01*
X57023000Y-21443000D01*
X57277000Y-21443000D01*
X57277000Y-21463000D01*
X58419915Y-21463000D01*
X58541904Y-21240961D01*
X58381041Y-20852577D01*
X58005134Y-20437611D01*
X57788297Y-20334986D01*
X58192811Y-20064698D01*
X58503880Y-19599151D01*
X58613113Y-19050000D01*
X58503880Y-18500849D01*
X58192811Y-18035302D01*
X57810725Y-17780000D01*
X58192811Y-17524698D01*
X58503880Y-17059151D01*
X58613113Y-16510000D01*
X58503880Y-15960849D01*
X58192811Y-15495302D01*
X57727264Y-15184233D01*
X57178113Y-15075000D01*
X57121887Y-15075000D01*
X56572736Y-15184233D01*
X56107189Y-15495302D01*
X55796120Y-15960849D01*
X55686887Y-16510000D01*
X49723113Y-16510000D01*
X49613880Y-15960849D01*
X49302811Y-15495302D01*
X48837264Y-15184233D01*
X48288113Y-15075000D01*
X48231887Y-15075000D01*
X47682736Y-15184233D01*
X47217189Y-15495302D01*
X46906120Y-15960849D01*
X46796887Y-16510000D01*
X46893279Y-16994593D01*
X45835000Y-15936314D01*
X45835000Y-14085000D01*
X47332359Y-14085000D01*
X47332637Y-14085278D01*
X47933352Y-14334716D01*
X48583795Y-14335284D01*
X49184943Y-14086894D01*
X49186840Y-14085000D01*
X59575000Y-14085000D01*
X59575000Y-16510000D01*
X59680427Y-17040017D01*
X59954808Y-17450657D01*
X59980657Y-17489343D01*
X62520657Y-20029343D01*
X62969983Y-20329573D01*
X63500000Y-20435000D01*
X63937165Y-20435000D01*
X63727189Y-20575302D01*
X63416120Y-21040849D01*
X63306887Y-21590000D01*
X63416120Y-22139151D01*
X63727189Y-22604698D01*
X64109275Y-22860000D01*
X63727189Y-23115302D01*
X63416120Y-23580849D01*
X63306887Y-24130000D01*
X63416120Y-24679151D01*
X63727189Y-25144698D01*
X64192736Y-25455767D01*
X64741887Y-25565000D01*
X64798113Y-25565000D01*
X65347264Y-25455767D01*
X65812811Y-25144698D01*
X66123880Y-24679151D01*
X66233113Y-24130000D01*
X66123880Y-23580849D01*
X65812811Y-23115302D01*
X65430725Y-22860000D01*
X65812811Y-22604698D01*
X66123880Y-22139151D01*
X66233113Y-21590000D01*
X66123880Y-21040849D01*
X65812811Y-20575302D01*
X65430725Y-20320000D01*
X65812811Y-20064698D01*
X66123880Y-19599151D01*
X66233113Y-19050000D01*
X66123880Y-18500849D01*
X65812811Y-18035302D01*
X65430725Y-17780000D01*
X65812811Y-17524698D01*
X66123880Y-17059151D01*
X66233113Y-16510000D01*
X66123880Y-15960849D01*
X65812811Y-15495302D01*
X65347264Y-15184233D01*
X64798113Y-15075000D01*
X64741887Y-15075000D01*
X64192736Y-15184233D01*
X63727189Y-15495302D01*
X63416120Y-15960849D01*
X63306887Y-16510000D01*
X63403279Y-16994593D01*
X62345000Y-15936314D01*
X62345000Y-14085000D01*
X75626314Y-14085000D01*
X76712706Y-15171392D01*
X76228113Y-15075000D01*
X76171887Y-15075000D01*
X75622736Y-15184233D01*
X75157189Y-15495302D01*
X74846120Y-15960849D01*
X74736887Y-16510000D01*
X74846120Y-17059151D01*
X75157189Y-17524698D01*
X75539275Y-17780000D01*
X75157189Y-18035302D01*
X74846120Y-18500849D01*
X74736887Y-19050000D01*
X74846120Y-19599151D01*
X75157189Y-20064698D01*
X75539275Y-20320000D01*
X75157189Y-20575302D01*
X74846120Y-21040849D01*
X74736887Y-21590000D01*
X74846120Y-22139151D01*
X75157189Y-22604698D01*
X75539275Y-22860000D01*
X75157189Y-23115302D01*
X74958191Y-23413123D01*
X71816314Y-26555000D01*
X58535000Y-26555000D01*
X58535000Y-24522700D01*
X58613113Y-24130000D01*
X58503880Y-23580849D01*
X58192811Y-23115302D01*
X57788297Y-22845014D01*
X58005134Y-22742389D01*
X58381041Y-22327423D01*
X58541904Y-21939039D01*
X58419915Y-21717000D01*
X57277000Y-21717000D01*
X57277000Y-21737000D01*
X57023000Y-21737000D01*
X57023000Y-21717000D01*
X55880085Y-21717000D01*
X55758096Y-21939039D01*
X55918959Y-22327423D01*
X56294866Y-22742389D01*
X56511703Y-22845014D01*
X56107189Y-23115302D01*
X55796120Y-23580849D01*
X55686887Y-24130000D01*
X55765000Y-24522700D01*
X55765000Y-26555000D01*
X42025000Y-26555000D01*
X42025000Y-24522700D01*
X42103113Y-24130000D01*
X41993880Y-23580849D01*
X41682811Y-23115302D01*
X41278297Y-22845014D01*
X41495134Y-22742389D01*
X41871041Y-22327423D01*
X42031904Y-21939039D01*
X41909915Y-21717000D01*
X40767000Y-21717000D01*
X40767000Y-21737000D01*
X40513000Y-21737000D01*
X40513000Y-21717000D01*
X39370085Y-21717000D01*
X39248096Y-21939039D01*
X39408959Y-22327423D01*
X39784866Y-22742389D01*
X39790383Y-22745000D01*
X37403686Y-22745000D01*
X31168686Y-16510000D01*
X39176887Y-16510000D01*
X39286120Y-17059151D01*
X39597189Y-17524698D01*
X39979275Y-17780000D01*
X39597189Y-18035302D01*
X39286120Y-18500849D01*
X39176887Y-19050000D01*
X39286120Y-19599151D01*
X39597189Y-20064698D01*
X40001703Y-20334986D01*
X39784866Y-20437611D01*
X39408959Y-20852577D01*
X39248096Y-21240961D01*
X39370085Y-21463000D01*
X40513000Y-21463000D01*
X40513000Y-21443000D01*
X40767000Y-21443000D01*
X40767000Y-21463000D01*
X41909915Y-21463000D01*
X42031904Y-21240961D01*
X41871041Y-20852577D01*
X41495134Y-20437611D01*
X41278297Y-20334986D01*
X41682811Y-20064698D01*
X41993880Y-19599151D01*
X42103113Y-19050000D01*
X41993880Y-18500849D01*
X41682811Y-18035302D01*
X41300725Y-17780000D01*
X41682811Y-17524698D01*
X41993880Y-17059151D01*
X42103113Y-16510000D01*
X41993880Y-15960849D01*
X41682811Y-15495302D01*
X41217264Y-15184233D01*
X40668113Y-15075000D01*
X40611887Y-15075000D01*
X40062736Y-15184233D01*
X39597189Y-15495302D01*
X39286120Y-15960849D01*
X39176887Y-16510000D01*
X31168686Y-16510000D01*
X24236636Y-9577950D01*
X24139573Y-9089983D01*
X24082789Y-9005000D01*
X34986314Y-9005000D01*
X35194716Y-9213402D01*
X35194716Y-9213795D01*
X35443106Y-9814943D01*
X35902637Y-10275278D01*
X36503352Y-10524716D01*
X37153795Y-10525284D01*
X37754943Y-10276894D01*
X38215278Y-9817363D01*
X38464716Y-9216648D01*
X38465284Y-8566205D01*
X38216894Y-7965057D01*
X37757363Y-7504722D01*
X37156648Y-7255284D01*
X37153968Y-7255282D01*
X36539343Y-6640657D01*
X36356610Y-6518559D01*
X36090017Y-6340427D01*
X35560000Y-6235000D01*
X20320000Y-6235000D01*
X19789983Y-6340427D01*
X19523390Y-6518559D01*
X19340657Y-6640657D01*
X16800657Y-9180657D01*
X16500427Y-9629983D01*
X16417875Y-10045000D01*
X13242630Y-10045000D01*
X13233162Y-9994683D01*
X13094090Y-9778559D01*
X12881890Y-9633569D01*
X12630000Y-9582560D01*
X10230000Y-9582560D01*
X9994683Y-9626838D01*
X9778559Y-9765910D01*
X9633569Y-9978110D01*
X9582560Y-10230000D01*
X1397000Y-10230000D01*
X1397000Y-5481216D01*
X2615787Y-5481216D01*
X2978126Y-6358143D01*
X3648468Y-7029656D01*
X4524761Y-7393525D01*
X5473596Y-7394353D01*
X6350523Y-7032014D01*
X7022036Y-6361672D01*
X7385905Y-5485379D01*
X7386733Y-4536544D01*
X7024394Y-3659617D01*
X6810152Y-3445000D01*
X7877560Y-3445000D01*
X7877560Y-5445000D01*
X7921838Y-5680317D01*
X8060910Y-5896441D01*
X8273110Y-6041431D01*
X8525000Y-6092440D01*
X10525000Y-6092440D01*
X10760317Y-6048162D01*
X10976441Y-5909090D01*
X11073910Y-5766439D01*
X11137637Y-5830278D01*
X11738352Y-6079716D01*
X12388795Y-6080284D01*
X12989943Y-5831894D01*
X13341234Y-5481216D01*
X92615607Y-5481216D01*
X92977946Y-6358143D01*
X93648288Y-7029656D01*
X94524581Y-7393525D01*
X95473416Y-7394353D01*
X96350343Y-7032014D01*
X97021856Y-6361672D01*
X97385725Y-5485379D01*
X97386553Y-4536544D01*
X97024214Y-3659617D01*
X96353872Y-2988104D01*
X95477579Y-2624235D01*
X94528744Y-2623407D01*
X93651817Y-2985746D01*
X92980304Y-3656088D01*
X92616435Y-4532381D01*
X92615607Y-5481216D01*
X13341234Y-5481216D01*
X13450278Y-5372363D01*
X13699716Y-4771648D01*
X13700284Y-4121205D01*
X13451894Y-3520057D01*
X12992363Y-3059722D01*
X12391648Y-2810284D01*
X11741205Y-2809716D01*
X11140057Y-3058106D01*
X11073426Y-3124621D01*
X10989090Y-2993559D01*
X10776890Y-2848569D01*
X10525000Y-2797560D01*
X8525000Y-2797560D01*
X8289683Y-2841838D01*
X8073559Y-2980910D01*
X7928569Y-3193110D01*
X7877560Y-3445000D01*
X6810152Y-3445000D01*
X6354052Y-2988104D01*
X5477759Y-2624235D01*
X4528924Y-2623407D01*
X3651997Y-2985746D01*
X2980484Y-3656088D01*
X2616615Y-4532381D01*
X2615787Y-5481216D01*
X1397000Y-5481216D01*
X1397000Y-1397000D01*
X98933000Y-1397000D01*
X98933000Y-78613000D01*
M02*
