M48
;DRILL file {KiCad 4.0.1-stable} date 30/08/2016 2:09:57 p.m.
;FORMAT={-:-/ absolute / metric / decimal}
FMAT,2
METRIC,TZ
T1C0.400
T2C0.635
T3C0.701
T4C0.800
T5C1.001
T6C1.016
T7C1.200
T8C1.500
T9C2.200
%
G90
G05
M71
T1
X19.685Y-62.23
X20.32Y-31.115
X26.035Y-10.795
X31.75Y-15.24
X31.75Y-62.865
X36.195Y-20.32
X36.195Y-59.69
X36.83Y-45.085
X52.705Y-15.24
X52.705Y-21.59
X52.705Y-55.245
X52.705Y-58.42
X55.88Y-72.39
X60.198Y-74.676
X69.215Y-54.61
X71.12Y-15.24
X71.12Y-25.4
X76.2Y-62.865
X78.105Y-62.865
X89.535Y-13.97
T2
X44.45Y-39.37
X53.34Y-33.02
X53.34Y-38.1
X53.34Y-44.45
X73.66Y-43.18
X79.375Y-43.18
T3
X75.562Y-29.844
X75.562Y-40.004
X78.108Y-29.846
X78.108Y-40.006
T4
X17.78Y-11.43
X17.78Y-13.43
X17.78Y-17.145
X17.78Y-19.145
X22.86Y-7.62
X22.86Y-9.62
X24.13Y-48.26
X24.13Y-50.8
X24.13Y-53.34
X24.13Y-55.88
X31.75Y-48.26
X31.75Y-50.8
X31.75Y-53.34
X31.75Y-55.88
X40.64Y-16.51
X40.64Y-19.05
X40.64Y-21.59
X40.64Y-24.13
X40.64Y-55.88
X40.64Y-58.42
X40.64Y-60.96
X40.64Y-63.5
X48.26Y-16.51
X48.26Y-19.05
X48.26Y-21.59
X48.26Y-24.13
X48.26Y-55.88
X48.26Y-58.42
X48.26Y-60.96
X48.26Y-63.5
X57.15Y-16.51
X57.15Y-19.05
X57.15Y-21.59
X57.15Y-24.13
X57.15Y-55.88
X57.15Y-58.42
X57.15Y-60.96
X57.15Y-63.5
X64.77Y-16.51
X64.77Y-19.05
X64.77Y-21.59
X64.77Y-24.13
X64.77Y-55.88
X64.77Y-58.42
X64.77Y-60.96
X64.77Y-63.5
X76.2Y-16.51
X76.2Y-19.05
X76.2Y-21.59
X76.2Y-24.13
X83.82Y-16.51
X83.82Y-19.05
X83.82Y-21.59
X83.82Y-24.13
T5
X9.525Y-4.445
X12.065Y-4.445
X12.621Y-29.21
X12.621Y-31.709
X12.621Y-46.355
X12.621Y-48.854
X12.621Y-63.5
X12.621Y-65.999
X25.479Y-29.845
X25.479Y-35.56
X35.481Y-29.845
X35.481Y-35.56
X58.499Y-48.26
X68.501Y-48.26
X87.709Y-38.141
X87.709Y-40.64
T6
X41.91Y-31.75
X41.91Y-46.99
X44.45Y-31.75
X44.45Y-46.99
X46.99Y-31.75
X46.99Y-46.99
X60.96Y-31.75
X60.96Y-40.64
X63.5Y-31.75
X63.5Y-40.64
X66.04Y-31.75
X66.04Y-40.64
X74.295Y-49.53
X74.295Y-52.07
X74.295Y-54.61
X80.01Y-49.53
X80.01Y-52.07
X80.01Y-54.61
T7
X11.43Y-11.43
X11.43Y-14.93
X11.43Y-18.43
T8
X17.78Y-33.655
X17.78Y-40.64
X32.385Y-40.005
X36.83Y-8.89
X36.83Y-40.005
X48.26Y-12.7
X48.895Y-52.07
X53.975Y-52.07
T9
X8.357Y-24.11
X8.357Y-34.308
X8.357Y-41.255
X8.357Y-51.453
X8.357Y-58.4
X8.357Y-68.598
X91.973Y-35.542
X91.973Y-45.74
T0
M30
