%TF.GenerationSoftware,KiCad,Pcbnew,5.1.10-88a1d61d58~88~ubuntu20.04.1*%
%TF.CreationDate,2021-06-28T20:02:01+10:00*%
%TF.ProjectId,LaserPID,4c617365-7250-4494-942e-6b696361645f,rev?*%
%TF.SameCoordinates,Original*%
%TF.FileFunction,Legend,Top*%
%TF.FilePolarity,Positive*%
%FSLAX46Y46*%
G04 Gerber Fmt 4.6, Leading zero omitted, Abs format (unit mm)*
G04 Created by KiCad (PCBNEW 5.1.10-88a1d61d58~88~ubuntu20.04.1) date 2021-06-28 20:02:01*
%MOMM*%
%LPD*%
G01*
G04 APERTURE LIST*
%ADD10C,0.100000*%
%ADD11C,0.150000*%
%ADD12C,0.350000*%
%ADD13C,0.120000*%
G04 APERTURE END LIST*
D10*
X785100714Y-101546428D02*
X785350714Y-101546428D01*
X785457857Y-101939285D02*
X785100714Y-101939285D01*
X785100714Y-101189285D01*
X785457857Y-101189285D01*
X786207857Y-101939285D02*
X785957857Y-101582142D01*
X785779285Y-101939285D02*
X785779285Y-101189285D01*
X786065000Y-101189285D01*
X786136428Y-101225000D01*
X786172142Y-101260714D01*
X786207857Y-101332142D01*
X786207857Y-101439285D01*
X786172142Y-101510714D01*
X786136428Y-101546428D01*
X786065000Y-101582142D01*
X785779285Y-101582142D01*
X786957857Y-101939285D02*
X786707857Y-101582142D01*
X786529285Y-101939285D02*
X786529285Y-101189285D01*
X786815000Y-101189285D01*
X786886428Y-101225000D01*
X786922142Y-101260714D01*
X786957857Y-101332142D01*
X786957857Y-101439285D01*
X786922142Y-101510714D01*
X786886428Y-101546428D01*
X786815000Y-101582142D01*
X786529285Y-101582142D01*
X787850714Y-101546428D02*
X788422142Y-101546428D01*
X788422142Y-101760714D02*
X787850714Y-101760714D01*
X789350714Y-101939285D02*
X789350714Y-101189285D01*
X789707857Y-101939285D02*
X789707857Y-101189285D01*
X790136428Y-101939285D01*
X790136428Y-101189285D01*
X790457857Y-101260714D02*
X790493571Y-101225000D01*
X790565000Y-101189285D01*
X790743571Y-101189285D01*
X790815000Y-101225000D01*
X790850714Y-101260714D01*
X790886428Y-101332142D01*
X790886428Y-101403571D01*
X790850714Y-101510714D01*
X790422142Y-101939285D01*
X790886428Y-101939285D01*
X791779285Y-101653571D02*
X792350714Y-101653571D01*
X793279285Y-101939285D02*
X793279285Y-101189285D01*
X793636428Y-101939285D02*
X793636428Y-101189285D01*
X794065000Y-101939285D01*
X794065000Y-101189285D01*
X794815000Y-101939285D02*
X794386428Y-101939285D01*
X794600714Y-101939285D02*
X794600714Y-101189285D01*
X794529285Y-101296428D01*
X794457857Y-101367857D01*
X794386428Y-101403571D01*
D11*
X820420000Y-92456000D02*
X819658000Y-92456000D01*
X821182000Y-91694000D02*
X820928000Y-91694000D01*
X820420000Y-92456000D02*
X821182000Y-92456000D01*
X820928000Y-91694000D02*
X819658000Y-91694000D01*
X820420000Y-92456000D02*
X821182000Y-91694000D01*
X819658000Y-91694000D02*
X820420000Y-92456000D01*
X815594000Y-84074000D02*
X815594000Y-84836000D01*
X815594000Y-84074000D02*
X815594000Y-83312000D01*
X814832000Y-83312000D02*
X814832000Y-83566000D01*
X815594000Y-84074000D02*
X814832000Y-83312000D01*
X814832000Y-84836000D02*
X815594000Y-84074000D01*
X814832000Y-83566000D02*
X814832000Y-84836000D01*
D12*
X790274285Y-21978333D02*
X791226666Y-21978333D01*
X790083809Y-22549761D02*
X790750476Y-20549761D01*
X791417142Y-22549761D01*
X791798095Y-21216428D02*
X792560000Y-21216428D01*
X792083809Y-20549761D02*
X792083809Y-22264047D01*
X792179047Y-22454523D01*
X792369523Y-22549761D01*
X792560000Y-22549761D01*
X793512380Y-22549761D02*
X793321904Y-22454523D01*
X793226666Y-22359285D01*
X793131428Y-22168809D01*
X793131428Y-21597380D01*
X793226666Y-21406904D01*
X793321904Y-21311666D01*
X793512380Y-21216428D01*
X793798095Y-21216428D01*
X793988571Y-21311666D01*
X794083809Y-21406904D01*
X794179047Y-21597380D01*
X794179047Y-22168809D01*
X794083809Y-22359285D01*
X793988571Y-22454523D01*
X793798095Y-22549761D01*
X793512380Y-22549761D01*
X795036190Y-22549761D02*
X795036190Y-21216428D01*
X795036190Y-21406904D02*
X795131428Y-21311666D01*
X795321904Y-21216428D01*
X795607619Y-21216428D01*
X795798095Y-21311666D01*
X795893333Y-21502142D01*
X795893333Y-22549761D01*
X795893333Y-21502142D02*
X795988571Y-21311666D01*
X796179047Y-21216428D01*
X796464761Y-21216428D01*
X796655238Y-21311666D01*
X796750476Y-21502142D01*
X796750476Y-22549761D01*
X798655238Y-22549761D02*
X797702857Y-22549761D01*
X797702857Y-20549761D01*
X800179047Y-22549761D02*
X800179047Y-21502142D01*
X800083809Y-21311666D01*
X799893333Y-21216428D01*
X799512380Y-21216428D01*
X799321904Y-21311666D01*
X800179047Y-22454523D02*
X799988571Y-22549761D01*
X799512380Y-22549761D01*
X799321904Y-22454523D01*
X799226666Y-22264047D01*
X799226666Y-22073571D01*
X799321904Y-21883095D01*
X799512380Y-21787857D01*
X799988571Y-21787857D01*
X800179047Y-21692619D01*
X801036190Y-22454523D02*
X801226666Y-22549761D01*
X801607619Y-22549761D01*
X801798095Y-22454523D01*
X801893333Y-22264047D01*
X801893333Y-22168809D01*
X801798095Y-21978333D01*
X801607619Y-21883095D01*
X801321904Y-21883095D01*
X801131428Y-21787857D01*
X801036190Y-21597380D01*
X801036190Y-21502142D01*
X801131428Y-21311666D01*
X801321904Y-21216428D01*
X801607619Y-21216428D01*
X801798095Y-21311666D01*
X803512380Y-22454523D02*
X803321904Y-22549761D01*
X802940952Y-22549761D01*
X802750476Y-22454523D01*
X802655238Y-22264047D01*
X802655238Y-21502142D01*
X802750476Y-21311666D01*
X802940952Y-21216428D01*
X803321904Y-21216428D01*
X803512380Y-21311666D01*
X803607619Y-21502142D01*
X803607619Y-21692619D01*
X802655238Y-21883095D01*
X804464761Y-22549761D02*
X804464761Y-21216428D01*
X804464761Y-21597380D02*
X804560000Y-21406904D01*
X804655238Y-21311666D01*
X804845714Y-21216428D01*
X805036190Y-21216428D01*
X785845714Y-25328333D02*
X786798095Y-25328333D01*
X785655238Y-25899761D02*
X786321904Y-23899761D01*
X786988571Y-25899761D01*
X787655238Y-24566428D02*
X787655238Y-25899761D01*
X787655238Y-24756904D02*
X787750476Y-24661666D01*
X787940952Y-24566428D01*
X788226666Y-24566428D01*
X788417142Y-24661666D01*
X788512380Y-24852142D01*
X788512380Y-25899761D01*
X790321904Y-25899761D02*
X790321904Y-24852142D01*
X790226666Y-24661666D01*
X790036190Y-24566428D01*
X789655238Y-24566428D01*
X789464761Y-24661666D01*
X790321904Y-25804523D02*
X790131428Y-25899761D01*
X789655238Y-25899761D01*
X789464761Y-25804523D01*
X789369523Y-25614047D01*
X789369523Y-25423571D01*
X789464761Y-25233095D01*
X789655238Y-25137857D01*
X790131428Y-25137857D01*
X790321904Y-25042619D01*
X791560000Y-25899761D02*
X791369523Y-25804523D01*
X791274285Y-25614047D01*
X791274285Y-23899761D01*
X792607619Y-25899761D02*
X792417142Y-25804523D01*
X792321904Y-25709285D01*
X792226666Y-25518809D01*
X792226666Y-24947380D01*
X792321904Y-24756904D01*
X792417142Y-24661666D01*
X792607619Y-24566428D01*
X792893333Y-24566428D01*
X793083809Y-24661666D01*
X793179047Y-24756904D01*
X793274285Y-24947380D01*
X793274285Y-25518809D01*
X793179047Y-25709285D01*
X793083809Y-25804523D01*
X792893333Y-25899761D01*
X792607619Y-25899761D01*
X794988571Y-24566428D02*
X794988571Y-26185476D01*
X794893333Y-26375952D01*
X794798095Y-26471190D01*
X794607619Y-26566428D01*
X794321904Y-26566428D01*
X794131428Y-26471190D01*
X794988571Y-25804523D02*
X794798095Y-25899761D01*
X794417142Y-25899761D01*
X794226666Y-25804523D01*
X794131428Y-25709285D01*
X794036190Y-25518809D01*
X794036190Y-24947380D01*
X794131428Y-24756904D01*
X794226666Y-24661666D01*
X794417142Y-24566428D01*
X794798095Y-24566428D01*
X794988571Y-24661666D01*
X797464761Y-25899761D02*
X797464761Y-23899761D01*
X798226666Y-23899761D01*
X798417142Y-23995000D01*
X798512380Y-24090238D01*
X798607619Y-24280714D01*
X798607619Y-24566428D01*
X798512380Y-24756904D01*
X798417142Y-24852142D01*
X798226666Y-24947380D01*
X797464761Y-24947380D01*
X799464761Y-25899761D02*
X799464761Y-23899761D01*
X801845714Y-25804523D02*
X802131428Y-25899761D01*
X802607619Y-25899761D01*
X802798095Y-25804523D01*
X802893333Y-25709285D01*
X802988571Y-25518809D01*
X802988571Y-25328333D01*
X802893333Y-25137857D01*
X802798095Y-25042619D01*
X802607619Y-24947380D01*
X802226666Y-24852142D01*
X802036190Y-24756904D01*
X801940952Y-24661666D01*
X801845714Y-24471190D01*
X801845714Y-24280714D01*
X801940952Y-24090238D01*
X802036190Y-23995000D01*
X802226666Y-23899761D01*
X802702857Y-23899761D01*
X802988571Y-23995000D01*
X804607619Y-25804523D02*
X804417142Y-25899761D01*
X804036190Y-25899761D01*
X803845714Y-25804523D01*
X803750476Y-25614047D01*
X803750476Y-24852142D01*
X803845714Y-24661666D01*
X804036190Y-24566428D01*
X804417142Y-24566428D01*
X804607619Y-24661666D01*
X804702857Y-24852142D01*
X804702857Y-25042619D01*
X803750476Y-25233095D01*
X805560000Y-25899761D02*
X805560000Y-24566428D01*
X805560000Y-24947380D02*
X805655238Y-24756904D01*
X805750476Y-24661666D01*
X805940952Y-24566428D01*
X806131428Y-24566428D01*
X806607619Y-24566428D02*
X807083809Y-25899761D01*
X807560000Y-24566428D01*
X808607619Y-25899761D02*
X808417142Y-25804523D01*
X808321904Y-25709285D01*
X808226666Y-25518809D01*
X808226666Y-24947380D01*
X808321904Y-24756904D01*
X808417142Y-24661666D01*
X808607619Y-24566428D01*
X808893333Y-24566428D01*
X809083809Y-24661666D01*
X809179047Y-24756904D01*
X809274285Y-24947380D01*
X809274285Y-25518809D01*
X809179047Y-25709285D01*
X809083809Y-25804523D01*
X808893333Y-25899761D01*
X808607619Y-25899761D01*
X787131428Y-29249761D02*
X786464761Y-28297380D01*
X785988571Y-29249761D02*
X785988571Y-27249761D01*
X786750476Y-27249761D01*
X786940952Y-27345000D01*
X787036190Y-27440238D01*
X787131428Y-27630714D01*
X787131428Y-27916428D01*
X787036190Y-28106904D01*
X786940952Y-28202142D01*
X786750476Y-28297380D01*
X785988571Y-28297380D01*
X788750476Y-29154523D02*
X788560000Y-29249761D01*
X788179047Y-29249761D01*
X787988571Y-29154523D01*
X787893333Y-28964047D01*
X787893333Y-28202142D01*
X787988571Y-28011666D01*
X788179047Y-27916428D01*
X788560000Y-27916428D01*
X788750476Y-28011666D01*
X788845714Y-28202142D01*
X788845714Y-28392619D01*
X787893333Y-28583095D01*
X789512380Y-27916428D02*
X789988571Y-29249761D01*
X790464761Y-27916428D01*
X793798095Y-29249761D02*
X792655238Y-29249761D01*
X793226666Y-29249761D02*
X793226666Y-27249761D01*
X793036190Y-27535476D01*
X792845714Y-27725952D01*
X792655238Y-27821190D01*
X796560000Y-27249761D02*
X796750476Y-27249761D01*
X796940952Y-27345000D01*
X797036190Y-27440238D01*
X797131428Y-27630714D01*
X797226666Y-28011666D01*
X797226666Y-28487857D01*
X797131428Y-28868809D01*
X797036190Y-29059285D01*
X796940952Y-29154523D01*
X796750476Y-29249761D01*
X796560000Y-29249761D01*
X796369523Y-29154523D01*
X796274285Y-29059285D01*
X796179047Y-28868809D01*
X796083809Y-28487857D01*
X796083809Y-28011666D01*
X796179047Y-27630714D01*
X796274285Y-27440238D01*
X796369523Y-27345000D01*
X796560000Y-27249761D01*
X798940952Y-27916428D02*
X798940952Y-29249761D01*
X798464761Y-27154523D02*
X797988571Y-28583095D01*
X799226666Y-28583095D01*
X799988571Y-28487857D02*
X801512380Y-28487857D01*
X802369523Y-27440238D02*
X802464761Y-27345000D01*
X802655238Y-27249761D01*
X803131428Y-27249761D01*
X803321904Y-27345000D01*
X803417142Y-27440238D01*
X803512380Y-27630714D01*
X803512380Y-27821190D01*
X803417142Y-28106904D01*
X802274285Y-29249761D01*
X803512380Y-29249761D01*
X804750476Y-27249761D02*
X804940952Y-27249761D01*
X805131428Y-27345000D01*
X805226666Y-27440238D01*
X805321904Y-27630714D01*
X805417142Y-28011666D01*
X805417142Y-28487857D01*
X805321904Y-28868809D01*
X805226666Y-29059285D01*
X805131428Y-29154523D01*
X804940952Y-29249761D01*
X804750476Y-29249761D01*
X804560000Y-29154523D01*
X804464761Y-29059285D01*
X804369523Y-28868809D01*
X804274285Y-28487857D01*
X804274285Y-28011666D01*
X804369523Y-27630714D01*
X804464761Y-27440238D01*
X804560000Y-27345000D01*
X804750476Y-27249761D01*
X806179047Y-27440238D02*
X806274285Y-27345000D01*
X806464761Y-27249761D01*
X806940952Y-27249761D01*
X807131428Y-27345000D01*
X807226666Y-27440238D01*
X807321904Y-27630714D01*
X807321904Y-27821190D01*
X807226666Y-28106904D01*
X806083809Y-29249761D01*
X807321904Y-29249761D01*
X809226666Y-29249761D02*
X808083809Y-29249761D01*
X808655238Y-29249761D02*
X808655238Y-27249761D01*
X808464761Y-27535476D01*
X808274285Y-27725952D01*
X808083809Y-27821190D01*
X789226666Y-32599761D02*
X788560000Y-31647380D01*
X788083809Y-32599761D02*
X788083809Y-30599761D01*
X788845714Y-30599761D01*
X789036190Y-30695000D01*
X789131428Y-30790238D01*
X789226666Y-30980714D01*
X789226666Y-31266428D01*
X789131428Y-31456904D01*
X789036190Y-31552142D01*
X788845714Y-31647380D01*
X788083809Y-31647380D01*
X789893333Y-31266428D02*
X790369523Y-32599761D01*
X790845714Y-31266428D02*
X790369523Y-32599761D01*
X790179047Y-33075952D01*
X790083809Y-33171190D01*
X789893333Y-33266428D01*
X792464761Y-32599761D02*
X792464761Y-31552142D01*
X792369523Y-31361666D01*
X792179047Y-31266428D01*
X791798095Y-31266428D01*
X791607619Y-31361666D01*
X792464761Y-32504523D02*
X792274285Y-32599761D01*
X791798095Y-32599761D01*
X791607619Y-32504523D01*
X791512380Y-32314047D01*
X791512380Y-32123571D01*
X791607619Y-31933095D01*
X791798095Y-31837857D01*
X792274285Y-31837857D01*
X792464761Y-31742619D01*
X793417142Y-31266428D02*
X793417142Y-32599761D01*
X793417142Y-31456904D02*
X793512380Y-31361666D01*
X793702857Y-31266428D01*
X793988571Y-31266428D01*
X794179047Y-31361666D01*
X794274285Y-31552142D01*
X794274285Y-32599761D01*
X796464761Y-30599761D02*
X797607619Y-30599761D01*
X797036190Y-32599761D02*
X797036190Y-30599761D01*
X798274285Y-32599761D02*
X798274285Y-30599761D01*
X799131428Y-32599761D02*
X799131428Y-31552142D01*
X799036190Y-31361666D01*
X798845714Y-31266428D01*
X798560000Y-31266428D01*
X798369523Y-31361666D01*
X798274285Y-31456904D01*
X800369523Y-32599761D02*
X800179047Y-32504523D01*
X800083809Y-32409285D01*
X799988571Y-32218809D01*
X799988571Y-31647380D01*
X800083809Y-31456904D01*
X800179047Y-31361666D01*
X800369523Y-31266428D01*
X800655238Y-31266428D01*
X800845714Y-31361666D01*
X800940952Y-31456904D01*
X801036190Y-31647380D01*
X801036190Y-32218809D01*
X800940952Y-32409285D01*
X800845714Y-32504523D01*
X800655238Y-32599761D01*
X800369523Y-32599761D01*
X801893333Y-32599761D02*
X801893333Y-31266428D01*
X801893333Y-31456904D02*
X801988571Y-31361666D01*
X802179047Y-31266428D01*
X802464761Y-31266428D01*
X802655238Y-31361666D01*
X802750476Y-31552142D01*
X802750476Y-32599761D01*
X802750476Y-31552142D02*
X802845714Y-31361666D01*
X803036190Y-31266428D01*
X803321904Y-31266428D01*
X803512380Y-31361666D01*
X803607619Y-31552142D01*
X803607619Y-32599761D01*
X805417142Y-32599761D02*
X805417142Y-31552142D01*
X805321904Y-31361666D01*
X805131428Y-31266428D01*
X804750476Y-31266428D01*
X804560000Y-31361666D01*
X805417142Y-32504523D02*
X805226666Y-32599761D01*
X804750476Y-32599761D01*
X804560000Y-32504523D01*
X804464761Y-32314047D01*
X804464761Y-32123571D01*
X804560000Y-31933095D01*
X804750476Y-31837857D01*
X805226666Y-31837857D01*
X805417142Y-31742619D01*
X806274285Y-32504523D02*
X806464761Y-32599761D01*
X806845714Y-32599761D01*
X807036190Y-32504523D01*
X807131428Y-32314047D01*
X807131428Y-32218809D01*
X807036190Y-32028333D01*
X806845714Y-31933095D01*
X806560000Y-31933095D01*
X806369523Y-31837857D01*
X806274285Y-31647380D01*
X806274285Y-31552142D01*
X806369523Y-31361666D01*
X806560000Y-31266428D01*
X806845714Y-31266428D01*
X807036190Y-31361666D01*
D11*
X802822761Y-99004380D02*
X802346571Y-99004380D01*
X802346571Y-98004380D01*
X803156095Y-99004380D02*
X803156095Y-98004380D01*
X803632285Y-99004380D02*
X803632285Y-98004380D01*
X803965619Y-98718666D01*
X804298952Y-98004380D01*
X804298952Y-99004380D01*
X804775142Y-99004380D02*
X804775142Y-98004380D01*
X805108476Y-98004380D02*
X805679904Y-98004380D01*
X805394190Y-99004380D02*
X805394190Y-98004380D01*
X805965619Y-98956761D02*
X806108476Y-99004380D01*
X806346571Y-99004380D01*
X806441809Y-98956761D01*
X806489428Y-98909142D01*
X806537047Y-98813904D01*
X806537047Y-98718666D01*
X806489428Y-98623428D01*
X806441809Y-98575809D01*
X806346571Y-98528190D01*
X806156095Y-98480571D01*
X806060857Y-98432952D01*
X806013238Y-98385333D01*
X805965619Y-98290095D01*
X805965619Y-98194857D01*
X806013238Y-98099619D01*
X806060857Y-98052000D01*
X806156095Y-98004380D01*
X806394190Y-98004380D01*
X806537047Y-98052000D01*
X799473238Y-121309380D02*
X799663714Y-121309380D01*
X799758952Y-121357000D01*
X799854190Y-121452238D01*
X799901809Y-121642714D01*
X799901809Y-121976047D01*
X799854190Y-122166523D01*
X799758952Y-122261761D01*
X799663714Y-122309380D01*
X799473238Y-122309380D01*
X799378000Y-122261761D01*
X799282761Y-122166523D01*
X799235142Y-121976047D01*
X799235142Y-121642714D01*
X799282761Y-121452238D01*
X799378000Y-121357000D01*
X799473238Y-121309380D01*
X800330380Y-121309380D02*
X800330380Y-122118904D01*
X800378000Y-122214142D01*
X800425619Y-122261761D01*
X800520857Y-122309380D01*
X800711333Y-122309380D01*
X800806571Y-122261761D01*
X800854190Y-122214142D01*
X800901809Y-122118904D01*
X800901809Y-121309380D01*
X801235142Y-121309380D02*
X801806571Y-121309380D01*
X801520857Y-122309380D02*
X801520857Y-121309380D01*
X802139904Y-122309380D02*
X802139904Y-121309380D01*
X802520857Y-121309380D01*
X802616095Y-121357000D01*
X802663714Y-121404619D01*
X802711333Y-121499857D01*
X802711333Y-121642714D01*
X802663714Y-121737952D01*
X802616095Y-121785571D01*
X802520857Y-121833190D01*
X802139904Y-121833190D01*
X803139904Y-121309380D02*
X803139904Y-122118904D01*
X803187523Y-122214142D01*
X803235142Y-122261761D01*
X803330380Y-122309380D01*
X803520857Y-122309380D01*
X803616095Y-122261761D01*
X803663714Y-122214142D01*
X803711333Y-122118904D01*
X803711333Y-121309380D01*
X804044666Y-121309380D02*
X804616095Y-121309380D01*
X804330380Y-122309380D02*
X804330380Y-121309380D01*
X799616095Y-123435571D02*
X799758952Y-123483190D01*
X799806571Y-123530809D01*
X799854190Y-123626047D01*
X799854190Y-123768904D01*
X799806571Y-123864142D01*
X799758952Y-123911761D01*
X799663714Y-123959380D01*
X799282761Y-123959380D01*
X799282761Y-122959380D01*
X799616095Y-122959380D01*
X799711333Y-123007000D01*
X799758952Y-123054619D01*
X799806571Y-123149857D01*
X799806571Y-123245095D01*
X799758952Y-123340333D01*
X799711333Y-123387952D01*
X799616095Y-123435571D01*
X799282761Y-123435571D01*
X800282761Y-122959380D02*
X800282761Y-123768904D01*
X800330380Y-123864142D01*
X800378000Y-123911761D01*
X800473238Y-123959380D01*
X800663714Y-123959380D01*
X800758952Y-123911761D01*
X800806571Y-123864142D01*
X800854190Y-123768904D01*
X800854190Y-122959380D01*
X801663714Y-123435571D02*
X801330380Y-123435571D01*
X801330380Y-123959380D02*
X801330380Y-122959380D01*
X801806571Y-122959380D01*
X802520857Y-123435571D02*
X802187523Y-123435571D01*
X802187523Y-123959380D02*
X802187523Y-122959380D01*
X802663714Y-122959380D01*
X803044666Y-123435571D02*
X803378000Y-123435571D01*
X803520857Y-123959380D02*
X803044666Y-123959380D01*
X803044666Y-122959380D01*
X803520857Y-122959380D01*
X804520857Y-123959380D02*
X804187523Y-123483190D01*
X803949428Y-123959380D02*
X803949428Y-122959380D01*
X804330380Y-122959380D01*
X804425619Y-123007000D01*
X804473238Y-123054619D01*
X804520857Y-123149857D01*
X804520857Y-123292714D01*
X804473238Y-123387952D01*
X804425619Y-123435571D01*
X804330380Y-123483190D01*
X803949428Y-123483190D01*
X798068000Y-100584000D02*
X813816000Y-100584000D01*
X798068000Y-125222000D02*
X798068000Y-100584000D01*
X824992000Y-125222000D02*
X798068000Y-125222000D01*
X824992000Y-100584000D02*
X824992000Y-125222000D01*
X813816000Y-100584000D02*
X824992000Y-100584000D01*
X797814000Y-81026000D02*
X798068000Y-81026000D01*
X797814000Y-100330000D02*
X797814000Y-81026000D01*
X833882000Y-100330000D02*
X797814000Y-100330000D01*
X833882000Y-75438000D02*
X833882000Y-100330000D01*
X817880000Y-75438000D02*
X833882000Y-75438000D01*
X817880000Y-81026000D02*
X817880000Y-75438000D01*
X798068000Y-81026000D02*
X817880000Y-81026000D01*
X813935619Y-43584761D02*
X814078476Y-43632380D01*
X814316571Y-43632380D01*
X814411809Y-43584761D01*
X814459428Y-43537142D01*
X814507047Y-43441904D01*
X814507047Y-43346666D01*
X814459428Y-43251428D01*
X814411809Y-43203809D01*
X814316571Y-43156190D01*
X814126095Y-43108571D01*
X814030857Y-43060952D01*
X813983238Y-43013333D01*
X813935619Y-42918095D01*
X813935619Y-42822857D01*
X813983238Y-42727619D01*
X814030857Y-42680000D01*
X814126095Y-42632380D01*
X814364190Y-42632380D01*
X814507047Y-42680000D01*
X814935619Y-42632380D02*
X814935619Y-43441904D01*
X814983238Y-43537142D01*
X815030857Y-43584761D01*
X815126095Y-43632380D01*
X815316571Y-43632380D01*
X815411809Y-43584761D01*
X815459428Y-43537142D01*
X815507047Y-43441904D01*
X815507047Y-42632380D01*
X815983238Y-43632380D02*
X815983238Y-42632380D01*
X816316571Y-43346666D01*
X816649904Y-42632380D01*
X816649904Y-43632380D01*
X817888000Y-43251428D02*
X818649904Y-43251428D01*
X818268952Y-43632380D02*
X818268952Y-42870476D01*
X820411809Y-42680000D02*
X820316571Y-42632380D01*
X820173714Y-42632380D01*
X820030857Y-42680000D01*
X819935619Y-42775238D01*
X819888000Y-42870476D01*
X819840380Y-43060952D01*
X819840380Y-43203809D01*
X819888000Y-43394285D01*
X819935619Y-43489523D01*
X820030857Y-43584761D01*
X820173714Y-43632380D01*
X820268952Y-43632380D01*
X820411809Y-43584761D01*
X820459428Y-43537142D01*
X820459428Y-43203809D01*
X820268952Y-43203809D01*
X820840380Y-43346666D02*
X821316571Y-43346666D01*
X820745142Y-43632380D02*
X821078476Y-42632380D01*
X821411809Y-43632380D01*
X821745142Y-43632380D02*
X821745142Y-42632380D01*
X822221333Y-43632380D02*
X822221333Y-42632380D01*
X822792761Y-43632380D01*
X822792761Y-42632380D01*
X795782000Y-80772000D02*
X795782000Y-41910000D01*
X804672000Y-80772000D02*
X795782000Y-80772000D01*
X804672000Y-71374000D02*
X804672000Y-80772000D01*
X823468000Y-71374000D02*
X804672000Y-71374000D01*
X823468000Y-41910000D02*
X823468000Y-71374000D01*
X821182000Y-41910000D02*
X823468000Y-41910000D01*
X795782000Y-41910000D02*
X821182000Y-41910000D01*
X768350000Y-112268000D02*
X768858000Y-112268000D01*
X768350000Y-134620000D02*
X768350000Y-112268000D01*
X793496000Y-134620000D02*
X768350000Y-134620000D01*
X793496000Y-110744000D02*
X793496000Y-134620000D01*
X777748000Y-110744000D02*
X793496000Y-110744000D01*
X777748000Y-112268000D02*
X777748000Y-110744000D01*
X768858000Y-112268000D02*
X777748000Y-112268000D01*
X795274000Y-106680000D02*
X795274000Y-91948000D01*
X795020000Y-106680000D02*
X795274000Y-106680000D01*
X768858000Y-106680000D02*
X795020000Y-106680000D01*
X768858000Y-91948000D02*
X768858000Y-106680000D01*
X795274000Y-91948000D02*
X768858000Y-91948000D01*
X795274000Y-62230000D02*
X791210000Y-62230000D01*
X795274000Y-91440000D02*
X795274000Y-62230000D01*
X794512000Y-91440000D02*
X795274000Y-91440000D01*
X768858000Y-91440000D02*
X794512000Y-91440000D01*
X768858000Y-90932000D02*
X768858000Y-91440000D01*
X768858000Y-68580000D02*
X768858000Y-90932000D01*
X772922000Y-68580000D02*
X768858000Y-68580000D01*
X772922000Y-68580000D02*
X787400000Y-68580000D01*
X787400000Y-62230000D02*
X787400000Y-69088000D01*
X791210000Y-62230000D02*
X787400000Y-62230000D01*
X768969523Y-49157380D02*
X768969523Y-48157380D01*
X769445714Y-49157380D02*
X769445714Y-48157380D01*
X770017142Y-49157380D01*
X770017142Y-48157380D01*
X770350476Y-48157380D02*
X770921904Y-48157380D01*
X770636190Y-49157380D02*
X770636190Y-48157380D01*
X771255238Y-48633571D02*
X771588571Y-48633571D01*
X771731428Y-49157380D02*
X771255238Y-49157380D01*
X771255238Y-48157380D01*
X771731428Y-48157380D01*
X772683809Y-48205000D02*
X772588571Y-48157380D01*
X772445714Y-48157380D01*
X772302857Y-48205000D01*
X772207619Y-48300238D01*
X772160000Y-48395476D01*
X772112380Y-48585952D01*
X772112380Y-48728809D01*
X772160000Y-48919285D01*
X772207619Y-49014523D01*
X772302857Y-49109761D01*
X772445714Y-49157380D01*
X772540952Y-49157380D01*
X772683809Y-49109761D01*
X772731428Y-49062142D01*
X772731428Y-48728809D01*
X772540952Y-48728809D01*
X773731428Y-49157380D02*
X773398095Y-48681190D01*
X773160000Y-49157380D02*
X773160000Y-48157380D01*
X773540952Y-48157380D01*
X773636190Y-48205000D01*
X773683809Y-48252619D01*
X773731428Y-48347857D01*
X773731428Y-48490714D01*
X773683809Y-48585952D01*
X773636190Y-48633571D01*
X773540952Y-48681190D01*
X773160000Y-48681190D01*
X774112380Y-48871666D02*
X774588571Y-48871666D01*
X774017142Y-49157380D02*
X774350476Y-48157380D01*
X774683809Y-49157380D01*
X775493333Y-49157380D02*
X775017142Y-49157380D01*
X775017142Y-48157380D01*
X770707619Y-50807380D02*
X770374285Y-50331190D01*
X770136190Y-50807380D02*
X770136190Y-49807380D01*
X770517142Y-49807380D01*
X770612380Y-49855000D01*
X770660000Y-49902619D01*
X770707619Y-49997857D01*
X770707619Y-50140714D01*
X770660000Y-50235952D01*
X770612380Y-50283571D01*
X770517142Y-50331190D01*
X770136190Y-50331190D01*
X771136190Y-50283571D02*
X771469523Y-50283571D01*
X771612380Y-50807380D02*
X771136190Y-50807380D01*
X771136190Y-49807380D01*
X771612380Y-49807380D01*
X771993333Y-50759761D02*
X772136190Y-50807380D01*
X772374285Y-50807380D01*
X772469523Y-50759761D01*
X772517142Y-50712142D01*
X772564761Y-50616904D01*
X772564761Y-50521666D01*
X772517142Y-50426428D01*
X772469523Y-50378809D01*
X772374285Y-50331190D01*
X772183809Y-50283571D01*
X772088571Y-50235952D01*
X772040952Y-50188333D01*
X771993333Y-50093095D01*
X771993333Y-49997857D01*
X772040952Y-49902619D01*
X772088571Y-49855000D01*
X772183809Y-49807380D01*
X772421904Y-49807380D01*
X772564761Y-49855000D01*
X772993333Y-50283571D02*
X773326666Y-50283571D01*
X773469523Y-50807380D02*
X772993333Y-50807380D01*
X772993333Y-49807380D01*
X773469523Y-49807380D01*
X773755238Y-49807380D02*
X774326666Y-49807380D01*
X774040952Y-50807380D02*
X774040952Y-49807380D01*
X766064000Y-46990000D02*
X766064000Y-67818000D01*
X777748000Y-46990000D02*
X766064000Y-46990000D01*
X777748000Y-41910000D02*
X777748000Y-46990000D01*
X788162000Y-41910000D02*
X777748000Y-41910000D01*
X788162000Y-53340000D02*
X788162000Y-41910000D01*
X784098000Y-53340000D02*
X788162000Y-53340000D01*
X784098000Y-67818000D02*
X784098000Y-53340000D01*
X766064000Y-67818000D02*
X784098000Y-67818000D01*
X755523095Y-40140000D02*
X755427857Y-40092380D01*
X755285000Y-40092380D01*
X755142142Y-40140000D01*
X755046904Y-40235238D01*
X754999285Y-40330476D01*
X754951666Y-40520952D01*
X754951666Y-40663809D01*
X754999285Y-40854285D01*
X755046904Y-40949523D01*
X755142142Y-41044761D01*
X755285000Y-41092380D01*
X755380238Y-41092380D01*
X755523095Y-41044761D01*
X755570714Y-40997142D01*
X755570714Y-40663809D01*
X755380238Y-40663809D01*
X755999285Y-41092380D02*
X755999285Y-40092380D01*
X756570714Y-41092380D01*
X756570714Y-40092380D01*
X757046904Y-41092380D02*
X757046904Y-40092380D01*
X757285000Y-40092380D01*
X757427857Y-40140000D01*
X757523095Y-40235238D01*
X757570714Y-40330476D01*
X757618333Y-40520952D01*
X757618333Y-40663809D01*
X757570714Y-40854285D01*
X757523095Y-40949523D01*
X757427857Y-41044761D01*
X757285000Y-41092380D01*
X757046904Y-41092380D01*
X754983714Y-47966380D02*
X755317047Y-48966380D01*
X755650380Y-47966380D01*
X756555142Y-48871142D02*
X756507523Y-48918761D01*
X756364666Y-48966380D01*
X756269428Y-48966380D01*
X756126571Y-48918761D01*
X756031333Y-48823523D01*
X755983714Y-48728285D01*
X755936095Y-48537809D01*
X755936095Y-48394952D01*
X755983714Y-48204476D01*
X756031333Y-48109238D01*
X756126571Y-48014000D01*
X756269428Y-47966380D01*
X756364666Y-47966380D01*
X756507523Y-48014000D01*
X756555142Y-48061619D01*
X757555142Y-48871142D02*
X757507523Y-48918761D01*
X757364666Y-48966380D01*
X757269428Y-48966380D01*
X757126571Y-48918761D01*
X757031333Y-48823523D01*
X756983714Y-48728285D01*
X756936095Y-48537809D01*
X756936095Y-48394952D01*
X756983714Y-48204476D01*
X757031333Y-48109238D01*
X757126571Y-48014000D01*
X757269428Y-47966380D01*
X757364666Y-47966380D01*
X757507523Y-48014000D01*
X757555142Y-48061619D01*
X758745619Y-48585428D02*
X759507523Y-48585428D01*
X759126571Y-48966380D02*
X759126571Y-48204476D01*
X760507523Y-48966380D02*
X759936095Y-48966380D01*
X760221809Y-48966380D02*
X760221809Y-47966380D01*
X760126571Y-48109238D01*
X760031333Y-48204476D01*
X759936095Y-48252095D01*
X761412285Y-47966380D02*
X760936095Y-47966380D01*
X760888476Y-48442571D01*
X760936095Y-48394952D01*
X761031333Y-48347333D01*
X761269428Y-48347333D01*
X761364666Y-48394952D01*
X761412285Y-48442571D01*
X761459904Y-48537809D01*
X761459904Y-48775904D01*
X761412285Y-48871142D01*
X761364666Y-48918761D01*
X761269428Y-48966380D01*
X761031333Y-48966380D01*
X760936095Y-48918761D01*
X760888476Y-48871142D01*
X761745619Y-47966380D02*
X762078952Y-48966380D01*
X762412285Y-47966380D01*
X754777333Y-32472380D02*
X755110666Y-33472380D01*
X755444000Y-32472380D01*
X755729714Y-33424761D02*
X755872571Y-33472380D01*
X756110666Y-33472380D01*
X756205904Y-33424761D01*
X756253523Y-33377142D01*
X756301142Y-33281904D01*
X756301142Y-33186666D01*
X756253523Y-33091428D01*
X756205904Y-33043809D01*
X756110666Y-32996190D01*
X755920190Y-32948571D01*
X755824952Y-32900952D01*
X755777333Y-32853333D01*
X755729714Y-32758095D01*
X755729714Y-32662857D01*
X755777333Y-32567619D01*
X755824952Y-32520000D01*
X755920190Y-32472380D01*
X756158285Y-32472380D01*
X756301142Y-32520000D01*
X756682095Y-33424761D02*
X756824952Y-33472380D01*
X757063047Y-33472380D01*
X757158285Y-33424761D01*
X757205904Y-33377142D01*
X757253523Y-33281904D01*
X757253523Y-33186666D01*
X757205904Y-33091428D01*
X757158285Y-33043809D01*
X757063047Y-32996190D01*
X756872571Y-32948571D01*
X756777333Y-32900952D01*
X756729714Y-32853333D01*
X756682095Y-32758095D01*
X756682095Y-32662857D01*
X756729714Y-32567619D01*
X756777333Y-32520000D01*
X756872571Y-32472380D01*
X757110666Y-32472380D01*
X757253523Y-32520000D01*
X758444000Y-33091428D02*
X759205904Y-33091428D01*
X760205904Y-33472380D02*
X759634476Y-33472380D01*
X759920190Y-33472380D02*
X759920190Y-32472380D01*
X759824952Y-32615238D01*
X759729714Y-32710476D01*
X759634476Y-32758095D01*
X761110666Y-32472380D02*
X760634476Y-32472380D01*
X760586857Y-32948571D01*
X760634476Y-32900952D01*
X760729714Y-32853333D01*
X760967809Y-32853333D01*
X761063047Y-32900952D01*
X761110666Y-32948571D01*
X761158285Y-33043809D01*
X761158285Y-33281904D01*
X761110666Y-33377142D01*
X761063047Y-33424761D01*
X760967809Y-33472380D01*
X760729714Y-33472380D01*
X760634476Y-33424761D01*
X760586857Y-33377142D01*
X761444000Y-32472380D02*
X761777333Y-33472380D01*
X762110666Y-32472380D01*
D13*
%TO.C,C1*%
X766017000Y-44847000D02*
G75*
G03*
X766017000Y-44847000I-2620000J0D01*
G01*
X764437000Y-44847000D02*
X765977000Y-44847000D01*
X760817000Y-44847000D02*
X762357000Y-44847000D01*
X764437000Y-44807000D02*
X765977000Y-44807000D01*
X760817000Y-44807000D02*
X762357000Y-44807000D01*
X760818000Y-44767000D02*
X762357000Y-44767000D01*
X764437000Y-44767000D02*
X765976000Y-44767000D01*
X760819000Y-44727000D02*
X762357000Y-44727000D01*
X764437000Y-44727000D02*
X765975000Y-44727000D01*
X760821000Y-44687000D02*
X762357000Y-44687000D01*
X764437000Y-44687000D02*
X765973000Y-44687000D01*
X760824000Y-44647000D02*
X762357000Y-44647000D01*
X764437000Y-44647000D02*
X765970000Y-44647000D01*
X760828000Y-44607000D02*
X762357000Y-44607000D01*
X764437000Y-44607000D02*
X765966000Y-44607000D01*
X760832000Y-44567000D02*
X762357000Y-44567000D01*
X764437000Y-44567000D02*
X765962000Y-44567000D01*
X760836000Y-44527000D02*
X762357000Y-44527000D01*
X764437000Y-44527000D02*
X765958000Y-44527000D01*
X760841000Y-44487000D02*
X762357000Y-44487000D01*
X764437000Y-44487000D02*
X765953000Y-44487000D01*
X760847000Y-44447000D02*
X762357000Y-44447000D01*
X764437000Y-44447000D02*
X765947000Y-44447000D01*
X760854000Y-44407000D02*
X762357000Y-44407000D01*
X764437000Y-44407000D02*
X765940000Y-44407000D01*
X760861000Y-44367000D02*
X762357000Y-44367000D01*
X764437000Y-44367000D02*
X765933000Y-44367000D01*
X760869000Y-44327000D02*
X762357000Y-44327000D01*
X764437000Y-44327000D02*
X765925000Y-44327000D01*
X760877000Y-44287000D02*
X762357000Y-44287000D01*
X764437000Y-44287000D02*
X765917000Y-44287000D01*
X760886000Y-44247000D02*
X762357000Y-44247000D01*
X764437000Y-44247000D02*
X765908000Y-44247000D01*
X760896000Y-44207000D02*
X762357000Y-44207000D01*
X764437000Y-44207000D02*
X765898000Y-44207000D01*
X760906000Y-44167000D02*
X762357000Y-44167000D01*
X764437000Y-44167000D02*
X765888000Y-44167000D01*
X760917000Y-44126000D02*
X762357000Y-44126000D01*
X764437000Y-44126000D02*
X765877000Y-44126000D01*
X760929000Y-44086000D02*
X762357000Y-44086000D01*
X764437000Y-44086000D02*
X765865000Y-44086000D01*
X760942000Y-44046000D02*
X762357000Y-44046000D01*
X764437000Y-44046000D02*
X765852000Y-44046000D01*
X760955000Y-44006000D02*
X762357000Y-44006000D01*
X764437000Y-44006000D02*
X765839000Y-44006000D01*
X760969000Y-43966000D02*
X762357000Y-43966000D01*
X764437000Y-43966000D02*
X765825000Y-43966000D01*
X760983000Y-43926000D02*
X762357000Y-43926000D01*
X764437000Y-43926000D02*
X765811000Y-43926000D01*
X760999000Y-43886000D02*
X762357000Y-43886000D01*
X764437000Y-43886000D02*
X765795000Y-43886000D01*
X761015000Y-43846000D02*
X762357000Y-43846000D01*
X764437000Y-43846000D02*
X765779000Y-43846000D01*
X761032000Y-43806000D02*
X762357000Y-43806000D01*
X764437000Y-43806000D02*
X765762000Y-43806000D01*
X761049000Y-43766000D02*
X762357000Y-43766000D01*
X764437000Y-43766000D02*
X765745000Y-43766000D01*
X761068000Y-43726000D02*
X762357000Y-43726000D01*
X764437000Y-43726000D02*
X765726000Y-43726000D01*
X761087000Y-43686000D02*
X762357000Y-43686000D01*
X764437000Y-43686000D02*
X765707000Y-43686000D01*
X761107000Y-43646000D02*
X762357000Y-43646000D01*
X764437000Y-43646000D02*
X765687000Y-43646000D01*
X761129000Y-43606000D02*
X762357000Y-43606000D01*
X764437000Y-43606000D02*
X765665000Y-43606000D01*
X761150000Y-43566000D02*
X762357000Y-43566000D01*
X764437000Y-43566000D02*
X765644000Y-43566000D01*
X761173000Y-43526000D02*
X762357000Y-43526000D01*
X764437000Y-43526000D02*
X765621000Y-43526000D01*
X761197000Y-43486000D02*
X762357000Y-43486000D01*
X764437000Y-43486000D02*
X765597000Y-43486000D01*
X761222000Y-43446000D02*
X762357000Y-43446000D01*
X764437000Y-43446000D02*
X765572000Y-43446000D01*
X761248000Y-43406000D02*
X762357000Y-43406000D01*
X764437000Y-43406000D02*
X765546000Y-43406000D01*
X761275000Y-43366000D02*
X762357000Y-43366000D01*
X764437000Y-43366000D02*
X765519000Y-43366000D01*
X761302000Y-43326000D02*
X762357000Y-43326000D01*
X764437000Y-43326000D02*
X765492000Y-43326000D01*
X761332000Y-43286000D02*
X762357000Y-43286000D01*
X764437000Y-43286000D02*
X765462000Y-43286000D01*
X761362000Y-43246000D02*
X762357000Y-43246000D01*
X764437000Y-43246000D02*
X765432000Y-43246000D01*
X761393000Y-43206000D02*
X762357000Y-43206000D01*
X764437000Y-43206000D02*
X765401000Y-43206000D01*
X761426000Y-43166000D02*
X762357000Y-43166000D01*
X764437000Y-43166000D02*
X765368000Y-43166000D01*
X761460000Y-43126000D02*
X762357000Y-43126000D01*
X764437000Y-43126000D02*
X765334000Y-43126000D01*
X761496000Y-43086000D02*
X762357000Y-43086000D01*
X764437000Y-43086000D02*
X765298000Y-43086000D01*
X761533000Y-43046000D02*
X762357000Y-43046000D01*
X764437000Y-43046000D02*
X765261000Y-43046000D01*
X761571000Y-43006000D02*
X762357000Y-43006000D01*
X764437000Y-43006000D02*
X765223000Y-43006000D01*
X761612000Y-42966000D02*
X762357000Y-42966000D01*
X764437000Y-42966000D02*
X765182000Y-42966000D01*
X761654000Y-42926000D02*
X762357000Y-42926000D01*
X764437000Y-42926000D02*
X765140000Y-42926000D01*
X761698000Y-42886000D02*
X762357000Y-42886000D01*
X764437000Y-42886000D02*
X765096000Y-42886000D01*
X761744000Y-42846000D02*
X762357000Y-42846000D01*
X764437000Y-42846000D02*
X765050000Y-42846000D01*
X761792000Y-42806000D02*
X765002000Y-42806000D01*
X761843000Y-42766000D02*
X764951000Y-42766000D01*
X761897000Y-42726000D02*
X764897000Y-42726000D01*
X761954000Y-42686000D02*
X764840000Y-42686000D01*
X762014000Y-42646000D02*
X764780000Y-42646000D01*
X762078000Y-42606000D02*
X764716000Y-42606000D01*
X762146000Y-42566000D02*
X764648000Y-42566000D01*
X762219000Y-42526000D02*
X764575000Y-42526000D01*
X762299000Y-42486000D02*
X764495000Y-42486000D01*
X762386000Y-42446000D02*
X764408000Y-42446000D01*
X762482000Y-42406000D02*
X764312000Y-42406000D01*
X762592000Y-42366000D02*
X764202000Y-42366000D01*
X762720000Y-42326000D02*
X764074000Y-42326000D01*
X762879000Y-42286000D02*
X763915000Y-42286000D01*
X763113000Y-42246000D02*
X763681000Y-42246000D01*
X761922000Y-47651775D02*
X761922000Y-47151775D01*
X761672000Y-47401775D02*
X762172000Y-47401775D01*
%TO.C,C2*%
X765890000Y-36465000D02*
G75*
G03*
X765890000Y-36465000I-2620000J0D01*
G01*
X764310000Y-36465000D02*
X765850000Y-36465000D01*
X760690000Y-36465000D02*
X762230000Y-36465000D01*
X764310000Y-36425000D02*
X765850000Y-36425000D01*
X760690000Y-36425000D02*
X762230000Y-36425000D01*
X760691000Y-36385000D02*
X762230000Y-36385000D01*
X764310000Y-36385000D02*
X765849000Y-36385000D01*
X760692000Y-36345000D02*
X762230000Y-36345000D01*
X764310000Y-36345000D02*
X765848000Y-36345000D01*
X760694000Y-36305000D02*
X762230000Y-36305000D01*
X764310000Y-36305000D02*
X765846000Y-36305000D01*
X760697000Y-36265000D02*
X762230000Y-36265000D01*
X764310000Y-36265000D02*
X765843000Y-36265000D01*
X760701000Y-36225000D02*
X762230000Y-36225000D01*
X764310000Y-36225000D02*
X765839000Y-36225000D01*
X760705000Y-36185000D02*
X762230000Y-36185000D01*
X764310000Y-36185000D02*
X765835000Y-36185000D01*
X760709000Y-36145000D02*
X762230000Y-36145000D01*
X764310000Y-36145000D02*
X765831000Y-36145000D01*
X760714000Y-36105000D02*
X762230000Y-36105000D01*
X764310000Y-36105000D02*
X765826000Y-36105000D01*
X760720000Y-36065000D02*
X762230000Y-36065000D01*
X764310000Y-36065000D02*
X765820000Y-36065000D01*
X760727000Y-36025000D02*
X762230000Y-36025000D01*
X764310000Y-36025000D02*
X765813000Y-36025000D01*
X760734000Y-35985000D02*
X762230000Y-35985000D01*
X764310000Y-35985000D02*
X765806000Y-35985000D01*
X760742000Y-35945000D02*
X762230000Y-35945000D01*
X764310000Y-35945000D02*
X765798000Y-35945000D01*
X760750000Y-35905000D02*
X762230000Y-35905000D01*
X764310000Y-35905000D02*
X765790000Y-35905000D01*
X760759000Y-35865000D02*
X762230000Y-35865000D01*
X764310000Y-35865000D02*
X765781000Y-35865000D01*
X760769000Y-35825000D02*
X762230000Y-35825000D01*
X764310000Y-35825000D02*
X765771000Y-35825000D01*
X760779000Y-35785000D02*
X762230000Y-35785000D01*
X764310000Y-35785000D02*
X765761000Y-35785000D01*
X760790000Y-35744000D02*
X762230000Y-35744000D01*
X764310000Y-35744000D02*
X765750000Y-35744000D01*
X760802000Y-35704000D02*
X762230000Y-35704000D01*
X764310000Y-35704000D02*
X765738000Y-35704000D01*
X760815000Y-35664000D02*
X762230000Y-35664000D01*
X764310000Y-35664000D02*
X765725000Y-35664000D01*
X760828000Y-35624000D02*
X762230000Y-35624000D01*
X764310000Y-35624000D02*
X765712000Y-35624000D01*
X760842000Y-35584000D02*
X762230000Y-35584000D01*
X764310000Y-35584000D02*
X765698000Y-35584000D01*
X760856000Y-35544000D02*
X762230000Y-35544000D01*
X764310000Y-35544000D02*
X765684000Y-35544000D01*
X760872000Y-35504000D02*
X762230000Y-35504000D01*
X764310000Y-35504000D02*
X765668000Y-35504000D01*
X760888000Y-35464000D02*
X762230000Y-35464000D01*
X764310000Y-35464000D02*
X765652000Y-35464000D01*
X760905000Y-35424000D02*
X762230000Y-35424000D01*
X764310000Y-35424000D02*
X765635000Y-35424000D01*
X760922000Y-35384000D02*
X762230000Y-35384000D01*
X764310000Y-35384000D02*
X765618000Y-35384000D01*
X760941000Y-35344000D02*
X762230000Y-35344000D01*
X764310000Y-35344000D02*
X765599000Y-35344000D01*
X760960000Y-35304000D02*
X762230000Y-35304000D01*
X764310000Y-35304000D02*
X765580000Y-35304000D01*
X760980000Y-35264000D02*
X762230000Y-35264000D01*
X764310000Y-35264000D02*
X765560000Y-35264000D01*
X761002000Y-35224000D02*
X762230000Y-35224000D01*
X764310000Y-35224000D02*
X765538000Y-35224000D01*
X761023000Y-35184000D02*
X762230000Y-35184000D01*
X764310000Y-35184000D02*
X765517000Y-35184000D01*
X761046000Y-35144000D02*
X762230000Y-35144000D01*
X764310000Y-35144000D02*
X765494000Y-35144000D01*
X761070000Y-35104000D02*
X762230000Y-35104000D01*
X764310000Y-35104000D02*
X765470000Y-35104000D01*
X761095000Y-35064000D02*
X762230000Y-35064000D01*
X764310000Y-35064000D02*
X765445000Y-35064000D01*
X761121000Y-35024000D02*
X762230000Y-35024000D01*
X764310000Y-35024000D02*
X765419000Y-35024000D01*
X761148000Y-34984000D02*
X762230000Y-34984000D01*
X764310000Y-34984000D02*
X765392000Y-34984000D01*
X761175000Y-34944000D02*
X762230000Y-34944000D01*
X764310000Y-34944000D02*
X765365000Y-34944000D01*
X761205000Y-34904000D02*
X762230000Y-34904000D01*
X764310000Y-34904000D02*
X765335000Y-34904000D01*
X761235000Y-34864000D02*
X762230000Y-34864000D01*
X764310000Y-34864000D02*
X765305000Y-34864000D01*
X761266000Y-34824000D02*
X762230000Y-34824000D01*
X764310000Y-34824000D02*
X765274000Y-34824000D01*
X761299000Y-34784000D02*
X762230000Y-34784000D01*
X764310000Y-34784000D02*
X765241000Y-34784000D01*
X761333000Y-34744000D02*
X762230000Y-34744000D01*
X764310000Y-34744000D02*
X765207000Y-34744000D01*
X761369000Y-34704000D02*
X762230000Y-34704000D01*
X764310000Y-34704000D02*
X765171000Y-34704000D01*
X761406000Y-34664000D02*
X762230000Y-34664000D01*
X764310000Y-34664000D02*
X765134000Y-34664000D01*
X761444000Y-34624000D02*
X762230000Y-34624000D01*
X764310000Y-34624000D02*
X765096000Y-34624000D01*
X761485000Y-34584000D02*
X762230000Y-34584000D01*
X764310000Y-34584000D02*
X765055000Y-34584000D01*
X761527000Y-34544000D02*
X762230000Y-34544000D01*
X764310000Y-34544000D02*
X765013000Y-34544000D01*
X761571000Y-34504000D02*
X762230000Y-34504000D01*
X764310000Y-34504000D02*
X764969000Y-34504000D01*
X761617000Y-34464000D02*
X762230000Y-34464000D01*
X764310000Y-34464000D02*
X764923000Y-34464000D01*
X761665000Y-34424000D02*
X764875000Y-34424000D01*
X761716000Y-34384000D02*
X764824000Y-34384000D01*
X761770000Y-34344000D02*
X764770000Y-34344000D01*
X761827000Y-34304000D02*
X764713000Y-34304000D01*
X761887000Y-34264000D02*
X764653000Y-34264000D01*
X761951000Y-34224000D02*
X764589000Y-34224000D01*
X762019000Y-34184000D02*
X764521000Y-34184000D01*
X762092000Y-34144000D02*
X764448000Y-34144000D01*
X762172000Y-34104000D02*
X764368000Y-34104000D01*
X762259000Y-34064000D02*
X764281000Y-34064000D01*
X762355000Y-34024000D02*
X764185000Y-34024000D01*
X762465000Y-33984000D02*
X764075000Y-33984000D01*
X762593000Y-33944000D02*
X763947000Y-33944000D01*
X762752000Y-33904000D02*
X763788000Y-33904000D01*
X762986000Y-33864000D02*
X763554000Y-33864000D01*
X761795000Y-39269775D02*
X761795000Y-38769775D01*
X761545000Y-39019775D02*
X762045000Y-39019775D01*
%TO.C,C3*%
X770054000Y-44480775D02*
X770554000Y-44480775D01*
X770304000Y-44730775D02*
X770304000Y-44230775D01*
X771495000Y-39325000D02*
X772063000Y-39325000D01*
X771261000Y-39365000D02*
X772297000Y-39365000D01*
X771102000Y-39405000D02*
X772456000Y-39405000D01*
X770974000Y-39445000D02*
X772584000Y-39445000D01*
X770864000Y-39485000D02*
X772694000Y-39485000D01*
X770768000Y-39525000D02*
X772790000Y-39525000D01*
X770681000Y-39565000D02*
X772877000Y-39565000D01*
X770601000Y-39605000D02*
X772957000Y-39605000D01*
X770528000Y-39645000D02*
X773030000Y-39645000D01*
X770460000Y-39685000D02*
X773098000Y-39685000D01*
X770396000Y-39725000D02*
X773162000Y-39725000D01*
X770336000Y-39765000D02*
X773222000Y-39765000D01*
X770279000Y-39805000D02*
X773279000Y-39805000D01*
X770225000Y-39845000D02*
X773333000Y-39845000D01*
X770174000Y-39885000D02*
X773384000Y-39885000D01*
X772819000Y-39925000D02*
X773432000Y-39925000D01*
X770126000Y-39925000D02*
X770739000Y-39925000D01*
X772819000Y-39965000D02*
X773478000Y-39965000D01*
X770080000Y-39965000D02*
X770739000Y-39965000D01*
X772819000Y-40005000D02*
X773522000Y-40005000D01*
X770036000Y-40005000D02*
X770739000Y-40005000D01*
X772819000Y-40045000D02*
X773564000Y-40045000D01*
X769994000Y-40045000D02*
X770739000Y-40045000D01*
X772819000Y-40085000D02*
X773605000Y-40085000D01*
X769953000Y-40085000D02*
X770739000Y-40085000D01*
X772819000Y-40125000D02*
X773643000Y-40125000D01*
X769915000Y-40125000D02*
X770739000Y-40125000D01*
X772819000Y-40165000D02*
X773680000Y-40165000D01*
X769878000Y-40165000D02*
X770739000Y-40165000D01*
X772819000Y-40205000D02*
X773716000Y-40205000D01*
X769842000Y-40205000D02*
X770739000Y-40205000D01*
X772819000Y-40245000D02*
X773750000Y-40245000D01*
X769808000Y-40245000D02*
X770739000Y-40245000D01*
X772819000Y-40285000D02*
X773783000Y-40285000D01*
X769775000Y-40285000D02*
X770739000Y-40285000D01*
X772819000Y-40325000D02*
X773814000Y-40325000D01*
X769744000Y-40325000D02*
X770739000Y-40325000D01*
X772819000Y-40365000D02*
X773844000Y-40365000D01*
X769714000Y-40365000D02*
X770739000Y-40365000D01*
X772819000Y-40405000D02*
X773874000Y-40405000D01*
X769684000Y-40405000D02*
X770739000Y-40405000D01*
X772819000Y-40445000D02*
X773901000Y-40445000D01*
X769657000Y-40445000D02*
X770739000Y-40445000D01*
X772819000Y-40485000D02*
X773928000Y-40485000D01*
X769630000Y-40485000D02*
X770739000Y-40485000D01*
X772819000Y-40525000D02*
X773954000Y-40525000D01*
X769604000Y-40525000D02*
X770739000Y-40525000D01*
X772819000Y-40565000D02*
X773979000Y-40565000D01*
X769579000Y-40565000D02*
X770739000Y-40565000D01*
X772819000Y-40605000D02*
X774003000Y-40605000D01*
X769555000Y-40605000D02*
X770739000Y-40605000D01*
X772819000Y-40645000D02*
X774026000Y-40645000D01*
X769532000Y-40645000D02*
X770739000Y-40645000D01*
X772819000Y-40685000D02*
X774047000Y-40685000D01*
X769511000Y-40685000D02*
X770739000Y-40685000D01*
X772819000Y-40725000D02*
X774069000Y-40725000D01*
X769489000Y-40725000D02*
X770739000Y-40725000D01*
X772819000Y-40765000D02*
X774089000Y-40765000D01*
X769469000Y-40765000D02*
X770739000Y-40765000D01*
X772819000Y-40805000D02*
X774108000Y-40805000D01*
X769450000Y-40805000D02*
X770739000Y-40805000D01*
X772819000Y-40845000D02*
X774127000Y-40845000D01*
X769431000Y-40845000D02*
X770739000Y-40845000D01*
X772819000Y-40885000D02*
X774144000Y-40885000D01*
X769414000Y-40885000D02*
X770739000Y-40885000D01*
X772819000Y-40925000D02*
X774161000Y-40925000D01*
X769397000Y-40925000D02*
X770739000Y-40925000D01*
X772819000Y-40965000D02*
X774177000Y-40965000D01*
X769381000Y-40965000D02*
X770739000Y-40965000D01*
X772819000Y-41005000D02*
X774193000Y-41005000D01*
X769365000Y-41005000D02*
X770739000Y-41005000D01*
X772819000Y-41045000D02*
X774207000Y-41045000D01*
X769351000Y-41045000D02*
X770739000Y-41045000D01*
X772819000Y-41085000D02*
X774221000Y-41085000D01*
X769337000Y-41085000D02*
X770739000Y-41085000D01*
X772819000Y-41125000D02*
X774234000Y-41125000D01*
X769324000Y-41125000D02*
X770739000Y-41125000D01*
X772819000Y-41165000D02*
X774247000Y-41165000D01*
X769311000Y-41165000D02*
X770739000Y-41165000D01*
X772819000Y-41205000D02*
X774259000Y-41205000D01*
X769299000Y-41205000D02*
X770739000Y-41205000D01*
X772819000Y-41246000D02*
X774270000Y-41246000D01*
X769288000Y-41246000D02*
X770739000Y-41246000D01*
X772819000Y-41286000D02*
X774280000Y-41286000D01*
X769278000Y-41286000D02*
X770739000Y-41286000D01*
X772819000Y-41326000D02*
X774290000Y-41326000D01*
X769268000Y-41326000D02*
X770739000Y-41326000D01*
X772819000Y-41366000D02*
X774299000Y-41366000D01*
X769259000Y-41366000D02*
X770739000Y-41366000D01*
X772819000Y-41406000D02*
X774307000Y-41406000D01*
X769251000Y-41406000D02*
X770739000Y-41406000D01*
X772819000Y-41446000D02*
X774315000Y-41446000D01*
X769243000Y-41446000D02*
X770739000Y-41446000D01*
X772819000Y-41486000D02*
X774322000Y-41486000D01*
X769236000Y-41486000D02*
X770739000Y-41486000D01*
X772819000Y-41526000D02*
X774329000Y-41526000D01*
X769229000Y-41526000D02*
X770739000Y-41526000D01*
X772819000Y-41566000D02*
X774335000Y-41566000D01*
X769223000Y-41566000D02*
X770739000Y-41566000D01*
X772819000Y-41606000D02*
X774340000Y-41606000D01*
X769218000Y-41606000D02*
X770739000Y-41606000D01*
X772819000Y-41646000D02*
X774344000Y-41646000D01*
X769214000Y-41646000D02*
X770739000Y-41646000D01*
X772819000Y-41686000D02*
X774348000Y-41686000D01*
X769210000Y-41686000D02*
X770739000Y-41686000D01*
X772819000Y-41726000D02*
X774352000Y-41726000D01*
X769206000Y-41726000D02*
X770739000Y-41726000D01*
X772819000Y-41766000D02*
X774355000Y-41766000D01*
X769203000Y-41766000D02*
X770739000Y-41766000D01*
X772819000Y-41806000D02*
X774357000Y-41806000D01*
X769201000Y-41806000D02*
X770739000Y-41806000D01*
X772819000Y-41846000D02*
X774358000Y-41846000D01*
X769200000Y-41846000D02*
X770739000Y-41846000D01*
X769199000Y-41886000D02*
X770739000Y-41886000D01*
X772819000Y-41886000D02*
X774359000Y-41886000D01*
X769199000Y-41926000D02*
X770739000Y-41926000D01*
X772819000Y-41926000D02*
X774359000Y-41926000D01*
X774399000Y-41926000D02*
G75*
G03*
X774399000Y-41926000I-2620000J0D01*
G01*
%TO.C,C4*%
X773578000Y-110223752D02*
X773578000Y-108801248D01*
X771758000Y-110223752D02*
X771758000Y-108801248D01*
%TO.C,C5*%
X786024000Y-96151248D02*
X786024000Y-97573752D01*
X784204000Y-96151248D02*
X784204000Y-97573752D01*
%TO.C,C6*%
X789090000Y-63302000D02*
X793330000Y-63302000D01*
X789090000Y-76542000D02*
X793330000Y-76542000D01*
X793330000Y-76542000D02*
X793330000Y-63302000D01*
X789090000Y-76542000D02*
X789090000Y-63302000D01*
%TO.C,C7*%
X773578000Y-85039252D02*
X773578000Y-83616748D01*
X771758000Y-85039252D02*
X771758000Y-83616748D01*
%TO.C,C8*%
X786151000Y-72021248D02*
X786151000Y-73443752D01*
X784331000Y-72021248D02*
X784331000Y-73443752D01*
%TO.C,C9*%
X774941752Y-129942000D02*
X773519248Y-129942000D01*
X774941752Y-128122000D02*
X773519248Y-128122000D01*
%TO.C,C10*%
X779759000Y-110032748D02*
X779759000Y-111455252D01*
X781579000Y-110032748D02*
X781579000Y-111455252D01*
%TO.C,C11*%
X806373748Y-66527000D02*
X807796252Y-66527000D01*
X806373748Y-68347000D02*
X807796252Y-68347000D01*
%TO.C,C12*%
X815446000Y-49288248D02*
X815446000Y-50710752D01*
X817266000Y-49288248D02*
X817266000Y-50710752D01*
%TO.C,C13*%
X796456000Y-56349000D02*
X796456000Y-43109000D01*
X800696000Y-56349000D02*
X800696000Y-43109000D01*
X796456000Y-56349000D02*
X800696000Y-56349000D01*
X796456000Y-43109000D02*
X800696000Y-43109000D01*
%TO.C,C16*%
X811043000Y-118274752D02*
X811043000Y-116852248D01*
X809223000Y-118274752D02*
X809223000Y-116852248D01*
%TO.C,C17*%
X822981000Y-104317748D02*
X822981000Y-105740252D01*
X821161000Y-104317748D02*
X821161000Y-105740252D01*
%TO.C,C18*%
X827900752Y-95017000D02*
X826478248Y-95017000D01*
X827900752Y-93197000D02*
X826478248Y-93197000D01*
%TO.C,C19*%
X807699000Y-93586752D02*
X807699000Y-92164248D01*
X809519000Y-93586752D02*
X809519000Y-92164248D01*
%TO.C,C20*%
X779505000Y-44970248D02*
X779505000Y-46392752D01*
X781325000Y-44970248D02*
X781325000Y-46392752D01*
%TO.C,D1*%
X821459000Y-92417000D02*
X823699000Y-92417000D01*
X823699000Y-92417000D02*
X823699000Y-88177000D01*
X823699000Y-88177000D02*
X821459000Y-88177000D01*
X821459000Y-88177000D02*
X821459000Y-92417000D01*
X822579000Y-93067000D02*
X822579000Y-92417000D01*
X822579000Y-87527000D02*
X822579000Y-88177000D01*
X821459000Y-91697000D02*
X823699000Y-91697000D01*
X821459000Y-91577000D02*
X823699000Y-91577000D01*
X821459000Y-91817000D02*
X823699000Y-91817000D01*
%TO.C,D2*%
X813939000Y-87607000D02*
X813939000Y-85367000D01*
X813699000Y-87607000D02*
X813699000Y-85367000D01*
X813819000Y-87607000D02*
X813819000Y-85367000D01*
X809649000Y-86487000D02*
X810299000Y-86487000D01*
X815189000Y-86487000D02*
X814539000Y-86487000D01*
X810299000Y-87607000D02*
X814539000Y-87607000D01*
X810299000Y-85367000D02*
X810299000Y-87607000D01*
X814539000Y-85367000D02*
X810299000Y-85367000D01*
X814539000Y-87607000D02*
X814539000Y-85367000D01*
%TO.C,D3*%
X771489000Y-34197000D02*
X771489000Y-34353000D01*
X771489000Y-36513000D02*
X771489000Y-36669000D01*
X774721335Y-34354392D02*
G75*
G03*
X771489000Y-34197484I-1672335J-1078608D01*
G01*
X774721335Y-36511608D02*
G75*
G02*
X771489000Y-36668516I-1672335J1078608D01*
G01*
X774090130Y-34353163D02*
G75*
G03*
X772008039Y-34353000I-1041130J-1079837D01*
G01*
X774090130Y-36512837D02*
G75*
G02*
X772008039Y-36513000I-1041130J1079837D01*
G01*
%TO.C,P1*%
X754380000Y-48260000D02*
X746760000Y-48260000D01*
X754380000Y-33020000D02*
X746760000Y-33020000D01*
X753110000Y-48260000D02*
X753110000Y-33020000D01*
X746760000Y-48260000D02*
X746760000Y-33020000D01*
X754380000Y-48260000D02*
X754380000Y-33020000D01*
%TO.C,IN1*%
X746760000Y-93860000D02*
X746760000Y-78860000D01*
X746760000Y-78860000D02*
X761760000Y-78860000D01*
X761760000Y-78860000D02*
X761760000Y-93860000D01*
X761760000Y-93860000D02*
X746760000Y-93860000D01*
X746960000Y-86360000D02*
X747960000Y-87360000D01*
X746960000Y-86360000D02*
X747960000Y-85360000D01*
%TO.C,IN2*%
X746960000Y-111760000D02*
X747960000Y-110760000D01*
X746960000Y-111760000D02*
X747960000Y-112760000D01*
X761760000Y-119260000D02*
X746760000Y-119260000D01*
X761760000Y-104260000D02*
X761760000Y-119260000D01*
X746760000Y-104260000D02*
X761760000Y-104260000D01*
X746760000Y-119260000D02*
X746760000Y-104260000D01*
%TO.C,OUT*%
X843280000Y-101593000D02*
X843280000Y-116593000D01*
X843280000Y-116593000D02*
X828280000Y-116593000D01*
X828280000Y-116593000D02*
X828280000Y-101593000D01*
X828280000Y-101593000D02*
X843280000Y-101593000D01*
X843080000Y-109093000D02*
X842080000Y-108093000D01*
X843080000Y-109093000D02*
X842080000Y-110093000D01*
%TO.C,RST*%
X746960000Y-60960000D02*
X747960000Y-59960000D01*
X746960000Y-60960000D02*
X747960000Y-61960000D01*
X761760000Y-68460000D02*
X746760000Y-68460000D01*
X761760000Y-53460000D02*
X761760000Y-68460000D01*
X746760000Y-53460000D02*
X761760000Y-53460000D01*
X746760000Y-68460000D02*
X746760000Y-53460000D01*
%TO.C,R1*%
X798203936Y-75459000D02*
X799658064Y-75459000D01*
X798203936Y-73639000D02*
X799658064Y-73639000D01*
%TO.C,R2*%
X799658064Y-80539000D02*
X798203936Y-80539000D01*
X799658064Y-78719000D02*
X798203936Y-78719000D01*
%TO.C,R5*%
X779547000Y-37684064D02*
X779547000Y-36229936D01*
X777727000Y-37684064D02*
X777727000Y-36229936D01*
%TO.C,R6*%
X793330000Y-77763000D02*
X793330000Y-91003000D01*
X789090000Y-77763000D02*
X789090000Y-91003000D01*
X793330000Y-77763000D02*
X789090000Y-77763000D01*
X793330000Y-91003000D02*
X789090000Y-91003000D01*
%TO.C,R7*%
X769738064Y-60050000D02*
X768283936Y-60050000D01*
X769738064Y-61870000D02*
X768283936Y-61870000D01*
%TO.C,R8*%
X820171000Y-79366064D02*
X820171000Y-77911936D01*
X821991000Y-79366064D02*
X821991000Y-77911936D01*
%TO.C,R9*%
X778137936Y-51964000D02*
X779592064Y-51964000D01*
X778137936Y-50144000D02*
X779592064Y-50144000D01*
%TO.C,R10*%
X785389000Y-48776936D02*
X785389000Y-50231064D01*
X783569000Y-48776936D02*
X783569000Y-50231064D01*
%TO.C,R11*%
X780902000Y-65624064D02*
X780902000Y-64169936D01*
X782722000Y-65624064D02*
X782722000Y-64169936D01*
%TO.C,R12*%
X774721000Y-65624064D02*
X774721000Y-64169936D01*
X772901000Y-65624064D02*
X772901000Y-64169936D01*
%TO.C,R13*%
X769686064Y-56409000D02*
X768231936Y-56409000D01*
X769686064Y-54589000D02*
X768231936Y-54589000D01*
%TO.C,RVGAIN1*%
X803285000Y-52764000D02*
X803285000Y-42994000D01*
X808355000Y-52764000D02*
X808355000Y-42994000D01*
X803285000Y-52764000D02*
X808355000Y-52764000D01*
X803285000Y-42994000D02*
X808355000Y-42994000D01*
%TO.C,RVLIM1*%
X830443000Y-78173000D02*
X830443000Y-87943000D01*
X825373000Y-78173000D02*
X825373000Y-87943000D01*
X830443000Y-78173000D02*
X825373000Y-78173000D01*
X830443000Y-87943000D02*
X825373000Y-87943000D01*
%TO.C,RVLIM2*%
X800110000Y-81602000D02*
X805180000Y-81602000D01*
X800110000Y-91372000D02*
X805180000Y-91372000D01*
X805180000Y-91372000D02*
X805180000Y-81602000D01*
X800110000Y-91372000D02*
X800110000Y-81602000D01*
%TO.C,RVPROP1*%
X783023000Y-129784000D02*
X783023000Y-124714000D01*
X792793000Y-129784000D02*
X792793000Y-124714000D01*
X792793000Y-124714000D02*
X783023000Y-124714000D01*
X792793000Y-129784000D02*
X783023000Y-129784000D01*
%TO.C,U1*%
X781745000Y-94495000D02*
X771465000Y-94495000D01*
X781745000Y-104895000D02*
X781745000Y-94495000D01*
X771465000Y-104895000D02*
X781745000Y-104895000D01*
X771465000Y-94495000D02*
X771465000Y-104895000D01*
X779255000Y-94555000D02*
X777605000Y-94555000D01*
X779255000Y-104835000D02*
X779255000Y-94555000D01*
X773955000Y-104835000D02*
X779255000Y-104835000D01*
X773955000Y-94555000D02*
X773955000Y-104835000D01*
X775605000Y-94555000D02*
X773955000Y-94555000D01*
X777605000Y-94555000D02*
G75*
G02*
X775605000Y-94555000I-1000000J0D01*
G01*
%TO.C,U2*%
X775605000Y-70425000D02*
X773955000Y-70425000D01*
X773955000Y-70425000D02*
X773955000Y-80705000D01*
X773955000Y-80705000D02*
X779255000Y-80705000D01*
X779255000Y-80705000D02*
X779255000Y-70425000D01*
X779255000Y-70425000D02*
X777605000Y-70425000D01*
X771465000Y-70365000D02*
X771465000Y-80765000D01*
X771465000Y-80765000D02*
X781745000Y-80765000D01*
X781745000Y-80765000D02*
X781745000Y-70365000D01*
X781745000Y-70365000D02*
X771465000Y-70365000D01*
X777605000Y-70425000D02*
G75*
G02*
X775605000Y-70425000I-1000000J0D01*
G01*
%TO.C,U3*%
X781618000Y-114053000D02*
X771338000Y-114053000D01*
X781618000Y-124453000D02*
X781618000Y-114053000D01*
X771338000Y-124453000D02*
X781618000Y-124453000D01*
X771338000Y-114053000D02*
X771338000Y-124453000D01*
X779128000Y-114113000D02*
X777478000Y-114113000D01*
X779128000Y-124393000D02*
X779128000Y-114113000D01*
X773828000Y-124393000D02*
X779128000Y-124393000D01*
X773828000Y-114113000D02*
X773828000Y-124393000D01*
X775478000Y-114113000D02*
X773828000Y-114113000D01*
X777478000Y-114113000D02*
G75*
G02*
X775478000Y-114113000I-1000000J0D01*
G01*
%TO.C,U4*%
X811546000Y-53534000D02*
X809896000Y-53534000D01*
X809896000Y-53534000D02*
X809896000Y-63814000D01*
X809896000Y-63814000D02*
X815196000Y-63814000D01*
X815196000Y-63814000D02*
X815196000Y-53534000D01*
X815196000Y-53534000D02*
X813546000Y-53534000D01*
X807406000Y-53474000D02*
X807406000Y-63874000D01*
X807406000Y-63874000D02*
X817686000Y-63874000D01*
X817686000Y-63874000D02*
X817686000Y-53474000D01*
X817686000Y-53474000D02*
X807406000Y-53474000D01*
X813546000Y-53534000D02*
G75*
G02*
X811546000Y-53534000I-1000000J0D01*
G01*
%TO.C,U6*%
X812943000Y-102683000D02*
X811293000Y-102683000D01*
X811293000Y-102683000D02*
X811293000Y-112963000D01*
X811293000Y-112963000D02*
X816593000Y-112963000D01*
X816593000Y-112963000D02*
X816593000Y-102683000D01*
X816593000Y-102683000D02*
X814943000Y-102683000D01*
X808803000Y-102623000D02*
X808803000Y-113023000D01*
X808803000Y-113023000D02*
X819083000Y-113023000D01*
X819083000Y-113023000D02*
X819083000Y-102623000D01*
X819083000Y-102623000D02*
X808803000Y-102623000D01*
X814943000Y-102683000D02*
G75*
G02*
X812943000Y-102683000I-1000000J0D01*
G01*
%TO.C,U7*%
X776224000Y-55860000D02*
X774274000Y-55860000D01*
X776224000Y-55860000D02*
X778174000Y-55860000D01*
X776224000Y-60980000D02*
X774274000Y-60980000D01*
X776224000Y-60980000D02*
X779674000Y-60980000D01*
%TO.C,ERROR*%
X786068000Y-105791000D02*
G75*
G03*
X786068000Y-105791000I-700000J0D01*
G01*
%TO.C,INTEGRAL*%
X785814000Y-80137000D02*
G75*
G03*
X785814000Y-80137000I-700000J0D01*
G01*
%TO.C,PROP*%
X789878000Y-120650000D02*
G75*
G03*
X789878000Y-120650000I-700000J0D01*
G01*
%TO.C,SUM*%
X821501000Y-65278000D02*
G75*
G03*
X821501000Y-65278000I-700000J0D01*
G01*
%TO.C,ULIMIT*%
X823152000Y-97790000D02*
G75*
G03*
X823152000Y-97790000I-700000J0D01*
G01*
%TO.C,LLIMIT*%
X814389000Y-91313000D02*
G75*
G03*
X814389000Y-91313000I-700000J0D01*
G01*
%TO.C,C1*%
D11*
X760004142Y-44362666D02*
X760051761Y-44410285D01*
X760099380Y-44553142D01*
X760099380Y-44648380D01*
X760051761Y-44791238D01*
X759956523Y-44886476D01*
X759861285Y-44934095D01*
X759670809Y-44981714D01*
X759527952Y-44981714D01*
X759337476Y-44934095D01*
X759242238Y-44886476D01*
X759147000Y-44791238D01*
X759099380Y-44648380D01*
X759099380Y-44553142D01*
X759147000Y-44410285D01*
X759194619Y-44362666D01*
X760099380Y-43410285D02*
X760099380Y-43981714D01*
X760099380Y-43696000D02*
X759099380Y-43696000D01*
X759242238Y-43791238D01*
X759337476Y-43886476D01*
X759385095Y-43981714D01*
%TO.C,C2*%
X759877142Y-37250666D02*
X759924761Y-37298285D01*
X759972380Y-37441142D01*
X759972380Y-37536380D01*
X759924761Y-37679238D01*
X759829523Y-37774476D01*
X759734285Y-37822095D01*
X759543809Y-37869714D01*
X759400952Y-37869714D01*
X759210476Y-37822095D01*
X759115238Y-37774476D01*
X759020000Y-37679238D01*
X758972380Y-37536380D01*
X758972380Y-37441142D01*
X759020000Y-37298285D01*
X759067619Y-37250666D01*
X759067619Y-36869714D02*
X759020000Y-36822095D01*
X758972380Y-36726857D01*
X758972380Y-36488761D01*
X759020000Y-36393523D01*
X759067619Y-36345904D01*
X759162857Y-36298285D01*
X759258095Y-36298285D01*
X759400952Y-36345904D01*
X759972380Y-36917333D01*
X759972380Y-36298285D01*
%TO.C,C3*%
X768386142Y-42092666D02*
X768433761Y-42140285D01*
X768481380Y-42283142D01*
X768481380Y-42378380D01*
X768433761Y-42521238D01*
X768338523Y-42616476D01*
X768243285Y-42664095D01*
X768052809Y-42711714D01*
X767909952Y-42711714D01*
X767719476Y-42664095D01*
X767624238Y-42616476D01*
X767529000Y-42521238D01*
X767481380Y-42378380D01*
X767481380Y-42283142D01*
X767529000Y-42140285D01*
X767576619Y-42092666D01*
X767481380Y-41759333D02*
X767481380Y-41140285D01*
X767862333Y-41473619D01*
X767862333Y-41330761D01*
X767909952Y-41235523D01*
X767957571Y-41187904D01*
X768052809Y-41140285D01*
X768290904Y-41140285D01*
X768386142Y-41187904D01*
X768433761Y-41235523D01*
X768481380Y-41330761D01*
X768481380Y-41616476D01*
X768433761Y-41711714D01*
X768386142Y-41759333D01*
%TO.C,C4*%
X771175142Y-109679166D02*
X771222761Y-109726785D01*
X771270380Y-109869642D01*
X771270380Y-109964880D01*
X771222761Y-110107738D01*
X771127523Y-110202976D01*
X771032285Y-110250595D01*
X770841809Y-110298214D01*
X770698952Y-110298214D01*
X770508476Y-110250595D01*
X770413238Y-110202976D01*
X770318000Y-110107738D01*
X770270380Y-109964880D01*
X770270380Y-109869642D01*
X770318000Y-109726785D01*
X770365619Y-109679166D01*
X770603714Y-108822023D02*
X771270380Y-108822023D01*
X770222761Y-109060119D02*
X770937047Y-109298214D01*
X770937047Y-108679166D01*
%TO.C,C5*%
X787321142Y-97029166D02*
X787368761Y-97076785D01*
X787416380Y-97219642D01*
X787416380Y-97314880D01*
X787368761Y-97457738D01*
X787273523Y-97552976D01*
X787178285Y-97600595D01*
X786987809Y-97648214D01*
X786844952Y-97648214D01*
X786654476Y-97600595D01*
X786559238Y-97552976D01*
X786464000Y-97457738D01*
X786416380Y-97314880D01*
X786416380Y-97219642D01*
X786464000Y-97076785D01*
X786511619Y-97029166D01*
X786416380Y-96124404D02*
X786416380Y-96600595D01*
X786892571Y-96648214D01*
X786844952Y-96600595D01*
X786797333Y-96505357D01*
X786797333Y-96267261D01*
X786844952Y-96172023D01*
X786892571Y-96124404D01*
X786987809Y-96076785D01*
X787225904Y-96076785D01*
X787321142Y-96124404D01*
X787368761Y-96172023D01*
X787416380Y-96267261D01*
X787416380Y-96505357D01*
X787368761Y-96600595D01*
X787321142Y-96648214D01*
%TO.C,C6*%
X788317142Y-70088666D02*
X788364761Y-70136285D01*
X788412380Y-70279142D01*
X788412380Y-70374380D01*
X788364761Y-70517238D01*
X788269523Y-70612476D01*
X788174285Y-70660095D01*
X787983809Y-70707714D01*
X787840952Y-70707714D01*
X787650476Y-70660095D01*
X787555238Y-70612476D01*
X787460000Y-70517238D01*
X787412380Y-70374380D01*
X787412380Y-70279142D01*
X787460000Y-70136285D01*
X787507619Y-70088666D01*
X787412380Y-69231523D02*
X787412380Y-69422000D01*
X787460000Y-69517238D01*
X787507619Y-69564857D01*
X787650476Y-69660095D01*
X787840952Y-69707714D01*
X788221904Y-69707714D01*
X788317142Y-69660095D01*
X788364761Y-69612476D01*
X788412380Y-69517238D01*
X788412380Y-69326761D01*
X788364761Y-69231523D01*
X788317142Y-69183904D01*
X788221904Y-69136285D01*
X787983809Y-69136285D01*
X787888571Y-69183904D01*
X787840952Y-69231523D01*
X787793333Y-69326761D01*
X787793333Y-69517238D01*
X787840952Y-69612476D01*
X787888571Y-69660095D01*
X787983809Y-69707714D01*
%TO.C,C7*%
X771175142Y-84494666D02*
X771222761Y-84542285D01*
X771270380Y-84685142D01*
X771270380Y-84780380D01*
X771222761Y-84923238D01*
X771127523Y-85018476D01*
X771032285Y-85066095D01*
X770841809Y-85113714D01*
X770698952Y-85113714D01*
X770508476Y-85066095D01*
X770413238Y-85018476D01*
X770318000Y-84923238D01*
X770270380Y-84780380D01*
X770270380Y-84685142D01*
X770318000Y-84542285D01*
X770365619Y-84494666D01*
X770270380Y-84161333D02*
X770270380Y-83494666D01*
X771270380Y-83923238D01*
%TO.C,C8*%
X787448142Y-72899166D02*
X787495761Y-72946785D01*
X787543380Y-73089642D01*
X787543380Y-73184880D01*
X787495761Y-73327738D01*
X787400523Y-73422976D01*
X787305285Y-73470595D01*
X787114809Y-73518214D01*
X786971952Y-73518214D01*
X786781476Y-73470595D01*
X786686238Y-73422976D01*
X786591000Y-73327738D01*
X786543380Y-73184880D01*
X786543380Y-73089642D01*
X786591000Y-72946785D01*
X786638619Y-72899166D01*
X786971952Y-72327738D02*
X786924333Y-72422976D01*
X786876714Y-72470595D01*
X786781476Y-72518214D01*
X786733857Y-72518214D01*
X786638619Y-72470595D01*
X786591000Y-72422976D01*
X786543380Y-72327738D01*
X786543380Y-72137261D01*
X786591000Y-72042023D01*
X786638619Y-71994404D01*
X786733857Y-71946785D01*
X786781476Y-71946785D01*
X786876714Y-71994404D01*
X786924333Y-72042023D01*
X786971952Y-72137261D01*
X786971952Y-72327738D01*
X787019571Y-72422976D01*
X787067190Y-72470595D01*
X787162428Y-72518214D01*
X787352904Y-72518214D01*
X787448142Y-72470595D01*
X787495761Y-72422976D01*
X787543380Y-72327738D01*
X787543380Y-72137261D01*
X787495761Y-72042023D01*
X787448142Y-71994404D01*
X787352904Y-71946785D01*
X787162428Y-71946785D01*
X787067190Y-71994404D01*
X787019571Y-72042023D01*
X786971952Y-72137261D01*
%TO.C,C9*%
X774063833Y-131239142D02*
X774016214Y-131286761D01*
X773873357Y-131334380D01*
X773778119Y-131334380D01*
X773635261Y-131286761D01*
X773540023Y-131191523D01*
X773492404Y-131096285D01*
X773444785Y-130905809D01*
X773444785Y-130762952D01*
X773492404Y-130572476D01*
X773540023Y-130477238D01*
X773635261Y-130382000D01*
X773778119Y-130334380D01*
X773873357Y-130334380D01*
X774016214Y-130382000D01*
X774063833Y-130429619D01*
X774540023Y-131334380D02*
X774730500Y-131334380D01*
X774825738Y-131286761D01*
X774873357Y-131239142D01*
X774968595Y-131096285D01*
X775016214Y-130905809D01*
X775016214Y-130524857D01*
X774968595Y-130429619D01*
X774920976Y-130382000D01*
X774825738Y-130334380D01*
X774635261Y-130334380D01*
X774540023Y-130382000D01*
X774492404Y-130429619D01*
X774444785Y-130524857D01*
X774444785Y-130762952D01*
X774492404Y-130858190D01*
X774540023Y-130905809D01*
X774635261Y-130953428D01*
X774825738Y-130953428D01*
X774920976Y-130905809D01*
X774968595Y-130858190D01*
X775016214Y-130762952D01*
%TO.C,C10*%
X782876142Y-111386857D02*
X782923761Y-111434476D01*
X782971380Y-111577333D01*
X782971380Y-111672571D01*
X782923761Y-111815428D01*
X782828523Y-111910666D01*
X782733285Y-111958285D01*
X782542809Y-112005904D01*
X782399952Y-112005904D01*
X782209476Y-111958285D01*
X782114238Y-111910666D01*
X782019000Y-111815428D01*
X781971380Y-111672571D01*
X781971380Y-111577333D01*
X782019000Y-111434476D01*
X782066619Y-111386857D01*
X782971380Y-110434476D02*
X782971380Y-111005904D01*
X782971380Y-110720190D02*
X781971380Y-110720190D01*
X782114238Y-110815428D01*
X782209476Y-110910666D01*
X782257095Y-111005904D01*
X781971380Y-109815428D02*
X781971380Y-109720190D01*
X782019000Y-109624952D01*
X782066619Y-109577333D01*
X782161857Y-109529714D01*
X782352333Y-109482095D01*
X782590428Y-109482095D01*
X782780904Y-109529714D01*
X782876142Y-109577333D01*
X782923761Y-109624952D01*
X782971380Y-109720190D01*
X782971380Y-109815428D01*
X782923761Y-109910666D01*
X782876142Y-109958285D01*
X782780904Y-110005904D01*
X782590428Y-110053523D01*
X782352333Y-110053523D01*
X782161857Y-110005904D01*
X782066619Y-109958285D01*
X782019000Y-109910666D01*
X781971380Y-109815428D01*
%TO.C,C11*%
X806442142Y-65944142D02*
X806394523Y-65991761D01*
X806251666Y-66039380D01*
X806156428Y-66039380D01*
X806013571Y-65991761D01*
X805918333Y-65896523D01*
X805870714Y-65801285D01*
X805823095Y-65610809D01*
X805823095Y-65467952D01*
X805870714Y-65277476D01*
X805918333Y-65182238D01*
X806013571Y-65087000D01*
X806156428Y-65039380D01*
X806251666Y-65039380D01*
X806394523Y-65087000D01*
X806442142Y-65134619D01*
X807394523Y-66039380D02*
X806823095Y-66039380D01*
X807108809Y-66039380D02*
X807108809Y-65039380D01*
X807013571Y-65182238D01*
X806918333Y-65277476D01*
X806823095Y-65325095D01*
X808346904Y-66039380D02*
X807775476Y-66039380D01*
X808061190Y-66039380D02*
X808061190Y-65039380D01*
X807965952Y-65182238D01*
X807870714Y-65277476D01*
X807775476Y-65325095D01*
%TO.C,C12*%
X818563142Y-50642357D02*
X818610761Y-50689976D01*
X818658380Y-50832833D01*
X818658380Y-50928071D01*
X818610761Y-51070928D01*
X818515523Y-51166166D01*
X818420285Y-51213785D01*
X818229809Y-51261404D01*
X818086952Y-51261404D01*
X817896476Y-51213785D01*
X817801238Y-51166166D01*
X817706000Y-51070928D01*
X817658380Y-50928071D01*
X817658380Y-50832833D01*
X817706000Y-50689976D01*
X817753619Y-50642357D01*
X818658380Y-49689976D02*
X818658380Y-50261404D01*
X818658380Y-49975690D02*
X817658380Y-49975690D01*
X817801238Y-50070928D01*
X817896476Y-50166166D01*
X817944095Y-50261404D01*
X817753619Y-49309023D02*
X817706000Y-49261404D01*
X817658380Y-49166166D01*
X817658380Y-48928071D01*
X817706000Y-48832833D01*
X817753619Y-48785214D01*
X817848857Y-48737595D01*
X817944095Y-48737595D01*
X818086952Y-48785214D01*
X818658380Y-49356642D01*
X818658380Y-48737595D01*
%TO.C,C13*%
X795123142Y-50371857D02*
X795170761Y-50419476D01*
X795218380Y-50562333D01*
X795218380Y-50657571D01*
X795170761Y-50800428D01*
X795075523Y-50895666D01*
X794980285Y-50943285D01*
X794789809Y-50990904D01*
X794646952Y-50990904D01*
X794456476Y-50943285D01*
X794361238Y-50895666D01*
X794266000Y-50800428D01*
X794218380Y-50657571D01*
X794218380Y-50562333D01*
X794266000Y-50419476D01*
X794313619Y-50371857D01*
X795218380Y-49419476D02*
X795218380Y-49990904D01*
X795218380Y-49705190D02*
X794218380Y-49705190D01*
X794361238Y-49800428D01*
X794456476Y-49895666D01*
X794504095Y-49990904D01*
X794218380Y-49086142D02*
X794218380Y-48467095D01*
X794599333Y-48800428D01*
X794599333Y-48657571D01*
X794646952Y-48562333D01*
X794694571Y-48514714D01*
X794789809Y-48467095D01*
X795027904Y-48467095D01*
X795123142Y-48514714D01*
X795170761Y-48562333D01*
X795218380Y-48657571D01*
X795218380Y-48943285D01*
X795170761Y-49038523D01*
X795123142Y-49086142D01*
%TO.C,C16*%
X808640142Y-118206357D02*
X808687761Y-118253976D01*
X808735380Y-118396833D01*
X808735380Y-118492071D01*
X808687761Y-118634928D01*
X808592523Y-118730166D01*
X808497285Y-118777785D01*
X808306809Y-118825404D01*
X808163952Y-118825404D01*
X807973476Y-118777785D01*
X807878238Y-118730166D01*
X807783000Y-118634928D01*
X807735380Y-118492071D01*
X807735380Y-118396833D01*
X807783000Y-118253976D01*
X807830619Y-118206357D01*
X808735380Y-117253976D02*
X808735380Y-117825404D01*
X808735380Y-117539690D02*
X807735380Y-117539690D01*
X807878238Y-117634928D01*
X807973476Y-117730166D01*
X808021095Y-117825404D01*
X807735380Y-116396833D02*
X807735380Y-116587309D01*
X807783000Y-116682547D01*
X807830619Y-116730166D01*
X807973476Y-116825404D01*
X808163952Y-116873023D01*
X808544904Y-116873023D01*
X808640142Y-116825404D01*
X808687761Y-116777785D01*
X808735380Y-116682547D01*
X808735380Y-116492071D01*
X808687761Y-116396833D01*
X808640142Y-116349214D01*
X808544904Y-116301595D01*
X808306809Y-116301595D01*
X808211571Y-116349214D01*
X808163952Y-116396833D01*
X808116333Y-116492071D01*
X808116333Y-116682547D01*
X808163952Y-116777785D01*
X808211571Y-116825404D01*
X808306809Y-116873023D01*
%TO.C,C17*%
X824278142Y-105671857D02*
X824325761Y-105719476D01*
X824373380Y-105862333D01*
X824373380Y-105957571D01*
X824325761Y-106100428D01*
X824230523Y-106195666D01*
X824135285Y-106243285D01*
X823944809Y-106290904D01*
X823801952Y-106290904D01*
X823611476Y-106243285D01*
X823516238Y-106195666D01*
X823421000Y-106100428D01*
X823373380Y-105957571D01*
X823373380Y-105862333D01*
X823421000Y-105719476D01*
X823468619Y-105671857D01*
X824373380Y-104719476D02*
X824373380Y-105290904D01*
X824373380Y-105005190D02*
X823373380Y-105005190D01*
X823516238Y-105100428D01*
X823611476Y-105195666D01*
X823659095Y-105290904D01*
X823373380Y-104386142D02*
X823373380Y-103719476D01*
X824373380Y-104148047D01*
%TO.C,C18*%
X826546642Y-96314142D02*
X826499023Y-96361761D01*
X826356166Y-96409380D01*
X826260928Y-96409380D01*
X826118071Y-96361761D01*
X826022833Y-96266523D01*
X825975214Y-96171285D01*
X825927595Y-95980809D01*
X825927595Y-95837952D01*
X825975214Y-95647476D01*
X826022833Y-95552238D01*
X826118071Y-95457000D01*
X826260928Y-95409380D01*
X826356166Y-95409380D01*
X826499023Y-95457000D01*
X826546642Y-95504619D01*
X827499023Y-96409380D02*
X826927595Y-96409380D01*
X827213309Y-96409380D02*
X827213309Y-95409380D01*
X827118071Y-95552238D01*
X827022833Y-95647476D01*
X826927595Y-95695095D01*
X828070452Y-95837952D02*
X827975214Y-95790333D01*
X827927595Y-95742714D01*
X827879976Y-95647476D01*
X827879976Y-95599857D01*
X827927595Y-95504619D01*
X827975214Y-95457000D01*
X828070452Y-95409380D01*
X828260928Y-95409380D01*
X828356166Y-95457000D01*
X828403785Y-95504619D01*
X828451404Y-95599857D01*
X828451404Y-95647476D01*
X828403785Y-95742714D01*
X828356166Y-95790333D01*
X828260928Y-95837952D01*
X828070452Y-95837952D01*
X827975214Y-95885571D01*
X827927595Y-95933190D01*
X827879976Y-96028428D01*
X827879976Y-96218904D01*
X827927595Y-96314142D01*
X827975214Y-96361761D01*
X828070452Y-96409380D01*
X828260928Y-96409380D01*
X828356166Y-96361761D01*
X828403785Y-96314142D01*
X828451404Y-96218904D01*
X828451404Y-96028428D01*
X828403785Y-95933190D01*
X828356166Y-95885571D01*
X828260928Y-95837952D01*
%TO.C,C19*%
X807116142Y-93518357D02*
X807163761Y-93565976D01*
X807211380Y-93708833D01*
X807211380Y-93804071D01*
X807163761Y-93946928D01*
X807068523Y-94042166D01*
X806973285Y-94089785D01*
X806782809Y-94137404D01*
X806639952Y-94137404D01*
X806449476Y-94089785D01*
X806354238Y-94042166D01*
X806259000Y-93946928D01*
X806211380Y-93804071D01*
X806211380Y-93708833D01*
X806259000Y-93565976D01*
X806306619Y-93518357D01*
X807211380Y-92565976D02*
X807211380Y-93137404D01*
X807211380Y-92851690D02*
X806211380Y-92851690D01*
X806354238Y-92946928D01*
X806449476Y-93042166D01*
X806497095Y-93137404D01*
X807211380Y-92089785D02*
X807211380Y-91899309D01*
X807163761Y-91804071D01*
X807116142Y-91756452D01*
X806973285Y-91661214D01*
X806782809Y-91613595D01*
X806401857Y-91613595D01*
X806306619Y-91661214D01*
X806259000Y-91708833D01*
X806211380Y-91804071D01*
X806211380Y-91994547D01*
X806259000Y-92089785D01*
X806306619Y-92137404D01*
X806401857Y-92185023D01*
X806639952Y-92185023D01*
X806735190Y-92137404D01*
X806782809Y-92089785D01*
X806830428Y-91994547D01*
X806830428Y-91804071D01*
X806782809Y-91708833D01*
X806735190Y-91661214D01*
X806639952Y-91613595D01*
%TO.C,C20*%
X782622142Y-46324357D02*
X782669761Y-46371976D01*
X782717380Y-46514833D01*
X782717380Y-46610071D01*
X782669761Y-46752928D01*
X782574523Y-46848166D01*
X782479285Y-46895785D01*
X782288809Y-46943404D01*
X782145952Y-46943404D01*
X781955476Y-46895785D01*
X781860238Y-46848166D01*
X781765000Y-46752928D01*
X781717380Y-46610071D01*
X781717380Y-46514833D01*
X781765000Y-46371976D01*
X781812619Y-46324357D01*
X781812619Y-45943404D02*
X781765000Y-45895785D01*
X781717380Y-45800547D01*
X781717380Y-45562452D01*
X781765000Y-45467214D01*
X781812619Y-45419595D01*
X781907857Y-45371976D01*
X782003095Y-45371976D01*
X782145952Y-45419595D01*
X782717380Y-45991023D01*
X782717380Y-45371976D01*
X781717380Y-44752928D02*
X781717380Y-44657690D01*
X781765000Y-44562452D01*
X781812619Y-44514833D01*
X781907857Y-44467214D01*
X782098333Y-44419595D01*
X782336428Y-44419595D01*
X782526904Y-44467214D01*
X782622142Y-44514833D01*
X782669761Y-44562452D01*
X782717380Y-44657690D01*
X782717380Y-44752928D01*
X782669761Y-44848166D01*
X782622142Y-44895785D01*
X782526904Y-44943404D01*
X782336428Y-44991023D01*
X782098333Y-44991023D01*
X781907857Y-44943404D01*
X781812619Y-44895785D01*
X781765000Y-44848166D01*
X781717380Y-44752928D01*
%TO.C,D1*%
X820911380Y-91035095D02*
X819911380Y-91035095D01*
X819911380Y-90797000D01*
X819959000Y-90654142D01*
X820054238Y-90558904D01*
X820149476Y-90511285D01*
X820339952Y-90463666D01*
X820482809Y-90463666D01*
X820673285Y-90511285D01*
X820768523Y-90558904D01*
X820863761Y-90654142D01*
X820911380Y-90797000D01*
X820911380Y-91035095D01*
X820911380Y-89511285D02*
X820911380Y-90082714D01*
X820911380Y-89797000D02*
X819911380Y-89797000D01*
X820054238Y-89892238D01*
X820149476Y-89987476D01*
X820197095Y-90082714D01*
X821231380Y-94368904D02*
X820231380Y-94368904D01*
X821231380Y-93797476D02*
X820659952Y-94226047D01*
X820231380Y-93797476D02*
X820802809Y-94368904D01*
%TO.C,D2*%
X811553904Y-84780380D02*
X811553904Y-83780380D01*
X811792000Y-83780380D01*
X811934857Y-83828000D01*
X812030095Y-83923238D01*
X812077714Y-84018476D01*
X812125333Y-84208952D01*
X812125333Y-84351809D01*
X812077714Y-84542285D01*
X812030095Y-84637523D01*
X811934857Y-84732761D01*
X811792000Y-84780380D01*
X811553904Y-84780380D01*
X812506285Y-83875619D02*
X812553904Y-83828000D01*
X812649142Y-83780380D01*
X812887238Y-83780380D01*
X812982476Y-83828000D01*
X813030095Y-83875619D01*
X813077714Y-83970857D01*
X813077714Y-84066095D01*
X813030095Y-84208952D01*
X812458666Y-84780380D01*
X813077714Y-84780380D01*
X815967095Y-88739380D02*
X815967095Y-87739380D01*
X816538523Y-88739380D02*
X816109952Y-88167952D01*
X816538523Y-87739380D02*
X815967095Y-88310809D01*
%TO.C,D3*%
X772310904Y-32925380D02*
X772310904Y-31925380D01*
X772549000Y-31925380D01*
X772691857Y-31973000D01*
X772787095Y-32068238D01*
X772834714Y-32163476D01*
X772882333Y-32353952D01*
X772882333Y-32496809D01*
X772834714Y-32687285D01*
X772787095Y-32782523D01*
X772691857Y-32877761D01*
X772549000Y-32925380D01*
X772310904Y-32925380D01*
X773215666Y-31925380D02*
X773834714Y-31925380D01*
X773501380Y-32306333D01*
X773644238Y-32306333D01*
X773739476Y-32353952D01*
X773787095Y-32401571D01*
X773834714Y-32496809D01*
X773834714Y-32734904D01*
X773787095Y-32830142D01*
X773739476Y-32877761D01*
X773644238Y-32925380D01*
X773358523Y-32925380D01*
X773263285Y-32877761D01*
X773215666Y-32830142D01*
%TO.C,P1*%
X746372380Y-41408095D02*
X745372380Y-41408095D01*
X745372380Y-41027142D01*
X745420000Y-40931904D01*
X745467619Y-40884285D01*
X745562857Y-40836666D01*
X745705714Y-40836666D01*
X745800952Y-40884285D01*
X745848571Y-40931904D01*
X745896190Y-41027142D01*
X745896190Y-41408095D01*
X746372380Y-39884285D02*
X746372380Y-40455714D01*
X746372380Y-40170000D02*
X745372380Y-40170000D01*
X745515238Y-40265238D01*
X745610476Y-40360476D01*
X745658095Y-40455714D01*
%TO.C,IN1*%
X763912380Y-87360000D02*
X762912380Y-87360000D01*
X763912380Y-86883809D02*
X762912380Y-86883809D01*
X763912380Y-86312380D01*
X762912380Y-86312380D01*
X763912380Y-85312380D02*
X763912380Y-85883809D01*
X763912380Y-85598095D02*
X762912380Y-85598095D01*
X763055238Y-85693333D01*
X763150476Y-85788571D01*
X763198095Y-85883809D01*
%TO.C,IN2*%
X763912380Y-112760000D02*
X762912380Y-112760000D01*
X763912380Y-112283809D02*
X762912380Y-112283809D01*
X763912380Y-111712380D01*
X762912380Y-111712380D01*
X763007619Y-111283809D02*
X762960000Y-111236190D01*
X762912380Y-111140952D01*
X762912380Y-110902857D01*
X762960000Y-110807619D01*
X763007619Y-110760000D01*
X763102857Y-110712380D01*
X763198095Y-110712380D01*
X763340952Y-110760000D01*
X763912380Y-111331428D01*
X763912380Y-110712380D01*
%TO.C,OUT*%
X826222380Y-112252000D02*
X826222380Y-112061523D01*
X826270000Y-111966285D01*
X826365238Y-111871047D01*
X826555714Y-111823428D01*
X826889047Y-111823428D01*
X827079523Y-111871047D01*
X827174761Y-111966285D01*
X827222380Y-112061523D01*
X827222380Y-112252000D01*
X827174761Y-112347238D01*
X827079523Y-112442476D01*
X826889047Y-112490095D01*
X826555714Y-112490095D01*
X826365238Y-112442476D01*
X826270000Y-112347238D01*
X826222380Y-112252000D01*
X826222380Y-111394857D02*
X827031904Y-111394857D01*
X827127142Y-111347238D01*
X827174761Y-111299619D01*
X827222380Y-111204380D01*
X827222380Y-111013904D01*
X827174761Y-110918666D01*
X827127142Y-110871047D01*
X827031904Y-110823428D01*
X826222380Y-110823428D01*
X826222380Y-110490095D02*
X826222380Y-109918666D01*
X827222380Y-110204380D02*
X826222380Y-110204380D01*
%TO.C,RST*%
X763912380Y-64047619D02*
X763436190Y-64380952D01*
X763912380Y-64619047D02*
X762912380Y-64619047D01*
X762912380Y-64238095D01*
X762960000Y-64142857D01*
X763007619Y-64095238D01*
X763102857Y-64047619D01*
X763245714Y-64047619D01*
X763340952Y-64095238D01*
X763388571Y-64142857D01*
X763436190Y-64238095D01*
X763436190Y-64619047D01*
X763864761Y-63666666D02*
X763912380Y-63523809D01*
X763912380Y-63285714D01*
X763864761Y-63190476D01*
X763817142Y-63142857D01*
X763721904Y-63095238D01*
X763626666Y-63095238D01*
X763531428Y-63142857D01*
X763483809Y-63190476D01*
X763436190Y-63285714D01*
X763388571Y-63476190D01*
X763340952Y-63571428D01*
X763293333Y-63619047D01*
X763198095Y-63666666D01*
X763102857Y-63666666D01*
X763007619Y-63619047D01*
X762960000Y-63571428D01*
X762912380Y-63476190D01*
X762912380Y-63238095D01*
X762960000Y-63095238D01*
X762912380Y-62809523D02*
X762912380Y-62238095D01*
X763912380Y-62523809D02*
X762912380Y-62523809D01*
%TO.C,R1*%
X798764333Y-73181380D02*
X798431000Y-72705190D01*
X798192904Y-73181380D02*
X798192904Y-72181380D01*
X798573857Y-72181380D01*
X798669095Y-72229000D01*
X798716714Y-72276619D01*
X798764333Y-72371857D01*
X798764333Y-72514714D01*
X798716714Y-72609952D01*
X798669095Y-72657571D01*
X798573857Y-72705190D01*
X798192904Y-72705190D01*
X799716714Y-73181380D02*
X799145285Y-73181380D01*
X799431000Y-73181380D02*
X799431000Y-72181380D01*
X799335761Y-72324238D01*
X799240523Y-72419476D01*
X799145285Y-72467095D01*
%TO.C,R2*%
X802473333Y-79954380D02*
X802140000Y-79478190D01*
X801901904Y-79954380D02*
X801901904Y-78954380D01*
X802282857Y-78954380D01*
X802378095Y-79002000D01*
X802425714Y-79049619D01*
X802473333Y-79144857D01*
X802473333Y-79287714D01*
X802425714Y-79382952D01*
X802378095Y-79430571D01*
X802282857Y-79478190D01*
X801901904Y-79478190D01*
X802854285Y-79049619D02*
X802901904Y-79002000D01*
X802997142Y-78954380D01*
X803235238Y-78954380D01*
X803330476Y-79002000D01*
X803378095Y-79049619D01*
X803425714Y-79144857D01*
X803425714Y-79240095D01*
X803378095Y-79382952D01*
X802806666Y-79954380D01*
X803425714Y-79954380D01*
%TO.C,R5*%
X777269380Y-37123666D02*
X776793190Y-37457000D01*
X777269380Y-37695095D02*
X776269380Y-37695095D01*
X776269380Y-37314142D01*
X776317000Y-37218904D01*
X776364619Y-37171285D01*
X776459857Y-37123666D01*
X776602714Y-37123666D01*
X776697952Y-37171285D01*
X776745571Y-37218904D01*
X776793190Y-37314142D01*
X776793190Y-37695095D01*
X776269380Y-36218904D02*
X776269380Y-36695095D01*
X776745571Y-36742714D01*
X776697952Y-36695095D01*
X776650333Y-36599857D01*
X776650333Y-36361761D01*
X776697952Y-36266523D01*
X776745571Y-36218904D01*
X776840809Y-36171285D01*
X777078904Y-36171285D01*
X777174142Y-36218904D01*
X777221761Y-36266523D01*
X777269380Y-36361761D01*
X777269380Y-36599857D01*
X777221761Y-36695095D01*
X777174142Y-36742714D01*
%TO.C,R6*%
X794912380Y-84549666D02*
X794436190Y-84883000D01*
X794912380Y-85121095D02*
X793912380Y-85121095D01*
X793912380Y-84740142D01*
X793960000Y-84644904D01*
X794007619Y-84597285D01*
X794102857Y-84549666D01*
X794245714Y-84549666D01*
X794340952Y-84597285D01*
X794388571Y-84644904D01*
X794436190Y-84740142D01*
X794436190Y-85121095D01*
X793912380Y-83692523D02*
X793912380Y-83883000D01*
X793960000Y-83978238D01*
X794007619Y-84025857D01*
X794150476Y-84121095D01*
X794340952Y-84168714D01*
X794721904Y-84168714D01*
X794817142Y-84121095D01*
X794864761Y-84073476D01*
X794912380Y-83978238D01*
X794912380Y-83787761D01*
X794864761Y-83692523D01*
X794817142Y-83644904D01*
X794721904Y-83597285D01*
X794483809Y-83597285D01*
X794388571Y-83644904D01*
X794340952Y-83692523D01*
X794293333Y-83787761D01*
X794293333Y-83978238D01*
X794340952Y-84073476D01*
X794388571Y-84121095D01*
X794483809Y-84168714D01*
%TO.C,R7*%
X768844333Y-63232380D02*
X768511000Y-62756190D01*
X768272904Y-63232380D02*
X768272904Y-62232380D01*
X768653857Y-62232380D01*
X768749095Y-62280000D01*
X768796714Y-62327619D01*
X768844333Y-62422857D01*
X768844333Y-62565714D01*
X768796714Y-62660952D01*
X768749095Y-62708571D01*
X768653857Y-62756190D01*
X768272904Y-62756190D01*
X769177666Y-62232380D02*
X769844333Y-62232380D01*
X769415761Y-63232380D01*
%TO.C,R8*%
X819713380Y-78805666D02*
X819237190Y-79139000D01*
X819713380Y-79377095D02*
X818713380Y-79377095D01*
X818713380Y-78996142D01*
X818761000Y-78900904D01*
X818808619Y-78853285D01*
X818903857Y-78805666D01*
X819046714Y-78805666D01*
X819141952Y-78853285D01*
X819189571Y-78900904D01*
X819237190Y-78996142D01*
X819237190Y-79377095D01*
X819141952Y-78234238D02*
X819094333Y-78329476D01*
X819046714Y-78377095D01*
X818951476Y-78424714D01*
X818903857Y-78424714D01*
X818808619Y-78377095D01*
X818761000Y-78329476D01*
X818713380Y-78234238D01*
X818713380Y-78043761D01*
X818761000Y-77948523D01*
X818808619Y-77900904D01*
X818903857Y-77853285D01*
X818951476Y-77853285D01*
X819046714Y-77900904D01*
X819094333Y-77948523D01*
X819141952Y-78043761D01*
X819141952Y-78234238D01*
X819189571Y-78329476D01*
X819237190Y-78377095D01*
X819332428Y-78424714D01*
X819522904Y-78424714D01*
X819618142Y-78377095D01*
X819665761Y-78329476D01*
X819713380Y-78234238D01*
X819713380Y-78043761D01*
X819665761Y-77948523D01*
X819618142Y-77900904D01*
X819522904Y-77853285D01*
X819332428Y-77853285D01*
X819237190Y-77900904D01*
X819189571Y-77948523D01*
X819141952Y-78043761D01*
%TO.C,R9*%
X778698333Y-49686380D02*
X778365000Y-49210190D01*
X778126904Y-49686380D02*
X778126904Y-48686380D01*
X778507857Y-48686380D01*
X778603095Y-48734000D01*
X778650714Y-48781619D01*
X778698333Y-48876857D01*
X778698333Y-49019714D01*
X778650714Y-49114952D01*
X778603095Y-49162571D01*
X778507857Y-49210190D01*
X778126904Y-49210190D01*
X779174523Y-49686380D02*
X779365000Y-49686380D01*
X779460238Y-49638761D01*
X779507857Y-49591142D01*
X779603095Y-49448285D01*
X779650714Y-49257809D01*
X779650714Y-48876857D01*
X779603095Y-48781619D01*
X779555476Y-48734000D01*
X779460238Y-48686380D01*
X779269761Y-48686380D01*
X779174523Y-48734000D01*
X779126904Y-48781619D01*
X779079285Y-48876857D01*
X779079285Y-49114952D01*
X779126904Y-49210190D01*
X779174523Y-49257809D01*
X779269761Y-49305428D01*
X779460238Y-49305428D01*
X779555476Y-49257809D01*
X779603095Y-49210190D01*
X779650714Y-49114952D01*
%TO.C,R10*%
X786751380Y-50146857D02*
X786275190Y-50480190D01*
X786751380Y-50718285D02*
X785751380Y-50718285D01*
X785751380Y-50337333D01*
X785799000Y-50242095D01*
X785846619Y-50194476D01*
X785941857Y-50146857D01*
X786084714Y-50146857D01*
X786179952Y-50194476D01*
X786227571Y-50242095D01*
X786275190Y-50337333D01*
X786275190Y-50718285D01*
X786751380Y-49194476D02*
X786751380Y-49765904D01*
X786751380Y-49480190D02*
X785751380Y-49480190D01*
X785894238Y-49575428D01*
X785989476Y-49670666D01*
X786037095Y-49765904D01*
X785751380Y-48575428D02*
X785751380Y-48480190D01*
X785799000Y-48384952D01*
X785846619Y-48337333D01*
X785941857Y-48289714D01*
X786132333Y-48242095D01*
X786370428Y-48242095D01*
X786560904Y-48289714D01*
X786656142Y-48337333D01*
X786703761Y-48384952D01*
X786751380Y-48480190D01*
X786751380Y-48575428D01*
X786703761Y-48670666D01*
X786656142Y-48718285D01*
X786560904Y-48765904D01*
X786370428Y-48813523D01*
X786132333Y-48813523D01*
X785941857Y-48765904D01*
X785846619Y-48718285D01*
X785799000Y-48670666D01*
X785751380Y-48575428D01*
%TO.C,R11*%
X780444380Y-65539857D02*
X779968190Y-65873190D01*
X780444380Y-66111285D02*
X779444380Y-66111285D01*
X779444380Y-65730333D01*
X779492000Y-65635095D01*
X779539619Y-65587476D01*
X779634857Y-65539857D01*
X779777714Y-65539857D01*
X779872952Y-65587476D01*
X779920571Y-65635095D01*
X779968190Y-65730333D01*
X779968190Y-66111285D01*
X780444380Y-64587476D02*
X780444380Y-65158904D01*
X780444380Y-64873190D02*
X779444380Y-64873190D01*
X779587238Y-64968428D01*
X779682476Y-65063666D01*
X779730095Y-65158904D01*
X780444380Y-63635095D02*
X780444380Y-64206523D01*
X780444380Y-63920809D02*
X779444380Y-63920809D01*
X779587238Y-64016047D01*
X779682476Y-64111285D01*
X779730095Y-64206523D01*
%TO.C,R12*%
X772443380Y-65539857D02*
X771967190Y-65873190D01*
X772443380Y-66111285D02*
X771443380Y-66111285D01*
X771443380Y-65730333D01*
X771491000Y-65635095D01*
X771538619Y-65587476D01*
X771633857Y-65539857D01*
X771776714Y-65539857D01*
X771871952Y-65587476D01*
X771919571Y-65635095D01*
X771967190Y-65730333D01*
X771967190Y-66111285D01*
X772443380Y-64587476D02*
X772443380Y-65158904D01*
X772443380Y-64873190D02*
X771443380Y-64873190D01*
X771586238Y-64968428D01*
X771681476Y-65063666D01*
X771729095Y-65158904D01*
X771538619Y-64206523D02*
X771491000Y-64158904D01*
X771443380Y-64063666D01*
X771443380Y-63825571D01*
X771491000Y-63730333D01*
X771538619Y-63682714D01*
X771633857Y-63635095D01*
X771729095Y-63635095D01*
X771871952Y-63682714D01*
X772443380Y-64254142D01*
X772443380Y-63635095D01*
%TO.C,R13*%
X768316142Y-57771380D02*
X767982809Y-57295190D01*
X767744714Y-57771380D02*
X767744714Y-56771380D01*
X768125666Y-56771380D01*
X768220904Y-56819000D01*
X768268523Y-56866619D01*
X768316142Y-56961857D01*
X768316142Y-57104714D01*
X768268523Y-57199952D01*
X768220904Y-57247571D01*
X768125666Y-57295190D01*
X767744714Y-57295190D01*
X769268523Y-57771380D02*
X768697095Y-57771380D01*
X768982809Y-57771380D02*
X768982809Y-56771380D01*
X768887571Y-56914238D01*
X768792333Y-57009476D01*
X768697095Y-57057095D01*
X769601857Y-56771380D02*
X770220904Y-56771380D01*
X769887571Y-57152333D01*
X770030428Y-57152333D01*
X770125666Y-57199952D01*
X770173285Y-57247571D01*
X770220904Y-57342809D01*
X770220904Y-57580904D01*
X770173285Y-57676142D01*
X770125666Y-57723761D01*
X770030428Y-57771380D01*
X769744714Y-57771380D01*
X769649476Y-57723761D01*
X769601857Y-57676142D01*
%TO.C,RVGAIN1*%
X806140380Y-58165714D02*
X805664190Y-58499047D01*
X806140380Y-58737142D02*
X805140380Y-58737142D01*
X805140380Y-58356190D01*
X805188000Y-58260952D01*
X805235619Y-58213333D01*
X805330857Y-58165714D01*
X805473714Y-58165714D01*
X805568952Y-58213333D01*
X805616571Y-58260952D01*
X805664190Y-58356190D01*
X805664190Y-58737142D01*
X805140380Y-57880000D02*
X806140380Y-57546666D01*
X805140380Y-57213333D01*
X805188000Y-56356190D02*
X805140380Y-56451428D01*
X805140380Y-56594285D01*
X805188000Y-56737142D01*
X805283238Y-56832380D01*
X805378476Y-56880000D01*
X805568952Y-56927619D01*
X805711809Y-56927619D01*
X805902285Y-56880000D01*
X805997523Y-56832380D01*
X806092761Y-56737142D01*
X806140380Y-56594285D01*
X806140380Y-56499047D01*
X806092761Y-56356190D01*
X806045142Y-56308571D01*
X805711809Y-56308571D01*
X805711809Y-56499047D01*
X805854666Y-55927619D02*
X805854666Y-55451428D01*
X806140380Y-56022857D02*
X805140380Y-55689523D01*
X806140380Y-55356190D01*
X806140380Y-55022857D02*
X805140380Y-55022857D01*
X806140380Y-54546666D02*
X805140380Y-54546666D01*
X806140380Y-53975238D01*
X805140380Y-53975238D01*
X806140380Y-52975238D02*
X806140380Y-53546666D01*
X806140380Y-53260952D02*
X805140380Y-53260952D01*
X805283238Y-53356190D01*
X805378476Y-53451428D01*
X805426095Y-53546666D01*
%TO.C,RVLIM1*%
X832025380Y-84867523D02*
X831549190Y-85200857D01*
X832025380Y-85438952D02*
X831025380Y-85438952D01*
X831025380Y-85058000D01*
X831073000Y-84962761D01*
X831120619Y-84915142D01*
X831215857Y-84867523D01*
X831358714Y-84867523D01*
X831453952Y-84915142D01*
X831501571Y-84962761D01*
X831549190Y-85058000D01*
X831549190Y-85438952D01*
X831025380Y-84581809D02*
X832025380Y-84248476D01*
X831025380Y-83915142D01*
X832025380Y-83105619D02*
X832025380Y-83581809D01*
X831025380Y-83581809D01*
X832025380Y-82772285D02*
X831025380Y-82772285D01*
X832025380Y-82296095D02*
X831025380Y-82296095D01*
X831739666Y-81962761D01*
X831025380Y-81629428D01*
X832025380Y-81629428D01*
X832025380Y-80629428D02*
X832025380Y-81200857D01*
X832025380Y-80915142D02*
X831025380Y-80915142D01*
X831168238Y-81010380D01*
X831263476Y-81105619D01*
X831311095Y-81200857D01*
%TO.C,RVLIM2*%
X799432380Y-88296523D02*
X798956190Y-88629857D01*
X799432380Y-88867952D02*
X798432380Y-88867952D01*
X798432380Y-88487000D01*
X798480000Y-88391761D01*
X798527619Y-88344142D01*
X798622857Y-88296523D01*
X798765714Y-88296523D01*
X798860952Y-88344142D01*
X798908571Y-88391761D01*
X798956190Y-88487000D01*
X798956190Y-88867952D01*
X798432380Y-88010809D02*
X799432380Y-87677476D01*
X798432380Y-87344142D01*
X799432380Y-86534619D02*
X799432380Y-87010809D01*
X798432380Y-87010809D01*
X799432380Y-86201285D02*
X798432380Y-86201285D01*
X799432380Y-85725095D02*
X798432380Y-85725095D01*
X799146666Y-85391761D01*
X798432380Y-85058428D01*
X799432380Y-85058428D01*
X798527619Y-84629857D02*
X798480000Y-84582238D01*
X798432380Y-84487000D01*
X798432380Y-84248904D01*
X798480000Y-84153666D01*
X798527619Y-84106047D01*
X798622857Y-84058428D01*
X798718095Y-84058428D01*
X798860952Y-84106047D01*
X799432380Y-84677476D01*
X799432380Y-84058428D01*
%TO.C,RVPROP1*%
X785288952Y-131366380D02*
X784955619Y-130890190D01*
X784717523Y-131366380D02*
X784717523Y-130366380D01*
X785098476Y-130366380D01*
X785193714Y-130414000D01*
X785241333Y-130461619D01*
X785288952Y-130556857D01*
X785288952Y-130699714D01*
X785241333Y-130794952D01*
X785193714Y-130842571D01*
X785098476Y-130890190D01*
X784717523Y-130890190D01*
X785574666Y-130366380D02*
X785908000Y-131366380D01*
X786241333Y-130366380D01*
X786574666Y-131366380D02*
X786574666Y-130366380D01*
X786955619Y-130366380D01*
X787050857Y-130414000D01*
X787098476Y-130461619D01*
X787146095Y-130556857D01*
X787146095Y-130699714D01*
X787098476Y-130794952D01*
X787050857Y-130842571D01*
X786955619Y-130890190D01*
X786574666Y-130890190D01*
X788146095Y-131366380D02*
X787812761Y-130890190D01*
X787574666Y-131366380D02*
X787574666Y-130366380D01*
X787955619Y-130366380D01*
X788050857Y-130414000D01*
X788098476Y-130461619D01*
X788146095Y-130556857D01*
X788146095Y-130699714D01*
X788098476Y-130794952D01*
X788050857Y-130842571D01*
X787955619Y-130890190D01*
X787574666Y-130890190D01*
X788765142Y-130366380D02*
X788955619Y-130366380D01*
X789050857Y-130414000D01*
X789146095Y-130509238D01*
X789193714Y-130699714D01*
X789193714Y-131033047D01*
X789146095Y-131223523D01*
X789050857Y-131318761D01*
X788955619Y-131366380D01*
X788765142Y-131366380D01*
X788669904Y-131318761D01*
X788574666Y-131223523D01*
X788527047Y-131033047D01*
X788527047Y-130699714D01*
X788574666Y-130509238D01*
X788669904Y-130414000D01*
X788765142Y-130366380D01*
X789622285Y-131366380D02*
X789622285Y-130366380D01*
X790003238Y-130366380D01*
X790098476Y-130414000D01*
X790146095Y-130461619D01*
X790193714Y-130556857D01*
X790193714Y-130699714D01*
X790146095Y-130794952D01*
X790098476Y-130842571D01*
X790003238Y-130890190D01*
X789622285Y-130890190D01*
X791146095Y-131366380D02*
X790574666Y-131366380D01*
X790860380Y-131366380D02*
X790860380Y-130366380D01*
X790765142Y-130509238D01*
X790669904Y-130604476D01*
X790574666Y-130652095D01*
%TO.C,U1*%
X775843095Y-93007380D02*
X775843095Y-93816904D01*
X775890714Y-93912142D01*
X775938333Y-93959761D01*
X776033571Y-94007380D01*
X776224047Y-94007380D01*
X776319285Y-93959761D01*
X776366904Y-93912142D01*
X776414523Y-93816904D01*
X776414523Y-93007380D01*
X777414523Y-94007380D02*
X776843095Y-94007380D01*
X777128809Y-94007380D02*
X777128809Y-93007380D01*
X777033571Y-93150238D01*
X776938333Y-93245476D01*
X776843095Y-93293095D01*
%TO.C,U2*%
X776224095Y-81240380D02*
X776224095Y-82049904D01*
X776271714Y-82145142D01*
X776319333Y-82192761D01*
X776414571Y-82240380D01*
X776605047Y-82240380D01*
X776700285Y-82192761D01*
X776747904Y-82145142D01*
X776795523Y-82049904D01*
X776795523Y-81240380D01*
X777224095Y-81335619D02*
X777271714Y-81288000D01*
X777366952Y-81240380D01*
X777605047Y-81240380D01*
X777700285Y-81288000D01*
X777747904Y-81335619D01*
X777795523Y-81430857D01*
X777795523Y-81526095D01*
X777747904Y-81668952D01*
X777176476Y-82240380D01*
X777795523Y-82240380D01*
%TO.C,U3*%
X775970095Y-124928380D02*
X775970095Y-125737904D01*
X776017714Y-125833142D01*
X776065333Y-125880761D01*
X776160571Y-125928380D01*
X776351047Y-125928380D01*
X776446285Y-125880761D01*
X776493904Y-125833142D01*
X776541523Y-125737904D01*
X776541523Y-124928380D01*
X776922476Y-124928380D02*
X777541523Y-124928380D01*
X777208190Y-125309333D01*
X777351047Y-125309333D01*
X777446285Y-125356952D01*
X777493904Y-125404571D01*
X777541523Y-125499809D01*
X777541523Y-125737904D01*
X777493904Y-125833142D01*
X777446285Y-125880761D01*
X777351047Y-125928380D01*
X777065333Y-125928380D01*
X776970095Y-125880761D01*
X776922476Y-125833142D01*
%TO.C,U4*%
X811784095Y-51986380D02*
X811784095Y-52795904D01*
X811831714Y-52891142D01*
X811879333Y-52938761D01*
X811974571Y-52986380D01*
X812165047Y-52986380D01*
X812260285Y-52938761D01*
X812307904Y-52891142D01*
X812355523Y-52795904D01*
X812355523Y-51986380D01*
X813260285Y-52319714D02*
X813260285Y-52986380D01*
X813022190Y-51938761D02*
X812784095Y-52653047D01*
X813403142Y-52653047D01*
%TO.C,U6*%
X813181095Y-101135380D02*
X813181095Y-101944904D01*
X813228714Y-102040142D01*
X813276333Y-102087761D01*
X813371571Y-102135380D01*
X813562047Y-102135380D01*
X813657285Y-102087761D01*
X813704904Y-102040142D01*
X813752523Y-101944904D01*
X813752523Y-101135380D01*
X814657285Y-101135380D02*
X814466809Y-101135380D01*
X814371571Y-101183000D01*
X814323952Y-101230619D01*
X814228714Y-101373476D01*
X814181095Y-101563952D01*
X814181095Y-101944904D01*
X814228714Y-102040142D01*
X814276333Y-102087761D01*
X814371571Y-102135380D01*
X814562047Y-102135380D01*
X814657285Y-102087761D01*
X814704904Y-102040142D01*
X814752523Y-101944904D01*
X814752523Y-101706809D01*
X814704904Y-101611571D01*
X814657285Y-101563952D01*
X814562047Y-101516333D01*
X814371571Y-101516333D01*
X814276333Y-101563952D01*
X814228714Y-101611571D01*
X814181095Y-101706809D01*
%TO.C,U7*%
X775462095Y-61272380D02*
X775462095Y-62081904D01*
X775509714Y-62177142D01*
X775557333Y-62224761D01*
X775652571Y-62272380D01*
X775843047Y-62272380D01*
X775938285Y-62224761D01*
X775985904Y-62177142D01*
X776033523Y-62081904D01*
X776033523Y-61272380D01*
X776414476Y-61272380D02*
X777081142Y-61272380D01*
X776652571Y-62272380D01*
%TO.C,ERROR*%
X786939904Y-105592571D02*
X787273238Y-105592571D01*
X787416095Y-106116380D02*
X786939904Y-106116380D01*
X786939904Y-105116380D01*
X787416095Y-105116380D01*
X788416095Y-106116380D02*
X788082761Y-105640190D01*
X787844666Y-106116380D02*
X787844666Y-105116380D01*
X788225619Y-105116380D01*
X788320857Y-105164000D01*
X788368476Y-105211619D01*
X788416095Y-105306857D01*
X788416095Y-105449714D01*
X788368476Y-105544952D01*
X788320857Y-105592571D01*
X788225619Y-105640190D01*
X787844666Y-105640190D01*
X789416095Y-106116380D02*
X789082761Y-105640190D01*
X788844666Y-106116380D02*
X788844666Y-105116380D01*
X789225619Y-105116380D01*
X789320857Y-105164000D01*
X789368476Y-105211619D01*
X789416095Y-105306857D01*
X789416095Y-105449714D01*
X789368476Y-105544952D01*
X789320857Y-105592571D01*
X789225619Y-105640190D01*
X788844666Y-105640190D01*
X790035142Y-105116380D02*
X790225619Y-105116380D01*
X790320857Y-105164000D01*
X790416095Y-105259238D01*
X790463714Y-105449714D01*
X790463714Y-105783047D01*
X790416095Y-105973523D01*
X790320857Y-106068761D01*
X790225619Y-106116380D01*
X790035142Y-106116380D01*
X789939904Y-106068761D01*
X789844666Y-105973523D01*
X789797047Y-105783047D01*
X789797047Y-105449714D01*
X789844666Y-105259238D01*
X789939904Y-105164000D01*
X790035142Y-105116380D01*
X791463714Y-106116380D02*
X791130380Y-105640190D01*
X790892285Y-106116380D02*
X790892285Y-105116380D01*
X791273238Y-105116380D01*
X791368476Y-105164000D01*
X791416095Y-105211619D01*
X791463714Y-105306857D01*
X791463714Y-105449714D01*
X791416095Y-105544952D01*
X791368476Y-105592571D01*
X791273238Y-105640190D01*
X790892285Y-105640190D01*
%TO.C,INTEGRAL*%
X780907523Y-82240380D02*
X780907523Y-81240380D01*
X781383714Y-82240380D02*
X781383714Y-81240380D01*
X781955142Y-82240380D01*
X781955142Y-81240380D01*
X782288476Y-81240380D02*
X782859904Y-81240380D01*
X782574190Y-82240380D02*
X782574190Y-81240380D01*
X783193238Y-81716571D02*
X783526571Y-81716571D01*
X783669428Y-82240380D02*
X783193238Y-82240380D01*
X783193238Y-81240380D01*
X783669428Y-81240380D01*
X784621809Y-81288000D02*
X784526571Y-81240380D01*
X784383714Y-81240380D01*
X784240857Y-81288000D01*
X784145619Y-81383238D01*
X784098000Y-81478476D01*
X784050380Y-81668952D01*
X784050380Y-81811809D01*
X784098000Y-82002285D01*
X784145619Y-82097523D01*
X784240857Y-82192761D01*
X784383714Y-82240380D01*
X784478952Y-82240380D01*
X784621809Y-82192761D01*
X784669428Y-82145142D01*
X784669428Y-81811809D01*
X784478952Y-81811809D01*
X785669428Y-82240380D02*
X785336095Y-81764190D01*
X785098000Y-82240380D02*
X785098000Y-81240380D01*
X785478952Y-81240380D01*
X785574190Y-81288000D01*
X785621809Y-81335619D01*
X785669428Y-81430857D01*
X785669428Y-81573714D01*
X785621809Y-81668952D01*
X785574190Y-81716571D01*
X785478952Y-81764190D01*
X785098000Y-81764190D01*
X786050380Y-81954666D02*
X786526571Y-81954666D01*
X785955142Y-82240380D02*
X786288476Y-81240380D01*
X786621809Y-82240380D01*
X787431333Y-82240380D02*
X786955142Y-82240380D01*
X786955142Y-81240380D01*
%TO.C,PROP*%
X786122285Y-119324380D02*
X786122285Y-118324380D01*
X786503238Y-118324380D01*
X786598476Y-118372000D01*
X786646095Y-118419619D01*
X786693714Y-118514857D01*
X786693714Y-118657714D01*
X786646095Y-118752952D01*
X786598476Y-118800571D01*
X786503238Y-118848190D01*
X786122285Y-118848190D01*
X787693714Y-119324380D02*
X787360380Y-118848190D01*
X787122285Y-119324380D02*
X787122285Y-118324380D01*
X787503238Y-118324380D01*
X787598476Y-118372000D01*
X787646095Y-118419619D01*
X787693714Y-118514857D01*
X787693714Y-118657714D01*
X787646095Y-118752952D01*
X787598476Y-118800571D01*
X787503238Y-118848190D01*
X787122285Y-118848190D01*
X788312761Y-118324380D02*
X788503238Y-118324380D01*
X788598476Y-118372000D01*
X788693714Y-118467238D01*
X788741333Y-118657714D01*
X788741333Y-118991047D01*
X788693714Y-119181523D01*
X788598476Y-119276761D01*
X788503238Y-119324380D01*
X788312761Y-119324380D01*
X788217523Y-119276761D01*
X788122285Y-119181523D01*
X788074666Y-118991047D01*
X788074666Y-118657714D01*
X788122285Y-118467238D01*
X788217523Y-118372000D01*
X788312761Y-118324380D01*
X789169904Y-119324380D02*
X789169904Y-118324380D01*
X789550857Y-118324380D01*
X789646095Y-118372000D01*
X789693714Y-118419619D01*
X789741333Y-118514857D01*
X789741333Y-118657714D01*
X789693714Y-118752952D01*
X789646095Y-118800571D01*
X789550857Y-118848190D01*
X789169904Y-118848190D01*
%TO.C,SUM*%
X820055047Y-62888761D02*
X820197904Y-62936380D01*
X820436000Y-62936380D01*
X820531238Y-62888761D01*
X820578857Y-62841142D01*
X820626476Y-62745904D01*
X820626476Y-62650666D01*
X820578857Y-62555428D01*
X820531238Y-62507809D01*
X820436000Y-62460190D01*
X820245523Y-62412571D01*
X820150285Y-62364952D01*
X820102666Y-62317333D01*
X820055047Y-62222095D01*
X820055047Y-62126857D01*
X820102666Y-62031619D01*
X820150285Y-61984000D01*
X820245523Y-61936380D01*
X820483619Y-61936380D01*
X820626476Y-61984000D01*
X821055047Y-61936380D02*
X821055047Y-62745904D01*
X821102666Y-62841142D01*
X821150285Y-62888761D01*
X821245523Y-62936380D01*
X821436000Y-62936380D01*
X821531238Y-62888761D01*
X821578857Y-62841142D01*
X821626476Y-62745904D01*
X821626476Y-61936380D01*
X822102666Y-62936380D02*
X822102666Y-61936380D01*
X822436000Y-62650666D01*
X822769333Y-61936380D01*
X822769333Y-62936380D01*
%TO.C,ULIMIT*%
X817030952Y-97242380D02*
X817030952Y-98051904D01*
X817078571Y-98147142D01*
X817126190Y-98194761D01*
X817221428Y-98242380D01*
X817411904Y-98242380D01*
X817507142Y-98194761D01*
X817554761Y-98147142D01*
X817602380Y-98051904D01*
X817602380Y-97242380D01*
X818554761Y-98242380D02*
X818078571Y-98242380D01*
X818078571Y-97242380D01*
X818888095Y-98242380D02*
X818888095Y-97242380D01*
X819364285Y-98242380D02*
X819364285Y-97242380D01*
X819697619Y-97956666D01*
X820030952Y-97242380D01*
X820030952Y-98242380D01*
X820507142Y-98242380D02*
X820507142Y-97242380D01*
X820840476Y-97242380D02*
X821411904Y-97242380D01*
X821126190Y-98242380D02*
X821126190Y-97242380D01*
%TO.C,LLIMIT*%
X812165190Y-90317380D02*
X811689000Y-90317380D01*
X811689000Y-89317380D01*
X812974714Y-90317380D02*
X812498523Y-90317380D01*
X812498523Y-89317380D01*
X813308047Y-90317380D02*
X813308047Y-89317380D01*
X813784238Y-90317380D02*
X813784238Y-89317380D01*
X814117571Y-90031666D01*
X814450904Y-89317380D01*
X814450904Y-90317380D01*
X814927095Y-90317380D02*
X814927095Y-89317380D01*
X815260428Y-89317380D02*
X815831857Y-89317380D01*
X815546142Y-90317380D02*
X815546142Y-89317380D01*
%TD*%
M02*
