M48
; DRILL file {KiCad 6.0.11-2627ca5db0~126~ubuntu20.04.1} date Mon 11 Sep 2023 19:10:06
; FORMAT={-:-/ absolute / inch / decimal}
; #@! TF.CreationDate,2023-09-11T19:10:06-06:00
; #@! TF.GenerationSoftware,Kicad,Pcbnew,6.0.11-2627ca5db0~126~ubuntu20.04.1
; #@! TF.FileFunction,Plated,1,2,PTH
FMAT,2
INCH
; #@! TA.AperFunction,Plated,PTH,ViaDrill
T1C0.0157
; #@! TA.AperFunction,Plated,PTH,ComponentDrill
T2C0.0197
; #@! TA.AperFunction,Plated,PTH,ViaDrill
T3C0.0295
; #@! TA.AperFunction,Plated,PTH,ComponentDrill
T4C0.0315
; #@! TA.AperFunction,Plated,PTH,ComponentDrill
T5C0.0350
; #@! TA.AperFunction,Plated,PTH,ComponentDrill
T6C0.0354
; #@! TA.AperFunction,Plated,PTH,ViaDrill
T7C0.0394
; #@! TA.AperFunction,Plated,PTH,ComponentDrill
T8C0.0394
; #@! TA.AperFunction,Plated,PTH,ComponentDrill
T9C0.0598
; #@! TA.AperFunction,Plated,PTH,ComponentDrill
T10C0.0791
%
G90
G05
T1
X30.65Y-5.08
X30.91Y-3.645
T2
X30.91Y-3.155
X30.92Y-4.165
X31.07Y-4.75
X32.035Y-3.595
X32.315Y-2.57
X32.38Y-3.85
T3
X30.105Y-2.19
X30.325Y-4.39
X30.33Y-3.46
X30.5412Y-2.3428
X30.605Y-1.91
X30.67Y-2.725
X30.675Y-2.57
X30.725Y-1.63
X30.735Y-4.21
X30.77Y-2.275
X30.855Y-4.745
X30.885Y-1.74
X30.915Y-2.68
X31.03Y-3.125
X31.62Y-2.655
X31.835Y-3.81
X31.895Y-4.8
X31.9169Y-2.3831
X32.06Y-1.98
X32.07Y-2.19
X32.14Y-1.81
X32.19Y-3.23
X32.365Y-3.985
X32.725Y-3.705
T4
X30.42Y-4.545
X30.42Y-4.645
X30.42Y-4.745
X30.42Y-4.845
X30.425Y-2.825
X30.425Y-2.925
X30.425Y-3.025
X30.425Y-3.125
X30.425Y-3.775
X30.425Y-3.875
X30.425Y-3.975
X30.425Y-4.075
X30.72Y-4.545
X30.72Y-4.645
X30.72Y-4.745
X30.72Y-4.845
X30.725Y-2.825
X30.725Y-2.925
X30.725Y-3.025
X30.725Y-3.125
X30.725Y-3.775
X30.725Y-3.875
X30.725Y-3.975
X30.725Y-4.075
X30.92Y-5.01
X31.02Y-5.01
X31.12Y-5.01
X31.6Y-3.305
X31.6Y-3.405
X31.6Y-3.505
X31.725Y-1.785
X31.725Y-1.885
X31.725Y-1.985
X31.835Y-3.405
X31.84Y-2.16
X31.84Y-2.26
X31.84Y-2.36
X31.84Y-2.46
X31.895Y-4.095
X31.895Y-4.195
X31.895Y-4.295
X31.895Y-4.395
X32.135Y-3.405
X32.14Y-2.16
X32.14Y-2.26
X32.14Y-2.36
X32.14Y-2.46
X32.195Y-4.095
X32.195Y-4.195
X32.195Y-4.295
X32.195Y-4.395
X32.385Y-3.405
X32.385Y-3.705
X32.595Y-3.17
X32.595Y-3.27
X32.595Y-3.37
T5
X29.9Y-2.4
X29.9Y-2.5
X29.9Y-3.4
X29.9Y-3.5
X29.9Y-4.4
X29.9Y-4.5
X32.7Y-4.195
X32.7Y-4.295
T6
X30.6098Y-1.07
X30.7098Y-1.07
T7
X30.66Y-2.155
X31.9025Y-1.5475
T8
X30.17Y-1.1072
X30.17Y-1.3041
X30.17Y-1.5964
X30.17Y-1.7932
X30.61Y-1.3564
X30.61Y-1.5532
X31.15Y-2.58
X31.15Y-2.93
X31.15Y-3.145
X31.15Y-3.495
X31.44Y-1.785
X31.44Y-2.135
T9
X29.55Y-1.4
X29.55Y-1.6
X29.55Y-1.8
T10
X29.7Y-2.2
X29.7Y-2.6
X29.7Y-3.2
X29.7Y-3.6
X29.7Y-4.2
X29.7Y-4.6
X32.9Y-4.095
X32.9Y-4.495
T0
M30
