%TF.GenerationSoftware,KiCad,Pcbnew,6.0.11-2627ca5db0~126~ubuntu20.04.1*%
%TF.CreationDate,2023-09-11T19:10:09-06:00*%
%TF.ProjectId,LaserPID,4c617365-7250-4494-942e-6b696361645f,rev?*%
%TF.SameCoordinates,Original*%
%TF.FileFunction,Soldermask,Top*%
%TF.FilePolarity,Negative*%
%FSLAX46Y46*%
G04 Gerber Fmt 4.6, Leading zero omitted, Abs format (unit mm)*
G04 Created by KiCad (PCBNEW 6.0.11-2627ca5db0~126~ubuntu20.04.1) date 2023-09-11 19:10:09*
%MOMM*%
%LPD*%
G01*
G04 APERTURE LIST*
G04 Aperture macros list*
%AMRoundRect*
0 Rectangle with rounded corners*
0 $1 Rounding radius*
0 $2 $3 $4 $5 $6 $7 $8 $9 X,Y pos of 4 corners*
0 Add a 4 corners polygon primitive as box body*
4,1,4,$2,$3,$4,$5,$6,$7,$8,$9,$2,$3,0*
0 Add four circle primitives for the rounded corners*
1,1,$1+$1,$2,$3*
1,1,$1+$1,$4,$5*
1,1,$1+$1,$6,$7*
1,1,$1+$1,$8,$9*
0 Add four rect primitives between the rounded corners*
20,1,$1+$1,$2,$3,$4,$5,0*
20,1,$1+$1,$4,$5,$6,$7,0*
20,1,$1+$1,$6,$7,$8,$9,0*
20,1,$1+$1,$8,$9,$2,$3,0*%
%AMFreePoly0*
4,1,184,3.601211,1.949996,3.607320,1.949959,3.636881,1.947581,3.655888,1.944621,3.675125,1.944504,3.731209,1.936123,3.753730,1.929388,3.776958,1.925771,3.831181,1.909193,3.848596,1.901017,3.867033,1.895503,3.918507,1.871718,3.938232,1.858933,3.959508,1.848944,4.006904,1.817811,4.021321,1.805078,4.037470,1.794611,4.080202,1.757333,4.095547,1.739524,4.113162,1.723967,
4.149915,1.680782,4.160181,1.664512,4.172739,1.649937,4.203291,1.602165,4.213022,1.580762,4.225562,1.560888,4.248717,1.509125,4.254004,1.490627,4.261967,1.473113,4.277883,1.418684,4.281215,1.395419,4.287674,1.372819,4.295370,1.316638,4.295253,1.297397,4.297980,1.278351,4.300000,1.250000,4.300000,-1.250000,4.299996,-1.251211,4.299959,-1.257320,4.297581,-1.286881,
4.294621,-1.305888,4.294504,-1.325125,4.286123,-1.381209,4.279388,-1.403730,4.275771,-1.426958,4.259193,-1.481181,4.251017,-1.498596,4.245503,-1.517033,4.221718,-1.568507,4.208933,-1.588232,4.198944,-1.609508,4.167811,-1.656904,4.155078,-1.671321,4.144611,-1.687470,4.107333,-1.730202,4.089524,-1.745547,4.073967,-1.763162,4.030782,-1.799915,4.014512,-1.810181,3.999937,-1.822739,
3.952165,-1.853291,3.930762,-1.863022,3.910888,-1.875562,3.859125,-1.898717,3.840627,-1.904004,3.823113,-1.911967,3.768684,-1.927883,3.745419,-1.931215,3.722819,-1.937674,3.666638,-1.945370,3.647397,-1.945253,3.628351,-1.947980,3.600000,-1.950000,1.500000,-1.950000,1.498789,-1.949996,1.492680,-1.949959,1.463119,-1.947581,1.444112,-1.944621,1.424875,-1.944504,1.368791,-1.936123,
1.346270,-1.929388,1.323042,-1.925771,1.268819,-1.909193,1.251404,-1.901017,1.232967,-1.895503,1.181493,-1.871718,1.161768,-1.858933,1.140492,-1.848944,1.093096,-1.817811,1.078679,-1.805078,1.062530,-1.794611,1.019798,-1.757333,1.004453,-1.739524,0.986838,-1.723967,0.950085,-1.680782,0.939819,-1.664512,0.927261,-1.649937,0.896709,-1.602165,0.886978,-1.580762,0.874438,-1.560888,
0.851283,-1.509125,0.845996,-1.490627,0.839431,-1.476188,0.635303,-1.576189,0.604787,-1.588149,0.369340,-1.658786,0.337281,-1.665600,0.093457,-1.696835,0.060715,-1.698322,-0.184935,-1.689314,-0.217479,-1.685433,-0.458360,-1.636426,-0.489835,-1.627282,-0.719477,-1.539590,-0.749035,-1.525428,-0.961271,-1.401407,-0.988119,-1.382608,-1.177249,-1.225589,-1.200666,-1.202657,-1.361611,-1.016857,
-1.380968,-0.990409,-1.509407,-0.780816,-1.524185,-0.751560,-1.616666,-0.523805,-1.626467,-0.492531,-1.680509,-0.252730,-1.685070,-0.220273,-1.699220,0.025135,-1.698420,0.057901,-1.672299,0.302325,-1.666157,0.334519,-1.600466,0.571394,-1.589149,0.602155,-1.485651,0.825121,-1.469462,0.853618,-1.330939,1.056686,-1.310312,1.082158,-1.140482,1.259874,-1.115973,1.281634,-0.919398,1.429227,
-0.891664,1.446692,-0.673623,1.560197,-0.643408,1.572898,-0.409757,1.649267,-0.377874,1.656863,-0.134887,1.694045,-0.102192,1.696331,0.143605,1.693328,0.176235,1.690244,0.418242,1.647136,0.449930,1.638763,0.681646,1.556708,0.711542,1.543273,0.838383,1.473253,0.840807,1.481181,0.848983,1.498596,0.854497,1.517033,0.878282,1.568507,0.891067,1.588232,0.901056,1.609508,
0.932189,1.656904,0.944922,1.671321,0.955389,1.687470,0.992667,1.730202,1.010476,1.745547,1.026033,1.763162,1.069218,1.799915,1.085488,1.810181,1.100063,1.822739,1.147835,1.853291,1.169238,1.863022,1.189112,1.875562,1.240875,1.898717,1.259373,1.904004,1.276887,1.911967,1.331316,1.927883,1.354581,1.931215,1.377181,1.937674,1.433362,1.945370,1.452603,1.945253,
1.471649,1.947980,1.500000,1.950000,3.600000,1.950000,3.601211,1.949996,3.601211,1.949996,$1*%
G04 Aperture macros list end*
%ADD10RoundRect,0.200000X1.000000X-1.000000X1.000000X1.000000X-1.000000X1.000000X-1.000000X-1.000000X0*%
%ADD11C,2.400000*%
%ADD12RoundRect,0.200000X-1.000000X1.000000X-1.000000X-1.000000X1.000000X-1.000000X1.000000X1.000000X0*%
%ADD13FreePoly0,90.000000*%
%ADD14FreePoly0,270.000000*%
%ADD15RoundRect,0.449999X0.650001X-0.412501X0.650001X0.412501X-0.650001X0.412501X-0.650001X-0.412501X0*%
%ADD16RoundRect,0.449999X-0.650001X0.412501X-0.650001X-0.412501X0.650001X-0.412501X0.650001X0.412501X0*%
%ADD17RoundRect,0.449999X0.412501X0.650001X-0.412501X0.650001X-0.412501X-0.650001X0.412501X-0.650001X0*%
%ADD18RoundRect,0.449999X-0.412501X-0.650001X0.412501X-0.650001X0.412501X0.650001X-0.412501X0.650001X0*%
%ADD19RoundRect,0.200000X-0.900000X-0.900000X0.900000X-0.900000X0.900000X0.900000X-0.900000X0.900000X0*%
%ADD20C,2.200000*%
%ADD21RoundRect,0.200000X1.500000X-1.500000X1.500000X1.500000X-1.500000X1.500000X-1.500000X-1.500000X0*%
%ADD22C,3.400000*%
%ADD23O,2.900000X2.000000*%
%ADD24O,7.400000X3.900000*%
%ADD25RoundRect,0.450000X-0.400000X-0.625000X0.400000X-0.625000X0.400000X0.625000X-0.400000X0.625000X0*%
%ADD26RoundRect,0.450000X0.400000X0.625000X-0.400000X0.625000X-0.400000X-0.625000X0.400000X-0.625000X0*%
%ADD27RoundRect,0.450000X0.625000X-0.400000X0.625000X0.400000X-0.625000X0.400000X-0.625000X-0.400000X0*%
%ADD28RoundRect,0.450000X-0.625000X0.400000X-0.625000X-0.400000X0.625000X-0.400000X0.625000X0.400000X0*%
%ADD29C,1.840000*%
%ADD30RoundRect,0.200000X-0.800000X-0.800000X0.800000X-0.800000X0.800000X0.800000X-0.800000X0.800000X0*%
%ADD31O,2.000000X2.000000*%
%ADD32RoundRect,0.350000X0.825000X0.150000X-0.825000X0.150000X-0.825000X-0.150000X0.825000X-0.150000X0*%
%ADD33C,1.400000*%
%ADD34RoundRect,0.200000X0.800000X-0.800000X0.800000X0.800000X-0.800000X0.800000X-0.800000X-0.800000X0*%
%ADD35C,4.700000*%
%ADD36RoundRect,0.200000X0.800000X0.800000X-0.800000X0.800000X-0.800000X-0.800000X0.800000X-0.800000X0*%
%ADD37RoundRect,0.450001X0.462499X0.624999X-0.462499X0.624999X-0.462499X-0.624999X0.462499X-0.624999X0*%
%ADD38RoundRect,0.450001X-0.462499X-0.624999X0.462499X-0.624999X0.462499X0.624999X-0.462499X0.624999X0*%
G04 APERTURE END LIST*
D10*
%TO.C,C1*%
X766318000Y-45547677D03*
D11*
X766318000Y-40547677D03*
%TD*%
D12*
%TO.C,C2*%
X766318000Y-28122969D03*
D11*
X766318000Y-33122969D03*
%TD*%
D10*
%TO.C,C3*%
X777494000Y-39451677D03*
D11*
X777494000Y-34451677D03*
%TD*%
D13*
%TO.C,C6*%
X791210000Y-74422000D03*
D14*
X791210000Y-65532000D03*
%TD*%
D15*
%TO.C,C7*%
X772668000Y-85890500D03*
X772668000Y-82765500D03*
%TD*%
D16*
%TO.C,C8*%
X785241000Y-71170000D03*
X785241000Y-74295000D03*
%TD*%
D17*
%TO.C,C9*%
X775793000Y-129032000D03*
X772668000Y-129032000D03*
%TD*%
D16*
%TO.C,C10*%
X780669000Y-109181500D03*
X780669000Y-112306500D03*
%TD*%
D18*
%TO.C,C11*%
X805522500Y-67437000D03*
X808647500Y-67437000D03*
%TD*%
D16*
%TO.C,C12*%
X816356000Y-48437000D03*
X816356000Y-51562000D03*
%TD*%
D13*
%TO.C,C13*%
X798576000Y-54229000D03*
D14*
X798576000Y-45339000D03*
%TD*%
D15*
%TO.C,C16*%
X810133000Y-119126000D03*
X810133000Y-116001000D03*
%TD*%
D17*
%TO.C,C18*%
X828752000Y-94107000D03*
X825627000Y-94107000D03*
%TD*%
D16*
%TO.C,C20*%
X780415000Y-44119000D03*
X780415000Y-47244000D03*
%TD*%
D19*
%TO.C,D3*%
X777489000Y-27178000D03*
D20*
X780029000Y-27178000D03*
%TD*%
D21*
%TO.C,P1*%
X750570000Y-45720000D03*
D22*
X750570000Y-40640000D03*
X750570000Y-35560000D03*
%TD*%
D23*
%TO.C,IN2*%
X759460000Y-111760000D03*
D24*
X754380000Y-106680000D03*
D23*
X759460000Y-114300000D03*
D24*
X754380000Y-116840000D03*
%TD*%
D23*
%TO.C,OUT*%
X830580000Y-109093000D03*
D24*
X835660000Y-104013000D03*
X835660000Y-114173000D03*
D23*
X830580000Y-106553000D03*
%TD*%
D25*
%TO.C,R1*%
X797381000Y-74549000D03*
X800481000Y-74549000D03*
%TD*%
D26*
%TO.C,R2*%
X800481000Y-79629000D03*
X797381000Y-79629000D03*
%TD*%
D14*
%TO.C,R6*%
X791210000Y-79883000D03*
D13*
X791210000Y-88773000D03*
%TD*%
D26*
%TO.C,R7*%
X770561000Y-60960000D03*
X767461000Y-60960000D03*
%TD*%
D27*
%TO.C,R8*%
X821081000Y-80189000D03*
X821081000Y-77089000D03*
%TD*%
D25*
%TO.C,R9*%
X777315000Y-51054000D03*
X780415000Y-51054000D03*
%TD*%
D28*
%TO.C,R10*%
X784479000Y-47954000D03*
X784479000Y-51054000D03*
%TD*%
D27*
%TO.C,R12*%
X773811000Y-66447000D03*
X773811000Y-63347000D03*
%TD*%
D26*
%TO.C,R13*%
X770509000Y-55499000D03*
X767409000Y-55499000D03*
%TD*%
D29*
%TO.C,RVGAIN1*%
X805815000Y-45339000D03*
X805815000Y-47879000D03*
X805815000Y-50419000D03*
%TD*%
%TO.C,RVLIM1*%
X827913000Y-85598000D03*
X827913000Y-83058000D03*
X827913000Y-80518000D03*
%TD*%
D30*
%TO.C,U2*%
X772795000Y-71755000D03*
D31*
X772795000Y-74295000D03*
X772795000Y-76835000D03*
X772795000Y-79375000D03*
X780415000Y-79375000D03*
X780415000Y-76835000D03*
X780415000Y-74295000D03*
X780415000Y-71755000D03*
%TD*%
D30*
%TO.C,U3*%
X772668000Y-115443000D03*
D31*
X772668000Y-117983000D03*
X772668000Y-120523000D03*
X772668000Y-123063000D03*
X780288000Y-123063000D03*
X780288000Y-120523000D03*
X780288000Y-117983000D03*
X780288000Y-115443000D03*
%TD*%
D30*
%TO.C,U4*%
X808736000Y-54864000D03*
D31*
X808736000Y-57404000D03*
X808736000Y-59944000D03*
X808736000Y-62484000D03*
X816356000Y-62484000D03*
X816356000Y-59944000D03*
X816356000Y-57404000D03*
X816356000Y-54864000D03*
%TD*%
D30*
%TO.C,U6*%
X810133000Y-104013000D03*
D31*
X810133000Y-106553000D03*
X810133000Y-109093000D03*
X810133000Y-111633000D03*
X817753000Y-111633000D03*
X817753000Y-109093000D03*
X817753000Y-106553000D03*
X817753000Y-104013000D03*
%TD*%
D32*
%TO.C,U7*%
X778699000Y-60325000D03*
X778699000Y-59055000D03*
X778699000Y-57785000D03*
X778699000Y-56515000D03*
X773749000Y-56515000D03*
X773749000Y-57785000D03*
X773749000Y-59055000D03*
X773749000Y-60325000D03*
%TD*%
D33*
%TO.C,ERROR*%
X785368000Y-105791000D03*
%TD*%
%TO.C,INT*%
X785114000Y-80137000D03*
%TD*%
%TO.C,PROP*%
X789178000Y-120650000D03*
%TD*%
%TO.C,SUM*%
X820801000Y-65278000D03*
%TD*%
%TO.C,ULIMIT*%
X822452000Y-97790000D03*
%TD*%
D27*
%TO.C,R5*%
X785368000Y-39396000D03*
X785368000Y-36296000D03*
%TD*%
D34*
%TO.C,D1*%
X822579000Y-94107000D03*
D31*
X822579000Y-86487000D03*
%TD*%
D23*
%TO.C,IN1*%
X759460000Y-86360000D03*
D24*
X754380000Y-81280000D03*
D23*
X759460000Y-88900000D03*
D24*
X754380000Y-91440000D03*
%TD*%
D35*
%TO.C,REF\u002A\u002A*%
X751840000Y-130810000D03*
%TD*%
%TO.C,REF\u002A\u002A*%
X751840000Y-24130000D03*
%TD*%
D23*
%TO.C,RST*%
X759460000Y-60960000D03*
X759460000Y-63500000D03*
D24*
X754380000Y-55880000D03*
X754380000Y-66040000D03*
%TD*%
D35*
%TO.C,REF\u002A\u002A*%
X838200000Y-24130000D03*
%TD*%
D16*
%TO.C,C5*%
X785114000Y-95300000D03*
X785114000Y-98425000D03*
%TD*%
D15*
%TO.C,C4*%
X772668000Y-111075000D03*
X772668000Y-107950000D03*
%TD*%
D30*
%TO.C,U1*%
X772795000Y-95885000D03*
D31*
X772795000Y-98425000D03*
X772795000Y-100965000D03*
X772795000Y-103505000D03*
X780415000Y-103505000D03*
X780415000Y-100965000D03*
X780415000Y-98425000D03*
X780415000Y-95885000D03*
%TD*%
D27*
%TO.C,R11*%
X781812000Y-66447000D03*
X781812000Y-63347000D03*
%TD*%
D16*
%TO.C,C17*%
X822071000Y-103466500D03*
X822071000Y-106591500D03*
%TD*%
D29*
%TO.C,RVPROP1*%
X785368000Y-127254000D03*
X787908000Y-127254000D03*
X790448000Y-127254000D03*
%TD*%
D36*
%TO.C,D2*%
X816229000Y-86487000D03*
D31*
X808609000Y-86487000D03*
%TD*%
D15*
%TO.C,C19*%
X808609000Y-94438000D03*
X808609000Y-91313000D03*
%TD*%
D29*
%TO.C,RVLIM2*%
X802640000Y-83947000D03*
X802640000Y-86487000D03*
X802640000Y-89027000D03*
%TD*%
D33*
%TO.C,LLIMIT*%
X813689000Y-91313000D03*
%TD*%
D35*
%TO.C,REF\u002A\u002A*%
X838200000Y-130810000D03*
%TD*%
D37*
%TO.C,D4*%
X759387000Y-45720000D03*
X756412000Y-45720000D03*
%TD*%
D38*
%TO.C,D5*%
X756561000Y-35560000D03*
X759536000Y-35560000D03*
%TD*%
M02*
